<?xml version="1.0" encoding="UTF-8"?>
<svg width="395px" height="465px" viewBox="0 0 395 465" version="1.1" xmlns="http://www.w3.org/2000/svg" xmlns:xlink="http://www.w3.org/1999/xlink">
    <!-- Generator: Sketch 58 (84663) - https://sketch.com -->
    <title>Group 33</title>
    <desc>Created with Sketch.</desc>
    <g id="Design" stroke="none" stroke-width="1" fill="none" fill-rule="evenodd">
        <g id="My-Sunshine-Landing-v1" transform="translate(-42.000000, -1623.000000)" fill="#185FEC">
            <g id="Group-7" transform="translate(38.000000, 1560.000000)">
                <g id="Group-33" transform="translate(0.568153, 40.715151)">
                    <g id="Group-32" transform="translate(82.000000, 0.000000)">
                        <path d="M126.305971,116.548571 C163.518971,130.527571 182.352971,172.026571 168.374971,209.239571 C154.394971,246.451571 112.895971,265.285571 75.6839709,251.306571 C38.4709709,237.327571 19.6379709,195.828571 33.6169709,158.616571 C47.5959709,121.404571 89.0949709,102.569571 126.305971,116.548571 Z" id="Fill-8" transform="translate(100.995640, 183.927635) rotate(-54.000000) translate(-100.995640, -183.927635) "></path>
                        <path d="M280.084707,26.5729168 C308.879707,37.3899168 323.453707,69.5019168 312.636707,98.2969168 C301.819707,127.092917 269.707707,141.666917 240.912707,130.849917 C212.116707,120.031917 197.542707,87.9199168 208.359707,59.1249168 C219.176707,30.3299168 251.289707,15.7549168 280.084707,26.5729168 Z" id="Fill-10" transform="translate(260.498212, 78.711209) rotate(-54.000000) translate(-260.498212, -78.711209) "></path>
                        <path d="M177.019734,98.3303425 C182.915734,114.728342 220.752734,128.751342 249.017734,118.367342 C277.281734,107.983342 296.631734,168.792342 296.631734,168.792342 L253.928734,217.282342 C253.928734,217.282342 218.376734,193.999342 186.989734,190.717342 C155.601734,187.436342 100.474734,177.313342 72.7477338,166.745342 C45.0187338,156.177342 158.478734,60.2473425 158.478734,60.2473425 C158.478734,60.2473425 171.124734,81.9333425 177.019734,98.3303425 Z" id="Fill-12" transform="translate(182.507351, 138.764842) rotate(-54.000000) translate(-182.507351, -138.764842) "></path>
                    </g>
                    <path d="M125.547637,335.085498 C126.734637,337.596498 128.305637,340.740498 129.704637,343.959498 C130.353637,345.449498 130.031637,346.927498 128.961637,348.265498 C128.588637,348.731498 128.493637,349.497498 128.456637,350.137498 C128.398637,351.120498 128.261637,351.710498 127.001637,351.726498 C125.075637,351.749498 123.189637,352.020498 121.397637,352.987498 C119.644637,353.935498 116.991637,352.939498 115.629637,351.519498 C113.795637,349.607498 111.717637,347.933498 109.797637,346.102498 C109.344637,345.670498 108.922637,345.058498 108.792637,344.461498 C108.128637,341.418498 107.565637,338.353498 106.969637,335.295498 C106.935637,335.119498 106.846637,334.870498 106.926637,334.768498 C108.074637,333.298498 108.975637,331.388498 110.477637,330.498498 C112.890637,329.068498 115.647637,328.511498 118.657637,328.844498 C120.076637,329.001498 120.497637,329.671498 121.200637,330.440498 C122.450637,331.809498 123.732637,333.149498 125.547637,335.085498" id="Fill-14" transform="translate(118.466512, 341.055562) rotate(-57.000000) translate(-118.466512, -341.055562) "></path>
                    <path d="M62.6999285,388.867401 C61.3469285,387.197401 60.3399285,385.524401 58.9319285,384.317401 C56.9979285,382.659401 56.6639285,380.567401 56.4709285,378.298401 C56.3219285,376.528401 55.9749285,374.768401 55.9459285,373.000401 C55.9279285,371.906401 56.0309285,370.589401 56.6199285,369.753401 C57.8509285,368.003401 59.3369285,366.392401 60.9109285,364.932401 C62.5739285,363.390401 62.9989285,362.411401 62.0389285,360.134401 C62.5729285,360.449401 62.8769285,360.571401 63.1059285,360.776401 C63.6659285,361.274401 64.1149285,361.938401 64.7419285,362.312401 C69.0519285,364.881401 72.0719285,368.525401 73.8949285,373.167401 C74.9479285,375.847401 75.9339285,378.554401 76.8759285,381.276401 C77.0049285,381.648401 76.8109285,382.243401 76.5709285,382.604401 C76.2279285,383.120401 75.6729285,383.487401 75.2629285,383.965401 C73.6649285,385.824401 71.7559285,386.885401 69.2269285,387.184401 C66.9689285,387.451401 64.7799285,388.308401 62.6999285,388.867401" id="Fill-16" transform="translate(66.430584, 374.500901) rotate(-57.000000) translate(-66.430584, -374.500901) "></path>
                    <path d="M189.059253,346.119792 C188.796253,347.702792 188.699253,349.023792 189.594253,350.186792 C190.175253,350.942792 190.094253,351.403792 189.154253,351.628792 C187.824253,351.945792 186.542253,352.680792 185.095253,352.024792 C184.801253,351.891792 184.358253,351.969792 184.023253,352.072792 C182.245253,352.621792 181.077253,351.613792 180.020253,350.472792 C179.134253,349.514792 178.165253,348.537792 177.623253,347.385792 C177.200253,346.484792 177.434253,345.292792 177.268253,344.247792 C177.038253,342.808792 176.821253,341.351792 176.386253,339.969792 C175.934253,338.527792 176.333253,336.108792 177.582253,335.080792 C178.850253,334.037792 180.112253,332.814792 181.596253,332.253792 C183.543253,331.516792 185.559253,330.533792 187.749253,330.889792 C188.471253,331.006792 189.176253,331.529792 189.778253,332.008792 C191.156253,333.103792 192.588253,334.173792 193.772253,335.462792 C195.546253,337.394792 197.228253,339.573792 197.112253,342.323792 C197.040253,344.004792 196.214253,345.668792 195.637253,347.307792 C195.309253,348.241792 195.126253,349.238792 194.022253,349.799792 C193.036253,350.300792 192.523253,350.444792 192.111253,349.215792 C191.647253,347.832792 190.629253,346.880792 189.059253,346.119792" id="Fill-22" transform="translate(186.662051, 341.551620) rotate(-57.000000) translate(-186.662051, -341.551620) "></path>
                    <path d="M11.7048674,444.618338 C11.9858674,445.072338 12.1948674,445.408338 12.6128674,446.082338 C11.5128674,445.766338 10.7248674,445.541338 9.93586739,445.315338 C9.94386739,445.253338 9.95186739,445.189338 9.95986739,445.126338 C10.3688674,445.131338 10.7778674,445.136338 11.3088674,445.141338 C11.1828674,444.787338 11.1508674,444.507338 11.0048674,444.313338 C8.79986739,441.384338 6.56686739,438.475338 4.37586739,435.536338 C4.00986739,435.044338 3.69086739,434.454338 3.55586739,433.863338 C3.10086739,431.882338 3.28986739,431.584338 5.07586739,430.638338 C5.48886739,430.419338 5.97986739,430.141338 6.17986739,429.758338 C7.80186739,426.640338 10.8098674,426.007338 13.6778674,426.433338 C15.6478674,426.727338 17.6538674,428.221338 19.1858674,429.663338 C21.2308674,431.588338 23.0758674,433.627338 25.7438674,434.772338 C27.6188674,435.577338 27.3358674,437.557338 25.7388674,439.508338 C24.5338674,440.981338 23.0558674,441.887338 21.5448674,442.874338 C21.1788674,443.113338 21.0298674,443.695338 20.7968674,444.128338 C20.6578674,444.388338 20.6228674,444.789338 20.4148674,444.912338 C19.0678674,445.711338 17.7558674,446.764338 16.0638674,446.447338 C15.3468674,446.313338 14.5658674,445.916338 14.0548674,445.399338 C12.9878674,444.322338 12.8748674,444.188338 11.7048674,444.618338" id="Fill-36" transform="translate(15.195670, 436.409857) rotate(-57.000000) translate(-15.195670, -436.409857) "></path>
                    <path d="M151.575778,283.199799 C150.029778,283.952799 148.655778,284.634799 147.266778,285.285799 C147.038778,285.392799 146.699778,285.474799 146.492778,285.384799 C144.595778,284.551799 142.625778,283.828799 140.856778,282.771799 C139.304778,281.844799 137.977778,280.536799 136.568778,279.374799 C136.375778,279.215799 136.204778,278.942799 136.161778,278.698799 C135.757778,276.412799 135.416778,274.114799 134.992778,271.832799 C134.417778,268.739799 136.044778,265.689799 138.981778,264.446799 C139.229778,264.341799 139.448778,264.167799 139.681778,264.028799 C141.668778,262.851799 141.951778,262.921799 143.804778,264.383799 C145.285778,265.551799 146.991778,266.459799 148.362778,267.735799 C151.363778,270.529799 153.281778,274.047799 154.261778,278.006799 C154.466778,278.836799 154.086778,279.962799 153.638778,280.762799 C153.101778,281.722799 152.204778,282.481799 151.575778,283.199799" id="Fill-48" transform="translate(144.598460, 274.316788) rotate(-57.000000) translate(-144.598460, -274.316788) "></path>
                    <path d="M16.2928527,373.593347 C16.1488527,373.159347 15.9848527,372.665347 15.8108527,372.139347 C15.4378527,372.125347 15.0438527,372.109347 14.2898527,372.080347 C15.9258527,371.054347 17.2628527,370.173347 18.6388527,369.360347 C21.1938527,367.852347 23.8018527,368.200347 26.2718527,369.475347 C28.6248527,370.690347 30.9798527,372.052347 32.3048527,374.481347 C33.5228527,376.716347 33.6578527,379.197347 33.3858527,381.698347 C33.3608527,381.921347 33.2778527,382.137347 33.2388527,382.359347 C33.0548527,383.410347 33.2058527,384.762347 32.6008527,385.429347 C32.0268527,386.061347 30.6618527,385.970347 29.6468527,386.206347 C28.0638527,386.574347 26.4918527,387.005347 24.8968527,387.307347 C23.6248527,387.548347 22.6458527,387.184347 21.7318527,386.055347 C20.2798527,384.261347 18.8588527,382.333347 16.4638527,381.565347 C16.0998527,381.448347 15.6768527,380.841347 15.6548527,380.441347 C15.5448527,378.382347 15.5328527,376.315347 15.5578527,374.251347 C15.5608527,374.034347 16.0248527,373.822347 16.2928527,373.593347" id="Fill-64" transform="translate(23.896860, 377.872599) rotate(-57.000000) translate(-23.896860, -377.872599) "></path>
                    <path d="M42.4627312,472.380782 C43.6827312,474.044782 44.9347312,475.686782 46.0917312,477.391782 C46.2927312,477.687782 46.2547312,478.358782 46.0507312,478.679782 C44.9637312,480.391782 43.7177312,482.004782 42.6707312,483.738782 C41.9857312,484.873782 41.2127312,485.574782 39.8267312,485.719782 C37.9337312,485.915782 36.0687312,486.402782 34.1757312,486.591782 C33.4937312,486.659782 32.7347312,486.288782 32.0597312,486.004782 C31.3807312,485.720782 30.7067312,485.362782 30.1367312,484.905782 C29.7767312,484.618782 29.4347312,484.108782 29.3887312,483.665782 C28.9837312,479.748782 28.6347312,475.825782 28.2947312,471.902782 C28.2157312,470.993782 28.4187312,470.030782 27.5317312,469.346782 C27.4467312,469.280782 27.6637312,468.824782 27.7407312,468.549782 C28.0667312,468.697782 28.5877312,468.772782 28.6767312,469.008782 C28.8617312,469.500782 28.7277312,470.108782 28.8937312,470.611782 C29.0557312,471.103782 29.3577312,471.815782 29.7277312,471.905782 C30.2177312,472.026782 31.1867312,471.789782 31.3347312,471.443782 C31.9917312,469.903782 33.5717312,468.899782 33.7227312,467.055782 C33.7787312,466.362782 34.4647312,466.033782 35.1817312,466.502782 C36.4667312,467.343782 37.7727312,468.160782 38.9977312,469.083782 C40.1447312,469.945782 41.1977312,470.932782 42.2937312,471.862782 C42.4287312,471.977782 42.5707312,472.083782 42.7097312,472.193782 C42.6267312,472.256782 42.5447312,472.318782 42.4627312,472.380782" id="Fill-94" transform="translate(36.868428, 476.441701) rotate(-57.000000) translate(-36.868428, -476.441701) "></path>
                </g>
            </g>
        </g>
    </g>
</svg>