<?xml version="1.0" encoding="UTF-8"?>
<svg width="1222px" height="205px" viewBox="0 0 1222 205" version="1.1" xmlns="http://www.w3.org/2000/svg" xmlns:xlink="http://www.w3.org/1999/xlink">
    <!-- Generator: Sketch 58 (84663) - https://sketch.com -->
    <title>Group 80</title>
    <desc>Created with Sketch.</desc>
    <g id="Design" stroke="none" stroke-width="1" fill="none" fill-rule="evenodd">
        <g id="My-Sunshine-Landing-v1" transform="translate(-93.000000, -6388.000000)" fill="#185FEC">
            <g id="Group-81" transform="translate(93.000000, 6299.000000)">
                <g id="Group-80" transform="translate(0.000000, 88.935000)">
                    <path d="M1066.1456,62.2789 C1068.9106,62.5429 1072.4156,62.7999 1075.8966,63.2439 C1077.5096,63.4479 1078.6156,64.4799 1079.2176,66.0839 C1079.4276,66.6429 1080.0376,67.1159 1080.5686,67.4749 C1081.3836,68.0269 1081.8206,68.4469 1081.1896,69.5379 C1080.2256,71.2049 1079.4936,72.9649 1079.4096,74.9999 C1079.3266,76.9899 1077.1146,78.7599 1075.1976,79.2059 C1072.6176,79.8039 1070.1156,80.7339 1067.5606,81.4479 C1066.9576,81.6159 1066.2156,81.6659 1065.6366,81.4719 C1062.6826,80.4869 1059.7596,79.4039 1056.8276,78.3519 C1056.6586,78.2919 1056.3986,78.2419 1056.3526,78.1199 C1055.6766,76.3819 1054.4956,74.6319 1054.49859,72.8849 C1054.5036,70.0809 1055.4336,67.4259 1057.2596,65.0089 C1058.1196,63.8699 1058.9106,63.8499 1059.9316,63.6389 C1061.7466,63.2649 1063.5536,62.8489 1066.1456,62.2789" id="Fill-6"></path>
                    <path d="M941.6129,107.4605 C939.4859,107.7685 937.5319,107.7785 935.7759,108.3715 C933.3619,109.1865 931.3929,108.4035 929.3439,107.4085 C927.7479,106.6325 926.0569,106.0295 924.5229,105.1515 C923.5729,104.6085 922.4939,103.8465 922.0759,102.9125 C921.2019,100.9595 920.5779,98.8585 920.1289,96.7605 C919.6539,94.5425 919.0289,93.6775 916.5809,93.3375 C917.1249,93.0395 917.3849,92.8415 917.6779,92.7485 C918.3929,92.5225 919.1929,92.4765 919.8349,92.1285 C924.2459,89.7375 928.9229,89.0045 933.8439,89.8115 C936.6849,90.2765 939.5159,90.8145 942.3369,91.3965 C942.7219,91.4755 943.1349,91.9455 943.3219,92.3375 C943.5899,92.8955 943.6219,93.5615 943.8219,94.1575 C944.6029,96.4815 944.5389,98.6645 943.5029,100.9895 C942.5779,103.0675 942.1959,105.3875 941.6129,107.4605" id="Fill-8"></path>
                    <path d="M946.8326,34.9185 C948.3566,35.1655 949.8786,35.4265 951.4056,35.6555 C954.1676,36.0725 956.9316,36.4855 959.6986,36.8665 C960.3876,36.9615 960.6796,37.2095 960.7716,37.9605 C960.8976,38.9765 961.1896,39.9885 961.5406,40.9555 C962.6546,44.0305 961.4286,46.6805 960.1046,49.3165 C959.9706,49.5825 959.7146,49.8665 959.4486,49.9735 C957.0616,50.9285 954.7276,52.1445 952.2466,52.6985 C948.8986,53.4475 945.6376,52.8735 942.9126,50.4845 C942.4396,50.0705 941.9166,49.6945 941.3666,49.3915 C939.2176,48.2045 938.5416,46.1105 937.9596,43.9555 C937.8306,43.4755 937.7966,42.9675 937.6596,42.4885 C937.0586,40.4015 937.0596,40.4155 938.8506,39.0955 C939.4696,38.6395 940.0346,38.1105 940.6226,37.6135 C942.4026,36.1055 944.4156,35.1795 946.8326,34.9185" id="Fill-10"></path>
                    <path d="M410.1422,188.0152 C410.0592,187.1512 410.0092,186.6092 409.9542,186.0662 C409.8352,184.9132 410.0502,183.9132 411.1132,183.2282 C412.9232,182.0592 414.7012,180.8382 416.5282,179.6972 C416.8812,179.4762 417.4642,179.3352 417.8292,179.4682 C420.8592,180.5662 423.9162,179.7742 426.9412,179.5812 C428.7492,179.4672 430.2492,179.6202 431.3822,181.1642 C431.5912,181.4502 431.9342,181.6342 432.1962,181.8852 C434.6842,184.2612 434.9092,185.8402 433.3492,188.9912 C432.9162,189.8662 432.8592,190.9442 432.3592,191.7632 C431.5612,193.0692 430.7482,194.5412 429.5472,195.3702 C428.3962,196.1642 426.7112,196.1452 425.3142,196.6332 C422.3182,197.6782 419.6432,197.0232 417.1662,195.2462 C415.5512,194.0892 414.0862,192.6952 412.3842,191.6982 C410.7502,190.7422 409.6192,189.7442 410.1422,188.0152" id="Fill-12"></path>
                    <path d="M1073.0533,175.4224 C1074.2793,176.4564 1075.3653,177.2164 1076.8233,177.0424 C1077.7703,176.9284 1078.1243,177.2344 1077.8363,178.1574 C1077.4283,179.4624 1077.4053,180.9394 1076.1013,181.8484 C1075.8373,182.0314 1075.6773,182.4524 1075.5943,182.7944 C1075.1573,184.6024 1073.6943,185.0914 1072.1723,185.4144 C1070.8963,185.6874 1069.5613,186.0204 1068.2943,185.8974 C1067.3033,185.8004 1066.3993,184.9884 1065.4153,184.5984 C1064.0623,184.0604 1062.6993,183.5024 1061.2883,183.1684 C1059.8183,182.8194 1057.9443,181.2394 1057.6993,179.6414 C1057.4503,178.0184 1057.0453,176.3094 1057.3213,174.7454 C1057.6833,172.6954 1057.8693,170.4614 1059.2953,168.7604 C1059.7643,168.2004 1060.5753,167.8604 1061.2933,167.5894 C1062.9403,166.9654 1064.5913,166.2804 1066.3043,165.9224 C1068.8723,165.3854 1071.6043,165.0544 1073.9083,166.5604 C1075.3173,167.4814 1076.3243,169.0424 1077.4383,170.3764 C1078.0733,171.1354 1078.8363,171.8024 1078.7533,173.0384 C1078.6803,174.1414 1078.5423,174.6554 1077.2743,174.3814 C1075.8483,174.0724 1074.5113,174.4614 1073.0533,175.4224" id="Fill-14"></path>
                    <path d="M977.5421,102.8111 C973.6511,102.9811 970.8161,102.7901 968.3251,100.9761 C968.0471,100.7741 967.5561,100.8271 967.3321,100.5971 C966.7361,99.9881 965.9291,99.3621 965.7461,98.6111 C965.0321,95.6751 965.2891,92.6981 965.7931,89.7421 C965.8381,89.4751 965.9651,89.1411 965.8581,88.9431 C964.9921,87.3211 965.9131,86.9641 967.2721,86.5071 C969.8231,85.6501 972.2981,84.5651 974.7891,83.5371 C976.8691,82.6791 978.0581,82.9251 979.6691,84.5101 C980.2791,85.1101 981.0141,85.5841 981.7091,86.0931 C983.8771,87.6821 985.6181,89.7911 985.8551,92.3871 C986.0911,94.9751 985.8681,98.0581 983.6491,99.7541 C981.6661,101.2701 979.5051,103.1421 977.5421,102.8111" id="Fill-16"></path>
                    <path d="M417.3864,155.6324 C417.0094,156.5404 416.7554,157.5294 416.2254,158.3374 C415.3864,159.6184 414.4734,160.8944 413.3844,161.9594 C412.2214,163.0974 410.7604,163.9204 409.5324,164.9984 C406.7014,167.4814 404.0164,165.7064 401.3314,164.7704 C399.7554,164.2194 398.2034,163.5414 396.7424,162.7364 C395.5164,162.0594 394.4374,161.1164 393.2974,160.2854 C393.2304,160.2364 393.1434,160.1234 393.1584,160.0634 C393.6744,158.0514 392.5934,155.8284 393.9404,153.9364 C395.0104,152.4334 395.9894,150.8284 397.2684,149.5254 C398.0144,148.7644 399.2434,148.1664 400.3034,148.0784 C404.4014,147.7384 408.3094,148.4864 411.9684,150.5224 C413.4434,151.3424 415.2914,151.5384 416.1884,153.2414 C416.5834,153.9914 416.9494,154.7584 417.3864,155.6324" id="Fill-18"></path>
                    <path d="M1213.1368,155.3111 C1212.0248,155.6021 1210.9168,155.9121 1209.7968,156.1681 C1209.5148,156.2331 1209.1728,156.1851 1208.8928,156.0881 C1206.8008,155.3701 1204.7168,154.6271 1202.6328,153.8881 C1202.4208,153.8131 1202.1428,153.7631 1202.0268,153.6051 C1200.8008,151.9311 1199.4238,150.3331 1198.4478,148.5211 C1197.5998,146.9491 1198.9388,144.2641 1200.2538,142.8991 C1201.4338,141.6721 1202.7168,140.8081 1204.2558,140.2821 C1206.2138,139.6121 1208.2078,139.0491 1210.1908,138.4551 C1210.4478,138.3771 1210.7558,138.2991 1210.9978,138.3701 C1213.8408,139.1931 1216.8788,139.4191 1219.4328,141.1271 C1220.6478,141.9411 1221.4038,142.9981 1221.2468,144.5301 C1221.0548,146.3981 1221.0628,148.3221 1220.5868,150.1171 C1219.8178,153.0161 1217.5878,154.5271 1214.7678,155.2271 C1214.2508,155.3551 1213.7188,155.4271 1213.1938,155.5251 L1213.1368,155.3111 Z" id="Fill-20"></path>
                    <path d="M781.4948,107.5367 C782.5078,107.7917 783.5208,108.0467 784.8738,108.3867 C784.2558,109.3147 783.7238,110.2647 783.0468,111.0977 C781.9058,112.5027 780.5848,113.7507 778.5778,113.4647 C777.4748,113.3077 776.4188,112.8487 775.3278,112.5887 C773.3938,112.1287 771.4188,111.8197 769.5238,111.2417 C768.5668,110.9507 767.7918,110.1087 766.8568,109.6907 C765.5788,109.1207 766.0658,108.0127 765.8878,107.1007 C765.6978,106.1247 765.4948,105.1497 765.3348,104.1687 C764.9478,101.8047 766.0018,100.0997 767.9578,98.9587 C770.0968,97.7097 772.2058,96.2057 774.5358,95.5507 C776.6098,94.9667 779.0028,94.8657 781.1618,95.9007 C782.5818,96.5827 783.9788,97.3237 785.4388,97.9057 C786.4328,98.3027 787.0678,98.8347 787.1088,99.9497 C787.1188,100.2177 787.1718,100.5047 787.2868,100.7437 C788.2088,102.6537 786.9128,104.0787 786.1928,105.6017 C785.8898,106.2427 785.4748,106.5767 784.4708,106.2517 C783.6128,105.9747 782.4718,106.5667 781.4548,106.7747 L781.4948,107.5367 Z" id="Fill-22"></path>
                    <path d="M925.3253,73.3502 C925.8673,73.4492 926.3273,73.5332 927.1193,73.6772 C926.3523,74.1612 926.1103,75.2172 925.3583,74.0902 C925.2573,73.9392 924.9843,73.8392 924.7833,73.8262 C921.8523,73.6312 918.9133,73.5262 915.9903,73.2462 C914.4043,73.0942 912.7403,73.1842 911.3153,72.1412 C910.5223,71.5612 910.0443,70.9972 910.4603,70.0042 C910.9233,68.9012 910.7163,67.9422 910.2373,66.8212 C909.5713,65.2592 910.4163,63.7662 911.2013,62.3862 C911.4243,61.9952 911.8603,61.6962 911.9933,61.2872 C912.5653,59.5342 914.0313,59.0742 915.5653,58.8202 C917.8293,58.4452 920.1363,58.3052 922.3843,57.8592 C923.8663,57.5652 925.3193,57.0052 926.7093,56.3922 C928.5193,55.5952 929.7113,56.0452 930.2003,57.9192 C930.4943,59.0472 930.9413,60.1742 930.9923,61.3162 C931.0423,62.4012 930.6503,63.5032 930.4833,64.6022 C930.3883,65.2322 930.0293,65.9532 931.0403,66.2822 C931.1953,66.3312 931.2423,66.9252 931.2223,67.2612 C931.1363,68.7332 930.7343,70.1052 929.7553,71.2492 C929.2223,71.8712 928.7063,72.3712 927.6933,72.2442 C926.8543,72.1392 925.7063,71.9222 925.3253,73.3502" id="Fill-24"></path>
                    <path d="M1017.7262,22.2545 C1017.5832,23.9695 1017.4672,25.4985 1017.3172,27.0255 C1017.2922,27.2755 1017.1892,27.6085 1017.0052,27.7405 C1015.3192,28.9455 1013.6912,30.2695 1011.8792,31.2475 C1010.2882,32.1075 1008.4852,32.5795 1006.7672,33.1955 C1006.5302,33.2805 1006.2092,33.2885 1005.9772,33.2005 C1003.8062,32.3795 1001.6572,31.4965 999.4792,30.6945 C996.5272,29.6085 994.7382,26.6505 995.1712,23.4895 C995.2072,23.2235 995.1702,22.9455 995.1702,22.6745 C995.1752,20.3655 995.3792,20.1585 997.5822,19.3135 C999.3432,18.6375 1000.9962,17.6355 1002.7932,17.1095 C1006.7292,15.9595 1010.7332,16.1085 1014.6372,17.2915 C1015.4552,17.5395 1016.2282,18.4415 1016.6872,19.2355 C1017.2382,20.1885 1017.4312,21.3475 1017.7262,22.2545" id="Fill-26"></path>
                    <path d="M937.1622,11.6548 C936.6042,13.6128 936.3102,15.6278 935.4582,17.3688 C934.5582,19.2068 933.6612,21.2568 931.1752,21.7378 C929.3792,22.0858 927.6372,22.7068 925.8642,23.1768 C925.5722,23.2548 925.1882,23.2898 924.9362,23.1638 C922.0342,21.7218 918.7022,21.1948 916.1382,19.0318 C915.5152,18.5058 914.8052,18.0708 914.2422,17.4898 C914.0062,17.2468 913.9412,16.7218 913.9842,16.3458 C914.0842,15.4608 914.2662,14.5818 914.4692,13.7128 C914.8882,11.9238 915.1212,10.0388 915.8882,8.4088 C916.2082,7.7288 917.6912,7.2838 918.6512,7.2728 C922.3422,7.2278 926.0402,7.3338 929.7272,7.5318 C931.0542,7.6028 932.3882,7.9998 933.6622,8.4208 C934.7732,8.7868 935.8052,9.3448 936.1722,10.6788 C936.2842,11.0858 936.8542,11.3668 937.1622,11.6548" id="Fill-28"></path>
                    <path d="M622.6027,171.1002 C624.0037,171.6132 625.6967,172.2242 627.3817,172.8552 C627.7147,172.9802 628.1197,173.1062 628.3177,173.3652 C629.1247,174.4152 629.9217,175.4832 630.6147,176.6102 C631.5177,178.0812 630.9927,179.5772 630.7227,181.1502 C630.3247,183.4742 628.8517,184.3512 626.9227,185.1602 C625.5837,185.7212 624.4737,186.8162 623.2277,187.6192 C622.8317,187.8732 622.3327,188.0682 621.8677,188.1022 C619.2907,188.2892 616.7117,188.4472 614.1307,188.5442 C613.6287,188.5642 613.0447,188.3812 612.6197,188.1062 C611.5567,187.4192 610.4727,186.7172 609.5787,185.8372 C609.1137,185.3802 608.7507,184.4992 608.8277,183.8692 C609.1657,181.0692 609.8487,178.2622 611.5637,176.0292 C612.4297,174.9012 614.1177,174.3162 615.5317,173.7172 C617.7607,172.7742 620.0717,172.0252 622.6027,171.1002" id="Fill-30"></path>
                    <path d="M894.9987,18.3941 C896.3747,19.2201 898.2907,20.0031 899.6907,21.3321 C900.7757,22.3621 901.3677,24.0181 901.8987,25.4971 C902.4617,27.0621 901.6267,28.4711 901.0957,29.9811 C899.9847,33.1421 896.9987,32.6771 894.8107,33.7471 C894.1717,34.0581 893.5407,34.4121 892.8687,34.6231 C892.2007,34.8311 891.4697,35.0431 890.7927,34.9781 C888.4977,34.7551 886.2087,34.4471 883.9307,34.0871 C883.3427,33.9941 882.7707,33.6421 882.2527,33.3121 C881.8397,33.0491 881.5217,32.6381 881.1607,32.2921 C878.5347,29.7811 878.3727,29.3821 880.0527,26.1571 C880.9867,24.3611 882.0697,22.5031 883.5387,21.1731 C884.5557,20.2521 886.3237,20.0891 887.7947,19.7601 C890.1077,19.2421 892.4527,18.8691 894.9987,18.3941" id="Fill-32"></path>
                    <path d="M380.9957,188.3424 C379.3257,188.3504 377.6847,188.2584 376.1177,187.0894 C374.4057,185.8124 372.4037,184.9014 370.4677,183.9524 C369.1687,183.3174 368.5347,181.9724 368.6627,180.5454 C368.9047,177.8844 370.2457,175.7284 371.5367,173.5374 C371.7647,173.1504 372.2667,172.8514 372.7077,172.6754 C376.3737,171.2174 380.1257,170.3554 384.0607,171.4314 C385.9077,171.9374 386.8217,173.4814 387.7887,174.9834 C389.0317,176.9104 388.7617,178.8674 388.1847,180.8924 C388.0137,181.4924 388.1427,182.2204 387.8597,182.7404 C387.3257,183.7204 386.5967,184.5944 385.9387,185.5064 C385.7797,185.7264 385.5367,185.8954 385.4137,186.1304 C384.4947,187.9044 382.7317,188.0264 380.9957,188.3424" id="Fill-34"></path>
                    <path d="M696.5597,157.522 C696.4397,158.047 696.3447,158.459 696.2187,159.011 C695.9607,158.297 695.7527,157.74 695.5587,157.178 C693.9677,152.575 695.2107,148.253 699.4967,145.492 C700.8877,144.595 702.3367,143.656 703.8947,143.184 C706.4927,142.397 708.9807,143.405 711.3707,144.371 C712.4507,144.808 713.4597,145.467 714.4147,146.147 C714.7307,146.372 714.9567,146.994 714.9167,147.404 C714.6947,149.689 714.4247,151.971 714.0737,154.24 C713.8877,155.447 713.2497,156.409 712.0277,156.894 C710.5597,157.478 709.1057,158.1 707.6517,158.719 C707.4047,158.825 707.1047,158.942 706.9657,159.147 C705.2477,161.673 703.0327,160.686 700.9847,159.869 C699.9257,159.446 698.4537,159.37 698.0927,157.787 C698.0527,157.612 697.1937,157.623 696.5597,157.522" id="Fill-36"></path>
                    <path d="M798.6798,53.3629 C798.2338,53.2649 797.7248,53.1539 797.1838,53.0349 C796.9798,53.3479 796.7658,53.6779 796.3558,54.3109 C796.3098,52.3809 796.2358,50.7819 796.2418,49.1829 C796.2518,46.2169 797.8838,44.1539 800.2418,42.6819 C802.4898,41.2809 804.8648,39.9539 807.6298,40.0569 C810.1738,40.1529 812.3748,41.3049 814.3848,42.8179 C814.5638,42.9529 814.7068,43.1349 814.8778,43.2819 C815.6868,43.9779 816.9258,44.5399 817.1898,45.3999 C817.4388,46.2169 816.6628,47.3429 816.3468,48.3369 C815.8548,49.8849 815.4208,51.4559 814.8648,52.9809 C814.4208,54.1979 813.6078,54.8529 812.1698,55.0609 C809.8868,55.3909 807.5028,55.6279 805.6178,57.2929 C805.3308,57.5469 804.5938,57.5989 804.2388,57.4139 C802.4118,56.4559 800.6308,55.4079 798.8698,54.3319 C798.6838,54.2179 798.7398,53.7119 798.6798,53.3629" id="Fill-38"></path>
                    <path d="M430.3029,156.6861 C430.6339,155.3321 430.9869,153.5491 431.5239,151.8231 C431.8179,150.8761 432.3589,149.9861 432.8979,149.1401 C434.3129,146.9231 436.7109,147.3321 438.8189,147.0781 C440.9129,146.8251 443.0289,146.7611 445.1329,146.5821 C447.2609,146.4001 447.2899,146.4641 448.1489,148.3941 C448.7679,149.7861 449.5029,151.1391 450.3209,152.4241 C450.9369,153.3931 450.9439,154.1521 450.3409,155.1491 C449.3179,156.8411 448.4959,158.6541 447.5509,160.3941 C447.0539,161.3091 445.3999,161.9151 444.3769,161.7751 C443.8669,161.7061 443.2829,161.8361 442.7939,162.0291 C440.1779,163.0601 437.5109,163.2131 434.8279,162.4431 C432.2089,161.6921 431.0149,159.6861 430.3029,156.6861" id="Fill-40"></path>
                    <path d="M623.2731,135.5562 C622.4271,137.2512 622.2261,138.9782 622.5461,140.8982 C622.8401,142.6582 622.8821,144.5352 622.5841,146.2842 C622.4471,147.0882 621.2441,147.7212 620.5051,148.4102 C619.9551,148.9242 619.4011,149.4432 618.7951,149.8842 C618.3471,150.2102 617.8201,150.6192 617.3131,150.6422 C615.1421,150.7442 612.9241,150.9872 610.8031,150.6602 C608.5711,150.3182 606.1871,149.8982 605.3491,147.0482 C604.9011,145.5282 603.8291,144.2012 603.1711,142.7272 C602.9861,142.3122 603.0971,141.5702 603.3661,141.1822 C604.3691,139.7392 605.4671,138.3582 606.5921,137.0052 C606.8561,136.6892 607.3431,136.4912 607.7641,136.3872 C611.2701,135.5272 614.8111,134.7972 618.2861,133.8292 C620.4521,133.2262 621.9161,134.0662 623.2731,135.5562" id="Fill-42"></path>
                    <path d="M0.0836,47.1011 C0.0946,45.6751 0.2906,44.3691 0.0736,43.1351 C-0.3224,40.8921 0.9886,39.1281 1.4636,37.1381 C2.0256,34.7861 4.0396,33.8681 6.0026,33.6941 C8.9486,33.4321 11.9506,33.7511 14.9256,33.8801 C16.9786,33.9691 17.8286,35.7571 19.0646,36.9821 C19.2126,37.1281 19.2206,37.4071 19.3356,37.5981 C19.9276,38.5811 21.3286,39.3591 20.2746,40.7771 C19.5716,41.7221 19.0806,42.7501 17.9386,43.4761 C16.3326,44.4971 15.2416,46.3371 13.6256,47.3321 C11.3776,48.7161 8.8746,49.7051 6.4166,50.7051 C5.9456,50.8971 5.1496,50.4241 4.5546,50.1481 C3.3726,49.5991 2.1936,49.0261 1.0796,48.3531 C0.6586,48.0991 0.4196,47.5401 0.0836,47.1011" id="Fill-44"></path>
                    <path d="M219.0118,168.7418 C222.7238,168.7718 225.9948,169.7808 229.2618,170.8048 C229.6498,170.9278 230.0208,171.1008 230.4058,171.2338 C233.0168,172.1318 233.8178,173.6218 233.3878,176.3858 C232.9788,179.0208 231.7148,180.9808 229.3818,182.2928 C228.8018,182.6188 228.3968,183.2708 227.8068,183.5608 C227.1908,183.8648 226.4048,184.1508 225.7678,184.0328 C222.8908,183.5028 220.0418,182.8198 217.1788,182.2058 C216.0318,181.9598 214.8748,181.7578 213.7258,181.5148 C213.4708,181.4618 213.0828,181.3868 213.0138,181.2178 C212.5238,180.0128 212.0008,178.8068 211.6898,177.5528 C211.4578,176.6198 211.6948,175.5888 210.7758,174.8398 C210.6278,174.7188 210.8498,173.8288 211.1428,173.5348 C212.4008,172.2728 213.6198,170.8918 215.1068,169.9618 C216.2778,169.2288 217.8208,169.0908 219.0118,168.7418" id="Fill-46"></path>
                    <path d="M210.5758,109.9009 C210.7598,109.4139 210.8438,108.8829 211.1248,108.4959 C212.2418,106.9589 213.5438,105.5419 214.5388,103.9319 C215.4148,102.5139 216.7268,101.5649 217.8478,100.4349 C218.4098,99.8679 219.5378,99.6749 220.4208,99.6479 C224.2078,99.5319 227.9988,99.5639 231.7868,99.4839 C232.6158,99.4659 232.9438,99.7999 233.0408,100.5439 C233.4398,103.6209 232.7638,106.4829 231.7728,109.4119 C231.0718,111.4869 229.7768,112.9779 228.5508,114.6239 C227.9478,115.4319 227.2548,115.7149 226.3228,115.4909 C222.8158,114.6459 219.3108,113.7959 216.1618,111.9239 C215.3048,111.4159 214.4778,110.8099 213.5568,110.4639 C212.6978,110.1419 211.7308,110.1049 210.5758,109.9009" id="Fill-48"></path>
                    <path d="M70.6691,133.44 C69.2601,132.003 69.7581,130.448 71.7031,129.941 C74.2291,129.282 76.7751,128.682 79.3401,128.2 C80.6771,127.948 81.9241,128.358 82.8871,129.456 C84.3401,131.112 85.7821,132.787 87.3531,134.326 C87.8031,134.766 88.6831,134.768 89.3661,134.971 C89.5031,134.225 89.6981,133.484 89.7571,132.732 C89.8011,132.176 89.6681,131.607 89.6111,131.019 C92.1141,131.331 93.0581,132.918 92.0861,135.025 C91.4251,136.457 90.5271,137.809 90.0831,139.3 C89.5731,141.007 88.0791,141.641 86.8751,142.044 C84.4601,142.855 81.8651,143.258 79.3131,143.498 C76.4891,143.763 74.0801,142.26 71.6371,141.073 C71.5551,141.033 71.4801,140.981 71.4041,140.929 C70.6791,140.432 69.4451,140.031 69.3291,139.418 C69.0481,137.93 69.1901,136.333 69.3751,134.804 C69.4321,134.331 70.1721,133.939 70.6691,133.44" id="Fill-50"></path>
                    <path d="M287.629,157.6344 C286.393,157.7544 285.046,157.8304 283.717,158.0254 C281.953,158.2824 280.841,156.9314 279.415,156.3664 C278.671,156.0724 277.98,155.5844 277.351,155.0774 C277.051,154.8364 276.816,154.3574 276.789,153.9694 C276.728,153.1154 276.744,152.2414 276.858,151.3934 C277.19,148.9374 277.534,146.4804 277.996,144.0464 C278.095,143.5224 278.618,142.9254 279.108,142.6564 C280.49,141.9014 281.918,141.1784 283.409,140.6894 C284.097,140.4634 284.973,140.8104 285.764,140.9024 C287.716,141.1274 289.679,141.2894 291.618,141.6004 C293.457,141.8954 295.563,145.9854 294.988,147.7334 C294,150.7344 292.851,153.6254 290.807,156.0984 C289.987,157.0894 289.168,157.9414 287.629,157.6344" id="Fill-52"></path>
                    <path d="M598.4235,121.6539 C597.5505,123.4079 596.7885,125.0639 595.9155,126.6599 C595.0575,128.2269 594.2755,129.9039 593.0935,131.1969 C592.4595,131.8899 591.0415,132.1679 589.9965,132.1269 C586.7745,132.0019 583.5515,131.7219 580.3505,131.3299 C578.0955,131.0529 576.2925,129.2289 575.9715,126.9959 C575.8615,126.2269 576.1565,125.3309 576.4785,124.5849 C576.8965,123.6189 577.7965,122.8039 578.0135,121.8199 C578.6495,118.9379 580.8275,118.1849 583.2305,117.5439 C585.9935,116.8049 588.6185,117.9159 591.3155,118.0299 C591.8115,118.0499 592.3035,118.2079 592.7985,118.2129 C593.6925,118.2209 594.2665,118.3819 594.7985,119.3419 C595.2445,120.1469 596.4365,120.5479 597.3175,121.0959 C597.7255,121.3509 598.1785,121.5329 598.4235,121.6539" id="Fill-54"></path>
                    <path d="M581.3541,0.1695 C584.9921,0.4905 588.6361,0.8005 592.2761,1.1435 C593.1431,1.2255 593.4631,1.5945 593.4731,2.6485 C593.4881,4.4735 593.8201,6.3195 594.2291,8.1085 C594.4241,8.9645 594.4321,9.5205 593.7971,10.1695 C592.7921,11.1985 591.9601,12.4035 590.9261,13.4005 C590.4181,13.8895 589.6211,14.3525 588.9531,14.3545 C584.8921,14.3665 580.8301,14.2485 576.7691,14.1575 C576.4781,14.1505 576.0421,14.1015 575.9251,13.9135 C575.1191,12.6245 574.3961,11.2845 573.6111,9.9825 C573.2631,9.4025 572.9011,8.8035 572.4231,8.3405 C571.7891,7.7265 571.9221,7.2625 572.4761,6.7435 C573.1661,6.0975 573.8521,5.4455 574.5331,4.7895 C574.6951,4.6335 574.9141,4.4745 574.9671,4.2785 C575.8701,0.9775 579.0571,1.4135 581.3541,0.1695" id="Fill-56"></path>
                    <path d="M569.8707,157.9732 C570.2377,157.6762 570.6127,157.4722 570.8467,157.1622 C571.2627,156.6112 571.5937,155.9942 571.9597,155.4062 C571.2537,155.0882 570.5647,154.5532 569.8377,154.4942 C567.6277,154.3122 565.4037,154.2942 563.1847,154.2522 C562.2037,154.2342 561.6217,153.9122 561.3357,152.8692 C560.8807,151.2042 560.2327,149.5932 559.6877,147.9522 C559.6117,147.7222 559.5767,147.4172 559.6627,147.2032 C560.3287,145.5532 560.8287,143.7822 561.8017,142.3292 C562.3267,141.5452 563.6707,140.9272 564.6587,140.9082 C567.4117,140.8522 570.1717,141.1482 572.9287,141.3092 C573.1057,141.3192 573.3327,141.3012 573.4487,141.4002 C574.9847,142.7092 576.5107,144.0332 578.0297,145.3632 C580.0467,147.1302 580.2217,149.2482 579.2417,151.6122 C578.6097,153.1382 578.0327,154.6872 577.4487,156.2322 C577.1667,156.9782 576.7207,157.3472 575.8687,157.4742 C574.8157,157.6302 573.7067,157.8992 572.7977,158.4222 C571.6247,159.0982 570.7747,158.8822 569.8707,157.9732" id="Fill-58"></path>
                    <path d="M572.8575,174.4918 C573.1275,174.4838 573.3825,174.4008 573.4625,174.4848 C574.3115,175.3808 574.9645,174.8818 575.6095,174.2228 C576.8535,172.9538 578.4005,172.5138 580.1385,172.3438 C582.1475,172.1448 584.1455,171.7698 586.1245,171.3578 C587.0615,171.1628 587.8885,171.0508 588.6825,171.7008 C589.0645,172.0128 589.4925,172.2708 589.9065,172.5438 C591.7465,173.7548 591.7135,173.7448 591.1665,175.8028 C590.9475,176.6228 590.9535,177.4998 590.7935,178.3388 C589.8885,183.0888 586.3835,185.5368 581.9645,186.1668 C580.0665,186.4368 578.0995,186.2298 576.1635,186.2208 C575.1635,186.2178 573.8985,186.5288 573.2435,186.0398 C572.6655,185.6088 572.9005,184.2108 572.5445,183.3348 C571.5585,180.9168 571.8985,178.7158 573.1755,176.5008 C573.4185,176.0788 572.9995,175.2748 572.8575,174.4918" id="Fill-60"></path>
                    <path d="M487.275,167.7603 C486.44,167.3263 485.336,166.9893 484.555,166.2903 C483.535,165.3773 482.709,164.2233 481.911,163.0933 C480.663,161.3233 479.488,159.5013 478.336,157.6673 C478.125,157.3313 478.002,156.7743 478.128,156.4223 C478.946,154.1453 480.315,152.1753 482.447,151.0523 C483.434,150.5323 484.831,150.8373 486.024,150.6513 C486.677,150.5493 487.293,150.2053 487.926,149.9703 C487.58,149.4453 487.235,148.9183 486.885,148.3963 C486.82,148.2983 486.733,148.2153 486.464,147.9053 C488.266,148.3543 489.828,148.5203 490.9,150.0373 C491.423,150.7783 492.324,151.2703 493.098,151.8123 C494.302,152.6553 495.114,153.7023 495.28,155.2153 C495.364,155.9763 495.722,156.7243 495.705,157.4723 C495.685,158.3203 495.426,159.1723 495.194,160.0013 C494.854,161.2133 494.509,162.4313 494.05,163.6013 C493.341,165.4053 492.465,166.9933 490.075,166.9413 C489.202,166.9213 488.317,167.4383 487.275,167.7603" id="Fill-62"></path>
                    <path d="M166.3629,115.6148 C168.1179,115.8018 169.9209,115.9178 171.6949,116.2048 C173.6719,116.5248 175.6349,116.9578 177.5779,117.4448 C178.0049,117.5518 178.5199,118.0288 178.6559,118.4458 C179.2979,120.4048 179.4619,122.4008 178.8909,124.4388 C178.6629,125.2528 178.7529,126.1548 178.5299,126.9708 C178.3709,127.5508 178.0519,128.3498 177.5939,128.5378 C175.3849,129.4448 173.1309,130.2658 170.8359,130.9158 C170.1779,131.1008 169.2309,130.7708 168.5869,130.3888 C167.0449,129.4748 165.6549,128.3028 164.1019,127.4098 C163.2829,126.9388 162.2299,126.8948 161.3229,126.5518 C160.5809,126.2698 159.6969,125.9818 159.2589,125.4068 C158.9509,125.0018 159.1349,124.0528 159.3619,123.4438 C159.8359,122.1768 160.4709,120.9678 161.0679,119.7478 C161.2419,119.3928 161.4609,119.0348 161.7419,118.7628 C162.6079,117.9278 163.4629,117.0668 164.4229,116.3518 C164.9329,115.9718 165.6519,115.8728 166.3629,115.6148" id="Fill-64"></path>
                    <path d="M331.274,124.401 C331.397,125.672 331.542,126.942 331.618,128.216 C331.63,128.409 331.355,128.662 331.158,128.818 C328.366,131.037 325.518,133.188 322.784,135.476 C321.193,136.807 318.64,136.617 317.107,135.559 C315.646,134.55 314.406,133.135 312.46,132.932 C312.306,132.916 312.02,132.108 312.145,131.822 C312.997,129.873 312.948,127.786 313.28,125.753 C313.626,123.641 315.348,122.35 316.928,121.076 C317.44,120.664 318.006,120.299 318.596,120.013 C318.928,119.852 319.371,119.812 319.743,119.864 C320.843,120.018 321.937,120.222 323.025,120.448 C324.553,120.765 326.085,121.075 327.592,121.473 C328.413,121.69 329.175,122.121 329.984,122.391 C330.958,122.717 331.502,123.334 331.274,124.401" id="Fill-66"></path>
                    <path d="M377.2218,136.8521 C378.3908,137.2611 380.0908,137.8231 381.7518,138.4821 C381.9388,138.5561 382.0728,139.2411 381.9558,139.5331 C380.4088,143.3901 378.8938,147.2651 377.1678,151.0431 C376.7608,151.9331 375.6138,152.4971 374.7688,153.1631 C374.5998,153.2951 374.2238,153.2971 374.0028,153.2101 C370.5748,151.8711 366.8648,151.1641 363.9208,148.7351 C363.3308,148.2481 362.7198,147.7891 362.1458,147.2851 C361.9948,147.1531 361.8358,146.8731 361.8748,146.7081 C362.1618,145.4871 362.4778,144.2701 362.8348,143.0661 C362.9338,142.7311 363.3088,142.4661 363.3738,142.1331 C363.9508,139.1791 366.3518,138.8981 368.6618,138.4651 C371.3158,137.9691 373.9688,137.4651 377.2218,136.8521" id="Fill-68"></path>
                    <path d="M194.9713,89.8092 C194.7553,88.6782 194.6783,87.6662 194.3593,86.7372 C193.5443,84.3612 194.7683,82.6712 196.1603,81.0472 C196.9233,80.1572 197.8033,79.3662 198.6453,78.5452 C200.2713,76.9602 202.2263,77.5232 204.1113,77.7642 C205.0873,77.8892 206.0393,78.2122 207.0163,78.3102 C208.6193,78.4702 210.5973,79.8122 210.7143,81.3302 C210.8133,82.6222 210.3933,83.9652 210.1293,85.2712 C209.8973,86.4222 209.5223,87.5452 209.2853,88.6972 C208.9753,90.2052 207.8723,90.8022 206.5773,91.2202 C205.1653,91.6762 203.7533,92.1292 202.3403,92.5842 C201.3533,92.9022 200.3783,93.4232 199.3773,93.4762 C198.5933,93.5172 197.6743,93.1292 197.0033,92.6632 C195.9793,91.9502 194.5273,91.4002 194.9713,89.8092" id="Fill-70"></path>
                    <path d="M347.6881,205.0767 C344.4551,204.2197 341.5421,203.2267 338.5471,202.7317 C336.6011,202.4097 336.3191,200.6207 335.0581,199.7697 C334.9751,199.7147 335.0531,199.3417 335.1261,199.1407 C335.8311,197.2017 336.5541,195.2677 337.2661,193.3307 C338.0241,191.2677 339.9401,189.9317 342.0481,190.3847 C345.2101,191.0637 348.5151,191.3937 351.3311,193.1757 C352.0661,193.6397 352.7991,194.3997 353.1101,195.1897 C353.9881,197.4217 353.8111,199.5057 351.6911,200.9137 C350.8321,201.4847 350.0531,202.2087 349.3401,202.9607 C348.6641,203.6737 348.1201,204.5137 347.6881,205.0767" id="Fill-72"></path>
                    <path d="M546.2223,163.7965 C547.0193,163.2965 547.8723,162.7605 548.5223,162.3515 C549.2933,163.8445 549.8583,165.4175 550.8193,166.6915 C552.3793,168.7595 551.6813,170.7445 551.1393,172.8585 C550.4763,175.4435 548.2023,176.0145 546.2473,176.9725 C545.2063,177.4835 544.0213,177.7045 542.9833,178.2195 C542.1283,178.6435 541.5463,178.4635 540.9323,177.8605 C540.1033,177.0475 539.2733,176.3065 539.0543,175.0215 C538.8923,174.0725 538.3263,173.1935 537.9563,172.2775 C537.8743,172.0735 537.7483,171.7825 537.8303,171.6335 C538.2833,170.8095 538.8863,170.0565 539.2593,169.2015 C539.7343,168.1155 540.5923,168.0315 541.5773,167.9265 C542.2323,167.8565 542.8953,167.5865 543.4903,167.2805 C544.5673,166.7275 545.6263,166.1245 546.6303,165.4485 C547.0183,165.1885 547.2363,164.6745 547.5323,164.2755 C547.0993,164.1165 546.6673,163.9595 546.2223,163.7965" id="Fill-74"></path>
                    <path d="M958.0548,14.69 C960.2178,14.803 962.5298,14.355 964.3368,16.025 C964.5818,16.252 964.7478,16.764 964.6858,17.093 C964.4018,18.582 963.7938,20.029 964.5838,21.563 C964.7398,21.865 964.6508,22.393 964.4978,22.738 C963.5838,24.8 961.2378,25.936 958.9618,26.16 C956.8118,26.371 955.1238,25.564 954.1568,24.044 C953.2978,22.693 953.1518,20.825 952.9398,19.154 C952.8258,18.26 952.9478,17.048 953.4828,16.431 C954.2058,15.597 955.3948,15.121 956.4538,14.649 C956.8938,14.453 957.5158,14.665 958.0548,14.69" id="Fill-76"></path>
                </g>
            </g>
        </g>
    </g>
</svg>