<?xml version="1.0" encoding="UTF-8"?>
<svg width="1143px" height="348px" viewBox="0 0 1143 348" version="1.1" xmlns="http://www.w3.org/2000/svg" xmlns:xlink="http://www.w3.org/1999/xlink">
    <!-- Generator: Sketch 58 (84663) - https://sketch.com -->
    <title>Group 6</title>
    <desc>Created with Sketch.</desc>
    <g id="Design" stroke="none" stroke-width="1" fill="none" fill-rule="evenodd">
        <g id="My-Sunshine-Landing-v1" transform="translate(-16.000000, -7459.000000)" fill="#FFEB2D">
            <g id="Group-6" transform="translate(16.000000, 7459.000000)">
                <path d="M254.733768,118.006629 C254.726768,119.610629 255.033768,121.658629 254.607768,123.540629 C254.277768,124.999629 253.156768,126.355629 252.157768,127.568629 C251.099768,128.852629 249.462768,128.854629 247.892768,129.170629 C244.607768,129.831629 243.480768,127.027629 241.442768,125.693629 C240.848768,125.304629 240.222768,124.943629 239.697768,124.472629 C239.175768,124.006629 238.620768,123.485629 238.330768,122.870629 C237.348768,120.784629 236.442768,118.659629 235.587768,116.518629 C235.367768,115.964629 235.376768,115.293629 235.395768,114.679629 C235.410768,114.190629 235.601768,113.706629 235.712768,113.219629 C236.529768,109.678629 236.789768,109.336629 240.420768,109.130629 C242.441768,109.015629 244.590768,108.995629 246.485768,109.578629 C247.796768,109.981629 248.840768,111.417629 249.876768,112.513629 C251.504768,114.236629 253.024768,116.061629 254.733768,118.006629" id="Fill-54"></path>
                <path d="M12.8753678,136.796729 C14.7853678,140.589729 16.5923678,144.346729 18.5673678,148.012729 C19.2693678,149.314729 19.3153678,150.253729 18.3073678,151.370729 C17.6843678,152.059729 17.4503678,153.102729 16.8233678,153.784729 C13.4633678,157.439729 7.95736778,157.708729 4.46436778,154.115729 C3.01036778,152.619729 2.34736778,150.268729 1.58836778,148.208729 C1.00136778,146.612729 0.757367781,144.875729 0.495367781,143.179729 C0.377367781,142.410729 0.390367781,141.504729 0.694367781,140.816729 C1.14836778,139.789729 1.91436778,138.914729 1.58636778,137.655729 C1.55336778,137.526729 2.02836778,137.173729 2.32036778,137.068729 C3.29136778,136.724729 4.29036778,136.458729 5.27036778,136.137729 C7.52936778,135.395729 9.76036778,135.988729 11.9923678,136.288729 C12.3133678,136.331729 12.6003678,136.631729 12.8753678,136.796729" id="Fill-56"></path>
                <path d="M665.570768,149.961729 C664.524768,147.363729 663.435768,144.780729 662.489768,142.148729 C662.372768,141.819729 662.900768,141.026729 663.321768,140.790729 C664.089768,140.357729 664.396768,139.987729 664.062768,139.081729 C663.934768,138.732729 664.160768,138.021729 664.465768,137.787729 C665.518768,136.980729 666.652768,136.265729 667.803768,135.598729 C669.307768,134.727729 672.889768,135.389729 674.134768,136.579729 C675.554768,137.936729 677.110768,139.150729 678.539768,140.498729 C679.074768,141.003729 679.536768,141.659729 679.825768,142.334729 C680.336768,143.529729 680.674768,144.796729 681.122768,146.020729 C681.204768,146.244729 681.423768,146.509729 681.636768,146.581729 C684.028768,147.387729 683.731768,149.439729 683.668768,151.232729 C683.598768,153.157729 683.461768,153.153729 681.413768,153.267729 C679.697768,153.361729 677.959768,153.672729 676.269768,153.501729 C673.006768,153.170729 669.760768,152.596729 666.943768,150.701729 C666.573768,150.452729 666.234768,150.154729 665.881768,149.880729 C665.777768,149.907729 665.674768,149.934729 665.570768,149.961729" id="Fill-58"></path>
                <path d="M391.719168,121.921229 C390.859168,120.489229 390.099168,119.033229 390.302168,117.088229 C390.524168,114.964229 390.283168,112.777229 390.109168,110.629229 C389.991168,109.188229 390.823168,107.955229 392.115168,107.337229 C394.525168,106.183229 397.064168,106.233229 399.607168,106.223218 C400.056168,106.221229 400.570168,106.499229 400.946168,106.789229 C404.073168,109.193229 406.734168,111.977229 407.820168,115.909229 C408.329168,117.754229 407.470168,119.330229 406.674168,120.929229 C405.653168,122.982229 403.832168,123.751229 401.798168,124.290229 C401.194168,124.450229 400.635168,124.934229 400.043168,124.956229 C398.928168,124.998229 397.803168,124.818229 396.684168,124.719229 C396.413168,124.695229 396.144168,124.572229 395.880168,124.588229 C393.885168,124.704229 392.879168,123.252229 391.719168,121.921229" id="Fill-60"></path>
                <path d="M451.975068,319.553529 C451.462068,319.718529 451.059068,319.848529 450.521068,320.021529 C451.002068,319.435529 451.375068,318.971529 451.759068,318.516529 C454.901068,314.795529 459.250068,313.654529 463.816068,315.926529 C465.297068,316.662529 466.846068,317.428529 468.048068,318.526529 C470.052068,320.356529 470.458068,323.009529 470.850068,325.557529 C471.027068,326.709529 470.976068,327.912529 470.880068,329.081529 C470.849068,329.468529 470.430068,329.981529 470.056068,330.156529 C467.979068,331.133529 465.879068,332.068529 463.751068,332.926529 C462.619068,333.383529 461.465068,333.326529 460.423068,332.526529 C459.171068,331.562529 457.893068,330.631529 456.618068,329.698529 C456.401068,329.538529 456.146068,329.341529 455.900068,329.326529 C452.850068,329.141529 452.565068,326.733529 452.221068,324.556529 C452.043068,323.429529 451.355068,322.124529 452.532068,321.006529 C452.662068,320.882529 452.213068,320.149529 451.975068,319.553529" id="Fill-62"></path>
                <path d="M194.593168,130.591629 C194.449168,130.157629 194.285168,129.663629 194.111168,129.137629 C193.738168,129.123629 193.344168,129.107629 192.590168,129.078629 C194.226168,128.052629 195.563168,127.171629 196.939168,126.358629 C199.494168,124.850629 202.102168,125.198629 204.572168,126.473629 C206.925168,127.688629 209.280168,129.050629 210.605168,131.479629 C211.823168,133.714629 211.958168,136.195629 211.686168,138.696629 C211.661168,138.919629 211.578168,139.135629 211.539168,139.357629 C211.355168,140.408629 211.506168,141.760629 210.901168,142.427629 C210.327168,143.059629 208.962168,142.968629 207.947168,143.204629 C206.364168,143.572629 204.792168,144.003629 203.197168,144.305629 C201.925168,144.546629 200.946168,144.182629 200.032168,143.053629 C198.580168,141.259629 197.159168,139.331629 194.764168,138.563629 C194.400168,138.446629 193.977168,137.839629 193.955168,137.439629 C193.845168,135.380629 193.833168,133.313629 193.858168,131.249629 C193.861168,131.032629 194.325168,130.820629 194.593168,130.591629" id="Fill-64"></path>
                <path d="M444.135168,148.110229 C445.468168,147.703229 447.181168,147.094229 448.939168,146.673229 C449.903168,146.442229 450.945168,146.452229 451.947168,146.483229 C454.575168,146.565229 455.450168,148.836229 456.747168,150.517229 C458.035168,152.187229 459.171168,153.973229 460.401168,155.689229 C461.645168,157.425229 461.605168,157.483229 460.386168,159.208229 C459.506168,160.452229 458.718168,161.775229 458.032168,163.134229 C457.515168,164.161229 456.867168,164.554229 455.701168,164.546229 C453.724168,164.531229 451.746168,164.752229 449.768168,164.830229 C448.727168,164.871229 447.361168,163.757229 446.957168,162.808229 C446.756168,162.335229 446.346168,161.899229 445.930168,161.577229 C443.706168,159.855229 442.211168,157.642229 441.501168,154.943229 C440.808168,152.308229 441.921168,150.256229 444.135168,148.110229" id="Fill-66"></path>
                <path d="M540.463268,280.432429 C538.574268,280.572429 536.986268,281.282429 535.501268,282.538429 C534.139268,283.691429 532.547268,284.687429 530.892268,285.326429 C530.130268,285.619429 528.971268,284.909429 528.000268,284.626429 C527.278268,284.415429 526.550268,284.204429 525.860268,283.910429 C525.351268,283.692429 524.731268,283.448429 524.450268,283.023429 C523.254268,281.209429 521.910268,279.428429 521.107268,277.438429 C520.260268,275.345429 519.401268,273.081429 521.422268,270.904429 C522.500268,269.743429 523.093268,268.142429 524.023268,266.823429 C524.284268,266.452429 524.979268,266.167429 525.449268,266.201429 C527.203268,266.325429 528.952268,266.562429 530.690268,266.838429 C531.095268,266.902429 531.515268,267.220429 531.819268,267.529429 C534.352268,270.102429 536.788268,272.772429 539.398268,275.263429 C541.024268,276.817429 541.050268,278.504429 540.463268,280.432429" id="Fill-68"></path>
                <path d="M1101.05163,180.851214 C1098.98663,180.694214 1097.27663,181.251214 1095.55863,182.235214 C1094.03063,183.111214 1092.26063,183.752214 1090.52663,184.002214 C1089.66463,184.127214 1088.64263,183.141214 1087.69363,182.657214 C1087.05963,182.334214 1086.40163,182.050214 1085.80263,181.671214 C1085.37063,181.398214 1084.83863,181.073214 1084.66163,180.643214 C1083.80263,178.556214 1082.79763,176.479214 1082.32963,174.294214 C1081.88163,172.204214 1081.55563,169.944214 1083.69263,168.223214 C1084.90263,167.247214 1085.84163,165.929214 1086.86063,164.728214 C1087.46963,164.010214 1088.08863,163.818214 1089.00563,164.174214 C1090.50863,164.758214 1092.06763,165.199214 1093.59063,165.736214 C1093.85963,165.830214 1094.13363,166.054214 1094.29463,166.293214 C1096.63863,169.772214 1098.93063,173.288214 1101.30963,176.743214 C1102.35863,178.266214 1101.31363,179.472214 1101.05163,180.851214" id="Fill-70"></path>
                <path d="M399.564868,237.702929 C400.606868,238.915929 401.649868,240.128929 402.686868,241.345929 C402.772868,241.446929 402.864868,241.577929 402.876868,241.701929 C403.043868,243.476929 403.353868,245.257929 403.308868,247.028929 C403.265868,248.707929 402.098868,249.749929 400.638868,250.528929 C399.420868,251.179929 398.385868,252.268929 397.112868,252.684929 C396.134868,253.005929 394.819868,252.821929 393.818868,252.436929 C391.587868,251.578929 389.379868,250.589929 387.327868,249.376929 C386.339868,248.793929 385.293868,247.686929 385.031868,246.630929 C384.549868,244.686929 384.650868,242.601929 384.464868,240.580929 C384.309868,238.887929 385.538868,237.669929 386.569868,237.093929 C389.006868,235.732929 391.739868,234.897929 394.367868,233.888929 C394.616868,233.792929 395.035868,233.862929 395.259868,234.019929 C396.808868,235.106929 398.327868,236.236929 399.855868,237.351929 C399.758868,237.469929 399.661868,237.585929 399.564868,237.702929" id="Fill-72"></path>
                <path d="M601.628368,274.014529 C601.869368,274.343529 602.078368,274.703529 602.357368,274.996529 C604.023368,276.735529 603.418368,278.744529 603.064368,280.724529 C603.024368,280.943529 602.893368,281.144529 602.839368,281.362529 C602.099368,284.326529 600.999368,284.876529 597.885368,284.218529 C595.993368,283.818529 594.019368,283.823529 592.107368,283.495529 C591.017368,283.309529 589.958368,282.868529 588.922368,282.450529 C588.087368,282.113529 587.350368,281.448529 586.497368,281.262529 C584.034368,280.727529 583.360368,278.975529 583.158368,276.812529 C583.142368,276.632529 583.178368,276.422529 583.098368,276.277529 C582.097368,274.461529 582.780368,273.153529 584.172368,271.844529 C586.696368,269.470529 589.546368,267.778529 592.972368,267.183529 C594.439368,266.929529 595.813368,267.563529 596.805368,268.501529 C598.575368,270.175529 600.127368,272.080529 601.771368,273.889529 C601.723368,273.931529 601.676368,273.972529 601.628368,274.014529" id="Fill-74"></path>
                <path d="M299.436968,98.0731286 C300.667968,97.3531286 301.890968,96.8541286 302.839968,96.0361286 C304.565968,94.5501286 306.750968,94.7741286 308.704968,94.1651286 C311.013968,93.4451286 312.832968,94.7061286 313.985968,96.3051286 C315.716968,98.7031286 316.976968,101.446129 318.387968,104.069129 C319.360968,105.878129 318.257968,107.523129 317.838968,109.212129 C317.788968,109.414129 317.552968,109.563129 317.446968,109.760129 C316.904968,110.771129 316.952968,112.372129 315.195968,112.191129 C314.023968,112.071129 312.888968,112.175129 311.681968,111.564129 C309.983968,110.705129 307.842968,110.710129 306.161968,109.829129 C303.823968,108.605129 301.693968,106.959129 299.577968,105.358129 C299.171968,105.052129 299.170968,104.126129 299.103968,103.473129 C298.970968,102.177129 298.861968,100.871129 298.870968,99.5701286 C298.873968,99.0771286 299.231968,98.5871286 299.436968,98.0731286" id="Fill-76"></path>
                <path d="M200.257268,49.8167286 C202.129268,53.0227286 202.935268,56.3487286 203.724268,59.6807286 C203.818268,60.0767286 203.859268,60.4837286 203.942268,60.8827286 C204.505268,63.5857286 203.634268,65.0357286 201.038268,66.0797286 C198.565268,67.0757286 196.234268,66.9917286 193.914268,65.6567286 C193.337268,65.3257286 192.570268,65.3107286 192.019268,64.9527286 C191.442268,64.5777286 190.795268,64.0477286 190.570268,63.4417286 C189.555268,60.6967286 188.685268,57.8997286 187.749268,55.1257286 C187.374268,54.0127286 186.956268,52.9157286 186.577268,51.8047286 C186.493268,51.5587286 186.359268,51.1867286 186.470268,51.0407286 C187.253268,50.0037286 188.023268,48.9377286 188.942268,48.0287286 C189.625268,47.3527286 190.632268,47.0287286 190.806268,45.8567286 C190.834268,45.6667286 191.713268,45.4027286 192.114268,45.5047286 C193.843268,45.9407286 195.652268,46.2817286 197.212268,47.0847286 C198.441268,47.7157286 199.349268,48.9707286 200.257268,49.8167286" id="Fill-78"></path>
                <path d="M393.281668,39.0516286 C393.795668,38.9606286 394.293668,38.7616286 394.770668,38.8056286 C396.663668,38.9786286 398.546668,39.3726286 400.437668,39.4056286 C402.104668,39.4336286 403.591668,40.0756286 405.135668,40.4616286 C405.909668,40.6546286 406.652668,41.5256286 407.127668,42.2696286 C409.163668,45.4656286 411.074668,48.7396286 413.079668,51.9546286 C413.518668,52.6576286 413.399668,53.1106286 412.809668,53.5726286 C410.369668,55.4896286 407.563668,56.3726286 404.541668,57.0186286 C402.398668,57.4766286 400.454668,57.1266286 398.413668,56.9136286 C397.410668,56.8096286 396.812668,56.3586286 396.529668,55.4426286 C395.462668,51.9966286 394.400668,48.5496286 394.399668,44.8876286 C394.398668,43.8896286 394.495668,42.8706286 394.321668,41.9016286 C394.159668,40.9986286 393.697668,40.1486286 393.281668,39.0516286" id="Fill-80"></path>
                <path d="M1130.09611,85.7542616 C1130.61111,83.8082616 1132.20111,83.4412616 1133.63211,84.8542616 C1135.49011,86.6882616 1137.30711,88.5692616 1139.03311,90.5262616 C1139.93311,91.5472616 1140.21811,92.8282616 1139.76811,94.2172616 C1139.08711,96.3132616 1138.38511,98.4082616 1137.86611,100.545262 C1137.71611,101.157262 1138.16511,101.915262 1138.34011,102.606262 C1139.05111,102.342262 1139.78711,102.130262 1140.46411,101.797262 C1140.96411,101.550262 1141.38611,101.145262 1141.86211,100.795262 C1142.87311,103.106262 1141.99211,104.729262 1139.68411,104.970262 C1138.11711,105.134262 1136.49411,105.055262 1134.98611,105.435262 C1133.25811,105.869262 1131.95011,104.909262 1130.98711,104.080262 C1129.05611,102.419262 1127.38211,100.396262 1125.87111,98.3252616 C1124.20011,96.0342616 1124.25911,93.1952616 1124.03211,90.4882616 C1124.02411,90.3982616 1124.03011,90.3062616 1124.03511,90.2152616 C1124.09211,89.3372616 1123.80611,88.0712616 1124.27411,87.6582616 C1125.40911,86.6562616 1126.85411,85.9622616 1128.26111,85.3392616 C1128.69911,85.1462616 1129.41311,85.5822616 1130.09611,85.7542616" id="Fill-82"></path>
                <path d="M355.485768,34.7073286 C354.751768,33.7063286 353.996768,32.5873286 353.149768,31.5443286 C352.026768,30.1603286 352.620768,28.5143286 352.375768,27.0003286 C352.248768,26.2093286 352.314768,25.3663286 352.427768,24.5663286 C352.481768,24.1863286 352.773768,23.7393286 353.092768,23.5173286 C353.795768,23.0273286 354.554768,22.5953286 355.342768,22.2593286 C357.623768,21.2893286 359.910768,20.3283286 362.237768,19.4803286 C362.739768,19.2983286 363.519768,19.4423286 364.000768,19.7263286 C365.357768,20.5283286 366.708768,21.3853286 367.890768,22.4163286 C368.436768,22.8923286 368.587768,23.8233286 368.912768,24.5493286 C369.716768,26.3423286 370.581768,28.1123286 371.304768,29.9373286 C371.992768,31.6683286 369.553768,35.5693286 367.756768,35.9693286 C364.673768,36.6543286 361.601768,37.1453286 358.430768,36.6523286 C357.159768,36.4553286 356.008768,36.1863286 355.485768,34.7073286" id="Fill-84"></path>
                <path d="M539.705468,251.968629 C537.752468,252.114629 535.938468,252.306629 534.121468,252.371629 C532.336468,252.437629 530.495468,252.621629 528.779468,252.267629 C527.859468,252.076629 526.895468,250.999629 526.396468,250.080629 C524.856468,247.248629 523.449468,244.334629 522.149468,241.383629 C521.234468,239.304629 521.880468,236.822629 523.635468,235.405629 C524.239468,234.915629 525.160468,234.711629 525.967468,234.607629 C527.010468,234.472629 528.170468,234.829629 529.128468,234.512629 C531.930468,233.585629 533.689468,235.072629 535.471468,236.810629 C537.517468,238.806629 537.905468,241.630629 539.185468,244.006629 C539.422468,244.443629 539.538468,244.947629 539.787468,245.374629 C540.236468,246.147629 540.392468,246.723629 539.838468,247.671629 C539.375468,248.465629 539.641468,249.696629 539.619468,250.733629 C539.609468,251.213629 539.684468,251.696629 539.705468,251.968629" id="Fill-86"></path>
                <path d="M597.885168,197.493929 C599.469168,200.784929 601.067168,204.073929 602.633168,207.377929 C603.006168,208.164929 602.852168,208.629929 601.951168,209.175929 C600.391168,210.121929 598.974168,211.350929 597.645168,212.617929 C597.010168,213.222929 596.536168,213.513929 595.654168,213.300929 C594.254168,212.962929 592.794168,212.864929 591.408168,212.484929 C590.729168,212.298929 589.923168,211.848929 589.580168,211.275929 C587.492168,207.792929 585.517168,204.241929 583.520168,200.704929 C583.376168,200.451929 583.197168,200.051929 583.298168,199.854929 C583.993168,198.503929 584.776168,197.196929 585.493168,195.855929 C585.813168,195.261929 586.144168,194.642929 586.297168,193.994929 C586.500168,193.137929 586.967168,193.014929 587.696168,193.223929 C588.605168,193.486929 589.515168,193.743929 590.427168,193.993929 C590.644168,194.053929 590.893168,194.159929 591.089168,194.105929 C594.387168,193.192929 595.642168,196.154929 597.885168,197.493929" id="Fill-88"></path>
                <path d="M327.789468,224.166829 C326.783468,222.793829 325.451468,221.551829 324.841468,220.020829 C323.741468,217.261829 322.198468,214.360829 323.516468,211.318829 C324.099468,209.972829 325.409468,208.817829 326.635468,207.907829 C327.872468,206.989829 329.404468,206.461829 330.830468,205.814829 C331.112468,205.686829 331.560468,205.671829 331.830468,205.807829 C334.452468,207.125829 336.434468,209.051829 338.089468,211.538829 C339.791468,214.097829 340.072468,217.020829 341.003468,219.771829 C341.111468,220.091829 340.856468,220.737829 340.563468,220.954829 C339.027468,222.090829 337.535468,223.392829 335.812468,224.141829 C334.129468,224.874829 332.201468,225.127829 330.352468,225.377829 C328.776468,225.589829 328.758468,225.454829 327.789468,224.166829" id="Fill-90"></path>
                <path d="M493.893968,245.999829 C494.335968,246.163829 494.703968,246.381829 495.089968,246.424829 C495.776968,246.499829 496.474968,246.468829 497.168968,246.481829 C497.080968,245.712829 497.187968,244.848829 496.867968,244.191829 C495.893968,242.200829 494.771968,240.279829 493.672968,238.351829 C493.187968,237.498829 493.164968,236.834829 493.916968,236.055829 C495.114968,234.812829 496.166968,233.432829 497.298968,232.124829 C497.457968,231.941829 497.702968,231.755829 497.929968,231.720829 C499.688968,231.449829 501.466968,230.973829 503.211968,231.066829 C504.154968,231.116829 505.372968,231.955829 505.894968,232.794829 C507.349968,235.132829 508.507968,237.655829 509.779968,240.107829 C509.860968,240.265829 509.992968,240.450829 509.966968,240.600829 C509.625968,242.591829 509.269968,244.578829 508.902968,246.563829 C508.414968,249.200829 506.684968,250.434829 504.151968,250.801829 C502.517968,251.037829 500.890968,251.333829 499.264968,251.621829 C498.479968,251.761829 497.933968,251.565829 497.389968,250.898829 C496.715968,250.073829 495.918968,249.259829 495.003968,248.744829 C493.823968,248.081829 493.574968,247.241829 493.893968,245.999829" id="Fill-92"></path>
                <path d="M101.365668,221.352329 C102.585668,223.016329 103.837668,224.658329 104.994668,226.363329 C105.195668,226.659329 105.157668,227.330329 104.953668,227.651329 C103.866668,229.363329 102.620668,230.976329 101.573668,232.710329 C100.888668,233.845329 100.115668,234.546329 98.7296678,234.691329 C96.8366678,234.887329 94.9716678,235.374329 93.0786678,235.563329 C92.3966678,235.631329 91.6376678,235.260329 90.9626678,234.976329 C90.2836678,234.692329 89.6096678,234.334329 89.0396678,233.877329 C88.6796678,233.590329 88.3376678,233.080329 88.2916678,232.637329 C87.8866678,228.720329 87.5376678,224.797329 87.1976678,220.874329 C87.1186678,219.965329 87.3216678,219.002329 86.4346678,218.318329 C86.3496678,218.252329 86.5666678,217.796329 86.6436678,217.521329 C86.9696678,217.669329 87.4906678,217.744329 87.5796678,217.980329 C87.7646678,218.472329 87.6306678,219.080329 87.7966678,219.583329 C87.9586678,220.075329 88.2606678,220.787329 88.6306678,220.877329 C89.1206678,220.998329 90.0896678,220.761329 90.2376678,220.415329 C90.8946678,218.875329 92.4746678,217.871329 92.6256678,216.027329 C92.6816678,215.334329 93.3676678,215.005329 94.0846678,215.474329 C95.3696678,216.315329 96.6756678,217.132329 97.9006678,218.055329 C99.0476678,218.917329 100.100668,219.904329 101.196668,220.834329 C101.331668,220.949329 101.473668,221.055329 101.612668,221.165329 C101.529668,221.228329 101.447668,221.290329 101.365668,221.352329" id="Fill-94"></path>
                <path d="M143.062868,344.311329 C142.761868,344.353329 142.610868,344.399329 142.596868,344.373329 C141.657868,342.589329 139.446868,341.750329 138.982868,339.644329 C138.534868,337.609329 138.269868,335.534329 137.825868,333.497329 C137.500868,332.010329 138.897868,331.907329 139.549868,331.443329 C141.284868,330.211329 143.242868,329.301329 145.074868,328.201329 C145.674868,327.840329 146.018868,327.838329 146.611868,328.294329 C147.295868,328.821329 148.231868,329.006329 149.002868,329.439329 C149.918868,329.954329 151.098868,330.373329 151.599868,331.184329 C153.422868,334.133329 155.086868,337.191329 156.627868,340.298329 C156.973868,340.995329 156.623868,342.064329 156.513868,342.951329 C156.409868,343.798329 156.217868,344.636329 156.030868,345.471329 C155.983868,345.679329 155.851868,345.923329 155.682868,346.041329 C154.096868,347.150329 152.526868,348.396329 150.410868,347.917329 C149.903868,347.802329 149.387868,347.351329 149.051868,346.918329 C147.966868,345.519329 146.979868,344.045329 145.918868,342.626329 C145.626868,342.235329 145.266868,341.816329 144.840868,341.624329 C144.349868,341.404329 143.705868,341.263329 143.221868,341.407329 C143.011868,341.469329 142.990868,342.323329 142.966868,342.821329 C142.944868,343.320329 143.027868,343.824329 143.062868,344.311329" id="Fill-96"></path>
                <path d="M481.225068,257.012529 C481.370068,257.240529 481.572068,257.417529 481.540068,257.529529 C481.204068,258.716529 481.967068,259.022529 482.863068,259.240529 C484.590068,259.660529 485.758068,260.765529 486.794068,262.171529 C487.992068,263.796529 489.335068,265.322529 490.702068,266.812529 C491.348068,267.517529 491.868068,268.171529 491.715068,269.185529 C491.641068,269.673529 491.639068,270.173529 491.617068,270.667529 C491.516068,272.868529 491.508068,272.835529 489.459068,273.417529 C488.643068,273.649529 487.892068,274.102529 487.089068,274.394529 C482.544068,276.044529 478.649068,274.283529 475.849068,270.808529 C474.646068,269.316529 473.818068,267.519529 472.835068,265.851529 C472.328068,264.990529 471.412068,264.061529 471.497068,263.248529 C471.573068,262.531529 472.895068,262.019529 473.465068,261.264529 C475.039068,259.180529 477.105068,258.348529 479.662068,258.312529 C480.148068,258.306529 480.624068,257.534529 481.225068,257.012529" id="Fill-98"></path>
                <path d="M32.1996678,129.979329 C32.1456678,129.040329 31.8716678,127.919329 32.0726678,126.891329 C32.3356678,125.547329 32.9046678,124.246329 33.4696678,122.983329 C34.3506678,121.006329 35.3166678,119.064329 36.3036678,117.136329 C36.4836678,116.784329 36.9006678,116.393329 37.2666678,116.321329 C39.6426678,115.860329 42.0346678,116.029329 44.0906678,117.288329 C45.0416678,117.870329 45.4946678,119.227329 46.2636678,120.157329 C46.6856678,120.666329 47.2966678,121.019329 47.8216678,121.443329 C48.0956678,120.877329 48.3726678,120.312329 48.6416678,119.744329 C48.6926678,119.638329 48.7196678,119.520329 48.8486678,119.131329 C49.3846678,120.909329 50.0406678,122.336329 49.2846678,124.033329 C48.9156678,124.861329 48.9526678,125.887329 48.8836678,126.829329 C48.7746678,128.295329 48.2896678,129.528329 47.0746678,130.445329 C46.4636678,130.906329 46.0036678,131.596329 45.3516678,131.963329 C44.6136678,132.380329 43.7486678,132.594329 42.9166678,132.818329 C41.7016678,133.145329 40.4776678,133.472329 39.2386678,133.675329 C37.3266678,133.988329 35.5126678,134.048329 34.3356678,131.966329 C33.9056678,131.207329 33.0106678,130.710329 32.1996678,129.979329" id="Fill-100"></path>
                <path d="M388.931068,71.0140286 C389.668068,72.6180286 390.491068,74.2250286 391.151068,75.8970286 C391.886068,77.7600286 392.518068,79.6690286 393.093068,81.5880286 C393.219068,82.0090286 393.073068,82.6960286 392.785068,83.0260286 C391.428068,84.5790286 389.796068,85.7400286 387.753068,86.2910286 C386.938068,86.5120286 386.208068,87.0510286 385.392068,87.2760286 C384.814068,87.4360286 383.963068,87.5710286 383.568068,87.2730286 C381.660068,85.8390286 379.800068,84.3220286 378.069068,82.6800286 C377.574068,82.2100286 377.372068,81.2270286 377.371068,80.4790286 C377.368068,78.6860286 377.666068,76.8920286 377.639068,75.1010286 C377.625068,74.1570286 377.123068,73.2290286 376.955068,72.2740286 C376.818068,71.4920286 376.614068,70.5860286 376.884068,69.9150286 C377.076068,69.4430286 377.985068,69.1160286 378.623068,69.0000286 C379.955068,68.7590286 381.319068,68.6870286 382.672068,68.5760286 C383.066068,68.5440286 383.487068,68.5500286 383.864068,68.6520286 C385.023068,68.9690286 386.201068,69.2640286 387.305068,69.7230286 C387.893068,69.9670286 388.346068,70.5350286 388.931068,71.0140286" id="Fill-102"></path>
                <path d="M432.937868,15.0916286 C431.907868,15.8476286 430.890868,16.6216286 429.833868,17.3386286 C429.674868,17.4466286 429.316868,17.3396286 429.082868,17.2506286 C425.747868,15.9856286 422.442868,14.6376286 419.079868,13.4576286 C417.121868,12.7706286 415.979868,10.4796286 416.104868,8.62162861 C416.224868,6.84962861 416.805868,5.06062861 415.986868,3.28362861 C415.921868,3.14362861 416.468868,2.48462861 416.779868,2.44562861 C418.889868,2.18162861 420.658868,1.07262861 422.576868,0.31862861 C424.567868,-0.46437139 426.556868,0.35562861 428.459868,1.06262861 C429.075868,1.29162861 429.678868,1.59162861 430.225868,1.95262861 C430.533868,2.15562861 430.794868,2.51562861 430.940868,2.86262861 C431.371868,3.88562861 431.753868,4.93062861 432.116868,5.98162861 C432.625868,7.45662861 433.142868,8.93062861 433.571868,10.4306286 C433.803868,11.2466286 433.823868,12.1216286 434.004868,12.9556286 C434.222868,13.9596286 433.970868,14.7416286 432.937868,15.0916286" id="Fill-104"></path>
                <path d="M434.040468,92.3514286 C434.286468,93.5654286 434.673468,95.3134286 434.956468,97.0784286 C434.987468,97.2764286 434.468468,97.7424286 434.157468,97.7904286 C430.051468,98.4334286 425.946468,99.1134286 421.816468,99.5604286 C420.844468,99.6664286 419.772468,98.9684286 418.769468,98.5824286 C418.568468,98.5064286 418.375468,98.1844286 418.336468,97.9484286 C417.734468,94.3184286 416.445468,90.7684286 417.027468,86.9964286 C417.144468,86.2414286 417.227468,85.4794286 417.366468,84.7294286 C417.403468,84.5324286 417.561468,84.2524286 417.723468,84.2014286 C418.920468,83.8244286 420.127468,83.4734286 421.344468,83.1644286 C421.683468,83.0784286 422.102468,83.2654286 422.422468,83.1514286 C425.256468,82.1374286 426.725468,84.0564286 428.277468,85.8204286 C430.061468,87.8474286 431.850468,89.8704286 434.040468,92.3514286" id="Fill-106"></path>
                <path d="M344.669368,172.960729 C345.973368,174.609729 347.281368,176.255729 348.571368,177.915729 C348.696368,178.076729 348.767368,178.325729 348.764459,178.532729 C348.751368,179.296729 348.731368,180.063729 348.653368,180.823729 C348.206368,185.230729 347.802368,185.688729 342.989368,187.424729 C341.652368,187.906729 340.613368,187.903729 339.584368,186.961729 C338.678368,186.132729 337.514368,185.450729 336.924368,184.436729 C335.710368,182.346729 334.755368,180.099729 333.783368,177.876729 C332.741368,175.496729 333.488368,173.069729 333.809368,170.676729 C333.939368,169.707729 334.769368,169.594729 335.602368,169.638729 C337.144368,169.721729 338.708368,170.092729 340.134368,169.040729 C340.367368,168.869729 341.069368,169.035729 341.351368,169.280729 C342.600368,170.372729 343.775368,171.549729 344.978368,172.695729 C344.875368,172.783729 344.773368,172.872729 344.669368,172.960729" id="Fill-108"></path>
                <path d="M406.075568,268.019429 C406.935568,267.255429 407.766568,266.672429 408.402568,265.923429 C410.027568,264.007429 412.105568,264.196429 414.213568,264.562429 C415.368568,264.762429 416.498568,265.113429 417.634568,265.417429 C419.827568,266.005429 420.343568,267.972429 421.099568,269.716429 C421.491568,270.619429 421.700568,271.602429 422.115568,272.492429 C422.798568,273.952429 422.656568,276.337429 421.410568,277.213429 C420.350568,277.959429 418.982568,278.285429 417.725568,278.726429 C416.616568,279.116429 415.460568,279.368429 414.349568,279.752429 C412.895568,280.257429 411.817568,279.615429 410.796568,278.715429 C409.682568,277.735429 408.570568,276.752429 407.458568,275.771429 C406.679568,275.085429 405.733568,274.513429 405.177568,273.680429 C404.740568,273.028429 404.602568,272.040429 404.661568,271.224429 C404.750568,269.980429 404.480568,268.451429 406.075568,268.019429" id="Fill-110"></path>
                <path d="M411.600068,299.507629 C412.808068,299.176629 414.065068,298.645629 415.360068,298.527629 C416.958068,298.381629 418.373068,298.734629 419.311068,300.447629 C420.139068,301.961629 421.492068,303.179629 422.528068,304.590629 C423.382068,305.754629 424.121068,307.004629 424.890068,308.231629 C424.995068,308.398629 425.078068,308.767629 424.996068,308.834629 C423.638068,309.971629 423.604068,312.130629 421.718068,312.899629 C420.080068,313.567629 418.560068,314.399629 416.665068,313.897629 C415.678068,313.635629 414.599068,313.702629 413.561068,313.652629 C412.530068,313.600629 407.959068,310.128629 407.778068,309.100629 C407.534068,307.721629 407.425068,306.316629 407.313068,304.918629 C407.290068,304.640629 407.445068,304.285629 407.633068,304.065629 C408.885068,302.590629 410.168068,301.144629 411.600068,299.507629" id="Fill-112"></path>
                <path d="M360.308068,101.852829 C359.392068,98.6358286 358.755068,95.6248286 357.650068,92.7978286 C356.931068,90.9598286 358.325068,89.8048286 358.411068,88.2858286 C358.416068,88.1848286 358.777068,88.0618286 358.986068,88.0218286 C361.014068,87.6368286 363.045068,87.2688286 365.074068,86.8908286 C367.235068,86.4878286 369.362068,87.4508286 370.051068,89.4948286 C371.084068,92.5588286 372.490068,95.5668286 372.399068,98.8988286 C372.374068,99.7688286 372.097068,100.785829 371.577068,101.456829 C370.108068,103.352829 368.226068,104.266829 365.932068,103.164829 C365.002068,102.717829 363.982068,102.418829 362.972068,102.190829 C362.013068,101.973829 361.013068,101.935829 360.308068,101.852829" id="Fill-114"></path>
                <path d="M341.027768,92.7962286 C342.135768,94.3082286 343.240768,95.8062286 344.335768,97.3122286 C344.515768,97.5612286 344.728768,97.8242286 344.797768,98.1122286 C345.402768,100.650229 345.972768,103.196229 346.565768,105.738229 C346.938768,107.342229 346.604768,107.837229 345.079768,108.525229 C344.144768,108.946229 343.373768,109.720229 342.452768,110.185229 C340.474768,111.181229 338.649768,110.203229 336.840768,109.545229 C335.652768,109.112229 334.256768,108.776229 333.427768,107.932229 C332.014768,106.491229 332.061768,104.383229 331.780768,102.462229 C331.564768,100.985229 332.298768,99.8152286 332.945768,98.6682286 C333.718768,97.2962286 334.655768,95.9912286 335.683768,94.7982286 C336.108768,94.3052286 336.940768,94.1312286 337.616768,93.8922286 C338.769768,93.4842286 339.944768,93.1402286 341.027768,92.7962286" id="Fill-116"></path>
                <path d="M476.797268,228.654129 C477.636268,229.083129 478.532268,229.542129 479.216268,229.891129 C478.326268,231.317129 477.264268,232.607129 476.660268,234.085129 C475.681268,236.483129 473.617268,236.898129 471.526268,237.512129 C468.963268,238.265129 467.311268,236.602129 465.487268,235.413129 C464.516268,234.778129 463.721268,233.874129 462.746268,233.244129 C461.945268,232.726129 461.803268,232.133129 462.006268,231.298129 C462.281268,230.170129 462.494268,229.078129 463.486268,228.232129 C464.219268,227.608129 464.685268,226.673129 465.283268,225.886129 C465.416268,225.711129 465.603268,225.455129 465.772268,225.449129 C466.712268,225.416129 467.667268,225.550129 468.593268,225.433129 C469.769268,225.286129 470.279268,225.981129 470.874268,226.773129 C471.269268,227.300129 471.840268,227.733129 472.406268,228.088129 C473.433268,228.730129 474.492268,229.332129 475.586268,229.849129 C476.009268,230.050129 476.563268,229.974129 477.057268,230.024129 C476.971268,229.572129 476.886268,229.119129 476.797268,228.654129" id="Fill-118"></path>
                <path d="M411.173268,223.424629 C411.029268,223.249629 410.920268,223.022629 410.738268,222.907629 C409.050268,221.841629 409.282268,219.814629 408.437268,218.328629 C408.354268,218.183629 408.320268,217.961629 408.361268,217.800629 C408.859268,215.828629 409.150268,213.758629 409.990268,211.943629 C410.348268,211.172629 411.851268,210.896629 412.868268,210.483629 C413.314268,210.302629 413.848268,210.293629 414.343268,210.288629 C415.323268,210.278629 415.975268,210.622629 416.405268,211.660629 C417.182268,213.530629 418.197268,215.299629 419.094268,217.120629 C419.245268,217.428629 419.358268,217.778629 419.388268,218.118629 C419.493268,219.326629 419.553268,220.539629 419.636268,221.749629 C419.682268,222.432629 419.817268,223.100629 418.910268,223.433629 C418.665268,223.523629 418.604268,224.090629 418.441268,224.431629 C418.220268,224.893629 418.069268,225.424629 417.736268,225.789629 C416.722268,226.910629 415.573268,227.163629 414.283268,226.153629 C413.199268,225.306629 412.072268,224.514629 410.964268,223.696629 C411.033268,223.606629 411.104268,223.515629 411.173268,223.424629" id="Fill-120"></path>
                <path d="M290.156668,170.303529 C291.165668,172.220529 292.732668,173.977529 292.220668,176.384529 C292.151668,176.712529 291.797668,177.115529 291.481668,177.231529 C290.057668,177.747529 288.503668,177.965529 287.589668,179.428529 C287.408668,179.717529 286.909668,179.909529 286.534668,179.954529 C284.295668,180.224529 282.119668,178.788529 280.763668,176.948529 C279.482668,175.207529 279.313668,173.344529 280.125668,171.736529 C280.846668,170.307529 282.378668,169.226529 283.705668,168.189529 C284.415668,167.635529 285.518668,167.119529 286.323668,167.264529 C287.409668,167.459529 288.427668,168.238529 289.373668,168.907529 C289.766668,169.184529 289.903668,169.826529 290.156668,170.303529" id="Fill-122"></path>
            </g>
        </g>
    </g>
</svg>