<?xml version="1.0" encoding="UTF-8"?>
<svg width="311px" height="472px" viewBox="0 0 311 472" version="1.1" xmlns="http://www.w3.org/2000/svg" xmlns:xlink="http://www.w3.org/1999/xlink">
    <!-- Generator: Sketch 58 (84663) - https://sketch.com -->
    <title>Fill 153</title>
    <desc>Created with Sketch.</desc>
    <g id="Design" stroke="none" stroke-width="1" fill="none" fill-rule="evenodd">
        <g id="My-Sunshine-Landing-v1" transform="translate(0.000000, -2153.000000)" fill="#FFEB2D">
            <path d="M-64.9377848,2209.92229 C-70.5651194,2207.51559 -76.5362911,2212.56706 -75.3018758,2218.56481 C-75.1519468,2219.29202 -74.9920225,2220.01023 -74.8171054,2220.72544 C-72.5241915,2230.09517 -70.4871563,2239.55793 -67.4405993,2248.7076 C-56.2199141,2282.40342 -10.0557801,2323.31034 -5.07014163,2326.87638 C3.65672481,2333.1202 12.6024876,2339.07093 21.6132196,2344.90163 C26.6668259,2348.17259 32.0702665,2350.89738 37.2498132,2353.98028 C40.9800463,2356.19993 48.4255197,2360.02904 48.3025779,2359.66794 C45.6438373,2351.87967 35.8324845,2314.71583 32.7499446,2304.3168 C31.5695037,2300.33364 18.0099263,2271.83134 1.24586673,2257.49416 C-9.22517357,2247.3512 -19.4353374,2236.77912 -31.8724465,2228.8308 C-36.1854036,2226.075 -39.9796065,2222.45394 -44.420503,2219.96122 C-51.0183779,2216.25714 -57.8851254,2212.98218 -64.8298359,2209.96831 C-64.8658189,2209.9533 -64.9018019,2209.9373 -64.9377848,2209.92229 M64.128082,2293.46164 C63.7622553,2289.48748 63.3254622,2285.75739 63.129555,2282.0153 C63.0735815,2280.93199 63.355448,2279.37753 64.0871014,2278.78236 C68.321096,2275.33836 69.5345212,2270.35891 71.0747917,2265.57951 C74.304262,2255.56559 77.3468209,2245.49166 80.5123215,2235.45573 C82.6543069,2228.66175 84.6293714,2221.80075 87.153176,2215.14882 C88.6074872,2211.3177 91.0453325,2207.86469 92.967422,2204.20363 C94.7985547,2200.71361 96.3967977,2197.09355 98.3558698,2193.67856 C100.211991,2190.44261 102.225037,2187.26269 104.486966,2184.30182 C108.2142,2179.4234 112.207309,2174.74904 116.059484,2169.96665 C116.460294,2169.4695 116.866102,2168.84932 116.948063,2168.24314 C117.549778,2163.80885 120.514374,2160.82998 123.876782,2158.71937 C130.438673,2154.60217 137.660253,2152.24848 145.623481,2153.21677 C147.12377,2153.39982 148.638053,2153.48484 150.149337,2153.49485 C157.141026,2153.54086 162.807342,2156.86183 167.417158,2161.52719 C172.302844,2166.47163 176.218989,2172.36134 180.94575,2177.48084 C186.819968,2183.84269 190.098415,2191.66097 193.121983,2199.41723 C197.085106,2209.58119 199.826807,2220.16128 197.158071,2231.37454 C196.169539,2235.52976 196.596337,2240.05808 195.378914,2244.11626 C193.016033,2251.99856 189.727591,2259.59977 187.232772,2267.44806 C184.877888,2274.85622 181.362553,2281.64119 177.6743,2288.42517 C174.653731,2293.98279 172.857581,2300.26962 169.445198,2305.53716 C163.90982,2314.08065 158.087577,2322.45409 150.366235,2329.41612 C146.202207,2333.17021 143.210624,2338.23969 139.782248,2342.78702 C139.238505,2343.50823 139.184531,2344.60054 138.770727,2345.95794 C142.895773,2346.07097 146.674983,2346.04897 150.436201,2346.30204 C161.936754,2347.07427 173.477288,2347.56641 184.911872,2348.92981 C192.21941,2349.80006 199.491966,2351.60158 206.557619,2353.7292 C216.937702,2356.85612 227.135872,2360.59821 237.381019,2364.16725 C250.760682,2368.82761 261.419633,2377.54115 271.417897,2387.22797 C275.367027,2391.05508 279.800927,2394.46008 283.309265,2398.6503 C292.948699,2410.16265 302.392226,2421.91208 306.647211,2436.72639 C308.415373,2442.88019 310.70229,2449.13601 310.963167,2455.41884 C311.467927,2467.6354 306.784146,2478.30051 296.952803,2485.7937 C293.141608,2488.69854 288.047021,2490.16397 283.324258,2491.56438 C277.478027,2493.29588 271.445884,2495.13442 265.428734,2495.39349 C254.855742,2495.84863 244.210784,2497.06098 233.625798,2494.65128 C225.66257,2492.83775 217.53342,2491.76544 209.534209,2490.10195 C197.831752,2487.66824 186.016349,2485.56263 174.562774,2482.23466 C167.09631,2480.06503 160.17259,2476.00784 153.030972,2472.73889 C147.236717,2470.08812 141.48744,2467.33632 135.694184,2464.68154 C135.197419,2464.45448 134.522739,2464.61752 133.931019,2464.60052 C133.915027,2465.17669 133.730114,2465.81187 133.90903,2466.32002 C135.996041,2472.23975 138.395904,2478.06344 140.197051,2484.06719 C142.281064,2491.01622 144.067218,2498.07227 145.577503,2505.16834 C146.826911,2511.03305 147.383647,2517.0438 148.439147,2522.95453 C149.508641,2528.95227 150.75605,2534.91701 152.030446,2540.87475 C153.782616,2549.06914 151.796557,2557.03346 150.782038,2565.0768 C150.004406,2571.2396 148.086315,2576.99828 145.185688,2582.42786 C143.657412,2585.29169 141.941225,2588.07751 140.069112,2590.72828 C135.418315,2597.3172 130.702548,2603.86411 125.837853,2610.29598 C124.758364,2611.7224 123.016189,2612.69168 121.47392,2613.71398 C117.080001,2616.62583 112.83801,2619.87277 108.146232,2622.20245 C103.251551,2624.63316 97.2703839,2626.01856 92.3896957,2624.096 C85.8407976,2621.51725 78.6931832,2620.11985 72.9948822,2615.10338 C67.662408,2610.41002 61.1095118,2607.13306 55.5391503,2602.67476 C51.8638911,2599.7319 48.9242834,2595.85077 45.7537852,2592.30274 C43.6477827,2589.94405 41.4728129,2587.58736 39.764622,2584.94859 C37.0778946,2580.79939 34.6750327,2576.45712 32.3061548,2572.11285 C30.131185,2568.12569 27.6913406,2564.18654 26.238029,2559.9283 C24.9156553,2556.05717 24.3239356,2551.79793 24.2039924,2547.68773 C24.0450677,2542.28316 22.9365927,2537.33272 20.7616229,2532.36127 C18.7855589,2527.84395 18.0009306,2522.82249 16.3936918,2518.12412 C11.5739747,2504.04602 13.1482291,2489.89789 16.137813,2475.8548 C17.1423372,2471.13842 19.7690931,2466.77015 21.6062229,2462.22383 C21.8151239,2461.70668 21.7091741,2461.06149 21.7121727,2461.00647 C13.4630799,2462.49691 5.37291192,2464.8956 -2.78422438,2465.15268 C-10.0857659,2465.38375 -16.4567483,2469.24487 -23.8322548,2468.74873 C-30.9938626,2468.26759 -38.2294355,2469.03381 -45.4230281,2468.85476 C-52.9504627,2468.6677 -60.2390104,2467.08124 -67.1237494,2463.8463 C-76.4893133,2459.44502 -85.9768195,2455.29781 -95.2454293,2450.70447 C-100.254057,2448.22275 -104.984816,2445.14785 -109.715575,2442.14297 C-114.229437,2439.27514 -118.603366,2436.18224 -122.98629,2433.11234 C-123.856877,2432.50316 -124.404618,2431.44285 -125.249218,2430.78066 C-126.639559,2429.69134 -128.197821,2428.81809 -129.602156,2427.74778 C-133.334388,2424.90395 -137.375474,2422.3482 -140.621936,2419.02123 C-143.503571,2416.06937 -145.399673,2412.17224 -149.042948,2409.84556 C-149.54571,2409.52447 -149.827576,2408.80226 -150.126434,2408.22309 C-152.233436,2404.1409 -154.411405,2400.09072 -156.352485,2395.9315 C-156.923215,2394.71015 -157.094134,2393.13769 -156.953201,2391.77729 C-156.51141,2387.51305 -156.205555,2383.17779 -155.148056,2379.04958 C-153.982608,2374.50026 -152.14248,2370.10998 -150.418296,2365.7197 C-147.618622,2358.59162 -142.299142,2353.11503 -136.521878,2348.72875 C-131.308348,2344.77059 -125.617044,2340.95348 -118.774285,2339.43304 C-114.045525,2338.38173 -109.689588,2335.66794 -104.963826,2334.57562 C-98.7977468,2333.15121 -92.4567502,2332.34597 -86.1457395,2331.7418 C-80.784279,2331.22865 -75.3328611,2330.97657 -69.9714006,2331.33568 C-62.3969883,2331.84283 -54.8525618,2332.91714 -47.3231281,2333.94844 C-42.5134063,2334.60763 -37.7446651,2335.57992 -32.9759238,2336.50418 C-29.559542,2337.16638 -26.1741455,2337.98162 -21.9061671,2338.91989 C-25.0096971,2336.11107 -27.319603,2333.53732 -30.0822944,2331.61576 C-36.9060623,2326.87238 -44.2355906,2322.81419 -50.798482,2317.75172 C-56.8786021,2313.06235 -62.1960834,2307.3897 -67.9103768,2302.21819 C-74.7211508,2296.0534 -79.9616686,2288.74226 -84.4835268,2280.77594 C-86.8394109,2276.62473 -90.4207146,2273.16472 -92.7246233,2268.99251 C-95.5302944,2263.90903 -98.4139286,2258.60648 -99.749296,2253.03586 C-101.675384,2244.99551 -102.829837,2236.65508 -103.18267,2228.39368 C-103.427554,2222.651 -102.398041,2216.64325 -100.769813,2211.09663 C-99.4714277,2206.67435 -92.4447559,2188.10793 -60.4179257,2188.47004 C-54.9115338,2188.69911 -35.3438023,2189.7064 -21.1175406,2198.33091 C-12.3726827,2203.63146 -3.47389771,2208.79196 3.60474943,2216.26114 C11.9088161,2225.02169 20.2428686,2233.83326 27.6723496,2243.32103 C36.6890788,2254.83638 41.6537272,2268.39733 45.2920039,2282.55646 C48.135657,2293.62269 52.0807883,2304.40183 55.3502397,2315.36302 C58.4867541,2325.88209 61.3344053,2336.48718 64.40695,2347.02525 C66.1661167,2353.05701 65.1895793,2358.81069 62.7767221,2364.3613 C61.3214114,2367.70928 58.4107901,2368.76359 54.6715612,2367.65526 C54.475654,2368.01137 54.5086384,2367.95235 54.3127312,2368.30945 C55.9269666,2369.75388 57.4372512,2371.33534 59.1544378,2372.64472 C61.5602983,2374.47825 62.1180341,2377.63017 60.0020364,2379.58274 C58.2088857,2381.23822 56.1388662,2382.59062 54.2407652,2384.13807 C53.612063,2384.65022 53.2452368,2385.60249 52.5605611,2385.90158 C51.6469938,2386.3007 50.2786419,2386.73282 49.5579833,2386.33371 C43.0170814,2382.71665 36.7640432,2378.53343 30.0522224,2375.28849 C23.360392,2372.05455 15.9968798,2370.83719 8.58539031,2369.95593 C3.45082234,2369.34476 -1.72572575,2368.43549 -6.65938887,2366.92305 C-19.9311026,2362.85787 -33.1478424,2358.58662 -46.2596319,2354.03129 C-56.1329553,2350.60329 -66.3151324,2349.66102 -76.5782712,2349.593 C-90.7755465,2349.49697 -104.983817,2350.47326 -118.274521,2355.90184 C-123.796906,2358.1575 -129.492208,2360.79326 -133.319395,2366.0698 C-135.782229,2369.46579 -135.275469,2372.72974 -133.696217,2375.95468 C-132.653711,2378.0823 -131.106443,2380.08189 -129.40325,2381.74637 C-119.246061,2391.66626 -109.053889,2401.55214 -98.6987936,2411.26297 C-95.8391481,2413.94576 -92.3208146,2415.91433 -89.2182842,2418.35304 C-86.9823432,2420.11255 -85.0582546,2422.27718 -82.777335,2423.96868 C-76.1644672,2428.87411 -69.6955313,2434.04261 -62.6998448,2438.34187 C-54.051941,2443.65641 -44.9342597,2448.34178 -34.938994,2450.58243 C-27.8113701,2452.1799 -20.6907428,2450.78449 -13.7480313,2448.70689 C-10.1167513,2447.62057 -6.34453801,2446.89936 -2.85019313,2445.48595 C3.06100698,2443.09525 8.79629041,2440.26943 14.6175331,2437.65467 C18.9804666,2435.69509 23.3284072,2433.69251 27.745315,2431.86098 C37.2648061,2427.91483 46.8002895,2424.00069 56.3797521,2420.20458 C61.2054664,2418.29202 66.0821565,2416.44648 71.0667955,2415.03507 C71.2906894,2414.97105 71.5245786,2414.93804 71.764465,2414.92904 C74.268279,2414.84002 76.0054562,2417.45678 75.1528601,2419.81447 C74.9269671,2420.43965 74.6740868,2421.04282 74.3622345,2421.59498 C74.0094017,2422.22117 73.4626606,2422.70831 72.8219641,2423.0324 C62.0280767,2428.505 48.3775424,2444.2786 46.9362251,2446.03311 C45.6568311,2447.59156 38.5931769,2462.11179 37.6286337,2467.90548 C36.7430532,2473.22603 35.7135408,2478.62761 35.7835077,2483.98017 C35.907449,2493.46893 36.3372454,2503.00771 37.5216844,2512.41445 C38.8660476,2523.08556 40.6611973,2533.76268 43.226982,2544.19972 C45.481914,2553.37639 48.8693095,2562.22097 54.0678472,2570.39235 C58.5147408,2577.38339 63.4464049,2583.84227 69.7254308,2589.11781 C73.6825565,2592.44278 78.2254047,2595.11756 82.6822937,2597.78834 C87.4580316,2600.65017 92.3617089,2603.32995 97.3603413,2605.78167 C101.369442,2607.74924 105.318572,2607.97931 109.729483,2605.79767 C120.208519,2600.61216 125.649942,2591.76758 127.904874,2581.00745 C130.877466,2566.82231 131.238295,2552.39711 129.336196,2537.9749 C127.99783,2527.83395 126.689449,2517.68899 125.226142,2507.56604 C124.87331,2505.12933 124.377544,2502.71663 123.782826,2500.32693 C121.101096,2489.5688 118.752209,2478.70963 115.638684,2468.07553 C114.405268,2463.8643 111.74153,2460.0832 109.830435,2456.05703 C107.22167,2450.56443 104.409003,2445.13485 102.343981,2439.43819 C101.73427,2437.75469 102.762782,2434.74082 104.07716,2433.25438 C106.392063,2430.63562 109.446617,2428.64404 112.296267,2426.53342 C116.715174,2423.25947 121.425942,2424.54084 125.917815,2426.21133 C129.36918,2427.4947 132.645628,2429.29323 135.906084,2431.03774 C140.598861,2433.54947 145.233666,2436.17523 149.844482,2438.83701 C154.74516,2441.66683 176.502855,2456.01902 180.137133,2457.69451 C183.591497,2459.28797 187.079845,2460.84642 190.660149,2462.11379 C197.85774,2464.66254 205.377178,2466.44806 212.313893,2469.55396 C224.222252,2474.88552 236.608385,2477.82037 249.506276,2478.76165 C256.420001,2479.26479 263.223779,2478.15547 269.883624,2476.17589 C276.811343,2474.11629 281.88494,2467.03923 281.826967,2459.393 C281.719018,2445.24388 278.06375,2431.77795 272.800243,2418.88419 C269.183956,2410.02361 261.78546,2404.08388 253.836225,2398.6713 C244.672566,2392.43148 234.269493,2389.61967 224.189268,2385.75054 C214.080056,2381.87141 203.877888,2378.31037 193.349875,2375.87266 C183.266651,2373.53798 173.048491,2371.79047 162.890302,2369.78588 C155.974578,2368.42149 149.098835,2366.78001 142.132135,2365.76771 C133.368286,2364.49234 124.536469,2363.6551 115.717646,2362.80185 C113.233823,2362.56178 110.540099,2363.77013 109.044807,2360.41515 C108.324148,2358.79968 105.509481,2358.1765 106.459032,2355.68177 C107.375597,2353.27407 107.996303,2350.40124 109.709492,2348.71174 C115.898561,2342.61096 120.406425,2335.28883 125.493016,2328.38082 C126.628478,2326.84037 128.14376,2325.578 129.500118,2324.2036 C132.251815,2321.41279 135.186425,2318.77902 137.731219,2315.81115 C141.053646,2311.93602 144.582974,2308.0929 147.101781,2303.70563 C150.962952,2296.97967 154.268386,2289.9016 157.375914,2282.78353 C159.91971,2276.95683 161.845797,2270.85905 164.015769,2264.87231 C167.30821,2255.78866 168.833487,2246.48895 167.701024,2236.79813 C166.952378,2230.39926 166.881412,2223.89536 165.731956,2217.57952 C165.001303,2213.56435 162.882306,2209.79525 161.331041,2205.93813 C158.421419,2198.69902 155.812655,2191.31087 152.430257,2184.29882 C149.810498,2178.86824 146.032287,2173.9128 140.5159,2171.09698 C138.702759,2170.17071 135.443303,2170.33075 133.695131,2171.39406 C130.017873,2173.62871 126.254655,2176.29549 123.691869,2179.67048 C117.941593,2187.24168 112.767044,2195.26602 107.609487,2203.26935 C101.524369,2212.71211 97.8531079,2223.22617 94.9075031,2233.98831 C91.8439542,2245.18657 89.0102964,2256.44785 85.9777328,2267.65512 C84.6423653,2272.59156 83.5318913,2277.67604 81.4308864,2282.28838 C79.9915682,2285.45131 77.0659539,2287.95403 74.7110693,2290.67183 C73.8984542,2291.6091 72.9139206,2292.56938 71.8054456,2293.03051 C70.6320014,2293.51966 69.2196704,2293.49765 67.9052929,2293.56567 C66.7168558,2293.62669 65.519423,2293.50765 64.128082,2293.46164" id="Fill-153"></path>
        </g>
    </g>
</svg>