<?xml version="1.0" encoding="UTF-8"?>
<svg width="468px" height="472px" viewBox="0 0 468 472" version="1.1" xmlns="http://www.w3.org/2000/svg" xmlns:xlink="http://www.w3.org/1999/xlink">
    <!-- Generator: Sketch 58 (84663) - https://sketch.com -->
    <title>Fill 153</title>
    <desc>Created with Sketch.</desc>
    <g id="Design" stroke="none" stroke-width="1" fill="none" fill-rule="evenodd">
        <g id="My-Sunshine-Landing-v1" transform="translate(-177.000000, -3978.000000)" fill="#ECF2F8">
            <g id="Group-3" transform="translate(177.000000, 3978.000000)">
                <path d="M92.0622152,56.922292 C86.4348806,54.5155906 80.4637089,59.5670628 81.6981242,65.5648109 C81.8480532,66.2920228 82.0079775,67.0102322 82.1828946,67.7254406 C84.4758085,77.0951715 86.5128437,86.5579294 89.5594007,95.7075961 C100.780086,129.403417 146.94422,170.310339 151.929858,173.876379 C160.656725,180.120198 169.602488,186.070933 178.61322,191.901632 C183.666826,195.172585 189.070266,197.89738 194.249813,200.980278 C197.980046,203.199925 205.42552,207.029041 205.302578,206.667936 C202.643837,198.879666 192.832484,161.715834 189.749945,151.316804 C188.569504,147.333643 175.009926,118.831336 158.245867,104.494157 C147.774826,94.3512008 137.564663,83.7791195 125.127554,75.830803 C120.814596,73.0749998 117.020394,69.4539444 112.579497,66.9612179 C105.981622,63.2571383 99.1148746,59.9821838 92.1701641,56.9683054 C92.1341811,56.953301 92.0981981,56.9372964 92.0622152,56.922292 M221.128082,140.46164 C220.762255,136.487482 220.325462,132.757394 220.129555,129.015304 C220.073582,127.931988 220.355448,126.377535 221.087101,125.782361 C225.321096,122.338358 226.534521,117.358906 228.074792,112.579513 C231.304262,102.565595 234.346821,92.4916588 237.512322,82.4557338 C239.654307,75.6617537 241.629371,68.800754 244.153176,62.1488153 C245.607487,58.3176987 248.045332,54.8646923 249.967422,51.2036253 C251.798555,47.7136081 253.396798,44.093553 255.35587,40.6785577 C257.211991,37.4426146 259.225037,34.2626878 261.486966,31.3018248 C265.2142,26.423403 269.207309,21.7490407 273.059484,16.9666468 C273.460294,16.4695019 273.866102,15.8493212 273.948063,15.2431445 C274.549778,10.8088521 277.514374,7.82998391 280.876782,5.71936876 C287.438673,1.60216879 294.660253,-0.751517195 302.623481,0.216765014 C304.12377,0.399818365 305.638053,0.484843146 307.149337,0.494846061 C314.141026,0.540859472 319.807342,3.86182738 324.417158,8.52718711 C329.302844,13.4716282 333.218989,19.3613448 337.94575,24.4808369 C343.819968,30.842691 347.098415,38.6609697 350.121983,46.4172303 C354.085106,56.5811926 356.826807,67.1612762 354.158071,78.3745443 C353.169539,82.5297554 353.596337,87.0580752 352.378914,91.1162579 C350.016033,98.9985553 346.727591,106.599771 344.232772,114.448058 C341.877888,121.856217 338.362553,128.641195 334.6743,135.425172 C331.653731,140.982792 329.857581,147.269624 326.445198,152.537159 C320.90982,161.080649 315.087577,169.45409 307.366235,176.416119 C303.202207,180.170213 300.210624,185.239691 296.782248,189.787016 C296.238505,190.508226 296.184531,191.600544 295.770727,192.95794 C299.895773,193.070973 303.674983,193.048967 307.436201,193.30204 C318.936754,194.074265 330.477288,194.566409 341.911872,195.929806 C349.21941,196.80006 356.491966,198.601585 363.557619,200.729205 C373.937702,203.856116 384.135872,207.598207 394.381019,211.167247 C407.760682,215.827605 418.419633,224.541145 428.417897,234.227968 C432.367027,238.055084 436.800927,241.460076 440.309265,245.650297 C449.948699,257.162653 459.392226,268.912077 463.647211,283.726395 C465.415373,289.880188 467.70229,296.136012 467.963167,302.418843 C468.467927,314.635403 463.784146,325.300512 453.952803,332.793696 C450.141608,335.698542 445.047021,337.163969 440.324258,338.564377 C434.478027,340.295882 428.445884,342.134418 422.428734,342.393493 C411.855742,342.848626 401.210784,344.060979 390.625798,341.651277 C382.66257,339.837749 374.53342,338.765436 366.534209,337.101951 C354.831752,334.668242 343.016349,332.562628 331.562774,329.234658 C324.09631,327.065026 317.17259,323.007843 310.030972,319.738891 C304.236717,317.088118 298.48744,314.336316 292.694184,311.681542 C292.197419,311.454476 291.522739,311.617524 290.931019,311.600519 C290.915027,312.176687 290.730114,312.811872 290.90903,313.32002 C292.996041,319.239745 295.395904,325.063443 297.197051,331.067192 C299.281064,338.016218 301.067218,345.072274 302.577503,352.168342 C303.826911,358.033052 304.383647,364.043803 305.439147,369.954526 C306.508641,375.952274 307.75605,381.917013 309.030446,387.874749 C310.782616,396.069137 308.796557,404.033459 307.782038,412.076803 C307.004406,418.239599 305.086315,423.998277 302.185688,429.42786 C300.657412,432.291695 298.941225,435.077506 297.069112,437.728279 C292.418315,444.317199 287.702548,450.864108 282.837853,457.295982 C281.758364,458.722398 280.016189,459.69168 278.47392,460.713978 C274.080001,463.625827 269.83801,466.872773 265.146232,469.202452 C260.251551,471.633161 254.270384,473.018565 249.389696,471.096004 C242.840798,468.517253 235.693183,467.119845 229.994882,462.103383 C224.662408,457.410015 218.109512,454.13306 212.53915,449.674761 C208.863891,446.731903 205.924283,442.850772 202.753785,439.302738 C200.647783,436.94405 198.472813,434.587364 196.764622,431.948595 C194.077895,427.799385 191.675033,423.45712 189.306155,419.112854 C187.131185,415.125691 184.691341,411.186543 183.238029,406.928302 C181.915655,403.057174 181.323936,398.797933 181.203992,394.687735 C181.045068,389.28316 179.936593,384.332717 177.761623,379.361268 C175.785559,374.843951 175.000931,369.822488 173.393692,365.124118 C168.573975,351.046015 170.148229,336.897892 173.137813,322.854799 C174.142337,318.138424 176.769093,313.770151 178.606223,309.223826 C178.815124,308.706675 178.709174,308.061487 178.712173,308.006471 C170.46308,309.496906 162.372912,311.895605 154.215776,312.15268 C146.914234,312.383747 140.543252,316.244872 133.167745,315.748728 C126.006137,315.267588 118.770565,316.033811 111.576972,315.854759 C104.049537,315.667704 96.7609896,314.081242 89.8762506,310.846299 C80.5106867,306.445016 71.0231805,302.297807 61.7545707,297.704469 C56.745943,295.222745 52.0151838,292.147849 47.2844246,289.142973 C42.7705626,286.275138 38.3966343,283.182236 34.0137104,280.112341 C33.1431227,279.503164 32.5953822,278.442855 31.7507822,277.780662 C30.3604408,276.691344 28.8021788,275.81809 27.397844,274.747778 C23.6656118,271.903949 19.6245259,269.348204 16.3780636,266.021235 C13.4964285,263.069374 11.6003266,259.172238 7.95705231,256.84556 C7.45429045,256.524467 7.17242395,255.802256 6.87356551,255.223087 C4.76656351,251.140898 2.58859512,247.090717 0.647514533,242.931505 C0.0767848643,241.710149 -0.0941341784,240.137691 0.0467990673,238.777294 C0.488589809,234.513051 0.794444939,230.177788 1.85194405,226.049585 C3.01739202,221.500259 4.85752043,217.109979 6.58170375,212.7197 C9.38137766,205.591622 14.700858,200.115026 20.4781216,195.728748 C25.6916522,191.770594 31.3829564,187.953481 38.2257153,186.433038 C42.9544755,185.381732 47.3104123,182.667941 52.0361739,181.575623 C58.2022532,180.151207 64.5432498,179.345973 70.8542605,178.741797 C76.215721,178.228647 81.6671389,177.976574 87.0285994,178.335678 C94.6030117,178.842826 102.147438,179.917139 109.676872,180.94844 C114.486594,181.607632 119.255335,182.579915 124.024076,183.504185 C127.440458,184.166378 130.825854,184.981615 135.093833,185.919889 C131.990303,183.11107 129.680397,180.53732 126.917706,178.61576 C120.093938,173.872377 112.764409,169.814195 106.201518,164.751719 C100.121398,160.062352 94.8039166,154.389699 89.0896232,149.218192 C82.2788492,143.053395 77.0383314,135.742264 72.5164732,127.775943 C70.1605891,123.624733 66.5792854,120.164724 64.2753767,115.992508 C61.4697056,110.909027 58.5860714,105.606481 57.250704,100.035858 C55.3246163,91.9955142 54.1701631,83.6550834 53.8173302,75.3936756 C53.5724462,69.6510018 54.6019586,63.6432509 56.2301873,58.0966343 C57.5285723,53.6743454 64.5552441,35.1079342 96.5820743,35.4700397 C102.088466,35.6991064 121.656198,36.7064 135.882459,45.3309137 C144.627317,50.6314585 153.526102,55.7919626 160.604749,63.2611395 C168.908816,72.0216928 177.242869,80.8332609 184.67235,90.3210262 C193.689079,101.836382 198.653727,115.397335 202.292004,129.556461 C205.135657,140.622687 209.080788,151.401828 212.35024,162.363023 C215.486754,172.882089 218.334405,183.48718 221.40695,194.025251 C223.166117,200.057009 222.189579,205.810686 219.776722,211.361304 C218.321411,214.70928 215.41079,215.763587 211.671561,214.655264 C211.475654,215.011368 211.508638,214.95235 211.312731,215.309454 C212.926967,216.753875 214.437251,218.335336 216.154438,219.644718 C218.560298,221.478252 219.118034,224.630171 217.002036,226.58274 C215.208886,228.238223 213.138866,229.590617 211.240765,231.138068 C210.612063,231.650217 210.245237,232.602495 209.560561,232.901582 C208.646994,233.300698 207.278642,233.732824 206.557983,233.333708 C200.017081,229.716653 193.764043,225.533434 187.052222,222.288488 C180.360392,219.054546 172.99688,217.837191 165.58539,216.955934 C160.450822,216.344756 155.274274,215.435491 150.340611,213.92305 C137.068897,209.857866 123.852158,205.586621 110.740368,201.031293 C100.867045,197.603294 90.6848676,196.661019 80.4217288,196.592999 C66.2244535,196.496971 52.0161833,197.473256 38.7254786,202.901838 C33.2030943,205.157496 27.5077919,207.793264 23.6806047,213.069802 C21.2177713,216.465791 21.7245312,219.729743 23.3037832,222.954683 C24.3462894,225.082303 25.8935565,227.081886 27.5967498,228.746371 C37.7539388,238.666262 47.9461112,248.552143 58.3012064,258.262973 C61.1608519,260.945755 64.6791854,262.914329 67.7817158,265.35304 C70.0176568,267.112553 71.9417454,269.277183 74.222665,270.968676 C80.8355328,275.874106 87.3044687,281.042613 94.3001552,285.341866 C102.948059,290.656415 112.06574,295.34178 122.061006,297.582433 C129.18863,299.179899 136.309257,297.784492 143.251969,295.706886 C146.883249,294.62057 150.655462,293.89936 154.149807,292.485948 C160.061007,290.095251 165.79629,287.269427 171.617533,284.654665 C175.980467,282.695094 180.328407,280.692511 184.745315,278.860977 C194.264806,274.914827 203.800289,271.000686 213.379752,267.204579 C218.205466,265.292022 223.082156,263.446484 228.066795,262.035073 C228.290689,261.971054 228.524579,261.938044 228.764465,261.929042 C231.268279,261.840016 233.005456,264.456779 232.15286,266.814466 C231.926967,267.439648 231.674087,268.042824 231.362235,268.594985 C231.009402,269.221167 230.462661,269.708309 229.821964,270.032404 C219.028077,275.504999 205.377542,291.278596 203.936225,293.033107 C202.656831,294.591561 195.593177,309.111793 194.628634,314.905482 C193.743053,320.226033 192.713541,325.627607 192.783508,330.980167 C192.907449,340.468933 193.337245,350.007713 194.521684,359.414454 C195.866048,370.085564 197.661197,380.762676 200.226982,391.199718 C202.481914,400.376393 205.869309,409.220971 211.067847,417.392352 C215.514741,424.38339 220.446405,430.842272 226.725431,436.11781 C230.682556,439.442779 235.225405,442.117558 239.682294,444.788337 C244.458032,447.650171 249.361709,450.329952 254.360341,452.781666 C258.369442,454.74924 262.318572,454.979307 266.729483,452.797671 C277.208519,447.61216 282.649942,438.767582 284.904874,428.007446 C287.877466,413.822312 288.238295,399.397107 286.336196,384.974904 C284.99783,374.833948 283.689449,364.688992 282.226142,354.566041 C281.87331,352.129331 281.377544,349.716628 280.782826,347.326931 C278.101096,336.568796 275.752209,325.709631 272.638684,315.075532 C271.405268,310.864304 268.74153,307.083202 266.830435,303.057029 C264.22167,297.564428 261.409003,292.134845 259.343981,286.438185 C258.73427,284.754694 259.762782,281.740816 261.07716,280.254383 C263.392063,277.63562 266.446617,275.644039 269.296267,273.533424 C273.715174,270.25947 278.425942,271.540843 282.917815,273.21133 C286.36918,274.494704 289.645628,276.293228 292.906084,278.037737 C297.598861,280.549469 302.233666,283.175234 306.844482,285.83701 C311.74516,288.666835 333.502855,303.019018 337.137133,304.694506 C340.591497,306.28797 344.079845,307.846425 347.660149,309.113794 C354.85774,311.662537 362.377178,313.448057 369.313893,316.553962 C381.222252,321.885516 393.608385,324.820372 406.506276,325.761646 C413.420001,326.264793 420.223779,325.155469 426.883624,323.175892 C433.811343,321.116292 438.88494,314.03923 438.826967,306.393001 C438.719018,292.243877 435.06375,278.777953 429.800243,265.884195 C426.183956,257.023612 418.78546,251.083881 410.836225,245.671303 C401.672566,239.431485 391.269493,236.619665 381.189268,232.750538 C371.080056,228.871407 360.877888,225.310369 350.349875,222.872659 C340.266651,220.537978 330.048491,218.790469 319.890302,216.785885 C312.974578,215.421487 306.098835,213.780009 299.132135,212.767714 C290.368286,211.492342 281.536469,210.655098 272.717646,209.801849 C270.233823,209.561779 267.540099,210.770131 266.044807,207.415154 C265.324148,205.799683 262.509481,205.176501 263.459032,202.681774 C264.375597,200.274072 264.996303,197.401235 266.709492,195.711743 C272.898561,189.610965 277.406425,182.28883 282.493016,175.380817 C283.628478,173.840368 285.14376,172.578 286.500118,171.2036 C289.251815,168.412786 292.186425,165.779019 294.731219,162.811154 C298.053646,158.936024 301.582974,155.092904 304.101781,150.705625 C307.962952,143.979665 311.268386,136.901602 314.375914,129.783528 C316.91971,123.956829 318.845797,117.859052 321.015769,111.872307 C324.30821,102.78866 325.833487,93.4889495 324.701024,83.7981251 C323.952378,77.3992601 323.881412,70.8953645 322.731956,64.5795237 C322.001303,60.5643535 319.882306,56.795255 318.331041,52.9381308 C315.421419,45.699021 312.812655,38.3108677 309.430257,31.298824 C306.810498,25.8682412 303.032287,20.9127969 297.5159,18.0969763 C295.702759,17.1707063 292.443303,17.3307529 290.695131,18.3940628 C287.017873,20.6287141 283.254655,23.2954914 280.691869,26.670475 C274.941593,34.2416817 269.767044,42.2660204 264.609487,50.269353 C258.524369,59.7121051 254.853108,70.2261695 251.907503,80.9883061 C248.843954,92.1865699 246.010296,103.447852 242.977733,114.655118 C241.642365,119.591557 240.531891,124.676039 238.430886,129.288383 C236.991568,132.451305 234.065954,134.954035 231.711069,137.671827 C230.898454,138.6091 229.913921,139.56938 228.805446,140.030514 C227.632001,140.519657 226.21967,140.49765 224.905293,140.56567 C223.716856,140.626688 222.519423,140.507653 221.128082,140.46164" id="Fill-153"></path>
            </g>
        </g>
    </g>
</svg>