<?xml version="1.0" encoding="UTF-8"?>
<svg width="308px" height="196px" viewBox="0 0 308 196" version="1.1" xmlns="http://www.w3.org/2000/svg" xmlns:xlink="http://www.w3.org/1999/xlink">
    <!-- Generator: Sketch 58 (84663) - https://sketch.com -->
    <title>Group 30</title>
    <desc>Created with Sketch.</desc>
    <g id="Design" stroke="none" stroke-width="1" fill="none" fill-rule="evenodd">
        <g id="My-Sunshine-Landing-v1" transform="translate(-689.000000, -237.000000)" fill="#185FEC">
            <g id="Group-5" transform="translate(11.000000, 162.000000)">
                <g id="Group-29">
                    <g id="Group-154">
                        <g id="Group-30" transform="translate(678.866929, 75.650974)">
                            <path d="M4.61697092,46.684726 C18.5959709,9.47272596 60.0949709,-9.36227404 97.3059709,4.61672596 C134.518971,18.595726 153.352971,60.094726 139.374971,97.307726 C125.394971,134.519726 83.8959709,153.353726 46.6839709,139.374726 C9.47097092,125.395726 -9.36202908,83.896726 4.61697092,46.684726" id="Fill-8"></path>
                            <path d="M198.732271,119.605126 C209.549271,90.810126 241.662271,76.235126 270.457271,87.053126 C299.252271,97.870126 313.826271,129.982126 303.009271,158.777126 C292.192271,187.573126 260.080271,202.147126 231.285271,191.330126 C202.489271,180.512126 187.915271,148.400126 198.732271,119.605126" id="Fill-10"></path>
                            <path d="M132.415871,32.876626 C132.415871,32.876626 145.061871,54.562626 150.956871,70.959626 C156.852871,87.357626 194.689871,101.380626 222.954871,90.996626 C251.218871,80.612626 270.568871,141.421626 270.568871,141.421626 L227.865871,189.911626 C227.865871,189.911626 192.313871,166.628626 160.926871,163.346626 C129.538871,160.065626 74.4118709,149.942626 46.6848709,139.374626 C18.9558709,128.806626 132.415871,32.876626 132.415871,32.876626" id="Fill-12"></path>
                        </g>
                    </g>
                </g>
            </g>
        </g>
    </g>
</svg>