<?xml version="1.0" encoding="UTF-8"?>
<svg width="377px" height="159px" viewBox="0 0 377 159" version="1.1" xmlns="http://www.w3.org/2000/svg" xmlns:xlink="http://www.w3.org/1999/xlink">
    <!-- Generator: Sketch 58 (84663) - https://sketch.com -->
    <title>Group 2</title>
    <desc>Created with Sketch.</desc>
    <g id="Design" stroke="none" stroke-width="1" fill="none" fill-rule="evenodd">
        <g id="My-Sunshine-Landing-v1" transform="translate(-1024.000000, -348.000000)" fill="#000000">
            <g id="Group-5" transform="translate(11.000000, 162.000000)">
                <g id="Group-29">
                    <g id="Group-154">
                        <g id="Group-2" transform="translate(1013.788633, 186.587147)">
                            <path d="M288.536067,142.713853 C290.172067,141.869853 292.214067,140.622853 294.408067,139.767853 C295.521067,139.333853 296.934067,139.442853 298.163067,139.628853 C298.778067,139.722853 299.429067,140.443853 299.811067,141.041853 C300.614067,142.298853 301.252067,143.660853 301.956067,144.980853 C302.012067,145.085853 302.048067,145.202853 302.112067,145.302853 C302.704067,146.215853 303.732067,147.032853 303.323067,148.255853 C302.700067,150.119853 301.739067,151.873853 300.018067,152.926853 C298.160067,154.064853 296.473067,155.338853 295.149067,157.080853 C294.669067,157.712853 294.111067,158.061853 293.194067,157.809853 C292.601067,157.646853 291.897067,157.907853 291.241067,157.942853 C290.755067,157.967853 290.265067,157.933853 289.776067,157.922853 C289.738067,157.921853 289.701067,157.886853 289.663067,157.885853 C286.590067,157.814853 285.891067,155.423853 285.110067,153.163853 C284.654067,151.846853 283.815067,150.610853 284.085067,149.107853 C284.159067,148.692853 284.130067,148.185853 284.361067,147.884853 C285.591067,146.285853 286.888067,144.738853 288.536067,142.713853" id="Fill-124"></path>
                            <path d="M290.087867,123.014653 C289.701867,123.516653 289.317867,124.020653 288.928867,124.519653 C288.108867,125.572653 287.101867,126.527653 286.503867,127.692653 C285.422867,129.795653 283.298867,130.583653 281.566867,131.776653 C280.112867,132.775653 278.235867,133.270653 276.474867,133.674653 C274.927867,134.030653 273.666867,132.704653 273.279867,130.907653 C272.934867,129.295653 272.432867,127.717653 272.053867,126.112653 C271.969867,125.758653 272.043867,125.327653 272.165867,124.972653 C272.965867,122.644653 274.616867,120.879653 276.024867,118.923653 C277.934867,116.273653 280.652867,115.993653 283.430867,115.600653 C284.849867,115.399653 286.276867,115.258653 287.698867,115.080653 C289.103867,114.906653 289.145867,116.257653 289.708867,116.956653 C290.341867,117.742653 290.711867,118.736653 291.212867,119.630653 C291.666867,120.440653 291.118867,122.262653 290.087867,123.014653" id="Fill-126"></path>
                            <path d="M324.324167,96.0957529 C323.472167,96.4387529 322.621167,96.7807529 321.483167,97.2377529 C321.443167,96.2577529 321.331167,95.3077529 321.382167,94.3667529 C321.467167,92.7787529 321.761167,91.2077529 323.337167,90.3757529 C324.202167,89.9177529 325.189167,89.6997529 326.099167,89.3197529 C327.711167,88.6487529 329.274167,87.8467529 330.920167,87.2797529 C331.751167,86.9927529 332.736167,87.1917529 333.617167,87.0047529 C334.820167,86.7507529 335.047167,87.7887529 335.643167,88.3457529 C336.283167,88.9417529 336.930167,89.5297529 337.552167,90.1447529 C339.047167,91.6257529 339.178167,93.3817529 338.378167,95.2027529 C337.501167,97.1957529 336.779167,99.3537529 335.461167,101.022753 C334.288167,102.508753 332.639167,103.816753 330.569167,104.195753 C329.208167,104.444753 327.833167,104.638753 326.494167,104.978753 C325.583167,105.210753 324.856167,105.159753 324.252167,104.388753 C324.106167,104.203753 323.921167,104.026753 323.715167,103.915753 C322.073167,103.033753 322.258167,101.352753 321.983167,99.8977529 C321.868167,99.2847529 321.990167,98.8337529 322.872167,98.5457529 C323.626167,98.3007529 324.131167,97.2887529 324.745167,96.6167529 C324.604167,96.4437529 324.465167,96.2697529 324.324167,96.0957529" id="Fill-128"></path>
                            <path d="M2.95506695,65.5166529 C2.10306695,65.8596529 1.25206695,66.2016529 0.114066947,66.6586529 C0.0740669471,65.6796529 -0.0379330529,64.7286529 0.0130669471,63.7876529 C0.0990669471,62.1996529 0.393066947,60.6296529 1.96806695,59.7966529 C2.83306695,59.3386529 3.82006695,59.1206529 4.73006695,58.7406529 C6.34206695,58.0696529 7.90606695,57.2686529 9.55206695,56.7006529 C10.3820669,56.4136529 11.3670669,56.6126529 12.2480669,56.4256529 C13.4510669,56.1716529 13.6780669,57.2096529 14.2740669,57.7666529 C14.9140669,58.3626529 15.5610669,58.9506529 16.1820669,59.5656529 C17.6790669,61.0466529 17.8090669,62.8026529 17.0090669,64.6236529 C16.1330669,66.6166529 15.4100669,68.7746529 14.0930669,70.4446529 C12.9200669,71.9296529 11.2700669,73.2376529 9.20006695,73.6166529 C7.84006695,73.8666529 6.46406695,74.0596529 5.12606695,74.4006529 C4.21406695,74.6316529 3.48806695,74.5806529 2.88306695,73.8096529 C2.73706695,73.6246529 2.55206695,73.4476529 2.34706695,73.3366529 C0.705066947,72.4546529 0.890066947,70.7736529 0.615066947,69.3196529 C0.499066947,68.7056529 0.621066947,68.2546529 1.50306695,67.9676529 C2.25706695,67.7216529 2.76206695,66.7096529 3.37706695,66.0376529 L2.95506695,65.5166529 Z" id="Fill-130"></path>
                            <path d="M100.453067,92.2109529 C98.2570669,93.8539529 96.3640669,95.7419529 93.5800669,96.0829529 C91.9000669,96.2879529 91.1540669,95.8979529 90.4380669,94.3859529 C89.7970669,93.0299529 89.1470669,91.6769529 88.4710669,90.3379529 C87.3740669,88.1689529 88.2760669,86.2129529 89.1690669,84.3069529 C89.6510669,83.2749529 90.4030669,82.3699529 91.0500669,81.4179529 C91.1550669,81.2629529 91.3240669,81.0939529 91.4960669,81.0459529 C94.2090669,80.3009529 96.4410669,78.2819529 99.3650669,78.0889529 C100.076067,78.0419529 100.777067,77.8459529 101.487067,77.7989529 C101.760067,77.7809529 102.167067,77.9089529 102.307067,78.1129529 C103.469067,79.8009529 104.470067,81.6109529 105.742067,83.2069529 C106.950067,84.7209529 106.164067,85.8359529 105.275067,86.8919529 C103.709067,88.7529529 102.013067,90.5049529 100.453067,92.2109529" id="Fill-132"></path>
                            <path d="M228.452067,102.392553 C230.711067,101.094553 232.952067,99.7635529 235.244067,98.5285529 C235.643067,98.3125529 236.256067,98.4925529 236.770067,98.4955529 C237.699067,98.4985529 238.629067,98.4835529 239.556067,98.5295529 C239.826067,98.5425529 240.221067,98.6635529 240.331067,98.8635529 C241.604067,101.137553 243.046067,103.335553 243.306067,106.049553 C243.393067,106.968553 243.253067,107.607553 242.534067,108.249553 C239.796067,110.697553 237.100067,113.194553 234.430067,115.714553 C233.875067,116.238553 233.458067,116.273553 232.756067,116.007553 C231.470067,115.521553 229.901067,115.518553 228.838067,114.765553 C227.175067,113.589553 225.595067,112.148553 225.652067,109.715553 C225.688067,108.223553 225.175067,106.650553 226.098067,105.313553 C226.782067,104.321553 227.718067,103.501553 228.541067,102.605553 C228.512067,102.534553 228.481067,102.463553 228.452067,102.392553" id="Fill-134"></path>
                            <path d="M354.851467,35.9995529 C357.040467,34.8755529 359.212467,33.7155529 361.441467,32.6765529 C361.717467,32.5465529 362.454467,32.9455529 362.695467,33.2945529 C363.134467,33.9325529 363.484467,34.1715529 364.249467,33.8065529 C364.544467,33.6655529 365.185467,33.8065529 365.414467,34.0545529 C366.205467,34.9115529 366.921467,35.8455529 367.598467,36.7995529 C368.481467,38.0455529 368.190467,41.2325529 367.248467,42.4175529 C366.175467,43.7695529 365.238467,45.2285529 364.173467,46.5865529 C363.775467,47.0955529 363.238467,47.5525529 362.670467,47.8595529 C361.665467,48.4025529 360.584467,48.8005529 359.549467,49.2905529 C359.360467,49.3795529 359.146467,49.5925529 359.100467,49.7865529 C358.587467,51.9435529 356.768467,51.8485529 355.194467,51.9365529 C353.504467,52.0315529 353.497467,51.9105529 353.232467,50.1275529 C353.011467,48.6335529 352.600467,47.1385529 352.614467,45.6465529 C352.641467,42.7645529 352.883467,39.8775529 354.314467,37.2605529 C354.502467,36.9165529 354.735467,36.5965529 354.948467,36.2655529 C354.915467,36.1765529 354.883467,36.0885529 354.851467,35.9995529" id="Fill-136"></path>
                            <path d="M295.871967,72.6279529 C295.597967,70.9859529 294.849967,69.6539529 293.629967,68.4549529 C292.512967,67.3569529 291.512967,66.0429529 290.820967,64.6459529 C290.502967,64.0029529 291.030967,62.9329529 291.200967,62.0609529 C291.326967,61.4109529 291.452967,60.7569529 291.654967,60.1299529 C291.805967,59.6659529 291.968967,59.1049529 292.317967,58.8249529 C293.808967,57.6319529 295.259967,56.3149529 296.934967,55.4499529 C298.698967,54.5419529 300.610967,53.6089529 302.678967,55.2009529 C303.781967,56.0519529 305.228967,56.4409529 306.457967,57.1489529 C306.804967,57.3479529 307.107967,57.9329529 307.116967,58.3479529 C307.149967,59.8919529 307.082967,61.4399529 306.980967,62.9829529 C306.957967,63.3439529 306.712967,63.7359529 306.467967,64.0269529 C304.419967,66.4489529 302.278967,68.7969529 300.308967,71.2789529 C299.080967,72.8269529 297.605967,72.9859529 295.871967,72.6279529" id="Fill-138"></path>
                            <path d="M306.017567,96.5849529 C305.748567,96.8219529 305.450567,97.0339529 305.216567,97.3019529 C303.829567,98.8979529 302.022567,98.5309529 300.261567,98.3799529 C300.066567,98.3629529 299.879567,98.2649529 299.685567,98.2339529 C297.032567,97.8249529 296.462567,96.9069529 296.788567,94.1299529 C296.986567,92.4419529 296.823567,90.7149529 296.955567,89.0159529 C297.031567,88.0469529 297.331567,87.0849529 297.615567,86.1459529 C297.842567,85.3879529 298.365567,84.6889529 298.458567,83.9279529 C298.729567,81.7299529 300.207567,80.9999529 302.084567,80.6489529 C302.240567,80.6199529 302.427567,80.6349529 302.547567,80.5529529 C304.055567,79.5309529 305.255567,80.0239529 306.512567,81.1369529 C308.792567,83.1539529 310.501567,85.5119529 311.297567,88.4619529 C311.638567,89.7249529 311.194567,90.9779529 310.453567,91.9209529 C309.130567,93.6059529 307.587567,95.1159529 306.137567,96.6989529 L306.017567,96.5849529 Z" id="Fill-140"></path>
                            <path d="M320.716767,69.6767529 C320.431767,67.9797529 320.117767,66.4077529 319.913767,64.8227529 C319.714767,63.2667529 319.404767,61.6697529 319.576767,60.1407529 C319.669767,59.3207529 320.533767,58.3907529 321.297767,57.8797529 C323.653767,56.3047529 326.088767,54.8397529 328.567767,53.4647529 C330.312767,52.4967529 332.535767,52.8627529 333.917767,54.2837529 C334.393767,54.7737529 334.646767,55.5637529 334.802767,56.2597529 C335.004767,57.1617529 334.784767,58.2057529 335.139767,59.0187529 C336.176767,61.3957529 335.016767,63.0547529 333.639767,64.7527529 C332.056767,66.7037529 329.616767,67.2707529 327.641767,68.5817529 C327.277767,68.8237529 326.846767,68.9657529 326.491767,69.2187529 C325.852767,69.6727529 325.361767,69.8567529 324.487767,69.4477529 C323.754767,69.1057529 322.699767,69.4377529 321.789767,69.5017529 C321.368767,69.5317529 320.952767,69.6367529 320.716767,69.6767529" id="Fill-142"></path>
                            <path d="M372.655167,111.829153 C369.902167,113.479153 367.153167,115.142153 364.388167,116.777153 C363.729167,117.167153 363.310167,117.070153 362.760167,116.326153 C361.806167,115.036153 360.617167,113.895153 359.402167,112.834153 C358.822167,112.327153 358.530167,111.936153 358.645167,111.147153 C358.828167,109.895153 358.797167,108.609153 359.017167,107.367153 C359.126167,106.757153 359.454167,106.017153 359.927167,105.670153 C362.808167,103.563153 365.757167,101.550153 368.690167,99.5171529 C368.900167,99.3721529 369.236167,99.1831529 369.416167,99.2551529 C370.655167,99.7551529 371.861167,100.334153 373.092167,100.855153 C373.637167,101.086153 374.205167,101.326153 374.784167,101.408153 C375.551167,101.517153 375.696167,101.916153 375.571167,102.570153 C375.414167,103.387153 375.263167,104.204153 375.118167,105.021153 C375.083167,105.216153 375.009167,105.442153 375.073167,105.609153 C376.136167,108.423153 373.645167,109.759153 372.655167,111.829153" id="Fill-144"></path>
                            <path d="M118.043867,149.087853 C117.382867,149.459853 116.174867,150.003853 115.120867,150.760853 C113.657867,151.811853 112.574867,151.900853 111.060867,150.581853 C109.838867,149.518853 108.689867,148.556853 108.018867,147.058853 C107.540867,145.992853 106.801867,145.026853 106.445867,143.930853 C106.250867,143.325853 106.397867,142.397853 106.759867,141.867853 C107.701867,140.490853 108.672867,139.031853 109.953867,138.010853 C111.894867,136.464853 113.869867,134.537853 116.628867,134.916853 C117.954867,135.099853 119.314867,135.837853 120.410867,136.658853 C121.528867,137.496853 122.377867,138.715853 123.260867,139.832853 C123.471867,140.099853 123.439867,140.645853 123.365867,141.032853 C122.746867,144.233853 120.703867,146.536853 118.043867,149.087853" id="Fill-146"></path>
                            <path d="M56.2919669,51.8242529 C56.1839669,52.2242529 56.0219669,52.5632529 56.0169669,52.9052529 C56.0059669,53.5112529 56.0889669,54.1202529 56.1329669,54.7282529 C56.7989669,54.5892529 57.5629669,54.6132529 58.1119669,54.2802529 C59.7759669,53.2682529 61.3659669,52.1322529 62.9659669,51.0162529 C63.6729669,50.5232529 64.2519669,50.4502529 64.9939669,51.0452529 C66.1779669,51.9932529 67.4709669,52.8032529 68.7049669,53.6882529 C68.8779669,53.8132529 69.0609669,54.0122529 69.1099669,54.2082529 C69.4879669,55.7252529 70.0479669,57.2432529 70.1059669,58.7772529 C70.1379669,59.6062529 69.5019669,60.7392529 68.8109669,61.2632529 C66.8819669,62.7242529 64.7669669,63.9402529 62.7239583,65.2502529 C62.5929669,65.3342529 62.4399669,65.4642529 62.3079669,65.4532529 C60.5379669,65.3152529 58.7709669,65.1632529 57.0039669,65.0022529 C54.6579669,64.7872529 53.4389669,63.3722529 52.9149669,61.1852529 C52.5759669,59.7742529 52.1879669,58.3752529 51.8039669,56.9752529 C51.6189669,56.3002529 51.7449669,55.8062529 52.2849669,55.2762529 C52.9529669,54.6212529 53.6029669,53.8582529 53.9789669,53.0162529 C54.4639669,51.9302529 55.1789669,51.6442529 56.2919669,51.8242529" id="Fill-148"></path>
                            <path d="M322.312467,132.021453 C320.836467,132.966453 319.023467,134.153453 317.175467,135.283453 C316.885467,135.459453 316.358467,135.537453 316.077467,135.393453 C314.625467,134.650453 313.220467,133.841453 312.292467,132.399453 C311.740467,131.540453 310.991467,130.806453 310.450467,129.941453 C310.205467,129.551453 310.052467,128.910453 310.199467,128.504453 C310.815467,126.792453 311.632467,125.152453 312.234467,123.435453 C312.708467,122.085453 313.869467,121.974453 314.930467,121.662453 C316.752467,121.125453 318.596467,120.661453 320.420467,120.130453 C320.740467,120.038453 321.146467,119.837453 321.276467,119.571453 C321.614467,118.875453 322.092467,118.698453 322.818467,118.785453 C323.633467,118.882453 324.073467,119.286453 324.353467,120.053453 C324.733467,121.095453 325.275467,122.079453 325.669467,123.117453 C325.860467,123.617453 325.929467,124.182453 325.956467,124.722453 C326.004467,125.730453 326.009467,126.743453 325.971467,127.751453 C325.960467,128.039453 325.800467,128.375453 325.601467,128.591453 C324.630467,129.643453 323.624467,130.662453 322.312467,132.021453" id="Fill-150"></path>
                            <path d="M336.059467,12.7597529 C335.751467,13.5277529 335.422467,14.3487529 335.170467,14.9757529 C333.851467,14.3117529 332.638467,13.4857529 331.296467,13.0767529 C329.120467,12.4117529 328.590467,10.6397529 327.884467,8.85875288 C327.020467,6.67775288 328.342467,5.09775288 329.237467,3.40675288 C329.713467,2.50675288 330.441467,1.73775288 330.913467,0.834752884 C331.302467,0.0917528839 331.809467,-0.0802471161 332.557467,0.0307528839 C333.566467,0.180752884 334.538467,0.278752884 335.358467,1.07875288 C335.963467,1.66975288 336.819467,2.00275288 337.555467,2.46275288 C337.719467,2.56475288 337.958467,2.70775288 337.977467,2.85475288 C338.081467,3.67575288 338.041467,4.52175288 338.217467,5.32275288 C338.441467,6.33975288 337.874467,6.84175288 337.228467,7.42575288 C336.798467,7.81375288 336.466467,8.34775288 336.202467,8.87275288 C335.722467,9.82175288 335.281467,10.7977529 334.916467,11.7957529 C334.775467,12.1817529 334.885467,12.6607529 334.881467,13.0967529 C335.270467,12.9857529 335.659467,12.8747529 336.059467,12.7597529" id="Fill-152"></path>
                        </g>
                    </g>
                </g>
            </g>
        </g>
    </g>
</svg>