<?xml version="1.0" encoding="UTF-8"?>
<svg width="1429px" height="597px" viewBox="0 0 1429 597" version="1.1" xmlns="http://www.w3.org/2000/svg" xmlns:xlink="http://www.w3.org/1999/xlink">
    <!-- Generator: Sketch 58 (84663) - https://sketch.com -->
    <title>Group 5</title>
    <desc>Created with Sketch.</desc>
    <defs>
        <polygon id="path-1" points="0.9107 0.6267 79.2837 0.6267 79.2837 79 0.9107 79"></polygon>
        <polygon id="path-3" points="0 0 29 0 29 29 0 29"></polygon>
    </defs>
    <g id="Design" stroke="none" stroke-width="1" fill="none" fill-rule="evenodd">
        <g id="My-Sunshine-Landing-v1" transform="translate(-11.000000, -162.000000)">
            <g id="Group-5" transform="translate(11.000000, 162.000000)">
                <g id="Group-29">
                    <path d="M1420.50158,149 C1488.70526,149 1544,204.290887 1544,272.5 C1544,340.705961 1488.70526,396 1420.50158,396 C1352.29159,396 1297,340.705961 1297,272.5 C1297,204.290887 1352.29159,149 1420.50158,149 Z" id="Fill-3" fill="#FFEB66"></path>
                    <g id="Group-154">
                        <path d="M406.6578,179.9216 C406.6578,80.5536 487.2118,0.0006 586.5788,0.0006 C685.9468,0.0006 766.4998,80.5536 766.4998,179.9216 C766.4998,279.2896 685.9468,359.8426 586.5788,359.8426 C487.2118,359.8426 406.6578,279.2896 406.6578,179.9216" id="Fill-1" fill="#FFEB2D"></path>
                        <g id="Group-5" transform="translate(952.000000, 517.083000)">
                            <mask id="mask-2" fill="white">
                                <use xlink:href="#path-1"></use>
                            </mask>
                            <g id="Clip-4"></g>
                            <path d="M0.9107,39.8137 C0.9107,18.1707 18.4547,0.6267 40.0977,0.6267 C61.7387,0.6267 79.2837,18.1707 79.2837,39.8137 C79.2837,61.4557 61.7387,79.0007 40.0977,79.0007 C18.4547,79.0007 0.9107,61.4557 0.9107,39.8137" id="Fill-3" fill="#FFFFFF" mask="url(#mask-2)"></path>
                            <path d="M0.9107,39.8137 C0.9107,18.1707 18.4547,0.6267 40.0977,0.6267 C61.7387,0.6267 79.2837,18.1707 79.2837,39.8137 C79.2837,61.4557 61.7387,79.0007 40.0977,79.0007 C18.4547,79.0007 0.9107,61.4557 0.9107,39.8137" id="Fill-3" fill="#FFEB2D" mask="url(#mask-2)"></path>
                        </g>
                        <g id="Group-5" transform="translate(126.000000, 64.000000)">
                            <mask id="mask-4" fill="white">
                                <use xlink:href="#path-3"></use>
                            </mask>
                            <g id="Clip-4"></g>
                            <path d="M0,14.5 C0,6.49164264 6.49172547,0 14.500185,0 C22.5079045,0 29,6.49164264 29,14.5 C29,22.5079873 22.5079045,29 14.500185,29 C6.49172547,29 0,22.5079873 0,14.5" id="Fill-3" fill="#FFFFFF" mask="url(#mask-4)"></path>
                            <path d="M0,14.5 C0,6.49164264 6.49172547,0 14.500185,0 C22.5079045,0 29,6.49164264 29,14.5 C29,22.5079873 22.5079045,29 14.500185,29 C6.49172547,29 0,22.5079873 0,14.5" id="Fill-3" fill="#FFEB2D" mask="url(#mask-4)"></path>
                        </g>
                        <path d="M831.8375,333.469 C876.9915,391.609 866.4645,475.344 808.3245,520.497 C750.1865,565.651 666.4505,555.124 621.2965,496.985 L831.8375,333.469 Z" id="Fill-6" fill="#FFEB66"></path>
                        <path d="M683.4839,122.3357 C697.4629,85.1237 738.9619,66.2887 776.1729,80.2677 C813.3859,94.2467 832.2199,135.7457 818.2419,172.9587 C804.2619,210.1707 762.7629,229.0047 725.5509,215.0257 C688.3379,201.0467 669.5049,159.5477 683.4839,122.3357" id="Fill-8" fill="#185FEC"></path>
                        <path d="M877.5992,195.2561 C888.4162,166.4611 920.5292,151.8861 949.3242,162.7041 C978.1192,173.5211 992.6932,205.6331 981.8762,234.4281 C971.0592,263.2241 938.9472,277.7981 910.1522,266.9811 C881.3562,256.1631 866.7822,224.0511 877.5992,195.2561" id="Fill-10" fill="#185FEC"></path>
                        <path d="M811.2828,108.5276 C811.2828,108.5276 823.9288,130.2136 829.8238,146.6106 C835.7198,163.0086 873.5568,177.0316 901.8218,166.6476 C930.0858,156.2636 949.4358,217.0726 949.4358,217.0726 L906.7328,265.5626 C906.7328,265.5626 871.1808,242.2796 839.7938,238.9976 C808.4058,235.7166 753.2788,225.5936 725.5518,215.0256 C697.8228,204.4576 811.2828,108.5276 811.2828,108.5276" id="Fill-12" fill="#185FEC"></path>
                        <path d="M237.2252,311.7082 C238.4122,314.2192 239.9832,317.3632 241.3822,320.5822 C242.0312,322.0722 241.7092,323.5502 240.6392,324.8882 C240.2662,325.3542 240.1712,326.1202 240.1342,326.7602 C240.0762,327.7432 239.9392,328.3332 238.6792,328.3492 C236.7532,328.3722 234.8672,328.6432 233.0752,329.6102 C231.3222,330.5582 228.6692,329.5622 227.3072,328.1422 C225.4732,326.2302 223.3952,324.5562 221.4752,322.7252 C221.0222,322.2932 220.6002,321.6812 220.4702,321.0842 C219.8062,318.0412 219.2432,314.9762 218.6472,311.9182 C218.6132,311.7422 218.5242,311.4932 218.6042,311.3912 C219.7522,309.9212 220.6532,308.0112 222.1552,307.1212 C224.5682,305.6912 227.3252,305.1342 230.3352,305.4672 C231.7542,305.6242 232.1752,306.2942 232.8782,307.0632 C234.1282,308.4322 235.4102,309.7722 237.2252,311.7082" id="Fill-14" fill="#185FEC"></path>
                        <path d="M170.023,306.6194 C168.67,304.9494 167.663,303.2764 166.255,302.0694 C164.321,300.4114 163.987,298.3194 163.794,296.0504 C163.645,294.2804 163.298,292.5204 163.269,290.7524 C163.251,289.6584 163.354,288.3414 163.943,287.5054 C165.174,285.7554 166.66,284.1444 168.234,282.6844 C169.897,281.1424 170.322,280.1634 169.362,277.8864 C169.896,278.2014 170.2,278.3234 170.429,278.5284 C170.989,279.0264 171.438,279.6904 172.065,280.0644 C176.375,282.6334 179.395,286.2774 181.218,290.9194 C182.271,293.5994 183.257,296.3064 184.199,299.0284 C184.328,299.4004 184.134,299.9954 183.894,300.3564 C183.551,300.8724 182.996,301.2394 182.586,301.7174 C180.988,303.5764 179.079,304.6374 176.55,304.9364 C174.292,305.2034 172.103,306.0604 170.023,306.6194" id="Fill-16" fill="#185FEC"></path>
                        <path d="M235.0347,274.0159 C235.6017,275.4519 236.1557,276.8929 236.7387,278.3229 C237.7937,280.9109 238.8507,283.4959 239.9387,286.0699 C240.2097,286.7099 240.1447,287.0869 239.5477,287.5509 C238.7387,288.1779 238.0177,288.9469 237.3657,289.7429 C235.2937,292.2729 232.3897,292.5739 229.4467,292.7839 C229.1497,292.8049 228.7747,292.7299 228.5467,292.5549 C226.5067,290.9929 224.2667,289.6079 222.5217,287.7589 C220.1677,285.2649 218.9927,282.1689 219.6527,278.6059 C219.7667,277.9879 219.8227,277.3459 219.8027,276.7179 C219.7227,274.2649 221.1777,272.6139 222.7317,271.0109 C223.0787,270.6539 223.4977,270.3669 223.8387,270.0029 C225.3257,268.4199 225.3137,268.4269 227.3637,269.2909 C228.0727,269.5899 228.8147,269.8059 229.5437,270.0569 C231.7497,270.8169 233.5747,272.0719 235.0347,274.0159" id="Fill-18" fill="#185FEC"></path>
                        <path d="M374.9029,249.8176 C375.6029,249.3036 376.0439,248.9836 376.4819,248.6586 C377.4119,247.9676 378.3809,247.6406 379.5139,248.2036 C381.4439,249.1616 383.4019,250.0646 385.3169,251.0516 C385.6869,251.2426 386.1059,251.6716 386.1779,252.0526 C386.7849,255.2176 389.0289,257.4406 390.7399,259.9426 C391.7619,261.4376 392.3979,262.8056 391.6499,264.5686 C391.5119,264.8936 391.5289,265.2826 391.4479,265.6356 C390.6769,268.9896 389.4349,269.9896 385.9299,270.2596 C384.9569,270.3356 384.0009,270.8386 383.0409,270.826811 C381.5109,270.8086 379.8309,270.8636 378.5039,270.2546 C377.2319,269.6716 376.3879,268.2136 375.2549,267.2616 C372.8249,265.2216 372.0199,262.5886 372.2799,259.5506 C372.4489,257.5716 372.8979,255.5996 372.8839,253.6266 C372.8709,251.7336 373.1499,250.2516 374.9029,249.8176" id="Fill-20" fill="#185FEC"></path>
                        <path d="M269.2672,379.7102 C269.0042,381.2932 268.9072,382.6142 269.8022,383.7772 C270.3832,384.5332 270.3022,384.9942 269.3622,385.2192 C268.0322,385.5362 266.7502,386.2712 265.3032,385.6152 C265.0092,385.4822 264.5662,385.5602 264.2312,385.6632 C262.4532,386.2122 261.2852,385.2042 260.2282,384.0632 C259.3422,383.1052 258.3732,382.1282 257.8312,380.9762 C257.4082,380.0752 257.6422,378.8832 257.4762,377.8382 C257.2462,376.3992 257.0292,374.9422 256.5942,373.5602 C256.1422,372.1182 256.5412,369.6992 257.7902,368.6712 C259.0582,367.6282 260.3202,366.4052 261.8042,365.8442 C263.7512,365.1072 265.7672,364.1242 267.9572,364.4802 C268.6792,364.5972 269.3842,365.1202 269.9862,365.5992 C271.3642,366.6942 272.7962,367.7642 273.9802,369.0532 C275.7542,370.9852 277.4362,373.1642 277.3202,375.9142 C277.2482,377.5952 276.4222,379.2592 275.8452,380.8982 C275.5172,381.8322 275.3342,382.8292 274.2302,383.3902 C273.2442,383.8912 272.7312,384.0352 272.3192,382.8062 C271.8552,381.4232 270.8372,380.4712 269.2672,379.7102" id="Fill-22" fill="#185FEC"></path>
                        <path d="M344.5543,226.4026 C345.0933,227.7566 345.8293,229.0696 346.1213,230.4746 C346.5053,232.3216 347.2603,233.9056 348.4983,235.2716 C349.2273,236.0746 349.3473,236.8236 348.9273,237.8576 C348.5923,238.6826 348.6573,239.6616 348.4653,240.5556 C348.3753,240.9736 348.1143,241.3596 347.9083,241.7476 C347.5133,242.4906 347.1563,243.2606 346.6783,243.9476 C346.4103,244.3316 345.9643,244.7726 345.5453,244.8376 C343.8513,245.0966 342.1313,245.1916 340.4283,245.4026 C339.1183,245.5656 337.8203,246.0606 336.5183,245.3886 C336.0903,245.1686 335.5183,245.0486 335.2663,244.6996 C333.9023,242.8126 332.3743,240.9866 331.3643,238.9136 C329.9613,236.0376 329.1013,232.8896 329.5733,229.6456 C330.0183,226.5806 331.6973,225.1956 334.8053,224.7816 C335.7453,224.6556 336.7463,224.6556 337.6043,224.3106 C340.4983,223.1436 342.6073,224.0976 344.2493,226.5916 C344.3513,226.5286 344.4523,226.4656 344.5543,226.4026" id="Fill-24" fill="#185FEC"></path>
                        <path d="M192.3892,335.1213 C190.2532,331.8633 188.9672,329.3303 189.2532,326.2623 C189.2852,325.9193 188.9892,325.5233 189.0712,325.2143 C189.2902,324.3913 189.4152,323.3763 189.9672,322.8363 C192.1252,320.7223 194.8152,319.4193 197.6132,318.3413 C197.8662,318.2443 198.2172,318.1823 198.3332,317.9893 C199.2852,316.4153 200.0622,317.0243 201.1502,317.9593 C203.1902,319.7133 205.3892,321.2843 207.5452,322.9003 C209.3462,324.2493 209.7432,325.3963 209.2042,327.5923 C209.0012,328.4223 208.9692,329.2973 208.8862,330.1533 C208.6292,332.8303 207.7072,335.4043 205.5982,336.9343 C203.4942,338.4613 200.7302,339.8463 198.1382,338.8063 C195.8222,337.8763 193.1082,336.9763 192.3892,335.1213" id="Fill-26" fill="#185FEC"></path>
                        <path d="M406.4371,239.4856 C405.4631,239.6256 404.4841,239.9136 403.5191,239.8716 C401.9881,239.8046 400.4251,239.6726 398.9531,239.2816 C397.3811,238.8636 395.9261,238.0286 394.3721,237.5246 C390.7911,236.3606 390.9431,233.1456 390.3751,230.3596 C390.0421,228.7236 389.8321,227.0436 389.7781,225.3766 C389.7321,223.9766 389.9911,222.5676 390.1221,221.1626 C390.1281,221.0796 390.1821,220.9476 390.2421,220.9296 C392.2341,220.3436 393.5911,218.2776 395.9071,218.4686 C397.7461,218.6196 399.6251,218.6406 401.4001,219.0726 C402.4351,219.3246 403.5771,220.0756 404.1941,220.9426 C406.5821,224.2896 407.9371,228.0306 408.0591,232.2156 C408.1081,233.9036 408.8831,235.5916 407.8781,237.2336 C407.4361,237.9566 406.9651,238.6626 406.4371,239.4856" id="Fill-28" fill="#185FEC"></path>
                        <path d="M349.0797,311.4573 C348.5537,309.4613 347.9077,307.3423 347.4547,305.1833 C347.1507,303.7343 347.1477,302.2263 346.9567,300.7503 C346.8177,299.6783 347.1857,299.3513 348.2907,299.0783 C349.6997,298.7283 350.9847,297.8593 352.3087,297.1833 C353.0727,296.7923 353.8007,296.3283 354.5587,295.9233 C354.7857,295.8023 355.0757,295.6753 355.3107,295.7113 C357.8347,296.1053 360.3587,296.5013 362.8667,296.9803 C363.3047,297.0643 363.7497,297.4783 364.0447,297.8543 C364.5917,298.5523 365.0267,299.3353 365.5167,300.0793 C366.2487,301.1943 367.2467,302.2243 367.6387,303.4483 C367.9307,304.3623 367.4657,305.5293 367.2947,306.5773 C367.0847,307.8573 366.6547,309.1273 366.6337,310.4073 C366.5957,312.6223 366.5397,312.8403 364.5397,313.7553 C363.3057,314.3193 362.1127,314.9763 360.8917,315.5673 C360.6117,315.7033 360.2367,315.8943 359.9937,315.8103 C356.6827,314.6443 353.3827,313.4423 350.0907,312.2223 C349.7677,312.1023 349.5157,311.7943 349.0797,311.4573" id="Fill-30" fill="#185FEC"></path>
                        <path d="M401.1607,347.9182 C400.3437,347.1102 399.5107,346.3172 398.7177,345.4852 C398.5167,345.2762 398.3847,344.9582 398.3237,344.6682 C397.8717,342.5032 397.4437,340.3322 397.0147,338.1622 C396.9707,337.9422 396.8707,337.6782 396.9467,337.4982 C397.7587,335.5882 398.4277,333.5872 399.4857,331.8212 C400.4047,330.2902 403.3957,330.0682 405.2417,330.5002 C406.8987,330.8882 408.2987,331.5482 409.5377,332.6012 C411.1137,333.9412 412.6167,335.3672 414.1417,336.7682 C414.3397,336.9492 414.5637,337.1742 414.6277,337.4172 C415.3737,340.2812 416.7327,343.0092 416.5697,346.0772 C416.4927,347.5372 415.9697,348.7272 414.5727,349.3752 C412.8697,350.1662 411.2207,351.1562 409.4347,351.6642 C406.5497,352.4862 404.1107,351.3422 402.0677,349.2762 C401.6927,348.8972 401.3597,348.4782 401.0077,348.0762 C401.0577,348.0232 401.1097,347.9712 401.1607,347.9182" id="Fill-32" fill="#185FEC"></path>
                        <path d="M309.0591,229.4304 C310.8731,232.0674 312.1721,234.4794 313.9721,236.4284 C315.9831,238.6074 316.2251,241.3504 317.0511,243.8914 C317.5231,245.3394 317.4641,247.0174 317.3561,248.5724 C317.2941,249.4524 316.6591,250.2964 316.2621,251.1464 C315.6921,252.3694 314.7041,251.6534 313.8711,251.6404 C311.8481,251.6104 309.8251,251.5854 307.8021,251.5214 C307.4631,251.5114 307.1091,251.3614 306.7981,251.2044 C304.1261,249.8494 302.5431,247.4664 301.0081,245.0404 C300.8391,244.7734 300.7631,244.4304 300.5511,244.2134 C298.7641,242.3854 298.9791,240.1834 299.3311,237.9454 C299.4341,237.2904 299.6511,236.6034 299.5461,235.9764 C299.2261,234.0544 300.2751,232.4034 300.5041,230.5964 C300.5381,230.3244 301.0051,229.9864 301.3331,229.8934 C303.0291,229.4144 304.7271,228.8054 306.4611,228.6474 C307.4441,228.5574 308.4971,229.2444 309.0591,229.4304" id="Fill-34" fill="#185FEC"></path>
                        <path d="M90.4371,291.2102 C90.7181,291.6642 90.9271,292.0002 91.3451,292.6742 C90.2451,292.3582 89.4571,292.1332 88.6681,291.9072 C88.6761,291.8452 88.6841,291.7812 88.6921,291.7182 C89.1011,291.7232 89.5101,291.7282 90.0411,291.7332 C89.9151,291.3792 89.8831,291.0992 89.7371,290.9052 C87.5321,287.9762 85.2991,285.0672 83.1081,282.1282 C82.7421,281.6362 82.4231,281.0462 82.2881,280.4552 C81.8331,278.4742 82.0221,278.1762 83.8081,277.2302 C84.2211,277.0112 84.7121,276.7332 84.9121,276.3502 C86.5341,273.2322 89.5421,272.5992 92.4101,273.0252 C94.3801,273.3192 96.3861,274.8132 97.9181,276.2552 C99.9631,278.1802 101.8081,280.2192 104.4761,281.3642 C106.3511,282.1692 106.0681,284.1492 104.4711,286.1002 C103.2661,287.5732 101.7881,288.4792 100.2771,289.4662 C99.9111,289.7052 99.7621,290.2872 99.5291,290.7202 C99.3901,290.9802 99.3551,291.3812 99.1471,291.5042 C97.8001,292.3032 96.4881,293.3562 94.7961,293.0392 C94.0791,292.9052 93.2981,292.5082 92.7871,291.9912 C91.7201,290.9142 91.6071,290.7802 90.4371,291.2102" id="Fill-36" fill="#185FEC"></path>
                        <path d="M290.6802,185.135 C290.8192,186.17 290.9572,187.204 291.0952,188.229 C289.3772,188.733 285.2632,187.115 284.4372,185.586 C284.2012,185.152 283.9322,184.684 283.8862,184.212 C283.7592,182.915 283.7672,181.606 283.6732,180.305 C283.6212,179.587 283.5992,178.827 283.3442,178.17 C282.4642,175.898 283.2012,173.718 283.6012,171.516 C283.6432,171.287 283.8472,171.015 284.0532,170.901 C285.6712,170.002 287.2572,169.017 288.9542,168.298 C290.4852,167.649 292.0712,168.11 293.3162,169.09 C295.4402,170.762 297.7502,172.357 299.3772,174.453 C300.7842,176.266 301.7622,178.589 301.2652,181.187 C300.9862,182.645 301.1202,184.178 300.8872,185.649 C300.7812,186.322 300.3582,187.048 299.8662,187.537 C298.3452,189.051 296.3852,189.169 294.3882,188.958 C293.6382,188.879 293.1522,188.602 292.9052,187.681 C292.6332,186.671 291.8802,185.789 291.3372,184.852 C291.1182,184.946 290.9002,185.041 290.6802,185.135" id="Fill-38" fill="#185FEC"></path>
                        <path d="M528.148,335.1633 C528.447,336.1643 528.747,337.1653 529.146,338.5023 C528.032,338.4453 526.944,338.4743 525.881,338.3173 C524.09,338.0563 522.342,337.5583 521.562,335.6863 C521.134,334.6583 520.988,333.5173 520.653,332.4453 C520.06,330.5493 519.315,328.6933 518.843,326.7693 C518.605,325.7983 518.931,324.7023 518.812,323.6843 C518.65,322.2953 519.85,322.1463 520.544,321.5273 C521.285,320.8653 522.019,320.1923 522.78,319.5533 C524.615,318.0123 526.619,318.0463 528.599,319.1423 C530.766,320.3433 533.137,321.3873 534.891,323.0543 C536.454,324.5383 537.764,326.5433 537.978,328.9283 C538.119,330.4973 538.195,332.0763 538.442,333.6283 C538.609,334.6853 538.476,335.5033 537.54,336.1083 C537.314,336.2543 537.094,336.4463 536.948,336.6673 C535.778,338.4353 533.89,338.0523 532.213,338.2113 C531.507,338.2783 531.008,338.0933 530.774,337.0633 C530.574,336.1843 529.481,335.5073 528.782,334.7393 C528.571,334.8813 528.36,335.0223 528.148,335.1633" id="Fill-40" fill="#185FEC"></path>
                        <path d="M191.0103,275.1819 C191.2023,275.6989 191.3653,276.1359 191.6463,276.8919 C190.8383,276.4799 189.8073,276.8109 190.3913,275.5889 C190.4693,275.4249 190.4153,275.1389 190.3233,274.9589 C188.9923,272.3409 187.5803,269.7609 186.3253,267.1069 C185.6463,265.6659 184.7183,264.2829 184.8853,262.5239 C184.9793,261.5459 185.2183,260.8469 186.2853,260.6969 C187.4703,260.5299 188.1883,259.8619 188.9063,258.8769 C189.9083,257.5059 191.6233,257.4689 193.2103,257.4379 C193.6603,257.4289 194.1413,257.6519 194.5603,257.5569 C196.3603,257.1519 197.5043,258.1759 198.5073,259.3659 C199.9883,261.1189 201.2863,263.0309 202.8193,264.7349 C203.8293,265.8579 205.0543,266.8199 206.2913,267.7019 C207.9023,268.8489 208.1233,270.1049 206.7633,271.4829 C205.9443,272.3119 205.2043,273.2719 204.2493,273.8999 C203.3423,274.4969 202.1953,274.7229 201.1653,275.1429 C200.5743,275.3829 199.7723,275.4429 200.0063,276.4799 C200.0423,276.6379 199.5563,276.9829 199.2583,277.1369 C197.9483,277.8159 196.5643,278.1709 195.0803,277.9149 C194.2733,277.7759 193.5793,277.5869 193.1713,276.6519 C192.8323,275.8769 192.4313,274.7799 191.0103,275.1819" id="Fill-42" fill="#185FEC"></path>
                        <path d="M304.3648,307.8928 C305.9648,307.0348 307.2948,306.2638 308.6738,305.5928 C310.6328,304.6398 312.4618,303.3328 314.7118,303.1158 C315.1948,303.0688 315.8218,303.1588 316.1848,303.4398 C318.0378,304.8738 319.7488,306.5018 321.6668,307.8358 C322.6528,308.5218 323.1628,309.2918 323.5008,310.3748 C324.2638,312.8178 325.1308,315.2278 325.9298,317.6588 C326.0168,317.9228 326.0638,318.3178 325.9298,318.5198 C325.2288,319.5838 324.4928,320.6298 323.7038,321.6308 C323.4188,321.9928 322.9818,322.3838 322.5588,322.4628 C320.4008,322.8678 318.2308,323.2228 316.0518,323.4738 C315.5708,323.5298 314.7278,323.2258 314.5748,322.8658 C313.6778,320.7578 311.9568,319.4138 310.0308,318.6808 C308.0278,317.9188 306.9988,316.5588 306.1398,314.8338 C306.0008,314.5548 305.8958,314.1518 305.6638,314.0408 C303.4688,312.9968 304.2888,310.6598 303.5308,309.0058 C303.4238,308.7708 304.1648,308.1468 304.3648,307.8928" id="Fill-46" fill="#185FEC"></path>
                        <path d="M282.1656,328.468 C280.6196,329.221 279.2456,329.903 277.8566,330.554 C277.6286,330.661 277.2896,330.743 277.0826,330.653 C275.1856,329.82 273.2156,329.097 271.4466,328.04 C269.8946,327.113 268.5676,325.805 267.1586,324.643 C266.9656,324.484 266.7946,324.211 266.7516,323.967 C266.3476,321.681 266.0066,319.383 265.5826,317.101 C265.0076,314.008 266.6346,310.958 269.5716,309.715 C269.8196,309.61 270.0386,309.436 270.2716,309.297 C272.2586,308.12 272.5416,308.19 274.3946,309.652 C275.8756,310.82 277.5816,311.728 278.9526,313.004 C281.9536,315.798 283.8716,319.316 284.8516,323.275 C285.0566,324.105 284.6766,325.231 284.2286,326.031 C283.6916,326.991 282.7946,327.75 282.1656,328.468" id="Fill-48" fill="#185FEC"></path>
                        <path d="M250.0836,253.8108 C248.1156,254.3318 246.2336,255.1098 244.3016,255.2678 C242.2626,255.4338 240.0416,255.7108 238.3566,253.8208 C237.1406,252.4548 235.7156,251.2758 234.4046,249.9918 C234.1886,249.7808 233.9626,249.4688 233.9406,249.1878 C233.6966,245.9568 232.4456,242.8238 232.9936,239.5138 C233.1276,238.7088 233.1396,237.8768 233.3506,237.0968 C233.4376,236.7688 233.8556,236.4448 234.2006,236.2898 C235.0136,235.9228 235.8616,235.6288 236.7126,235.3598 C238.4636,234.8048 240.2026,234.0418 241.9956,233.8678 C242.7436,233.7948 243.8846,234.8418 244.3856,235.6618 C246.3106,238.8108 248.1096,242.0428 249.8256,245.3128 C250.4416,246.4898 250.7836,247.8388 251.0736,249.1488 C251.3266,250.2908 251.3736,251.4628 250.4156,252.4608 C250.1236,252.7648 250.1746,253.3988 250.0836,253.8108" id="Fill-50" fill="#185FEC"></path>
                        <path d="M477.5738,401.0442 C477.8498,402.5102 478.1898,404.2772 478.5098,406.0482 C478.5718,406.3982 478.6718,406.8112 478.5508,407.1132 C478.0598,408.3442 477.5498,409.5742 476.9348,410.7462 C476.1328,412.2742 474.5798,412.5882 473.0898,413.1612 C470.8878,414.0072 469.3818,413.1892 467.6998,411.9452 C466.5328,411.0812 465.0248,410.6872 463.6968,410.0262 C463.2758,409.8162 462.8538,409.4872 462.5878,409.1052 C461.1088,406.9862 459.6548,404.8512 458.2508,402.6832 C457.9768,402.2602 457.8358,401.6662 457.8548,401.1592 C457.9008,399.8952 457.9508,398.6052 458.2498,397.3862 C458.4048,396.7532 458.9758,395.9912 459.5568,395.7332 C462.1368,394.5932 464.8978,393.7452 467.6938,394.0762 C469.1058,394.2442 470.4708,395.3962 471.7098,396.3052 C473.6598,397.7372 475.4858,399.3422 477.5738,401.0442" id="Fill-52" fill="#185FEC"></path>
                        <path d="M222.7339,221.0207 C222.7269,222.6247 223.0339,224.6727 222.6079,226.5547 C222.2779,228.0137 221.1569,229.3697 220.1579,230.5827 C219.0999,231.8667 217.4629,231.8687 215.8929,232.1847 C212.6079,232.8457 211.4809,230.0417 209.4429,228.7077 C208.8489,228.3187 208.2229,227.9577 207.6979,227.4867 C207.1759,227.0207 206.6209,226.4997 206.3309,225.8847 C205.3489,223.7987 204.4429,221.6737 203.5879,219.5327 C203.3679,218.9787 203.3769,218.3077 203.3959,217.6937 C203.4109,217.2047 203.6019,216.7207 203.7129,216.2337 C204.5299,212.6927 204.7899,212.3507 208.4209,212.1447 C210.4419,212.0297 212.5909,212.0097 214.4859,212.5927 C215.7969,212.9957 216.8409,214.4317 217.8769,215.5277 C219.5049,217.2507 221.0249,219.0757 222.7339,221.0207" id="Fill-54" fill="#185FEC"></path>
                        <path d="M278.8755,277.8108 C280.7855,281.6038 282.5925,285.3608 284.5675,289.0268 C285.2695,290.3288 285.3155,291.2678 284.3075,292.3848 C283.6845,293.0738 283.4505,294.1168 282.8235,294.7988 C279.4635,298.4538 273.9575,298.7228 270.4645,295.1298 C269.0105,293.6338 268.3475,291.2828 267.5885,289.2228 C267.0015,287.6268 266.7575,285.8898 266.4955,284.1938 C266.3775,283.4248 266.3905,282.5188 266.6945,281.8308 C267.1485,280.8038 267.9145,279.9288 267.5865,278.6698 C267.5535,278.5408 268.0285,278.1878 268.3205,278.0828 C269.2915,277.7388 270.2905,277.4728 271.2705,277.1518 C273.5295,276.4098 275.7605,277.0028 277.9925,277.3028 C278.3135,277.3458 278.6005,277.6458 278.8755,277.8108" id="Fill-56" fill="#185FEC"></path>
                        <path d="M633.5709,252.9758 C632.5249,250.3778 631.4359,247.7948 630.4899,245.1628 C630.3729,244.8338 630.9009,244.0408 631.3219,243.8048 C632.0899,243.3718 632.3969,243.0018 632.0629,242.0958 C631.9349,241.7468 632.1609,241.0358 632.4659,240.8018 C633.5189,239.9948 634.6529,239.2798 635.8039,238.6128 C637.3079,237.7418 640.8899,238.4038 642.1349,239.5938 C643.5549,240.9508 645.1109,242.1648 646.5399,243.5128 C647.0749,244.0178 647.5369,244.6738 647.8259,245.3488 C648.3369,246.5438 648.6749,247.8108 649.1229,249.0348 C649.2049,249.2588 649.4239,249.5238 649.6369,249.5958 C652.0289,250.4018 651.7319,252.4538 651.6689,254.2468 C651.5989,256.1718 651.4619,256.1678 649.4139,256.2818 C647.6979,256.3758 645.9599,256.6868 644.2699,256.5158 C641.0069,256.1848 637.7609,255.6108 634.9439,253.7158 C634.5739,253.4668 634.2349,253.1688 633.8819,252.8948 C633.7779,252.9218 633.6749,252.9488 633.5709,252.9758" id="Fill-58" fill="#185FEC"></path>
                        <path d="M359.7193,224.9353 C358.8593,223.5033 358.0993,222.0473 358.3023,220.1023 C358.5243,217.9783 358.2833,215.7913 358.1093,213.6433 C357.9913,212.2023 358.8233,210.9693 360.1153,210.3513 C362.5253,209.1973 365.0643,209.2473 367.6073,209.237289 C368.0563,209.2353 368.5703,209.5133 368.9463,209.8033 C372.0733,212.2073 374.7343,214.9913 375.8203,218.9233 C376.3293,220.7683 375.4703,222.3443 374.6743,223.9433 C373.6533,225.9963 371.8323,226.7653 369.7983,227.3043 C369.1943,227.4643 368.6353,227.9483 368.0433,227.9703 C366.9283,228.0123 365.8033,227.8323 364.6843,227.7333 C364.4133,227.7093 364.1443,227.5863 363.8803,227.6023 C361.8853,227.7183 360.8793,226.2663 359.7193,224.9353" id="Fill-60" fill="#185FEC"></path>
                        <path d="M419.9752,422.5676 C419.4622,422.7326 419.0592,422.8626 418.5212,423.0356 C419.0022,422.4496 419.3752,421.9856 419.7592,421.5306 C422.9012,417.8096 427.2502,416.6686 431.8162,418.9406 C433.2972,419.6766 434.8462,420.4426 436.0482,421.5406 C438.0522,423.3706 438.4582,426.0236 438.8502,428.5716 C439.0272,429.7236 438.9762,430.9266 438.8802,432.0956 C438.8492,432.4826 438.4302,432.9956 438.0562,433.1706 C435.9792,434.1476 433.8792,435.0826 431.7512,435.9406 C430.6192,436.3976 429.4652,436.3406 428.4232,435.5406 C427.1712,434.5766 425.8932,433.6456 424.6182,432.7126 C424.4012,432.5526 424.1462,432.3556 423.9002,432.3406 C420.8502,432.1556 420.5652,429.7476 420.2212,427.5706 C420.0432,426.4436 419.3552,425.1386 420.5322,424.0206 C420.6622,423.8966 420.2132,423.1636 419.9752,422.5676" id="Fill-62" fill="#185FEC"></path>
                        <path d="M162.5933,233.6057 C162.4493,233.1717 162.2853,232.6777 162.1113,232.1517 C161.7383,232.1377 161.3443,232.1217 160.5903,232.0927 C162.2263,231.0667 163.5633,230.1857 164.9393,229.3727 C167.4943,227.8647 170.1023,228.2127 172.5723,229.4877 C174.9253,230.7027 177.2803,232.0647 178.6053,234.4937 C179.8233,236.7287 179.9583,239.2097 179.6863,241.7107 C179.6613,241.9337 179.5783,242.1497 179.5393,242.3717 C179.3553,243.4227 179.5063,244.7747 178.9013,245.4417 C178.3273,246.0737 176.9623,245.9827 175.9473,246.2187 C174.3643,246.5867 172.7923,247.0177 171.1973,247.3197 C169.9253,247.5607 168.9463,247.1967 168.0323,246.0677 C166.5803,244.2737 165.1593,242.3457 162.7643,241.5777 C162.4003,241.4607 161.9773,240.8537 161.9553,240.4537 C161.8453,238.3947 161.8333,236.3277 161.8583,234.2637 C161.8613,234.0467 162.3253,233.8347 162.5933,233.6057" id="Fill-64" fill="#185FEC"></path>
                        <path d="M412.1353,251.1243 C413.4683,250.7173 415.1813,250.1083 416.9393,249.6873 C417.9033,249.4563 418.9453,249.4663 419.9473,249.4973 C422.5753,249.5793 423.4503,251.8503 424.7473,253.5313 C426.0353,255.2013 427.1713,256.9873 428.4013,258.7033 C429.6453,260.4393 429.6053,260.4973 428.3863,262.2223 C427.5063,263.4663 426.7183,264.7893 426.0323,266.1483 C425.5153,267.1753 424.8673,267.5683 423.7013,267.5603 C421.7243,267.5453 419.7463,267.7663 417.7683,267.8443 C416.7273,267.8853 415.3613,266.7713 414.9573,265.8223 C414.7563,265.3493 414.3463,264.9133 413.9303,264.5913 C411.7063,262.8693 410.2113,260.6563 409.5013,257.9573 C408.8083,255.3223 409.9213,253.2703 412.1353,251.1243" id="Fill-66" fill="#185FEC"></path>
                        <path d="M508.4634,383.4465 C506.5744,383.5865 504.9864,384.2965 503.5014,385.5525 C502.1394,386.7055 500.5474,387.7015 498.8924,388.3405 C498.1304,388.6335 496.9714,387.9235 496.0004,387.6405 C495.2784,387.4295 494.5504,387.2185 493.8604,386.9245 C493.3514,386.7065 492.7314,386.4625 492.4504,386.0375 C491.2544,384.2235 489.9104,382.4425 489.1074,380.4525 C488.2604,378.3595 487.4014,376.0955 489.4224,373.9185 C490.5004,372.7575 491.0934,371.1565 492.0234,369.8375 C492.2844,369.4665 492.9794,369.1815 493.4494,369.2155 C495.2034,369.3395 496.9524,369.5765 498.6904,369.8525 C499.0954,369.9165 499.5154,370.2345 499.8194,370.5435 C502.3524,373.1165 504.7884,375.7865 507.3984,378.2775 C509.0244,379.8315 509.0504,381.5185 508.4634,383.4465" id="Fill-68" fill="#185FEC"></path>
                        <path d="M256.3882,209.1907 C254.3232,209.0337 252.6132,209.5907 250.8952,210.5747 C249.3672,211.4507 247.5972,212.0917 245.8632,212.3417 C245.0012,212.4667 243.9792,211.4807 243.0302,210.9967 C242.3962,210.6737 241.7382,210.3897 241.1392,210.0107 C240.7072,209.7377 240.1752,209.4127 239.9982,208.9827 C239.1392,206.8957 238.1342,204.8187 237.6662,202.6337 C237.2182,200.5437 236.8922,198.2837 239.0292,196.5627 C240.2392,195.5867 241.1782,194.2687 242.1972,193.0677 C242.8062,192.3497 243.4252,192.1577 244.3422,192.5137 C245.8452,193.0977 247.4042,193.5387 248.9272,194.0757 C249.1962,194.1697 249.4702,194.3937 249.6312,194.6327 C251.9752,198.1117 254.2672,201.6277 256.6462,205.0827 C257.6952,206.6057 256.6502,207.8117 256.3882,209.1907" id="Fill-70" fill="#185FEC"></path>
                        <path d="M367.565,340.717 C368.607,341.93 369.65,343.143 370.687,344.36 C370.773,344.461 370.865,344.592 370.877,344.716 C371.044,346.491 371.354,348.272 371.309,350.043 C371.266,351.722 370.099,352.764 368.639,353.543 C367.421,354.194 366.386,355.283 365.113,355.699 C364.135,356.02 362.82,355.836 361.819,355.451 C359.588,354.593 357.38,353.604 355.328,352.391 C354.34,351.808 353.294,350.701 353.032,349.645 C352.55,347.701 352.651,345.616 352.465,343.595 C352.31,341.902 353.539,340.684 354.57,340.108 C357.007,338.747 359.74,337.912 362.368,336.903 C362.617,336.807 363.036,336.877 363.26,337.034 C364.809,338.121 366.328,339.251 367.856,340.366 C367.759,340.484 367.662,340.6 367.565,340.717" id="Fill-72" fill="#185FEC"></path>
                        <path d="M569.6285,377.0286 C569.8695,377.3576 570.0785,377.7176 570.3575,378.0106 C572.0235,379.7496 571.4185,381.7586 571.0645,383.7386 C571.0245,383.9576 570.8935,384.1586 570.8395,384.3766 C570.0995,387.3406 568.9995,387.8906 565.8855,387.2326 C563.9935,386.8326 562.0195,386.8376 560.1075,386.5096 C559.0175,386.3236 557.9585,385.8826 556.9225,385.4646 C556.0875,385.1276 555.3505,384.4626 554.4975,384.2766 C552.0345,383.7416 551.3605,381.9896 551.1585,379.8266 C551.1425,379.6466 551.1785,379.4366 551.0985,379.2916 C550.0975,377.4756 550.7805,376.1676 552.1725,374.8586 C554.6965,372.4846 557.5465,370.7926 560.9725,370.1976 C562.4395,369.9436 563.8135,370.5776 564.8055,371.5156 C566.5755,373.1896 568.1275,375.0946 569.7715,376.9036 C569.7235,376.9456 569.6765,376.9866 569.6285,377.0286" id="Fill-74" fill="#185FEC"></path>
                        <path d="M267.4371,201.0872 C268.6681,200.3672 269.8911,199.8682 270.8401,199.0502 C272.5661,197.5642 274.7511,197.7882 276.7051,197.1792 C279.0141,196.4592 280.8331,197.7202 281.9861,199.3192 C283.7171,201.7172 284.9771,204.4602 286.3881,207.0832 C287.3611,208.8922 286.2581,210.5372 285.8391,212.2262 C285.7891,212.4282 285.5531,212.5772 285.4471,212.7742 C284.9051,213.7852 284.9531,215.3862 283.1961,215.2052 C282.0241,215.0852 280.8891,215.1892 279.6821,214.5782 C277.9841,213.7192 275.8431,213.7242 274.1621,212.8432 C271.8241,211.6192 269.6941,209.9732 267.5781,208.3722 C267.1721,208.0662 267.1711,207.1402 267.1041,206.4872 C266.9711,205.1912 266.8621,203.8852 266.8711,202.5842 C266.8741,202.0912 267.2321,201.6012 267.4371,201.0872" id="Fill-76" fill="#185FEC"></path>
                        <path d="M168.2574,152.8308 C170.1294,156.0368 170.9354,159.3628 171.7244,162.6948 C171.8184,163.0908 171.8594,163.4978 171.9424,163.8968 C172.5054,166.5998 171.6344,168.0498 169.0384,169.0938 C166.5654,170.0898 164.2344,170.0058 161.9144,168.6708 C161.3374,168.3398 160.5704,168.3248 160.0194,167.9668 C159.4424,167.5918 158.7954,167.0618 158.5704,166.4558 C157.5554,163.7108 156.6854,160.9138 155.7494,158.1398 C155.3744,157.0268 154.9564,155.9298 154.5774,154.8188 C154.4934,154.5728 154.3594,154.2008 154.4704,154.0548 C155.2534,153.0178 156.0234,151.9518 156.9424,151.0428 C157.6254,150.3668 158.6324,150.0428 158.8064,148.8708 C158.8344,148.6808 159.7134,148.4168 160.1144,148.5188 C161.8434,148.9548 163.6524,149.2958 165.2124,150.0988 C166.4414,150.7298 167.3494,151.9848 168.2574,152.8308" id="Fill-78" fill="#185FEC"></path>
                        <path d="M361.2818,142.0657 C361.7958,141.9747 362.2938,141.7757 362.7708,141.8197 C364.6638,141.9927 366.5468,142.3867 368.4378,142.4197 C370.1048,142.4477 371.5918,143.0897 373.1358,143.4757 C373.9098,143.6687 374.6528,144.5397 375.1278,145.2837 C377.1638,148.4797 379.0748,151.7537 381.0798,154.9687 C381.5188,155.6717 381.3998,156.1247 380.8098,156.5867 C378.3698,158.5037 375.5638,159.3867 372.5418,160.0327 C370.3988,160.4907 368.4548,160.1407 366.4138,159.9277 C365.4108,159.8237 364.8128,159.3727 364.5298,158.4567 C363.4628,155.0107 362.4008,151.5637 362.3998,147.9017 C362.3988,146.9037 362.4958,145.8847 362.3218,144.9157 C362.1598,144.0127 361.6978,143.1627 361.2818,142.0657" id="Fill-80" fill="#185FEC"></path>
                        <path d="M335.9615,261.2473 C336.4765,259.3013 338.0665,258.9343 339.4975,260.3473 C341.3555,262.1813 343.1725,264.0623 344.8985,266.0193 C345.7985,267.0403 346.0835,268.3213 345.6335,269.7103 C344.9525,271.8063 344.2505,273.9013 343.7315,276.0383 C343.5815,276.6503 344.0305,277.4083 344.2055,278.0993 C344.9165,277.8353 345.6525,277.6233 346.3295,277.2903 C346.8295,277.0433 347.2515,276.6383 347.7275,276.2883 C348.7385,278.5993 347.8575,280.2223 345.5495,280.4633 C343.9825,280.6273 342.3595,280.5483 340.8515,280.9283 C339.1235,281.3623 337.8155,280.4023 336.8525,279.5733 C334.9215,277.9123 333.2475,275.8893 331.7365,273.8183 C330.0655,271.5273 330.1245,268.6883 329.8975,265.9813 C329.8895,265.8913 329.8955,265.7993 329.9005,265.7083 C329.9575,264.8303 329.6715,263.5643 330.1395,263.1513 C331.2745,262.1493 332.7195,261.4553 334.1265,260.8323 C334.5645,260.6393 335.2785,261.0753 335.9615,261.2473" id="Fill-82" fill="#185FEC"></path>
                        <path d="M323.4859,137.7214 C322.7519,136.7204 321.9969,135.6014 321.1499,134.5584 C320.0269,133.1744 320.6209,131.5284 320.3759,130.0144 C320.2489,129.2234 320.3149,128.3804 320.4279,127.5804 C320.4819,127.2004 320.7739,126.7534 321.0929,126.5314 C321.7959,126.0414 322.5549,125.6094 323.3429,125.2734 C325.6239,124.3034 327.9109,123.3424 330.2379,122.4944 C330.7399,122.3124 331.5199,122.4564 332.0009,122.7404 C333.3579,123.5424 334.7089,124.3994 335.8909,125.4304 C336.4369,125.9064 336.5879,126.8374 336.9129,127.5634 C337.7169,129.3564 338.5819,131.1264 339.3049,132.9514 C339.9929,134.6824 337.5539,138.5834 335.7569,138.9834 C332.6739,139.6684 329.6019,140.1594 326.4309,139.6664 C325.1599,139.4694 324.0089,139.2004 323.4859,137.7214" id="Fill-84" fill="#185FEC"></path>
                        <path d="M507.7056,354.9827 C505.7526,355.1287 503.9386,355.3207 502.1216,355.3857 C500.3366,355.4517 498.4956,355.6357 496.7796,355.2817 C495.8596,355.0907 494.8956,354.0137 494.3966,353.0947 C492.8566,350.2627 491.4496,347.3487 490.1496,344.3977 C489.2346,342.3187 489.8806,339.8367 491.6356,338.4197 C492.2396,337.9297 493.1606,337.7257 493.9676,337.6217 C495.0106,337.4867 496.1706,337.8437 497.1286,337.5267 C499.9306,336.5997 501.6896,338.0867 503.4716,339.8247 C505.5176,341.8207 505.9056,344.6447 507.1856,347.0207 C507.4226,347.4577 507.5386,347.9617 507.7876,348.3887 C508.2366,349.1617 508.3926,349.7377 507.8386,350.6857 C507.3756,351.4797 507.6416,352.7107 507.6196,353.7477 C507.6096,354.2277 507.6846,354.7107 507.7056,354.9827" id="Fill-86" fill="#185FEC"></path>
                        <path d="M565.8853,300.508 C567.4693,303.799 569.0673,307.088 570.6333,310.392 C571.0063,311.179 570.8523,311.644 569.9513,312.19 C568.3913,313.136 566.9743,314.365 565.6453,315.632 C565.0103,316.237 564.5363,316.528 563.6543,316.315 C562.2543,315.977 560.7943,315.879 559.4083,315.499 C558.7293,315.313 557.9233,314.863 557.5803,314.29 C555.4923,310.807 553.5173,307.256 551.5203,303.719 C551.3763,303.466 551.1973,303.066 551.2983,302.869 C551.9933,301.518 552.7763,300.211 553.4933,298.87 C553.8133,298.276 554.1443,297.657 554.2973,297.009 C554.5003,296.152 554.9673,296.029 555.6963,296.238 C556.6053,296.501 557.5153,296.758 558.4273,297.008 C558.6443,297.068 558.8933,297.174 559.0893,297.12 C562.3873,296.207 563.6423,299.169 565.8853,300.508" id="Fill-88" fill="#185FEC"></path>
                        <path d="M275.7896,257.1809 C274.7836,255.8079 273.4516,254.5659 272.8416,253.0349 C271.7416,250.2759 270.1986,247.3749 271.5166,244.3329 C272.0996,242.9869 273.4096,241.8319 274.6356,240.9219 C275.8726,240.0039 277.4046,239.4759 278.8306,238.8289 C279.1126,238.7009 279.5606,238.6859 279.8306,238.8219 C282.4526,240.1399 284.4346,242.0659 286.0896,244.5529 C287.7916,247.1119 288.0726,250.0349 289.0036,252.7859 C289.1116,253.1059 288.8566,253.7519 288.5636,253.9689 C287.0276,255.1049 285.5356,256.4069 283.8126,257.1559 C282.1296,257.8889 280.2016,258.1419 278.3526,258.3919 C276.7766,258.6039 276.7586,258.4689 275.7896,257.1809" id="Fill-90" fill="#185FEC"></path>
                        <path d="M461.8941,349.0139 C462.3361,349.1779 462.7041,349.3959 463.0901,349.4389 C463.7771,349.5139 464.4751,349.4829 465.1691,349.4959 C465.0811,348.7269 465.1881,347.8629 464.8681,347.2059 C463.8941,345.2149 462.7721,343.2939 461.6731,341.3659 C461.1881,340.5129 461.1651,339.8489 461.9171,339.0699 C463.1151,337.8269 464.1671,336.4469 465.2991,335.1389 C465.4581,334.9559 465.7031,334.7699 465.9301,334.7349 C467.6891,334.4639 469.4671,333.9879 471.2121,334.0809 C472.1551,334.1309 473.3731,334.9699 473.8951,335.8089 C475.3501,338.1469 476.5081,340.6699 477.7801,343.1219 C477.8611,343.2799 477.9931,343.4649 477.9671,343.6149 C477.6261,345.6059 477.2701,347.5929 476.9031,349.5779 C476.4151,352.2149 474.6851,353.4489 472.1521,353.8159 C470.5181,354.0519 468.8911,354.3479 467.2651,354.6359 C466.4801,354.7759 465.9341,354.5799 465.3901,353.9129 C464.7161,353.0879 463.9191,352.2739 463.0041,351.7589 C461.8241,351.0959 461.5751,350.2559 461.8941,349.0139" id="Fill-92" fill="#185FEC"></path>
                        <path d="M69.3658,324.3664 C70.5858,326.0304 71.8378,327.6724 72.9948,329.3774 C73.1958,329.6734 73.1578,330.3444 72.9538,330.6654 C71.8668,332.3774 70.6208,333.9904 69.5738,335.7244 C68.8888,336.8594 68.1158,337.5604 66.7298,337.7054 C64.8368,337.9014 62.9718,338.3884 61.0788,338.5774 C60.3968,338.6454 59.6378,338.2744 58.9628,337.9904 C58.2838,337.7064 57.6098,337.3484 57.0398,336.8914 C56.6798,336.6044 56.3378,336.0944 56.2918,335.6514 C55.8868,331.7344 55.5378,327.8114 55.1978,323.8884 C55.1188,322.9794 55.3218,322.0164 54.4348,321.3324 C54.3498,321.2664 54.5668,320.8104 54.6438,320.5354 C54.9698,320.6834 55.4908,320.7584 55.5798,320.9944 C55.7648,321.4864 55.6308,322.0944 55.7968,322.5974 C55.9588,323.0894 56.2608,323.8014 56.6308,323.8914 C57.1208,324.0124 58.0898,323.7754 58.2378,323.4294 C58.8948,321.8894 60.4748,320.8854 60.6258,319.0414 C60.6818,318.3484 61.3678,318.0194 62.0848,318.4884 C63.3698,319.3294 64.6758,320.1464 65.9008,321.0694 C67.0478,321.9314 68.1008,322.9184 69.1968,323.8484 C69.3318,323.9634 69.4738,324.0694 69.6128,324.1794 C69.5298,324.2424 69.4478,324.3044 69.3658,324.3664" id="Fill-94" fill="#185FEC"></path>
                        <path d="M111.063,447.3254 C110.762,447.3674 110.611,447.4134 110.597,447.3874 C109.658,445.6034 107.447,444.7644 106.983,442.6584 C106.535,440.6234 106.27,438.5484 105.826,436.5114 C105.501,435.0244 106.898,434.9214 107.55,434.4574 C109.285,433.2254 111.243,432.3154 113.075,431.2154 C113.675,430.8544 114.019,430.8524 114.612,431.3084 C115.296,431.8354 116.232,432.0204 117.003,432.4534 C117.919,432.9684 119.099,433.3874 119.6,434.1984 C121.423,437.1474 123.087,440.2054 124.628,443.3124 C124.974,444.0094 124.624,445.0784 124.514,445.9654 C124.41,446.8124 124.218,447.6504 124.031,448.4854 C123.984,448.6934 123.852,448.9374 123.683,449.0554 C122.097,450.1644 120.527,451.4104 118.411,450.9314 C117.904,450.8164 117.388,450.3654 117.052,449.9324 C115.967,448.5334 114.98,447.0594 113.919,445.6404 C113.627,445.2494 113.267,444.8304 112.841,444.6384 C112.35,444.4184 111.706,444.2774 111.222,444.4214 C111.012,444.4834 110.991,445.3374 110.967,445.8354 C110.945,446.3344 111.028,446.8384 111.063,447.3254" id="Fill-96" fill="#185FEC"></path>
                        <path d="M449.2252,360.0266 C449.3702,360.2546 449.5722,360.4316 449.5402,360.5436 C449.2042,361.7306 449.9672,362.0366 450.8632,362.2546 C452.5902,362.6746 453.7582,363.7796 454.7942,365.1856 C455.9922,366.8106 457.3352,368.3366 458.7022,369.8266 C459.3482,370.5316 459.8682,371.1856 459.7152,372.1996 C459.6412,372.6876 459.6392,373.1876 459.6172,373.6816 C459.5162,375.8826 459.5082,375.8496 457.4592,376.4316 C456.6432,376.6636 455.8922,377.1166 455.0892,377.4086 C450.5442,379.0586 446.6492,377.2976 443.8492,373.8226 C442.6462,372.3306 441.8182,370.5336 440.8352,368.8656 C440.3282,368.0046 439.4122,367.0756 439.4972,366.2626 C439.5732,365.5456 440.8952,365.0336 441.4652,364.2786 C443.0392,362.1946 445.1052,361.3626 447.6622,361.3266 C448.1482,361.3206 448.6242,360.5486 449.2252,360.0266" id="Fill-98" fill="#185FEC"></path>
                        <path d="M0.1998,232.9934 C0.1458,232.0544 -0.1282,230.9334 0.0728,229.9054 C0.3358,228.5614 0.9048,227.2604 1.4698,225.9974 C2.3508,224.0204 3.3168,222.0784 4.3038,220.1504 C4.4838,219.7984 4.9008,219.4074 5.2668,219.3354 C7.6428,218.8744 10.0348,219.0434 12.0908,220.3024 C13.0418,220.8844 13.4948,222.2414 14.2638,223.1714 C14.6858,223.6804 15.2968,224.0334 15.8218,224.4574 C16.0958,223.8914 16.3728,223.3264 16.6418,222.7584 C16.6928,222.6524 16.7198,222.5344 16.8488,222.1454 C17.3848,223.9234 18.0408,225.3504 17.2848,227.0474 C16.9158,227.8754 16.9528,228.9014 16.8838,229.8434 C16.7748,231.3094 16.2898,232.5424 15.0748,233.4594 C14.4638,233.9204 14.0038,234.6104 13.3518,234.9774 C12.6138,235.3944 11.7488,235.6084 10.9168,235.8324 C9.7018,236.1594 8.4778,236.4864 7.2388,236.6894 C5.3268,237.0024 3.5128,237.0624 2.3358,234.9804 C1.9058,234.2214 1.0108,233.7244 0.1998,232.9934" id="Fill-100" fill="#185FEC"></path>
                        <path d="M356.9312,174.0281 C357.6682,175.6321 358.4912,177.2391 359.1512,178.9111 C359.8862,180.7741 360.5182,182.6831 361.0932,184.6021 C361.2192,185.0231 361.0732,185.7101 360.7852,186.0401 C359.4282,187.5931 357.7962,188.7541 355.7532,189.3051 C354.9382,189.5261 354.2082,190.0651 353.3922,190.2901 C352.8142,190.4501 351.9632,190.5851 351.5682,190.2871 C349.6602,188.8531 347.8002,187.3361 346.0692,185.6941 C345.5742,185.2241 345.3722,184.2411 345.3712,183.4931 C345.3682,181.7001 345.6662,179.9061 345.6392,178.1151 C345.6252,177.1711 345.1232,176.2431 344.9552,175.2881 C344.8182,174.5061 344.6142,173.6001 344.8842,172.9291 C345.0762,172.4571 345.9852,172.1301 346.6232,172.0141 C347.9552,171.7731 349.3192,171.7011 350.6722,171.5901 C351.0662,171.5581 351.4872,171.5641 351.8642,171.6661 C353.0232,171.9831 354.2012,172.2781 355.3052,172.7371 C355.8932,172.9811 356.3462,173.5491 356.9312,174.0281" id="Fill-102" fill="#185FEC"></path>
                        <path d="M400.938,118.1057 C399.908,118.8617 398.891,119.6357 397.834,120.3527 C397.675,120.4607 397.317,120.3537 397.083,120.2647 C393.748,118.9997 390.443,117.6517 387.08,116.4717 C385.122,115.7847 383.98,113.4937 384.105,111.6357 C384.225,109.8637 384.806,108.0747 383.987,106.2977 C383.922,106.1577 384.469,105.4987 384.78,105.4597 C386.89,105.1957 388.659,104.0867 390.577,103.3327 C392.568,102.5497 394.557,103.3697 396.46,104.0767 C397.076,104.3057 397.679,104.6057 398.226,104.9667 C398.534,105.1697 398.795,105.5297 398.941,105.8767 C399.372,106.8997 399.754,107.9447 400.117,108.9957 C400.626,110.4707 401.143,111.9447 401.572,113.4447 C401.804,114.2607 401.824,115.1357 402.005,115.9697 C402.223,116.9737 401.971,117.7557 400.938,118.1057" id="Fill-104" fill="#185FEC"></path>
                        <path d="M402.0406,195.3655 C402.2866,196.5795 402.6736,198.3275 402.9566,200.0925 C402.9876,200.2905 402.4686,200.7565 402.1576,200.8045 C398.0516,201.4475 393.9466,202.1275 389.8166,202.5745 C388.8446,202.6805 387.7726,201.9825 386.7696,201.5965 C386.5686,201.5205 386.3756,201.1985 386.3366,200.9625 C385.7346,197.3325 384.4456,193.7825 385.0276,190.0105 C385.1446,189.2555 385.2276,188.4935 385.3666,187.7435 C385.4036,187.5465 385.5616,187.2665 385.7236,187.2155 C386.9206,186.8385 388.1276,186.4875 389.3446,186.1785 C389.6836,186.0925 390.1026,186.2795 390.4226,186.1655 C393.2566,185.1515 394.7256,187.0705 396.2776,188.8345 C398.0616,190.8615 399.8506,192.8845 402.0406,195.3655" id="Fill-106" fill="#185FEC"></path>
                        <path d="M312.6695,275.9748 C313.9735,277.6238 315.2815,279.2698 316.5715,280.9298 C316.6965,281.0908 316.7675,281.3398 316.764591,281.5468 C316.7515,282.3108 316.7315,283.0778 316.6535,283.8378 C316.2065,288.2448 315.8025,288.7028 310.9895,290.4388 C309.6525,290.9208 308.6135,290.9178 307.5845,289.9758 C306.6785,289.1468 305.5145,288.4648 304.9245,287.4508 C303.7105,285.3608 302.7555,283.1138 301.7835,280.8908 C300.7415,278.5108 301.4885,276.0838 301.8095,273.6908 C301.9395,272.7218 302.7695,272.6088 303.6025,272.6528 C305.1445,272.7358 306.7085,273.1068 308.1345,272.0548 C308.3675,271.8838 309.0695,272.0498 309.3515,272.2948 C310.6005,273.3868 311.7755,274.5638 312.9785,275.7098 C312.8755,275.7978 312.7735,275.8868 312.6695,275.9748" id="Fill-108" fill="#185FEC"></path>
                        <path d="M374.0757,371.0335 C374.9357,370.2695 375.7667,369.6865 376.4027,368.9375 C378.0277,367.0215 380.1057,367.2105 382.2137,367.5765 C383.3687,367.7765 384.4987,368.1275 385.6347,368.4315 C387.8277,369.0195 388.3437,370.9865 389.0997,372.7305 C389.4917,373.6335 389.7007,374.6165 390.1157,375.5065 C390.7987,376.9665 390.6567,379.3515 389.4107,380.2275 C388.3507,380.9735 386.9827,381.2995 385.7257,381.7405 C384.6167,382.1305 383.4607,382.3825 382.3497,382.7665 C380.8957,383.2715 379.8177,382.6295 378.7967,381.7295 C377.6827,380.7495 376.5707,379.7665 375.4587,378.7855 C374.6797,378.0995 373.7337,377.5275 373.1777,376.6945 C372.7407,376.0425 372.6027,375.0545 372.6617,374.2385 C372.7507,372.9945 372.4807,371.4655 374.0757,371.0335" id="Fill-110" fill="#185FEC"></path>
                        <path d="M379.6002,402.5217 C380.8082,402.1907 382.0652,401.6597 383.3602,401.5417 C384.9582,401.3957 386.3732,401.7487 387.3112,403.4617 C388.1392,404.9757 389.4922,406.1937 390.5282,407.6047 C391.3822,408.7687 392.1212,410.0187 392.8902,411.2457 C392.9952,411.4127 393.0782,411.7817 392.9962,411.8487 C391.6382,412.9857 391.6042,415.1447 389.7182,415.9137 C388.0802,416.5817 386.5602,417.4137 384.6652,416.9117 C383.6782,416.6497 382.5992,416.7167 381.5612,416.6667 C380.5302,416.6147 375.9592,413.1427 375.7782,412.1147 C375.5342,410.7357 375.4252,409.3307 375.3132,407.9327 C375.2902,407.6547 375.4452,407.2997 375.6332,407.0797 C376.8852,405.6047 378.1682,404.1587 379.6002,402.5217" id="Fill-112" fill="#185FEC"></path>
                        <path d="M328.3082,204.8669 C327.3922,201.6499 326.7552,198.6389 325.6502,195.8119 C324.9312,193.9739 326.3252,192.8189 326.4112,191.2999 C326.4162,191.1989 326.7772,191.0759 326.9862,191.0359 C329.0142,190.6509 331.0452,190.2829 333.0742,189.9049 C335.2352,189.5019 337.3622,190.4649 338.0512,192.5089 C339.0842,195.5729 340.4902,198.5809 340.3992,201.9129 C340.3742,202.7829 340.0972,203.7999 339.5772,204.4709 C338.1082,206.3669 336.2262,207.2809 333.9322,206.1789 C333.0022,205.7319 331.9822,205.4329 330.9722,205.2049 C330.0132,204.9879 329.0132,204.9499 328.3082,204.8669" id="Fill-114" fill="#185FEC"></path>
                        <path d="M309.0279,195.8103 C310.1359,197.3223 311.2409,198.8203 312.3359,200.3263 C312.5159,200.5753 312.7289,200.8383 312.7979,201.1263 C313.4029,203.6643 313.9729,206.2103 314.5659,208.7523 C314.9389,210.3563 314.6049,210.8513 313.0799,211.5393 C312.1449,211.9603 311.3739,212.7343 310.4529,213.1993 C308.4749,214.1953 306.6499,213.2173 304.8409,212.5593 C303.6529,212.1263 302.2569,211.7903 301.4279,210.9463 C300.0149,209.5053 300.0619,207.3973 299.7809,205.4763 C299.5649,203.9993 300.2989,202.8293 300.9459,201.6823 C301.7189,200.3103 302.6559,199.0053 303.6839,197.8123 C304.1089,197.3193 304.9409,197.1453 305.6169,196.9063 C306.7699,196.4983 307.9449,196.1543 309.0279,195.8103" id="Fill-116" fill="#185FEC"></path>
                        <path d="M444.7974,331.6682 C445.6364,332.0972 446.5324,332.5562 447.2164,332.9052 C446.3264,334.3312 445.2644,335.6212 444.6604,337.0992 C443.6814,339.4972 441.6174,339.9122 439.5264,340.5262 C436.9634,341.2792 435.3114,339.6162 433.4874,338.4272 C432.5164,337.7922 431.7214,336.8882 430.7464,336.2582 C429.9454,335.7402 429.8034,335.1472 430.0064,334.3122 C430.2814,333.1842 430.4944,332.0922 431.4864,331.2462 C432.2194,330.6222 432.6854,329.6872 433.2834,328.9002 C433.4164,328.7252 433.6034,328.4692 433.7724,328.4632 C434.7124,328.4302 435.6674,328.5642 436.5934,328.4472 C437.7694,328.3002 438.2794,328.9952 438.8744,329.7872 C439.2694,330.3142 439.8404,330.7472 440.4064,331.1022 C441.4334,331.7442 442.4924,332.3462 443.5864,332.8632 C444.0094,333.0642 444.5634,332.9882 445.0574,333.0382 C444.9714,332.5862 444.8864,332.1332 444.7974,331.6682" id="Fill-118" fill="#185FEC"></path>
                        <path d="M379.1734,326.4387 C379.0294,326.2637 378.9204,326.0367 378.7384,325.9217 C377.0504,324.8557 377.2824,322.8287 376.4374,321.3427 C376.3544,321.1977 376.3204,320.9757 376.3614,320.8147 C376.8594,318.8427 377.1504,316.7727 377.9904,314.9577 C378.3484,314.1867 379.8514,313.9107 380.8684,313.4977 C381.3144,313.3167 381.8484,313.3077 382.3434,313.3027 C383.3234,313.2927 383.9754,313.6367 384.4054,314.6747 C385.1824,316.5447 386.1974,318.3137 387.0944,320.1347 C387.2454,320.4427 387.3584,320.7927 387.3884,321.1327 C387.4934,322.3407 387.5534,323.5537 387.6364,324.7637 C387.6824,325.4467 387.8174,326.1147 386.9104,326.4477 C386.6654,326.5377 386.6044,327.1047 386.4414,327.4457 C386.2204,327.9077 386.0694,328.4387 385.7364,328.8037 C384.7224,329.9247 383.5734,330.1777 382.2834,329.1677 C381.1994,328.3207 380.0724,327.5287 378.9644,326.7107 C379.0334,326.6207 379.1044,326.5297 379.1734,326.4387" id="Fill-120" fill="#185FEC"></path>
                        <path d="M258.1568,273.3176 C259.1658,275.2346 260.7328,276.9916 260.2208,279.3986 C260.1518,279.7266 259.7978,280.1296 259.4818,280.2456 C258.0578,280.7616 256.5038,280.9796 255.5898,282.4426 C255.4088,282.7316 254.9098,282.9236 254.5348,282.9686 C252.2958,283.2386 250.1198,281.8026 248.7638,279.9626 C247.4828,278.2216 247.3138,276.3586 248.1258,274.7506 C248.8468,273.3216 250.3788,272.2406 251.7058,271.2036 C252.4158,270.6496 253.5188,270.1336 254.3238,270.2786 C255.4098,270.4736 256.4278,271.2526 257.3738,271.9216 C257.7668,272.1986 257.9038,272.8406 258.1568,273.3176" id="Fill-122" fill="#185FEC"></path>
                        <g id="Group-2" transform="translate(1013.788633, 186.587147)" fill="#000000">
                            <path d="M288.536067,142.713853 C290.172067,141.869853 292.214067,140.622853 294.408067,139.767853 C295.521067,139.333853 296.934067,139.442853 298.163067,139.628853 C298.778067,139.722853 299.429067,140.443853 299.811067,141.041853 C300.614067,142.298853 301.252067,143.660853 301.956067,144.980853 C302.012067,145.085853 302.048067,145.202853 302.112067,145.302853 C302.704067,146.215853 303.732067,147.032853 303.323067,148.255853 C302.700067,150.119853 301.739067,151.873853 300.018067,152.926853 C298.160067,154.064853 296.473067,155.338853 295.149067,157.080853 C294.669067,157.712853 294.111067,158.061853 293.194067,157.809853 C292.601067,157.646853 291.897067,157.907853 291.241067,157.942853 C290.755067,157.967853 290.265067,157.933853 289.776067,157.922853 C289.738067,157.921853 289.701067,157.886853 289.663067,157.885853 C286.590067,157.814853 285.891067,155.423853 285.110067,153.163853 C284.654067,151.846853 283.815067,150.610853 284.085067,149.107853 C284.159067,148.692853 284.130067,148.185853 284.361067,147.884853 C285.591067,146.285853 286.888067,144.738853 288.536067,142.713853" id="Fill-124"></path>
                            <path d="M290.087867,123.014653 C289.701867,123.516653 289.317867,124.020653 288.928867,124.519653 C288.108867,125.572653 287.101867,126.527653 286.503867,127.692653 C285.422867,129.795653 283.298867,130.583653 281.566867,131.776653 C280.112867,132.775653 278.235867,133.270653 276.474867,133.674653 C274.927867,134.030653 273.666867,132.704653 273.279867,130.907653 C272.934867,129.295653 272.432867,127.717653 272.053867,126.112653 C271.969867,125.758653 272.043867,125.327653 272.165867,124.972653 C272.965867,122.644653 274.616867,120.879653 276.024867,118.923653 C277.934867,116.273653 280.652867,115.993653 283.430867,115.600653 C284.849867,115.399653 286.276867,115.258653 287.698867,115.080653 C289.103867,114.906653 289.145867,116.257653 289.708867,116.956653 C290.341867,117.742653 290.711867,118.736653 291.212867,119.630653 C291.666867,120.440653 291.118867,122.262653 290.087867,123.014653" id="Fill-126"></path>
                            <path d="M324.324167,96.0957529 C323.472167,96.4387529 322.621167,96.7807529 321.483167,97.2377529 C321.443167,96.2577529 321.331167,95.3077529 321.382167,94.3667529 C321.467167,92.7787529 321.761167,91.2077529 323.337167,90.3757529 C324.202167,89.9177529 325.189167,89.6997529 326.099167,89.3197529 C327.711167,88.6487529 329.274167,87.8467529 330.920167,87.2797529 C331.751167,86.9927529 332.736167,87.1917529 333.617167,87.0047529 C334.820167,86.7507529 335.047167,87.7887529 335.643167,88.3457529 C336.283167,88.9417529 336.930167,89.5297529 337.552167,90.1447529 C339.047167,91.6257529 339.178167,93.3817529 338.378167,95.2027529 C337.501167,97.1957529 336.779167,99.3537529 335.461167,101.022753 C334.288167,102.508753 332.639167,103.816753 330.569167,104.195753 C329.208167,104.444753 327.833167,104.638753 326.494167,104.978753 C325.583167,105.210753 324.856167,105.159753 324.252167,104.388753 C324.106167,104.203753 323.921167,104.026753 323.715167,103.915753 C322.073167,103.033753 322.258167,101.352753 321.983167,99.8977529 C321.868167,99.2847529 321.990167,98.8337529 322.872167,98.5457529 C323.626167,98.3007529 324.131167,97.2887529 324.745167,96.6167529 C324.604167,96.4437529 324.465167,96.2697529 324.324167,96.0957529" id="Fill-128"></path>
                            <path d="M2.95506695,65.5166529 C2.10306695,65.8596529 1.25206695,66.2016529 0.114066947,66.6586529 C0.0740669471,65.6796529 -0.0379330529,64.7286529 0.0130669471,63.7876529 C0.0990669471,62.1996529 0.393066947,60.6296529 1.96806695,59.7966529 C2.83306695,59.3386529 3.82006695,59.1206529 4.73006695,58.7406529 C6.34206695,58.0696529 7.90606695,57.2686529 9.55206695,56.7006529 C10.3820669,56.4136529 11.3670669,56.6126529 12.2480669,56.4256529 C13.4510669,56.1716529 13.6780669,57.2096529 14.2740669,57.7666529 C14.9140669,58.3626529 15.5610669,58.9506529 16.1820669,59.5656529 C17.6790669,61.0466529 17.8090669,62.8026529 17.0090669,64.6236529 C16.1330669,66.6166529 15.4100669,68.7746529 14.0930669,70.4446529 C12.9200669,71.9296529 11.2700669,73.2376529 9.20006695,73.6166529 C7.84006695,73.8666529 6.46406695,74.0596529 5.12606695,74.4006529 C4.21406695,74.6316529 3.48806695,74.5806529 2.88306695,73.8096529 C2.73706695,73.6246529 2.55206695,73.4476529 2.34706695,73.3366529 C0.705066947,72.4546529 0.890066947,70.7736529 0.615066947,69.3196529 C0.499066947,68.7056529 0.621066947,68.2546529 1.50306695,67.9676529 C2.25706695,67.7216529 2.76206695,66.7096529 3.37706695,66.0376529 L2.95506695,65.5166529 Z" id="Fill-130"></path>
                            <path d="M100.453067,92.2109529 C98.2570669,93.8539529 96.3640669,95.7419529 93.5800669,96.0829529 C91.9000669,96.2879529 91.1540669,95.8979529 90.4380669,94.3859529 C89.7970669,93.0299529 89.1470669,91.6769529 88.4710669,90.3379529 C87.3740669,88.1689529 88.2760669,86.2129529 89.1690669,84.3069529 C89.6510669,83.2749529 90.4030669,82.3699529 91.0500669,81.4179529 C91.1550669,81.2629529 91.3240669,81.0939529 91.4960669,81.0459529 C94.2090669,80.3009529 96.4410669,78.2819529 99.3650669,78.0889529 C100.076067,78.0419529 100.777067,77.8459529 101.487067,77.7989529 C101.760067,77.7809529 102.167067,77.9089529 102.307067,78.1129529 C103.469067,79.8009529 104.470067,81.6109529 105.742067,83.2069529 C106.950067,84.7209529 106.164067,85.8359529 105.275067,86.8919529 C103.709067,88.7529529 102.013067,90.5049529 100.453067,92.2109529" id="Fill-132"></path>
                            <path d="M228.452067,102.392553 C230.711067,101.094553 232.952067,99.7635529 235.244067,98.5285529 C235.643067,98.3125529 236.256067,98.4925529 236.770067,98.4955529 C237.699067,98.4985529 238.629067,98.4835529 239.556067,98.5295529 C239.826067,98.5425529 240.221067,98.6635529 240.331067,98.8635529 C241.604067,101.137553 243.046067,103.335553 243.306067,106.049553 C243.393067,106.968553 243.253067,107.607553 242.534067,108.249553 C239.796067,110.697553 237.100067,113.194553 234.430067,115.714553 C233.875067,116.238553 233.458067,116.273553 232.756067,116.007553 C231.470067,115.521553 229.901067,115.518553 228.838067,114.765553 C227.175067,113.589553 225.595067,112.148553 225.652067,109.715553 C225.688067,108.223553 225.175067,106.650553 226.098067,105.313553 C226.782067,104.321553 227.718067,103.501553 228.541067,102.605553 C228.512067,102.534553 228.481067,102.463553 228.452067,102.392553" id="Fill-134"></path>
                            <path d="M354.851467,35.9995529 C357.040467,34.8755529 359.212467,33.7155529 361.441467,32.6765529 C361.717467,32.5465529 362.454467,32.9455529 362.695467,33.2945529 C363.134467,33.9325529 363.484467,34.1715529 364.249467,33.8065529 C364.544467,33.6655529 365.185467,33.8065529 365.414467,34.0545529 C366.205467,34.9115529 366.921467,35.8455529 367.598467,36.7995529 C368.481467,38.0455529 368.190467,41.2325529 367.248467,42.4175529 C366.175467,43.7695529 365.238467,45.2285529 364.173467,46.5865529 C363.775467,47.0955529 363.238467,47.5525529 362.670467,47.8595529 C361.665467,48.4025529 360.584467,48.8005529 359.549467,49.2905529 C359.360467,49.3795529 359.146467,49.5925529 359.100467,49.7865529 C358.587467,51.9435529 356.768467,51.8485529 355.194467,51.9365529 C353.504467,52.0315529 353.497467,51.9105529 353.232467,50.1275529 C353.011467,48.6335529 352.600467,47.1385529 352.614467,45.6465529 C352.641467,42.7645529 352.883467,39.8775529 354.314467,37.2605529 C354.502467,36.9165529 354.735467,36.5965529 354.948467,36.2655529 C354.915467,36.1765529 354.883467,36.0885529 354.851467,35.9995529" id="Fill-136"></path>
                            <path d="M295.871967,72.6279529 C295.597967,70.9859529 294.849967,69.6539529 293.629967,68.4549529 C292.512967,67.3569529 291.512967,66.0429529 290.820967,64.6459529 C290.502967,64.0029529 291.030967,62.9329529 291.200967,62.0609529 C291.326967,61.4109529 291.452967,60.7569529 291.654967,60.1299529 C291.805967,59.6659529 291.968967,59.1049529 292.317967,58.8249529 C293.808967,57.6319529 295.259967,56.3149529 296.934967,55.4499529 C298.698967,54.5419529 300.610967,53.6089529 302.678967,55.2009529 C303.781967,56.0519529 305.228967,56.4409529 306.457967,57.1489529 C306.804967,57.3479529 307.107967,57.9329529 307.116967,58.3479529 C307.149967,59.8919529 307.082967,61.4399529 306.980967,62.9829529 C306.957967,63.3439529 306.712967,63.7359529 306.467967,64.0269529 C304.419967,66.4489529 302.278967,68.7969529 300.308967,71.2789529 C299.080967,72.8269529 297.605967,72.9859529 295.871967,72.6279529" id="Fill-138"></path>
                            <path d="M306.017567,96.5849529 C305.748567,96.8219529 305.450567,97.0339529 305.216567,97.3019529 C303.829567,98.8979529 302.022567,98.5309529 300.261567,98.3799529 C300.066567,98.3629529 299.879567,98.2649529 299.685567,98.2339529 C297.032567,97.8249529 296.462567,96.9069529 296.788567,94.1299529 C296.986567,92.4419529 296.823567,90.7149529 296.955567,89.0159529 C297.031567,88.0469529 297.331567,87.0849529 297.615567,86.1459529 C297.842567,85.3879529 298.365567,84.6889529 298.458567,83.9279529 C298.729567,81.7299529 300.207567,80.9999529 302.084567,80.6489529 C302.240567,80.6199529 302.427567,80.6349529 302.547567,80.5529529 C304.055567,79.5309529 305.255567,80.0239529 306.512567,81.1369529 C308.792567,83.1539529 310.501567,85.5119529 311.297567,88.4619529 C311.638567,89.7249529 311.194567,90.9779529 310.453567,91.9209529 C309.130567,93.6059529 307.587567,95.1159529 306.137567,96.6989529 L306.017567,96.5849529 Z" id="Fill-140"></path>
                            <path d="M320.716767,69.6767529 C320.431767,67.9797529 320.117767,66.4077529 319.913767,64.8227529 C319.714767,63.2667529 319.404767,61.6697529 319.576767,60.1407529 C319.669767,59.3207529 320.533767,58.3907529 321.297767,57.8797529 C323.653767,56.3047529 326.088767,54.8397529 328.567767,53.4647529 C330.312767,52.4967529 332.535767,52.8627529 333.917767,54.2837529 C334.393767,54.7737529 334.646767,55.5637529 334.802767,56.2597529 C335.004767,57.1617529 334.784767,58.2057529 335.139767,59.0187529 C336.176767,61.3957529 335.016767,63.0547529 333.639767,64.7527529 C332.056767,66.7037529 329.616767,67.2707529 327.641767,68.5817529 C327.277767,68.8237529 326.846767,68.9657529 326.491767,69.2187529 C325.852767,69.6727529 325.361767,69.8567529 324.487767,69.4477529 C323.754767,69.1057529 322.699767,69.4377529 321.789767,69.5017529 C321.368767,69.5317529 320.952767,69.6367529 320.716767,69.6767529" id="Fill-142"></path>
                            <path d="M372.655167,111.829153 C369.902167,113.479153 367.153167,115.142153 364.388167,116.777153 C363.729167,117.167153 363.310167,117.070153 362.760167,116.326153 C361.806167,115.036153 360.617167,113.895153 359.402167,112.834153 C358.822167,112.327153 358.530167,111.936153 358.645167,111.147153 C358.828167,109.895153 358.797167,108.609153 359.017167,107.367153 C359.126167,106.757153 359.454167,106.017153 359.927167,105.670153 C362.808167,103.563153 365.757167,101.550153 368.690167,99.5171529 C368.900167,99.3721529 369.236167,99.1831529 369.416167,99.2551529 C370.655167,99.7551529 371.861167,100.334153 373.092167,100.855153 C373.637167,101.086153 374.205167,101.326153 374.784167,101.408153 C375.551167,101.517153 375.696167,101.916153 375.571167,102.570153 C375.414167,103.387153 375.263167,104.204153 375.118167,105.021153 C375.083167,105.216153 375.009167,105.442153 375.073167,105.609153 C376.136167,108.423153 373.645167,109.759153 372.655167,111.829153" id="Fill-144"></path>
                            <path d="M118.043867,149.087853 C117.382867,149.459853 116.174867,150.003853 115.120867,150.760853 C113.657867,151.811853 112.574867,151.900853 111.060867,150.581853 C109.838867,149.518853 108.689867,148.556853 108.018867,147.058853 C107.540867,145.992853 106.801867,145.026853 106.445867,143.930853 C106.250867,143.325853 106.397867,142.397853 106.759867,141.867853 C107.701867,140.490853 108.672867,139.031853 109.953867,138.010853 C111.894867,136.464853 113.869867,134.537853 116.628867,134.916853 C117.954867,135.099853 119.314867,135.837853 120.410867,136.658853 C121.528867,137.496853 122.377867,138.715853 123.260867,139.832853 C123.471867,140.099853 123.439867,140.645853 123.365867,141.032853 C122.746867,144.233853 120.703867,146.536853 118.043867,149.087853" id="Fill-146"></path>
                            <path d="M56.2919669,51.8242529 C56.1839669,52.2242529 56.0219669,52.5632529 56.0169669,52.9052529 C56.0059669,53.5112529 56.0889669,54.1202529 56.1329669,54.7282529 C56.7989669,54.5892529 57.5629669,54.6132529 58.1119669,54.2802529 C59.7759669,53.2682529 61.3659669,52.1322529 62.9659669,51.0162529 C63.6729669,50.5232529 64.2519669,50.4502529 64.9939669,51.0452529 C66.1779669,51.9932529 67.4709669,52.8032529 68.7049669,53.6882529 C68.8779669,53.8132529 69.0609669,54.0122529 69.1099669,54.2082529 C69.4879669,55.7252529 70.0479669,57.2432529 70.1059669,58.7772529 C70.1379669,59.6062529 69.5019669,60.7392529 68.8109669,61.2632529 C66.8819669,62.7242529 64.7669669,63.9402529 62.7239583,65.2502529 C62.5929669,65.3342529 62.4399669,65.4642529 62.3079669,65.4532529 C60.5379669,65.3152529 58.7709669,65.1632529 57.0039669,65.0022529 C54.6579669,64.7872529 53.4389669,63.3722529 52.9149669,61.1852529 C52.5759669,59.7742529 52.1879669,58.3752529 51.8039669,56.9752529 C51.6189669,56.3002529 51.7449669,55.8062529 52.2849669,55.2762529 C52.9529669,54.6212529 53.6029669,53.8582529 53.9789669,53.0162529 C54.4639669,51.9302529 55.1789669,51.6442529 56.2919669,51.8242529" id="Fill-148"></path>
                            <path d="M322.312467,132.021453 C320.836467,132.966453 319.023467,134.153453 317.175467,135.283453 C316.885467,135.459453 316.358467,135.537453 316.077467,135.393453 C314.625467,134.650453 313.220467,133.841453 312.292467,132.399453 C311.740467,131.540453 310.991467,130.806453 310.450467,129.941453 C310.205467,129.551453 310.052467,128.910453 310.199467,128.504453 C310.815467,126.792453 311.632467,125.152453 312.234467,123.435453 C312.708467,122.085453 313.869467,121.974453 314.930467,121.662453 C316.752467,121.125453 318.596467,120.661453 320.420467,120.130453 C320.740467,120.038453 321.146467,119.837453 321.276467,119.571453 C321.614467,118.875453 322.092467,118.698453 322.818467,118.785453 C323.633467,118.882453 324.073467,119.286453 324.353467,120.053453 C324.733467,121.095453 325.275467,122.079453 325.669467,123.117453 C325.860467,123.617453 325.929467,124.182453 325.956467,124.722453 C326.004467,125.730453 326.009467,126.743453 325.971467,127.751453 C325.960467,128.039453 325.800467,128.375453 325.601467,128.591453 C324.630467,129.643453 323.624467,130.662453 322.312467,132.021453" id="Fill-150"></path>
                            <path d="M336.059467,12.7597529 C335.751467,13.5277529 335.422467,14.3487529 335.170467,14.9757529 C333.851467,14.3117529 332.638467,13.4857529 331.296467,13.0767529 C329.120467,12.4117529 328.590467,10.6397529 327.884467,8.85875288 C327.020467,6.67775288 328.342467,5.09775288 329.237467,3.40675288 C329.713467,2.50675288 330.441467,1.73775288 330.913467,0.834752884 C331.302467,0.0917528839 331.809467,-0.0802471161 332.557467,0.0307528839 C333.566467,0.180752884 334.538467,0.278752884 335.358467,1.07875288 C335.963467,1.66975288 336.819467,2.00275288 337.555467,2.46275288 C337.719467,2.56475288 337.958467,2.70775288 337.977467,2.85475288 C338.081467,3.67575288 338.041467,4.52175288 338.217467,5.32275288 C338.441467,6.33975288 337.874467,6.84175288 337.228467,7.42575288 C336.798467,7.81375288 336.466467,8.34775288 336.202467,8.87275288 C335.722467,9.82175288 335.281467,10.7977529 334.916467,11.7957529 C334.775467,12.1817529 334.885467,12.6607529 334.881467,13.0967529 C335.270467,12.9857529 335.659467,12.8747529 336.059467,12.7597529" id="Fill-152"></path>
                        </g>
                    </g>
                </g>
            </g>
        </g>
    </g>
</svg>