<?xml version="1.0" encoding="UTF-8"?>
<svg width="652px" height="348px" viewBox="0 0 652 348" version="1.1" xmlns="http://www.w3.org/2000/svg" xmlns:xlink="http://www.w3.org/1999/xlink">
    <!-- Generator: Sketch 58 (84663) - https://sketch.com -->
    <title>Group 31</title>
    <desc>Created with Sketch.</desc>
    <g id="Design" stroke="none" stroke-width="1" fill="none" fill-rule="evenodd">
        <g id="My-Sunshine-Landing-v1" transform="translate(-11.000000, -265.000000)" fill="#185FEC">
            <g id="Group-5" transform="translate(11.000000, 162.000000)">
                <g id="Group-29">
                    <g id="Group-154">
                        <g id="Group-31" transform="translate(0.000132, 103.014071)">
                            <path d="M237.225068,208.694129 C238.412068,211.205129 239.983068,214.349129 241.382068,217.568129 C242.031068,219.058129 241.709068,220.536129 240.639068,221.874129 C240.266068,222.340129 240.171068,223.106129 240.134068,223.746129 C240.076068,224.729129 239.939068,225.319129 238.679068,225.335129 C236.753068,225.358129 234.867068,225.629129 233.075068,226.596129 C231.322068,227.544129 228.669068,226.548129 227.307068,225.128129 C225.473068,223.216129 223.395068,221.542129 221.475068,219.711129 C221.022068,219.279129 220.600068,218.667129 220.470068,218.070129 C219.806068,215.027129 219.243068,211.962129 218.647068,208.904129 C218.613068,208.728129 218.524068,208.479129 218.604068,208.377129 C219.752068,206.907129 220.653068,204.997129 222.155068,204.107129 C224.568068,202.677129 227.325068,202.120129 230.335068,202.453129 C231.754068,202.610129 232.175068,203.280129 232.878068,204.049129 C234.128068,205.418129 235.410068,206.758129 237.225068,208.694129" id="Fill-14"></path>
                            <path d="M170.022868,203.605329 C168.669868,201.935329 167.662868,200.262329 166.254868,199.055329 C164.320868,197.397329 163.986868,195.305329 163.793868,193.036329 C163.644868,191.266329 163.297868,189.506329 163.268868,187.738329 C163.250868,186.644329 163.353868,185.327329 163.942868,184.491329 C165.173868,182.741329 166.659868,181.130329 168.233868,179.670329 C169.896868,178.128329 170.321868,177.149329 169.361868,174.872329 C169.895868,175.187329 170.199868,175.309329 170.428868,175.514329 C170.988868,176.012329 171.437868,176.676329 172.064868,177.050329 C176.374868,179.619329 179.394868,183.263329 181.217868,187.905329 C182.270868,190.585329 183.256868,193.292329 184.198868,196.014329 C184.327868,196.386329 184.133868,196.981329 183.893868,197.342329 C183.550868,197.858329 182.995868,198.225329 182.585868,198.703329 C180.987868,200.562329 179.078868,201.623329 176.549868,201.922329 C174.291868,202.189329 172.102868,203.046329 170.022868,203.605329" id="Fill-16"></path>
                            <path d="M235.034568,171.001829 C235.601568,172.437829 236.155568,173.878829 236.738568,175.308829 C237.793568,177.896829 238.850568,180.481829 239.938568,183.055829 C240.209568,183.695829 240.144568,184.072829 239.547568,184.536829 C238.738568,185.163829 238.017568,185.932829 237.365568,186.728829 C235.293568,189.258829 232.389568,189.559829 229.446568,189.769829 C229.149568,189.790829 228.774568,189.715829 228.546568,189.540829 C226.506568,187.978829 224.266568,186.593829 222.521568,184.744829 C220.167568,182.250829 218.992568,179.154829 219.652568,175.591829 C219.766568,174.973829 219.822568,174.331829 219.802568,173.703829 C219.722568,171.250829 221.177568,169.599829 222.731568,167.996829 C223.078568,167.639829 223.497568,167.352829 223.838568,166.988829 C225.325568,165.405829 225.313568,165.412829 227.363568,166.276829 C228.072568,166.575829 228.814568,166.791829 229.543568,167.042829 C231.749568,167.802829 233.574568,169.057829 235.034568,171.001829" id="Fill-18"></path>
                            <path d="M374.902768,146.803529 C375.602768,146.289529 376.043768,145.969529 376.481768,145.644529 C377.411768,144.953529 378.380768,144.626529 379.513768,145.189529 C381.443768,146.147529 383.401768,147.050529 385.316768,148.037529 C385.686768,148.228529 386.105768,148.657529 386.177768,149.038529 C386.784768,152.203529 389.028768,154.426529 390.739768,156.928529 C391.761768,158.423529 392.397768,159.791529 391.649768,161.554529 C391.511768,161.879529 391.528768,162.268529 391.447768,162.621529 C390.676768,165.975529 389.434768,166.975529 385.929768,167.245529 C384.956768,167.321529 384.000768,167.824529 383.040768,167.81274 C381.510768,167.794529 379.830768,167.849529 378.503768,167.240529 C377.231768,166.657529 376.387768,165.199529 375.254768,164.247529 C372.824768,162.207529 372.019768,159.574529 372.279768,156.536529 C372.448768,154.557529 372.897768,152.585529 372.883768,150.612529 C372.870768,148.719529 373.149768,147.237529 374.902768,146.803529" id="Fill-20"></path>
                            <path d="M269.267068,276.696129 C269.004068,278.279129 268.907068,279.600129 269.802068,280.763129 C270.383068,281.519129 270.302068,281.980129 269.362068,282.205129 C268.032068,282.522129 266.750068,283.257129 265.303068,282.601129 C265.009068,282.468129 264.566068,282.546129 264.231068,282.649129 C262.453068,283.198129 261.285068,282.190129 260.228068,281.049129 C259.342068,280.091129 258.373068,279.114129 257.831068,277.962129 C257.408068,277.061129 257.642068,275.869129 257.476068,274.824129 C257.246068,273.385129 257.029068,271.928129 256.594068,270.546129 C256.142068,269.104129 256.541068,266.685129 257.790068,265.657129 C259.058068,264.614129 260.320068,263.391129 261.804068,262.830129 C263.751068,262.093129 265.767068,261.110129 267.957068,261.466129 C268.679068,261.583129 269.384068,262.106129 269.986068,262.585129 C271.364068,263.680129 272.796068,264.750129 273.980068,266.039129 C275.754068,267.971129 277.436068,270.150129 277.320068,272.900129 C277.248068,274.581129 276.422068,276.245129 275.845068,277.884129 C275.517068,278.818129 275.334068,279.815129 274.230068,280.376129 C273.244068,280.877129 272.731068,281.021129 272.319068,279.792129 C271.855068,278.409129 270.837068,277.457129 269.267068,276.696129" id="Fill-22"></path>
                            <path d="M344.554168,123.388529 C345.093168,124.742529 345.829168,126.055529 346.121168,127.460529 C346.505168,129.307529 347.260168,130.891529 348.498168,132.257529 C349.227168,133.060529 349.347168,133.809529 348.927168,134.843529 C348.592168,135.668529 348.657168,136.647529 348.465168,137.541529 C348.375168,137.959529 348.114168,138.345529 347.908168,138.733529 C347.513168,139.476529 347.156168,140.246529 346.678168,140.933529 C346.410168,141.317529 345.964168,141.758529 345.545168,141.823529 C343.851168,142.082529 342.131168,142.177529 340.428168,142.388529 C339.118168,142.551529 337.820168,143.046529 336.518168,142.374529 C336.090168,142.154529 335.518168,142.034529 335.266168,141.685529 C333.902168,139.798529 332.374168,137.972529 331.364168,135.899529 C329.961168,133.023529 329.101168,129.875529 329.573168,126.631529 C330.018168,123.566529 331.697168,122.181529 334.805168,121.767529 C335.745168,121.641529 336.746168,121.641529 337.604168,121.296529 C340.498168,120.129529 342.607168,121.083529 344.249168,123.577529 C344.351168,123.514529 344.452168,123.451529 344.554168,123.388529" id="Fill-24"></path>
                            <path d="M192.389068,232.107229 C190.253068,228.849229 188.967068,226.316229 189.253068,223.248229 C189.285068,222.905229 188.989068,222.509229 189.071068,222.200229 C189.290068,221.377229 189.415068,220.362229 189.967068,219.822229 C192.125068,217.708229 194.815068,216.405229 197.613068,215.327229 C197.866068,215.230229 198.217068,215.168229 198.333068,214.975229 C199.285068,213.401229 200.062068,214.010229 201.150068,214.945229 C203.190068,216.699229 205.389068,218.270229 207.545068,219.886229 C209.346068,221.235229 209.743068,222.382229 209.204068,224.578229 C209.001068,225.408229 208.969068,226.283229 208.886068,227.139229 C208.629068,229.816229 207.707068,232.390229 205.598068,233.920229 C203.494068,235.447229 200.730068,236.832229 198.138068,235.792229 C195.822068,234.862229 193.108068,233.962229 192.389068,232.107229" id="Fill-26"></path>
                            <path d="M406.436968,136.471529 C405.462968,136.611529 404.483968,136.899529 403.518968,136.857529 C401.987968,136.790529 400.424968,136.658529 398.952968,136.267529 C397.380968,135.849529 395.925968,135.014529 394.371968,134.510529 C390.790968,133.346529 390.942968,130.131529 390.374968,127.345529 C390.041968,125.709529 389.831968,124.029529 389.777968,122.362529 C389.731968,120.962529 389.990968,119.553529 390.121968,118.148529 C390.127968,118.065529 390.181968,117.933529 390.241968,117.915529 C392.233968,117.329529 393.590968,115.263529 395.906968,115.454529 C397.745968,115.605529 399.624968,115.626529 401.399968,116.058529 C402.434968,116.310529 403.576968,117.061529 404.193968,117.928529 C406.581968,121.275529 407.936968,125.016529 408.058968,129.201529 C408.107968,130.889529 408.882968,132.577529 407.877968,134.219529 C407.435968,134.942529 406.964968,135.648529 406.436968,136.471529" id="Fill-28"></path>
                            <path d="M349.079568,208.443229 C348.553568,206.447229 347.907568,204.328229 347.454568,202.169229 C347.150568,200.720229 347.147568,199.212229 346.956568,197.736229 C346.817568,196.664229 347.185568,196.337229 348.290568,196.064229 C349.699568,195.714229 350.984568,194.845229 352.308568,194.169229 C353.072568,193.778229 353.800568,193.314229 354.558568,192.909229 C354.785568,192.788229 355.075568,192.661229 355.310568,192.697229 C357.834568,193.091229 360.358568,193.487229 362.866568,193.966229 C363.304568,194.050229 363.749568,194.464229 364.044568,194.840229 C364.591568,195.538229 365.026568,196.321229 365.516568,197.065229 C366.248568,198.180229 367.246568,199.210229 367.638568,200.434229 C367.930568,201.348229 367.465568,202.515229 367.294568,203.563229 C367.084568,204.843229 366.654568,206.113229 366.633568,207.393229 C366.595568,209.608229 366.539568,209.826229 364.539568,210.741229 C363.305568,211.305229 362.112568,211.962229 360.891568,212.553229 C360.611568,212.689229 360.236568,212.880229 359.993568,212.796229 C356.682568,211.630229 353.382568,210.428229 350.090568,209.208229 C349.767568,209.088229 349.515568,208.780229 349.079568,208.443229" id="Fill-30"></path>
                            <path d="M401.160568,244.904129 C400.343568,244.096129 399.510568,243.303129 398.717568,242.471129 C398.516568,242.262129 398.384568,241.944129 398.323568,241.654129 C397.871568,239.489129 397.443568,237.318129 397.014568,235.148129 C396.970568,234.928129 396.870568,234.664129 396.946568,234.484129 C397.758568,232.574129 398.427568,230.573129 399.485568,228.807129 C400.404568,227.276129 403.395568,227.054129 405.241568,227.486129 C406.898568,227.874129 408.298568,228.534129 409.537568,229.587129 C411.113568,230.927129 412.616568,232.353129 414.141568,233.754129 C414.339568,233.935129 414.563568,234.160129 414.627568,234.403129 C415.373568,237.267129 416.732568,239.995129 416.569568,243.063129 C416.492568,244.523129 415.969568,245.713129 414.572568,246.361129 C412.869568,247.152129 411.220568,248.142129 409.434568,248.650129 C406.549568,249.472129 404.110568,248.328129 402.067568,246.262129 C401.692568,245.883129 401.359568,245.464129 401.007568,245.062129 C401.057568,245.009129 401.109568,244.957129 401.160568,244.904129" id="Fill-32"></path>
                            <path d="M309.058968,126.416329 C310.872968,129.053329 312.171968,131.465329 313.971968,133.414329 C315.982968,135.593329 316.224968,138.336329 317.050968,140.877329 C317.522968,142.325329 317.463968,144.003329 317.355968,145.558329 C317.293968,146.438329 316.658968,147.282329 316.261968,148.132329 C315.691968,149.355329 314.703968,148.639329 313.870968,148.626329 C311.847968,148.596329 309.824968,148.571329 307.801968,148.507329 C307.462968,148.497329 307.108968,148.347329 306.797968,148.190329 C304.125968,146.835329 302.542968,144.452329 301.007968,142.026329 C300.838968,141.759329 300.762968,141.416329 300.550968,141.199329 C298.763968,139.371329 298.978968,137.169329 299.330968,134.931329 C299.433968,134.276329 299.650968,133.589329 299.545968,132.962329 C299.225968,131.040329 300.274968,129.389329 300.503968,127.582329 C300.537968,127.310329 301.004968,126.972329 301.332968,126.879329 C303.028968,126.400329 304.726968,125.791329 306.460968,125.633329 C307.443968,125.543329 308.496968,126.230329 309.058968,126.416329" id="Fill-34"></path>
                            <path d="M90.4369678,188.196129 C90.7179678,188.650129 90.9269678,188.986129 91.3449678,189.660129 C90.2449678,189.344129 89.4569678,189.119129 88.6679678,188.893129 C88.6759678,188.831129 88.6839678,188.767129 88.6919678,188.704129 C89.1009678,188.709129 89.5099678,188.714129 90.0409678,188.719129 C89.9149678,188.365129 89.8829678,188.085129 89.7369678,187.891129 C87.5319678,184.962129 85.2989678,182.053129 83.1079678,179.114129 C82.7419678,178.622129 82.4229678,178.032129 82.2879678,177.441129 C81.8329678,175.460129 82.0219678,175.162129 83.8079678,174.216129 C84.2209678,173.997129 84.7119678,173.719129 84.9119678,173.336129 C86.5339678,170.218129 89.5419678,169.585129 92.4099678,170.011129 C94.3799678,170.305129 96.3859678,171.799129 97.9179678,173.241129 C99.9629678,175.166129 101.807968,177.205129 104.475968,178.350129 C106.350968,179.155129 106.067968,181.135129 104.470968,183.086129 C103.265968,184.559129 101.787968,185.465129 100.276968,186.452129 C99.9109678,186.691129 99.7619678,187.273129 99.5289678,187.706129 C99.3899678,187.966129 99.3549678,188.367129 99.1469678,188.490129 C97.7999678,189.289129 96.4879678,190.342129 94.7959678,190.025129 C94.0789678,189.891129 93.2979678,189.494129 92.7869678,188.977129 C91.7199678,187.900129 91.6069678,187.766129 90.4369678,188.196129" id="Fill-36"></path>
                            <path d="M290.680068,82.1209286 C290.819068,83.1559286 290.957068,84.1899286 291.095068,85.2149286 C289.377068,85.7189286 285.263068,84.1009286 284.437068,82.5719286 C284.201068,82.1379286 283.932068,81.6699286 283.886068,81.1979286 C283.759068,79.9009286 283.767068,78.5919286 283.673068,77.2909286 C283.621068,76.5729286 283.599068,75.8129286 283.344068,75.1559286 C282.464068,72.8839286 283.201068,70.7039286 283.601068,68.5019286 C283.643068,68.2729286 283.847068,68.0009286 284.053068,67.8869286 C285.671068,66.9879286 287.257068,66.0029286 288.954068,65.2839286 C290.485068,64.6349286 292.071068,65.0959286 293.316068,66.0759286 C295.440068,67.7479286 297.750068,69.3429286 299.377068,71.4389286 C300.784068,73.2519286 301.762068,75.5749286 301.265068,78.1729286 C300.986068,79.6309286 301.120068,81.1639286 300.887068,82.6349286 C300.781068,83.3079286 300.358068,84.0339286 299.866068,84.5229286 C298.345068,86.0369286 296.385068,86.1549286 294.388068,85.9439286 C293.638068,85.8649286 293.152068,85.5879286 292.905068,84.6669286 C292.633068,83.6569286 291.880068,82.7749286 291.337068,81.8379286 C291.118068,81.9319286 290.900068,82.0269286 290.680068,82.1209286" id="Fill-38"></path>
                            <path d="M528.147868,232.149229 C528.446868,233.150229 528.746868,234.151229 529.145868,235.488229 C528.031868,235.431229 526.943868,235.460229 525.880868,235.303229 C524.089868,235.042229 522.341868,234.544229 521.561868,232.672229 C521.133868,231.644229 520.987868,230.503229 520.652868,229.431229 C520.059868,227.535229 519.314868,225.679229 518.842868,223.755229 C518.604868,222.784229 518.930868,221.688229 518.811868,220.670229 C518.649868,219.281229 519.849868,219.132229 520.543868,218.513229 C521.284868,217.851229 522.018868,217.178229 522.779868,216.539229 C524.614868,214.998229 526.618868,215.032229 528.598868,216.128229 C530.765868,217.329229 533.136868,218.373229 534.890868,220.040229 C536.453868,221.524229 537.763868,223.529229 537.977868,225.914229 C538.118868,227.483229 538.194868,229.062229 538.441868,230.614229 C538.608868,231.671229 538.475868,232.489229 537.539868,233.094229 C537.313868,233.240229 537.093868,233.432229 536.947868,233.653229 C535.777868,235.421229 533.889868,235.038229 532.212868,235.197229 C531.506868,235.264229 531.007868,235.079229 530.773868,234.049229 C530.573868,233.170229 529.480868,232.493229 528.781868,231.725229 C528.570868,231.867229 528.359868,232.008229 528.147868,232.149229" id="Fill-40"></path>
                            <path d="M191.010168,172.167829 C191.202168,172.684829 191.365168,173.121829 191.646168,173.877829 C190.838168,173.465829 189.807168,173.796829 190.391168,172.574829 C190.469168,172.410829 190.415168,172.124829 190.323168,171.944829 C188.992168,169.326829 187.580168,166.746829 186.325168,164.092829 C185.646168,162.651829 184.718168,161.268829 184.885168,159.509829 C184.979168,158.531829 185.218168,157.832829 186.285168,157.682829 C187.470168,157.515829 188.188168,156.847829 188.906168,155.862829 C189.908168,154.491829 191.623168,154.454829 193.210168,154.423829 C193.660168,154.414829 194.141168,154.637829 194.560168,154.542829 C196.360168,154.137829 197.504168,155.161829 198.507168,156.351829 C199.988168,158.104829 201.286168,160.016829 202.819168,161.720829 C203.829168,162.843829 205.054168,163.805829 206.291168,164.687829 C207.902168,165.834829 208.123168,167.090829 206.763168,168.468829 C205.944168,169.297829 205.204168,170.257829 204.249168,170.885829 C203.342168,171.482829 202.195168,171.708829 201.165168,172.128829 C200.574168,172.368829 199.772168,172.428829 200.006168,173.465829 C200.042168,173.623829 199.556168,173.968829 199.258168,174.122829 C197.948168,174.801829 196.564168,175.156829 195.080168,174.900829 C194.273168,174.761829 193.579168,174.572829 193.171168,173.637829 C192.832168,172.862829 192.431168,171.765829 191.010168,172.167829" id="Fill-42"></path>
                            <path d="M304.364668,204.878729 C305.964668,204.020729 307.294668,203.249729 308.673668,202.578729 C310.632668,201.625729 312.461668,200.318729 314.711668,200.101729 C315.194668,200.054729 315.821668,200.144729 316.184668,200.425729 C318.037668,201.859729 319.748668,203.487729 321.666668,204.821729 C322.652668,205.507729 323.162668,206.277729 323.500668,207.360729 C324.263668,209.803729 325.130668,212.213729 325.929668,214.644729 C326.016668,214.908729 326.063668,215.303729 325.929668,215.505729 C325.228668,216.569729 324.492668,217.615729 323.703668,218.616729 C323.418668,218.978729 322.981668,219.369729 322.558668,219.448729 C320.400668,219.853729 318.230668,220.208729 316.051668,220.459729 C315.570668,220.515729 314.727668,220.211729 314.574668,219.851729 C313.677668,217.743729 311.956668,216.399729 310.030668,215.666729 C308.027668,214.904729 306.998668,213.544729 306.139668,211.819729 C306.000668,211.540729 305.895668,211.137729 305.663668,211.026729 C303.468668,209.982729 304.288668,207.645729 303.530668,205.991729 C303.423668,205.756729 304.164668,205.132729 304.364668,204.878729" id="Fill-46"></path>
                            <path d="M282.165468,225.453929 C280.619468,226.206929 279.245468,226.888929 277.856468,227.539929 C277.628468,227.646929 277.289468,227.728929 277.082468,227.638929 C275.185468,226.805929 273.215468,226.082929 271.446468,225.025929 C269.894468,224.098929 268.567468,222.790929 267.158468,221.628929 C266.965468,221.469929 266.794468,221.196929 266.751468,220.952929 C266.347468,218.666929 266.006468,216.368929 265.582468,214.086929 C265.007468,210.993929 266.634468,207.943929 269.571468,206.700929 C269.819468,206.595929 270.038468,206.421929 270.271468,206.282929 C272.258468,205.105929 272.541468,205.175929 274.394468,206.637929 C275.875468,207.805929 277.581468,208.713929 278.952468,209.989929 C281.953468,212.783929 283.871468,216.301929 284.851468,220.260929 C285.056468,221.090929 284.676468,222.216929 284.228468,223.016929 C283.691468,223.976929 282.794468,224.735929 282.165468,225.453929" id="Fill-48"></path>
                            <path d="M250.083468,150.796729 C248.115468,151.317729 246.233468,152.095729 244.301468,152.253729 C242.262468,152.419729 240.041468,152.696729 238.356468,150.806729 C237.140468,149.440729 235.715468,148.261729 234.404468,146.977729 C234.188468,146.766729 233.962468,146.454729 233.940468,146.173729 C233.696468,142.942729 232.445468,139.809729 232.993468,136.499729 C233.127468,135.694729 233.139468,134.862729 233.350468,134.082729 C233.437468,133.754729 233.855468,133.430729 234.200468,133.275729 C235.013468,132.908729 235.861468,132.614729 236.712468,132.345729 C238.463468,131.790729 240.202468,131.027729 241.995468,130.853729 C242.743468,130.780729 243.884468,131.827729 244.385468,132.647729 C246.310468,135.796729 248.109468,139.028729 249.825468,142.298729 C250.441468,143.475729 250.783468,144.824729 251.073468,146.134729 C251.326468,147.276729 251.373468,148.448729 250.415468,149.446729 C250.123468,149.750729 250.174468,150.384729 250.083468,150.796729" id="Fill-50"></path>
                            <path d="M477.573668,298.030129 C477.849668,299.496129 478.189668,301.263129 478.509668,303.034129 C478.571668,303.384129 478.671668,303.797129 478.550668,304.099129 C478.059668,305.330129 477.549668,306.560129 476.934668,307.732129 C476.132668,309.260129 474.579668,309.574129 473.089668,310.147129 C470.887668,310.993129 469.381668,310.175129 467.699668,308.931129 C466.532668,308.067129 465.024668,307.673129 463.696668,307.012129 C463.275668,306.802129 462.853668,306.473129 462.587668,306.091129 C461.108668,303.972129 459.654668,301.837129 458.250668,299.669129 C457.976668,299.246129 457.835668,298.652129 457.854668,298.145129 C457.900668,296.881129 457.950668,295.591129 458.249668,294.372129 C458.404668,293.739129 458.975668,292.977129 459.556668,292.719129 C462.136668,291.579129 464.897668,290.731129 467.693668,291.062129 C469.105668,291.230129 470.470668,292.382129 471.709668,293.291129 C473.659668,294.723129 475.485668,296.328129 477.573668,298.030129" id="Fill-52"></path>
                            <path d="M222.733768,118.006629 C222.726768,119.610629 223.033768,121.658629 222.607768,123.540629 C222.277768,124.999629 221.156768,126.355629 220.157768,127.568629 C219.099768,128.852629 217.462768,128.854629 215.892768,129.170629 C212.607768,129.831629 211.480768,127.027629 209.442768,125.693629 C208.848768,125.304629 208.222768,124.943629 207.697768,124.472629 C207.175768,124.006629 206.620768,123.485629 206.330768,122.870629 C205.348768,120.784629 204.442768,118.659629 203.587768,116.518629 C203.367768,115.964629 203.376768,115.293629 203.395768,114.679629 C203.410768,114.190629 203.601768,113.706629 203.712768,113.219629 C204.529768,109.678629 204.789768,109.336629 208.420768,109.130629 C210.441768,109.015629 212.590768,108.995629 214.485768,109.578629 C215.796768,109.981629 216.840768,111.417629 217.876768,112.513629 C219.504768,114.236629 221.024768,116.061629 222.733768,118.006629" id="Fill-54"></path>
                            <path d="M278.875368,174.796729 C280.785368,178.589729 282.592368,182.346729 284.567368,186.012729 C285.269368,187.314729 285.315368,188.253729 284.307368,189.370729 C283.684368,190.059729 283.450368,191.102729 282.823368,191.784729 C279.463368,195.439729 273.957368,195.708729 270.464368,192.115729 C269.010368,190.619729 268.347368,188.268729 267.588368,186.208729 C267.001368,184.612729 266.757368,182.875729 266.495368,181.179729 C266.377368,180.410729 266.390368,179.504729 266.694368,178.816729 C267.148368,177.789729 267.914368,176.914729 267.586368,175.655729 C267.553368,175.526729 268.028368,175.173729 268.320368,175.068729 C269.291368,174.724729 270.290368,174.458729 271.270368,174.137729 C273.529368,173.395729 275.760368,173.988729 277.992368,174.288729 C278.313368,174.331729 278.600368,174.631729 278.875368,174.796729" id="Fill-56"></path>
                            <path d="M633.570768,149.961729 C632.524768,147.363729 631.435768,144.780729 630.489768,142.148729 C630.372768,141.819729 630.900768,141.026729 631.321768,140.790729 C632.089768,140.357729 632.396768,139.987729 632.062768,139.081729 C631.934768,138.732729 632.160768,138.021729 632.465768,137.787729 C633.518768,136.980729 634.652768,136.265729 635.803768,135.598729 C637.307768,134.727729 640.889768,135.389729 642.134768,136.579729 C643.554768,137.936729 645.110768,139.150729 646.539768,140.498729 C647.074768,141.003729 647.536768,141.659729 647.825768,142.334729 C648.336768,143.529729 648.674768,144.796729 649.122768,146.020729 C649.204768,146.244729 649.423768,146.509729 649.636768,146.581729 C652.028768,147.387729 651.731768,149.439729 651.668768,151.232729 C651.598768,153.157729 651.461768,153.153729 649.413768,153.267729 C647.697768,153.361729 645.959768,153.672729 644.269768,153.501729 C641.006768,153.170729 637.760768,152.596729 634.943768,150.701729 C634.573768,150.452729 634.234768,150.154729 633.881768,149.880729 C633.777768,149.907729 633.674768,149.934729 633.570768,149.961729" id="Fill-58"></path>
                            <path d="M359.719168,121.921229 C358.859168,120.489229 358.099168,119.033229 358.302168,117.088229 C358.524168,114.964229 358.283168,112.777229 358.109168,110.629229 C357.991168,109.188229 358.823168,107.955229 360.115168,107.337229 C362.525168,106.183229 365.064168,106.233229 367.607168,106.223218 C368.056168,106.221229 368.570168,106.499229 368.946168,106.789229 C372.073168,109.193229 374.734168,111.977229 375.820168,115.909229 C376.329168,117.754229 375.470168,119.330229 374.674168,120.929229 C373.653168,122.982229 371.832168,123.751229 369.798168,124.290229 C369.194168,124.450229 368.635168,124.934229 368.043168,124.956229 C366.928168,124.998229 365.803168,124.818229 364.684168,124.719229 C364.413168,124.695229 364.144168,124.572229 363.880168,124.588229 C361.885168,124.704229 360.879168,123.252229 359.719168,121.921229" id="Fill-60"></path>
                            <path d="M419.975068,319.553529 C419.462068,319.718529 419.059068,319.848529 418.521068,320.021529 C419.002068,319.435529 419.375068,318.971529 419.759068,318.516529 C422.901068,314.795529 427.250068,313.654529 431.816068,315.926529 C433.297068,316.662529 434.846068,317.428529 436.048068,318.526529 C438.052068,320.356529 438.458068,323.009529 438.850068,325.557529 C439.027068,326.709529 438.976068,327.912529 438.880068,329.081529 C438.849068,329.468529 438.430068,329.981529 438.056068,330.156529 C435.979068,331.133529 433.879068,332.068529 431.751068,332.926529 C430.619068,333.383529 429.465068,333.326529 428.423068,332.526529 C427.171068,331.562529 425.893068,330.631529 424.618068,329.698529 C424.401068,329.538529 424.146068,329.341529 423.900068,329.326529 C420.850068,329.141529 420.565068,326.733529 420.221068,324.556529 C420.043068,323.429529 419.355068,322.124529 420.532068,321.006529 C420.662068,320.882529 420.213068,320.149529 419.975068,319.553529" id="Fill-62"></path>
                            <path d="M162.593168,130.591629 C162.449168,130.157629 162.285168,129.663629 162.111168,129.137629 C161.738168,129.123629 161.344168,129.107629 160.590168,129.078629 C162.226168,128.052629 163.563168,127.171629 164.939168,126.358629 C167.494168,124.850629 170.102168,125.198629 172.572168,126.473629 C174.925168,127.688629 177.280168,129.050629 178.605168,131.479629 C179.823168,133.714629 179.958168,136.195629 179.686168,138.696629 C179.661168,138.919629 179.578168,139.135629 179.539168,139.357629 C179.355168,140.408629 179.506168,141.760629 178.901168,142.427629 C178.327168,143.059629 176.962168,142.968629 175.947168,143.204629 C174.364168,143.572629 172.792168,144.003629 171.197168,144.305629 C169.925168,144.546629 168.946168,144.182629 168.032168,143.053629 C166.580168,141.259629 165.159168,139.331629 162.764168,138.563629 C162.400168,138.446629 161.977168,137.839629 161.955168,137.439629 C161.845168,135.380629 161.833168,133.313629 161.858168,131.249629 C161.861168,131.032629 162.325168,130.820629 162.593168,130.591629" id="Fill-64"></path>
                            <path d="M412.135168,148.110229 C413.468168,147.703229 415.181168,147.094229 416.939168,146.673229 C417.903168,146.442229 418.945168,146.452229 419.947168,146.483229 C422.575168,146.565229 423.450168,148.836229 424.747168,150.517229 C426.035168,152.187229 427.171168,153.973229 428.401168,155.689229 C429.645168,157.425229 429.605168,157.483229 428.386168,159.208229 C427.506168,160.452229 426.718168,161.775229 426.032168,163.134229 C425.515168,164.161229 424.867168,164.554229 423.701168,164.546229 C421.724168,164.531229 419.746168,164.752229 417.768168,164.830229 C416.727168,164.871229 415.361168,163.757229 414.957168,162.808229 C414.756168,162.335229 414.346168,161.899229 413.930168,161.577229 C411.706168,159.855229 410.211168,157.642229 409.501168,154.943229 C408.808168,152.308229 409.921168,150.256229 412.135168,148.110229" id="Fill-66"></path>
                            <path d="M508.463268,280.432429 C506.574268,280.572429 504.986268,281.282429 503.501268,282.538429 C502.139268,283.691429 500.547268,284.687429 498.892268,285.326429 C498.130268,285.619429 496.971268,284.909429 496.000268,284.626429 C495.278268,284.415429 494.550268,284.204429 493.860268,283.910429 C493.351268,283.692429 492.731268,283.448429 492.450268,283.023429 C491.254268,281.209429 489.910268,279.428429 489.107268,277.438429 C488.260268,275.345429 487.401268,273.081429 489.422268,270.904429 C490.500268,269.743429 491.093268,268.142429 492.023268,266.823429 C492.284268,266.452429 492.979268,266.167429 493.449268,266.201429 C495.203268,266.325429 496.952268,266.562429 498.690268,266.838429 C499.095268,266.902429 499.515268,267.220429 499.819268,267.529429 C502.352268,270.102429 504.788268,272.772429 507.398268,275.263429 C509.024268,276.817429 509.050268,278.504429 508.463268,280.432429" id="Fill-68"></path>
                            <path d="M256.388068,106.176629 C254.323068,106.019629 252.613068,106.576629 250.895068,107.560629 C249.367068,108.436629 247.597068,109.077629 245.863068,109.327629 C245.001068,109.452629 243.979068,108.466629 243.030068,107.982629 C242.396068,107.659629 241.738068,107.375629 241.139068,106.996629 C240.707068,106.723629 240.175068,106.398629 239.998068,105.968629 C239.139068,103.881629 238.134068,101.804629 237.666068,99.6196286 C237.218068,97.5296286 236.892068,95.2696286 239.029068,93.5486286 C240.239068,92.5726286 241.178068,91.2546286 242.197068,90.0536286 C242.806068,89.3356286 243.425068,89.1436286 244.342068,89.4996286 C245.845068,90.0836286 247.404068,90.5246286 248.927068,91.0616286 C249.196068,91.1556286 249.470068,91.3796286 249.631068,91.6186286 C251.975068,95.0976286 254.267068,98.6136286 256.646068,102.068629 C257.695068,103.591629 256.650068,104.797629 256.388068,106.176629" id="Fill-70"></path>
                            <path d="M367.564868,237.702929 C368.606868,238.915929 369.649868,240.128929 370.686868,241.345929 C370.772868,241.446929 370.864868,241.577929 370.876868,241.701929 C371.043868,243.476929 371.353868,245.257929 371.308868,247.028929 C371.265868,248.707929 370.098868,249.749929 368.638868,250.528929 C367.420868,251.179929 366.385868,252.268929 365.112868,252.684929 C364.134868,253.005929 362.819868,252.821929 361.818868,252.436929 C359.587868,251.578929 357.379868,250.589929 355.327868,249.376929 C354.339868,248.793929 353.293868,247.686929 353.031868,246.630929 C352.549868,244.686929 352.650868,242.601929 352.464868,240.580929 C352.309868,238.887929 353.538868,237.669929 354.569868,237.093929 C357.006868,235.732929 359.739868,234.897929 362.367868,233.888929 C362.616868,233.792929 363.035868,233.862929 363.259868,234.019929 C364.808868,235.106929 366.327868,236.236929 367.855868,237.351929 C367.758868,237.469929 367.661868,237.585929 367.564868,237.702929" id="Fill-72"></path>
                            <path d="M569.628368,274.014529 C569.869368,274.343529 570.078368,274.703529 570.357368,274.996529 C572.023368,276.735529 571.418368,278.744529 571.064368,280.724529 C571.024368,280.943529 570.893368,281.144529 570.839368,281.362529 C570.099368,284.326529 568.999368,284.876529 565.885368,284.218529 C563.993368,283.818529 562.019368,283.823529 560.107368,283.495529 C559.017368,283.309529 557.958368,282.868529 556.922368,282.450529 C556.087368,282.113529 555.350368,281.448529 554.497368,281.262529 C552.034368,280.727529 551.360368,278.975529 551.158368,276.812529 C551.142368,276.632529 551.178368,276.422529 551.098368,276.277529 C550.097368,274.461529 550.780368,273.153529 552.172368,271.844529 C554.696368,269.470529 557.546368,267.778529 560.972368,267.183529 C562.439368,266.929529 563.813368,267.563529 564.805368,268.501529 C566.575368,270.175529 568.127368,272.080529 569.771368,273.889529 C569.723368,273.931529 569.676368,273.972529 569.628368,274.014529" id="Fill-74"></path>
                            <path d="M267.436968,98.0731286 C268.667968,97.3531286 269.890968,96.8541286 270.839968,96.0361286 C272.565968,94.5501286 274.750968,94.7741286 276.704968,94.1651286 C279.013968,93.4451286 280.832968,94.7061286 281.985968,96.3051286 C283.716968,98.7031286 284.976968,101.446129 286.387968,104.069129 C287.360968,105.878129 286.257968,107.523129 285.838968,109.212129 C285.788968,109.414129 285.552968,109.563129 285.446968,109.760129 C284.904968,110.771129 284.952968,112.372129 283.195968,112.191129 C282.023968,112.071129 280.888968,112.175129 279.681968,111.564129 C277.983968,110.705129 275.842968,110.710129 274.161968,109.829129 C271.823968,108.605129 269.693968,106.959129 267.577968,105.358129 C267.171968,105.052129 267.170968,104.126129 267.103968,103.473129 C266.970968,102.177129 266.861968,100.871129 266.870968,99.5701286 C266.873968,99.0771286 267.231968,98.5871286 267.436968,98.0731286" id="Fill-76"></path>
                            <path d="M168.257268,49.8167286 C170.129268,53.0227286 170.935268,56.3487286 171.724268,59.6807286 C171.818268,60.0767286 171.859268,60.4837286 171.942268,60.8827286 C172.505268,63.5857286 171.634268,65.0357286 169.038268,66.0797286 C166.565268,67.0757286 164.234268,66.9917286 161.914268,65.6567286 C161.337268,65.3257286 160.570268,65.3107286 160.019268,64.9527286 C159.442268,64.5777286 158.795268,64.0477286 158.570268,63.4417286 C157.555268,60.6967286 156.685268,57.8997286 155.749268,55.1257286 C155.374268,54.0127286 154.956268,52.9157286 154.577268,51.8047286 C154.493268,51.5587286 154.359268,51.1867286 154.470268,51.0407286 C155.253268,50.0037286 156.023268,48.9377286 156.942268,48.0287286 C157.625268,47.3527286 158.632268,47.0287286 158.806268,45.8567286 C158.834268,45.6667286 159.713268,45.4027286 160.114268,45.5047286 C161.843268,45.9407286 163.652268,46.2817286 165.212268,47.0847286 C166.441268,47.7157286 167.349268,48.9707286 168.257268,49.8167286" id="Fill-78"></path>
                            <path d="M361.281668,39.0516286 C361.795668,38.9606286 362.293668,38.7616286 362.770668,38.8056286 C364.663668,38.9786286 366.546668,39.3726286 368.437668,39.4056286 C370.104668,39.4336286 371.591668,40.0756286 373.135668,40.4616286 C373.909668,40.6546286 374.652668,41.5256286 375.127668,42.2696286 C377.163668,45.4656286 379.074668,48.7396286 381.079668,51.9546286 C381.518668,52.6576286 381.399668,53.1106286 380.809668,53.5726286 C378.369668,55.4896286 375.563668,56.3726286 372.541668,57.0186286 C370.398668,57.4766286 368.454668,57.1266286 366.413668,56.9136286 C365.410668,56.8096286 364.812668,56.3586286 364.529668,55.4426286 C363.462668,51.9966286 362.400668,48.5496286 362.399668,44.8876286 C362.398668,43.8896286 362.495668,42.8706286 362.321668,41.9016286 C362.159668,40.9986286 361.697668,40.1486286 361.281668,39.0516286" id="Fill-80"></path>
                            <path d="M335.961368,158.233229 C336.476368,156.287229 338.066368,155.920229 339.497368,157.333229 C341.355368,159.167229 343.172368,161.048229 344.898368,163.005229 C345.798368,164.026229 346.083368,165.307229 345.633368,166.696229 C344.952368,168.792229 344.250368,170.887229 343.731368,173.024229 C343.581368,173.636229 344.030368,174.394229 344.205368,175.085229 C344.916368,174.821229 345.652368,174.609229 346.329368,174.276229 C346.829368,174.029229 347.251368,173.624229 347.727368,173.274229 C348.738368,175.585229 347.857368,177.208229 345.549368,177.449229 C343.982368,177.613229 342.359368,177.534229 340.851368,177.914229 C339.123368,178.348229 337.815368,177.388229 336.852368,176.559229 C334.921368,174.898229 333.247368,172.875229 331.736368,170.804229 C330.065368,168.513229 330.124368,165.674229 329.897368,162.967229 C329.889368,162.877229 329.895368,162.785229 329.900368,162.694229 C329.957368,161.816229 329.671368,160.550229 330.139368,160.137229 C331.274368,159.135229 332.719368,158.441229 334.126368,157.818229 C334.564368,157.625229 335.278368,158.061229 335.961368,158.233229" id="Fill-82"></path>
                            <path d="M323.485768,34.7073286 C322.751768,33.7063286 321.996768,32.5873286 321.149768,31.5443286 C320.026768,30.1603286 320.620768,28.5143286 320.375768,27.0003286 C320.248768,26.2093286 320.314768,25.3663286 320.427768,24.5663286 C320.481768,24.1863286 320.773768,23.7393286 321.092768,23.5173286 C321.795768,23.0273286 322.554768,22.5953286 323.342768,22.2593286 C325.623768,21.2893286 327.910768,20.3283286 330.237768,19.4803286 C330.739768,19.2983286 331.519768,19.4423286 332.000768,19.7263286 C333.357768,20.5283286 334.708768,21.3853286 335.890768,22.4163286 C336.436768,22.8923286 336.587768,23.8233286 336.912768,24.5493286 C337.716768,26.3423286 338.581768,28.1123286 339.304768,29.9373286 C339.992768,31.6683286 337.553768,35.5693286 335.756768,35.9693286 C332.673768,36.6543286 329.601768,37.1453286 326.430768,36.6523286 C325.159768,36.4553286 324.008768,36.1863286 323.485768,34.7073286" id="Fill-84"></path>
                            <path d="M507.705468,251.968629 C505.752468,252.114629 503.938468,252.306629 502.121468,252.371629 C500.336468,252.437629 498.495468,252.621629 496.779468,252.267629 C495.859468,252.076629 494.895468,250.999629 494.396468,250.080629 C492.856468,247.248629 491.449468,244.334629 490.149468,241.383629 C489.234468,239.304629 489.880468,236.822629 491.635468,235.405629 C492.239468,234.915629 493.160468,234.711629 493.967468,234.607629 C495.010468,234.472629 496.170468,234.829629 497.128468,234.512629 C499.930468,233.585629 501.689468,235.072629 503.471468,236.810629 C505.517468,238.806629 505.905468,241.630629 507.185468,244.006629 C507.422468,244.443629 507.538468,244.947629 507.787468,245.374629 C508.236468,246.147629 508.392468,246.723629 507.838468,247.671629 C507.375468,248.465629 507.641468,249.696629 507.619468,250.733629 C507.609468,251.213629 507.684468,251.696629 507.705468,251.968629" id="Fill-86"></path>
                            <path d="M565.885168,197.493929 C567.469168,200.784929 569.067168,204.073929 570.633168,207.377929 C571.006168,208.164929 570.852168,208.629929 569.951168,209.175929 C568.391168,210.121929 566.974168,211.350929 565.645168,212.617929 C565.010168,213.222929 564.536168,213.513929 563.654168,213.300929 C562.254168,212.962929 560.794168,212.864929 559.408168,212.484929 C558.729168,212.298929 557.923168,211.848929 557.580168,211.275929 C555.492168,207.792929 553.517168,204.241929 551.520168,200.704929 C551.376168,200.451929 551.197168,200.051929 551.298168,199.854929 C551.993168,198.503929 552.776168,197.196929 553.493168,195.855929 C553.813168,195.261929 554.144168,194.642929 554.297168,193.994929 C554.500168,193.137929 554.967168,193.014929 555.696168,193.223929 C556.605168,193.486929 557.515168,193.743929 558.427168,193.993929 C558.644168,194.053929 558.893168,194.159929 559.089168,194.105929 C562.387168,193.192929 563.642168,196.154929 565.885168,197.493929" id="Fill-88"></path>
                            <path d="M275.789468,154.166829 C274.783468,152.793829 273.451468,151.551829 272.841468,150.020829 C271.741468,147.261829 270.198468,144.360829 271.516468,141.318829 C272.099468,139.972829 273.409468,138.817829 274.635468,137.907829 C275.872468,136.989829 277.404468,136.461829 278.830468,135.814829 C279.112468,135.686829 279.560468,135.671829 279.830468,135.807829 C282.452468,137.125829 284.434468,139.051829 286.089468,141.538829 C287.791468,144.097829 288.072468,147.020829 289.003468,149.771829 C289.111468,150.091829 288.856468,150.737829 288.563468,150.954829 C287.027468,152.090829 285.535468,153.392829 283.812468,154.141829 C282.129468,154.874829 280.201468,155.127829 278.352468,155.377829 C276.776468,155.589829 276.758468,155.454829 275.789468,154.166829" id="Fill-90"></path>
                            <path d="M461.893968,245.999829 C462.335968,246.163829 462.703968,246.381829 463.089968,246.424829 C463.776968,246.499829 464.474968,246.468829 465.168968,246.481829 C465.080968,245.712829 465.187968,244.848829 464.867968,244.191829 C463.893968,242.200829 462.771968,240.279829 461.672968,238.351829 C461.187968,237.498829 461.164968,236.834829 461.916968,236.055829 C463.114968,234.812829 464.166968,233.432829 465.298968,232.124829 C465.457968,231.941829 465.702968,231.755829 465.929968,231.720829 C467.688968,231.449829 469.466968,230.973829 471.211968,231.066829 C472.154968,231.116829 473.372968,231.955829 473.894968,232.794829 C475.349968,235.132829 476.507968,237.655829 477.779968,240.107829 C477.860968,240.265829 477.992968,240.450829 477.966968,240.600829 C477.625968,242.591829 477.269968,244.578829 476.902968,246.563829 C476.414968,249.200829 474.684968,250.434829 472.151968,250.801829 C470.517968,251.037829 468.890968,251.333829 467.264968,251.621829 C466.479968,251.761829 465.933968,251.565829 465.389968,250.898829 C464.715968,250.073829 463.918968,249.259829 463.003968,248.744829 C461.823968,248.081829 461.574968,247.241829 461.893968,245.999829" id="Fill-92"></path>
                            <path d="M69.3656678,221.352329 C70.5856678,223.016329 71.8376678,224.658329 72.9946678,226.363329 C73.1956678,226.659329 73.1576678,227.330329 72.9536678,227.651329 C71.8666678,229.363329 70.6206678,230.976329 69.5736678,232.710329 C68.8886678,233.845329 68.1156678,234.546329 66.7296678,234.691329 C64.8366678,234.887329 62.9716678,235.374329 61.0786678,235.563329 C60.3966678,235.631329 59.6376678,235.260329 58.9626678,234.976329 C58.2836678,234.692329 57.6096678,234.334329 57.0396678,233.877329 C56.6796678,233.590329 56.3376678,233.080329 56.2916678,232.637329 C55.8866678,228.720329 55.5376678,224.797329 55.1976678,220.874329 C55.1186678,219.965329 55.3216678,219.002329 54.4346678,218.318329 C54.3496678,218.252329 54.5666678,217.796329 54.6436678,217.521329 C54.9696678,217.669329 55.4906678,217.744329 55.5796678,217.980329 C55.7646678,218.472329 55.6306678,219.080329 55.7966678,219.583329 C55.9586678,220.075329 56.2606678,220.787329 56.6306678,220.877329 C57.1206678,220.998329 58.0896678,220.761329 58.2376678,220.415329 C58.8946678,218.875329 60.4746678,217.871329 60.6256678,216.027329 C60.6816678,215.334329 61.3676678,215.005329 62.0846678,215.474329 C63.3696678,216.315329 64.6756678,217.132329 65.9006678,218.055329 C67.0476678,218.917329 68.1006678,219.904329 69.1966678,220.834329 C69.3316678,220.949329 69.4736678,221.055329 69.6126678,221.165329 C69.5296678,221.228329 69.4476678,221.290329 69.3656678,221.352329" id="Fill-94"></path>
                            <path d="M111.062868,344.311329 C110.761868,344.353329 110.610868,344.399329 110.596868,344.373329 C109.657868,342.589329 107.446868,341.750329 106.982868,339.644329 C106.534868,337.609329 106.269868,335.534329 105.825868,333.497329 C105.500868,332.010329 106.897868,331.907329 107.549868,331.443329 C109.284868,330.211329 111.242868,329.301329 113.074868,328.201329 C113.674868,327.840329 114.018868,327.838329 114.611868,328.294329 C115.295868,328.821329 116.231868,329.006329 117.002868,329.439329 C117.918868,329.954329 119.098868,330.373329 119.599868,331.184329 C121.422868,334.133329 123.086868,337.191329 124.627868,340.298329 C124.973868,340.995329 124.623868,342.064329 124.513868,342.951329 C124.409868,343.798329 124.217868,344.636329 124.030868,345.471329 C123.983868,345.679329 123.851868,345.923329 123.682868,346.041329 C122.096868,347.150329 120.526868,348.396329 118.410868,347.917329 C117.903868,347.802329 117.387868,347.351329 117.051868,346.918329 C115.966868,345.519329 114.979868,344.045329 113.918868,342.626329 C113.626868,342.235329 113.266868,341.816329 112.840868,341.624329 C112.349868,341.404329 111.705868,341.263329 111.221868,341.407329 C111.011868,341.469329 110.990868,342.323329 110.966868,342.821329 C110.944868,343.320329 111.027868,343.824329 111.062868,344.311329" id="Fill-96"></path>
                            <path d="M449.225068,257.012529 C449.370068,257.240529 449.572068,257.417529 449.540068,257.529529 C449.204068,258.716529 449.967068,259.022529 450.863068,259.240529 C452.590068,259.660529 453.758068,260.765529 454.794068,262.171529 C455.992068,263.796529 457.335068,265.322529 458.702068,266.812529 C459.348068,267.517529 459.868068,268.171529 459.715068,269.185529 C459.641068,269.673529 459.639068,270.173529 459.617068,270.667529 C459.516068,272.868529 459.508068,272.835529 457.459068,273.417529 C456.643068,273.649529 455.892068,274.102529 455.089068,274.394529 C450.544068,276.044529 446.649068,274.283529 443.849068,270.808529 C442.646068,269.316529 441.818068,267.519529 440.835068,265.851529 C440.328068,264.990529 439.412068,264.061529 439.497068,263.248529 C439.573068,262.531529 440.895068,262.019529 441.465068,261.264529 C443.039068,259.180529 445.105068,258.348529 447.662068,258.312529 C448.148068,258.306529 448.624068,257.534529 449.225068,257.012529" id="Fill-98"></path>
                            <path d="M0.199667781,129.979329 C0.145667781,129.040329 -0.128332219,127.919329 0.0726677807,126.891329 C0.335667781,125.547329 0.904667781,124.246329 1.46966778,122.983329 C2.35066778,121.006329 3.31666778,119.064329 4.30366778,117.136329 C4.48366778,116.784329 4.90066778,116.393329 5.26666778,116.321329 C7.64266778,115.860329 10.0346678,116.029329 12.0906678,117.288329 C13.0416678,117.870329 13.4946678,119.227329 14.2636678,120.157329 C14.6856678,120.666329 15.2966678,121.019329 15.8216678,121.443329 C16.0956678,120.877329 16.3726678,120.312329 16.6416678,119.744329 C16.6926678,119.638329 16.7196678,119.520329 16.8486678,119.131329 C17.3846678,120.909329 18.0406678,122.336329 17.2846678,124.033329 C16.9156678,124.861329 16.9526678,125.887329 16.8836678,126.829329 C16.7746678,128.295329 16.2896678,129.528329 15.0746678,130.445329 C14.4636678,130.906329 14.0036678,131.596329 13.3516678,131.963329 C12.6136678,132.380329 11.7486678,132.594329 10.9166678,132.818329 C9.70166778,133.145329 8.47766778,133.472329 7.23866778,133.675329 C5.32666778,133.988329 3.51266778,134.048329 2.33566778,131.966329 C1.90566778,131.207329 1.01066778,130.710329 0.199667781,129.979329" id="Fill-100"></path>
                            <path d="M356.931068,71.0140286 C357.668068,72.6180286 358.491068,74.2250286 359.151068,75.8970286 C359.886068,77.7600286 360.518068,79.6690286 361.093068,81.5880286 C361.219068,82.0090286 361.073068,82.6960286 360.785068,83.0260286 C359.428068,84.5790286 357.796068,85.7400286 355.753068,86.2910286 C354.938068,86.5120286 354.208068,87.0510286 353.392068,87.2760286 C352.814068,87.4360286 351.963068,87.5710286 351.568068,87.2730286 C349.660068,85.8390286 347.800068,84.3220286 346.069068,82.6800286 C345.574068,82.2100286 345.372068,81.2270286 345.371068,80.4790286 C345.368068,78.6860286 345.666068,76.8920286 345.639068,75.1010286 C345.625068,74.1570286 345.123068,73.2290286 344.955068,72.2740286 C344.818068,71.4920286 344.614068,70.5860286 344.884068,69.9150286 C345.076068,69.4430286 345.985068,69.1160286 346.623068,69.0000286 C347.955068,68.7590286 349.319068,68.6870286 350.672068,68.5760286 C351.066068,68.5440286 351.487068,68.5500286 351.864068,68.6520286 C353.023068,68.9690286 354.201068,69.2640286 355.305068,69.7230286 C355.893068,69.9670286 356.346068,70.5350286 356.931068,71.0140286" id="Fill-102"></path>
                            <path d="M400.937868,15.0916286 C399.907868,15.8476286 398.890868,16.6216286 397.833868,17.3386286 C397.674868,17.4466286 397.316868,17.3396286 397.082868,17.2506286 C393.747868,15.9856286 390.442868,14.6376286 387.079868,13.4576286 C385.121868,12.7706286 383.979868,10.4796286 384.104868,8.62162861 C384.224868,6.84962861 384.805868,5.06062861 383.986868,3.28362861 C383.921868,3.14362861 384.468868,2.48462861 384.779868,2.44562861 C386.889868,2.18162861 388.658868,1.07262861 390.576868,0.31862861 C392.567868,-0.46437139 394.556868,0.35562861 396.459868,1.06262861 C397.075868,1.29162861 397.678868,1.59162861 398.225868,1.95262861 C398.533868,2.15562861 398.794868,2.51562861 398.940868,2.86262861 C399.371868,3.88562861 399.753868,4.93062861 400.116868,5.98162861 C400.625868,7.45662861 401.142868,8.93062861 401.571868,10.4306286 C401.803868,11.2466286 401.823868,12.1216286 402.004868,12.9556286 C402.222868,13.9596286 401.970868,14.7416286 400.937868,15.0916286" id="Fill-104"></path>
                            <path d="M402.040468,92.3514286 C402.286468,93.5654286 402.673468,95.3134286 402.956468,97.0784286 C402.987468,97.2764286 402.468468,97.7424286 402.157468,97.7904286 C398.051468,98.4334286 393.946468,99.1134286 389.816468,99.5604286 C388.844468,99.6664286 387.772468,98.9684286 386.769468,98.5824286 C386.568468,98.5064286 386.375468,98.1844286 386.336468,97.9484286 C385.734468,94.3184286 384.445468,90.7684286 385.027468,86.9964286 C385.144468,86.2414286 385.227468,85.4794286 385.366468,84.7294286 C385.403468,84.5324286 385.561468,84.2524286 385.723468,84.2014286 C386.920468,83.8244286 388.127468,83.4734286 389.344468,83.1644286 C389.683468,83.0784286 390.102468,83.2654286 390.422468,83.1514286 C393.256468,82.1374286 394.725468,84.0564286 396.277468,85.8204286 C398.061468,87.8474286 399.850468,89.8704286 402.040468,92.3514286" id="Fill-106"></path>
                            <path d="M312.669368,172.960729 C313.973368,174.609729 315.281368,176.255729 316.571368,177.915729 C316.696368,178.076729 316.767368,178.325729 316.764459,178.532729 C316.751368,179.296729 316.731368,180.063729 316.653368,180.823729 C316.206368,185.230729 315.802368,185.688729 310.989368,187.424729 C309.652368,187.906729 308.613368,187.903729 307.584368,186.961729 C306.678368,186.132729 305.514368,185.450729 304.924368,184.436729 C303.710368,182.346729 302.755368,180.099729 301.783368,177.876729 C300.741368,175.496729 301.488368,173.069729 301.809368,170.676729 C301.939368,169.707729 302.769368,169.594729 303.602368,169.638729 C305.144368,169.721729 306.708368,170.092729 308.134368,169.040729 C308.367368,168.869729 309.069368,169.035729 309.351368,169.280729 C310.600368,170.372729 311.775368,171.549729 312.978368,172.695729 C312.875368,172.783729 312.773368,172.872729 312.669368,172.960729" id="Fill-108"></path>
                            <path d="M374.075568,268.019429 C374.935568,267.255429 375.766568,266.672429 376.402568,265.923429 C378.027568,264.007429 380.105568,264.196429 382.213568,264.562429 C383.368568,264.762429 384.498568,265.113429 385.634568,265.417429 C387.827568,266.005429 388.343568,267.972429 389.099568,269.716429 C389.491568,270.619429 389.700568,271.602429 390.115568,272.492429 C390.798568,273.952429 390.656568,276.337429 389.410568,277.213429 C388.350568,277.959429 386.982568,278.285429 385.725568,278.726429 C384.616568,279.116429 383.460568,279.368429 382.349568,279.752429 C380.895568,280.257429 379.817568,279.615429 378.796568,278.715429 C377.682568,277.735429 376.570568,276.752429 375.458568,275.771429 C374.679568,275.085429 373.733568,274.513429 373.177568,273.680429 C372.740568,273.028429 372.602568,272.040429 372.661568,271.224429 C372.750568,269.980429 372.480568,268.451429 374.075568,268.019429" id="Fill-110"></path>
                            <path d="M379.600068,299.507629 C380.808068,299.176629 382.065068,298.645629 383.360068,298.527629 C384.958068,298.381629 386.373068,298.734629 387.311068,300.447629 C388.139068,301.961629 389.492068,303.179629 390.528068,304.590629 C391.382068,305.754629 392.121068,307.004629 392.890068,308.231629 C392.995068,308.398629 393.078068,308.767629 392.996068,308.834629 C391.638068,309.971629 391.604068,312.130629 389.718068,312.899629 C388.080068,313.567629 386.560068,314.399629 384.665068,313.897629 C383.678068,313.635629 382.599068,313.702629 381.561068,313.652629 C380.530068,313.600629 375.959068,310.128629 375.778068,309.100629 C375.534068,307.721629 375.425068,306.316629 375.313068,304.918629 C375.290068,304.640629 375.445068,304.285629 375.633068,304.065629 C376.885068,302.590629 378.168068,301.144629 379.600068,299.507629" id="Fill-112"></path>
                            <path d="M328.308068,101.852829 C327.392068,98.6358286 326.755068,95.6248286 325.650068,92.7978286 C324.931068,90.9598286 326.325068,89.8048286 326.411068,88.2858286 C326.416068,88.1848286 326.777068,88.0618286 326.986068,88.0218286 C329.014068,87.6368286 331.045068,87.2688286 333.074068,86.8908286 C335.235068,86.4878286 337.362068,87.4508286 338.051068,89.4948286 C339.084068,92.5588286 340.490068,95.5668286 340.399068,98.8988286 C340.374068,99.7688286 340.097068,100.785829 339.577068,101.456829 C338.108068,103.352829 336.226068,104.266829 333.932068,103.164829 C333.002068,102.717829 331.982068,102.418829 330.972068,102.190829 C330.013068,101.973829 329.013068,101.935829 328.308068,101.852829" id="Fill-114"></path>
                            <path d="M309.027768,92.7962286 C310.135768,94.3082286 311.240768,95.8062286 312.335768,97.3122286 C312.515768,97.5612286 312.728768,97.8242286 312.797768,98.1122286 C313.402768,100.650229 313.972768,103.196229 314.565768,105.738229 C314.938768,107.342229 314.604768,107.837229 313.079768,108.525229 C312.144768,108.946229 311.373768,109.720229 310.452768,110.185229 C308.474768,111.181229 306.649768,110.203229 304.840768,109.545229 C303.652768,109.112229 302.256768,108.776229 301.427768,107.932229 C300.014768,106.491229 300.061768,104.383229 299.780768,102.462229 C299.564768,100.985229 300.298768,99.8152286 300.945768,98.6682286 C301.718768,97.2962286 302.655768,95.9912286 303.683768,94.7982286 C304.108768,94.3052286 304.940768,94.1312286 305.616768,93.8922286 C306.769768,93.4842286 307.944768,93.1402286 309.027768,92.7962286" id="Fill-116"></path>
                            <path d="M444.797268,228.654129 C445.636268,229.083129 446.532268,229.542129 447.216268,229.891129 C446.326268,231.317129 445.264268,232.607129 444.660268,234.085129 C443.681268,236.483129 441.617268,236.898129 439.526268,237.512129 C436.963268,238.265129 435.311268,236.602129 433.487268,235.413129 C432.516268,234.778129 431.721268,233.874129 430.746268,233.244129 C429.945268,232.726129 429.803268,232.133129 430.006268,231.298129 C430.281268,230.170129 430.494268,229.078129 431.486268,228.232129 C432.219268,227.608129 432.685268,226.673129 433.283268,225.886129 C433.416268,225.711129 433.603268,225.455129 433.772268,225.449129 C434.712268,225.416129 435.667268,225.550129 436.593268,225.433129 C437.769268,225.286129 438.279268,225.981129 438.874268,226.773129 C439.269268,227.300129 439.840268,227.733129 440.406268,228.088129 C441.433268,228.730129 442.492268,229.332129 443.586268,229.849129 C444.009268,230.050129 444.563268,229.974129 445.057268,230.024129 C444.971268,229.572129 444.886268,229.119129 444.797268,228.654129" id="Fill-118"></path>
                            <path d="M379.173268,223.424629 C379.029268,223.249629 378.920268,223.022629 378.738268,222.907629 C377.050268,221.841629 377.282268,219.814629 376.437268,218.328629 C376.354268,218.183629 376.320268,217.961629 376.361268,217.800629 C376.859268,215.828629 377.150268,213.758629 377.990268,211.943629 C378.348268,211.172629 379.851268,210.896629 380.868268,210.483629 C381.314268,210.302629 381.848268,210.293629 382.343268,210.288629 C383.323268,210.278629 383.975268,210.622629 384.405268,211.660629 C385.182268,213.530629 386.197268,215.299629 387.094268,217.120629 C387.245268,217.428629 387.358268,217.778629 387.388268,218.118629 C387.493268,219.326629 387.553268,220.539629 387.636268,221.749629 C387.682268,222.432629 387.817268,223.100629 386.910268,223.433629 C386.665268,223.523629 386.604268,224.090629 386.441268,224.431629 C386.220268,224.893629 386.069268,225.424629 385.736268,225.789629 C384.722268,226.910629 383.573268,227.163629 382.283268,226.153629 C381.199268,225.306629 380.072268,224.514629 378.964268,223.696629 C379.033268,223.606629 379.104268,223.515629 379.173268,223.424629" id="Fill-120"></path>
                            <path d="M258.156668,170.303529 C259.165668,172.220529 260.732668,173.977529 260.220668,176.384529 C260.151668,176.712529 259.797668,177.115529 259.481668,177.231529 C258.057668,177.747529 256.503668,177.965529 255.589668,179.428529 C255.408668,179.717529 254.909668,179.909529 254.534668,179.954529 C252.295668,180.224529 250.119668,178.788529 248.763668,176.948529 C247.482668,175.207529 247.313668,173.344529 248.125668,171.736529 C248.846668,170.307529 250.378668,169.226529 251.705668,168.189529 C252.415668,167.635529 253.518668,167.119529 254.323668,167.264529 C255.409668,167.459529 256.427668,168.238529 257.373668,168.907529 C257.766668,169.184529 257.903668,169.826529 258.156668,170.303529" id="Fill-122"></path>
                        </g>
                    </g>
                </g>
            </g>
        </g>
    </g>
</svg>