<?xml version="1.0" encoding="UTF-8"?>
<svg width="449px" height="334px" viewBox="0 0 449 334" version="1.1" xmlns="http://www.w3.org/2000/svg" xmlns:xlink="http://www.w3.org/1999/xlink">
    <!-- Generator: Sketch 58 (84663) - https://sketch.com -->
    <title>Group 6</title>
    <desc>Created with Sketch.</desc>
    <g id="Design" stroke="none" stroke-width="1" fill="none" fill-rule="evenodd">
        <g id="My-Sunshine-Landing-v1" transform="translate(-11.000000, -4990.000000)" fill="#FFEE4C">
            <g id="Group-14" transform="translate(-192.000000, 4673.000000)">
                <g id="Group-13">
                    <g id="Group-6" transform="translate(0.000000, 317.000000)">
                        <path d="M222.733768,118.006629 C222.726768,119.610629 223.033768,121.658629 222.607768,123.540629 C222.277768,124.999629 221.156768,126.355629 220.157768,127.568629 C219.099768,128.852629 217.462768,128.854629 215.892768,129.170629 C212.607768,129.831629 211.480768,127.027629 209.442768,125.693629 C208.848768,125.304629 208.222768,124.943629 207.697768,124.472629 C207.175768,124.006629 206.620768,123.485629 206.330768,122.870629 C205.348768,120.784629 204.442768,118.659629 203.587768,116.518629 C203.367768,115.964629 203.376768,115.293629 203.395768,114.679629 C203.410768,114.190629 203.601768,113.706629 203.712768,113.219629 C204.529768,109.678629 204.789768,109.336629 208.420768,109.130629 C210.441768,109.015629 212.590768,108.995629 214.485768,109.578629 C215.796768,109.981629 216.840768,111.417629 217.876768,112.513629 C219.504768,114.236629 221.024768,116.061629 222.733768,118.006629" id="Fill-54"></path>
                        <path d="M278.875368,174.796729 C280.785368,178.589729 282.592368,182.346729 284.567368,186.012729 C285.269368,187.314729 285.315368,188.253729 284.307368,189.370729 C283.684368,190.059729 283.450368,191.102729 282.823368,191.784729 C279.463368,195.439729 273.957368,195.708729 270.464368,192.115729 C269.010368,190.619729 268.347368,188.268729 267.588368,186.208729 C267.001368,184.612729 266.757368,182.875729 266.495368,181.179729 C266.377368,180.410729 266.390368,179.504729 266.694368,178.816729 C267.148368,177.789729 267.914368,176.914729 267.586368,175.655729 C267.553368,175.526729 268.028368,175.173729 268.320368,175.068729 C269.291368,174.724729 270.290368,174.458729 271.270368,174.137729 C273.529368,173.395729 275.760368,173.988729 277.992368,174.288729 C278.313368,174.331729 278.600368,174.631729 278.875368,174.796729" id="Fill-56"></path>
                        <path d="M633.570768,149.961729 C632.524768,147.363729 631.435768,144.780729 630.489768,142.148729 C630.372768,141.819729 630.900768,141.026729 631.321768,140.790729 C632.089768,140.357729 632.396768,139.987729 632.062768,139.081729 C631.934768,138.732729 632.160768,138.021729 632.465768,137.787729 C633.518768,136.980729 634.652768,136.265729 635.803768,135.598729 C637.307768,134.727729 640.889768,135.389729 642.134768,136.579729 C643.554768,137.936729 645.110768,139.150729 646.539768,140.498729 C647.074768,141.003729 647.536768,141.659729 647.825768,142.334729 C648.336768,143.529729 648.674768,144.796729 649.122768,146.020729 C649.204768,146.244729 649.423768,146.509729 649.636768,146.581729 C652.028768,147.387729 651.731768,149.439729 651.668768,151.232729 C651.598768,153.157729 651.461768,153.153729 649.413768,153.267729 C647.697768,153.361729 645.959768,153.672729 644.269768,153.501729 C641.006768,153.170729 637.760768,152.596729 634.943768,150.701729 C634.573768,150.452729 634.234768,150.154729 633.881768,149.880729 C633.777768,149.907729 633.674768,149.934729 633.570768,149.961729" id="Fill-58"></path>
                        <path d="M359.719168,121.921229 C358.859168,120.489229 358.099168,119.033229 358.302168,117.088229 C358.524168,114.964229 358.283168,112.777229 358.109168,110.629229 C357.991168,109.188229 358.823168,107.955229 360.115168,107.337229 C362.525168,106.183229 365.064168,106.233229 367.607168,106.223218 C368.056168,106.221229 368.570168,106.499229 368.946168,106.789229 C372.073168,109.193229 374.734168,111.977229 375.820168,115.909229 C376.329168,117.754229 375.470168,119.330229 374.674168,120.929229 C373.653168,122.982229 371.832168,123.751229 369.798168,124.290229 C369.194168,124.450229 368.635168,124.934229 368.043168,124.956229 C366.928168,124.998229 365.803168,124.818229 364.684168,124.719229 C364.413168,124.695229 364.144168,124.572229 363.880168,124.588229 C361.885168,124.704229 360.879168,123.252229 359.719168,121.921229" id="Fill-60"></path>
                        <path d="M419.975068,319.553529 C419.462068,319.718529 419.059068,319.848529 418.521068,320.021529 C419.002068,319.435529 419.375068,318.971529 419.759068,318.516529 C422.901068,314.795529 427.250068,313.654529 431.816068,315.926529 C433.297068,316.662529 434.846068,317.428529 436.048068,318.526529 C438.052068,320.356529 438.458068,323.009529 438.850068,325.557529 C439.027068,326.709529 438.976068,327.912529 438.880068,329.081529 C438.849068,329.468529 438.430068,329.981529 438.056068,330.156529 C435.979068,331.133529 433.879068,332.068529 431.751068,332.926529 C430.619068,333.383529 429.465068,333.326529 428.423068,332.526529 C427.171068,331.562529 425.893068,330.631529 424.618068,329.698529 C424.401068,329.538529 424.146068,329.341529 423.900068,329.326529 C420.850068,329.141529 420.565068,326.733529 420.221068,324.556529 C420.043068,323.429529 419.355068,322.124529 420.532068,321.006529 C420.662068,320.882529 420.213068,320.149529 419.975068,319.553529" id="Fill-62"></path>
                        <path d="M412.135168,148.110229 C413.468168,147.703229 415.181168,147.094229 416.939168,146.673229 C417.903168,146.442229 418.945168,146.452229 419.947168,146.483229 C422.575168,146.565229 423.450168,148.836229 424.747168,150.517229 C426.035168,152.187229 427.171168,153.973229 428.401168,155.689229 C429.645168,157.425229 429.605168,157.483229 428.386168,159.208229 C427.506168,160.452229 426.718168,161.775229 426.032168,163.134229 C425.515168,164.161229 424.867168,164.554229 423.701168,164.546229 C421.724168,164.531229 419.746168,164.752229 417.768168,164.830229 C416.727168,164.871229 415.361168,163.757229 414.957168,162.808229 C414.756168,162.335229 414.346168,161.899229 413.930168,161.577229 C411.706168,159.855229 410.211168,157.642229 409.501168,154.943229 C408.808168,152.308229 409.921168,150.256229 412.135168,148.110229" id="Fill-66"></path>
                        <path d="M508.463268,280.432429 C506.574268,280.572429 504.986268,281.282429 503.501268,282.538429 C502.139268,283.691429 500.547268,284.687429 498.892268,285.326429 C498.130268,285.619429 496.971268,284.909429 496.000268,284.626429 C495.278268,284.415429 494.550268,284.204429 493.860268,283.910429 C493.351268,283.692429 492.731268,283.448429 492.450268,283.023429 C491.254268,281.209429 489.910268,279.428429 489.107268,277.438429 C488.260268,275.345429 487.401268,273.081429 489.422268,270.904429 C490.500268,269.743429 491.093268,268.142429 492.023268,266.823429 C492.284268,266.452429 492.979268,266.167429 493.449268,266.201429 C495.203268,266.325429 496.952268,266.562429 498.690268,266.838429 C499.095268,266.902429 499.515268,267.220429 499.819268,267.529429 C502.352268,270.102429 504.788268,272.772429 507.398268,275.263429 C509.024268,276.817429 509.050268,278.504429 508.463268,280.432429" id="Fill-68"></path>
                        <path d="M256.388068,106.176629 C254.323068,106.019629 252.613068,106.576629 250.895068,107.560629 C249.367068,108.436629 247.597068,109.077629 245.863068,109.327629 C245.001068,109.452629 243.979068,108.466629 243.030068,107.982629 C242.396068,107.659629 241.738068,107.375629 241.139068,106.996629 C240.707068,106.723629 240.175068,106.398629 239.998068,105.968629 C239.139068,103.881629 238.134068,101.804629 237.666068,99.6196286 C237.218068,97.5296286 236.892068,95.2696286 239.029068,93.5486286 C240.239068,92.5726286 241.178068,91.2546286 242.197068,90.0536286 C242.806068,89.3356286 243.425068,89.1436286 244.342068,89.4996286 C245.845068,90.0836286 247.404068,90.5246286 248.927068,91.0616286 C249.196068,91.1556286 249.470068,91.3796286 249.631068,91.6186286 C251.975068,95.0976286 254.267068,98.6136286 256.646068,102.068629 C257.695068,103.591629 256.650068,104.797629 256.388068,106.176629" id="Fill-70"></path>
                        <path d="M367.564868,237.702929 C368.606868,238.915929 369.649868,240.128929 370.686868,241.345929 C370.772868,241.446929 370.864868,241.577929 370.876868,241.701929 C371.043868,243.476929 371.353868,245.257929 371.308868,247.028929 C371.265868,248.707929 370.098868,249.749929 368.638868,250.528929 C367.420868,251.179929 366.385868,252.268929 365.112868,252.684929 C364.134868,253.005929 362.819868,252.821929 361.818868,252.436929 C359.587868,251.578929 357.379868,250.589929 355.327868,249.376929 C354.339868,248.793929 353.293868,247.686929 353.031868,246.630929 C352.549868,244.686929 352.650868,242.601929 352.464868,240.580929 C352.309868,238.887929 353.538868,237.669929 354.569868,237.093929 C357.006868,235.732929 359.739868,234.897929 362.367868,233.888929 C362.616868,233.792929 363.035868,233.862929 363.259868,234.019929 C364.808868,235.106929 366.327868,236.236929 367.855868,237.351929 C367.758868,237.469929 367.661868,237.585929 367.564868,237.702929" id="Fill-72"></path>
                        <path d="M569.628368,274.014529 C569.869368,274.343529 570.078368,274.703529 570.357368,274.996529 C572.023368,276.735529 571.418368,278.744529 571.064368,280.724529 C571.024368,280.943529 570.893368,281.144529 570.839368,281.362529 C570.099368,284.326529 568.999368,284.876529 565.885368,284.218529 C563.993368,283.818529 562.019368,283.823529 560.107368,283.495529 C559.017368,283.309529 557.958368,282.868529 556.922368,282.450529 C556.087368,282.113529 555.350368,281.448529 554.497368,281.262529 C552.034368,280.727529 551.360368,278.975529 551.158368,276.812529 C551.142368,276.632529 551.178368,276.422529 551.098368,276.277529 C550.097368,274.461529 550.780368,273.153529 552.172368,271.844529 C554.696368,269.470529 557.546368,267.778529 560.972368,267.183529 C562.439368,266.929529 563.813368,267.563529 564.805368,268.501529 C566.575368,270.175529 568.127368,272.080529 569.771368,273.889529 C569.723368,273.931529 569.676368,273.972529 569.628368,274.014529" id="Fill-74"></path>
                        <path d="M267.436968,98.0731286 C268.667968,97.3531286 269.890968,96.8541286 270.839968,96.0361286 C272.565968,94.5501286 274.750968,94.7741286 276.704968,94.1651286 C279.013968,93.4451286 280.832968,94.7061286 281.985968,96.3051286 C283.716968,98.7031286 284.976968,101.446129 286.387968,104.069129 C287.360968,105.878129 286.257968,107.523129 285.838968,109.212129 C285.788968,109.414129 285.552968,109.563129 285.446968,109.760129 C284.904968,110.771129 284.952968,112.372129 283.195968,112.191129 C282.023968,112.071129 280.888968,112.175129 279.681968,111.564129 C277.983968,110.705129 275.842968,110.710129 274.161968,109.829129 C271.823968,108.605129 269.693968,106.959129 267.577968,105.358129 C267.171968,105.052129 267.170968,104.126129 267.103968,103.473129 C266.970968,102.177129 266.861968,100.871129 266.870968,99.5701286 C266.873968,99.0771286 267.231968,98.5871286 267.436968,98.0731286" id="Fill-76"></path>
                        <path d="M361.281668,39.0516286 C361.795668,38.9606286 362.293668,38.7616286 362.770668,38.8056286 C364.663668,38.9786286 366.546668,39.3726286 368.437668,39.4056286 C370.104668,39.4336286 371.591668,40.0756286 373.135668,40.4616286 C373.909668,40.6546286 374.652668,41.5256286 375.127668,42.2696286 C377.163668,45.4656286 379.074668,48.7396286 381.079668,51.9546286 C381.518668,52.6576286 381.399668,53.1106286 380.809668,53.5726286 C378.369668,55.4896286 375.563668,56.3726286 372.541668,57.0186286 C370.398668,57.4766286 368.454668,57.1266286 366.413668,56.9136286 C365.410668,56.8096286 364.812668,56.3586286 364.529668,55.4426286 C363.462668,51.9966286 362.400668,48.5496286 362.399668,44.8876286 C362.398668,43.8896286 362.495668,42.8706286 362.321668,41.9016286 C362.159668,40.9986286 361.697668,40.1486286 361.281668,39.0516286" id="Fill-80"></path>
                        <path d="M335.961368,158.233229 C336.476368,156.287229 338.066368,155.920229 339.497368,157.333229 C341.355368,159.167229 343.172368,161.048229 344.898368,163.005229 C345.798368,164.026229 346.083368,165.307229 345.633368,166.696229 C344.952368,168.792229 344.250368,170.887229 343.731368,173.024229 C343.581368,173.636229 344.030368,174.394229 344.205368,175.085229 C344.916368,174.821229 345.652368,174.609229 346.329368,174.276229 C346.829368,174.029229 347.251368,173.624229 347.727368,173.274229 C348.738368,175.585229 347.857368,177.208229 345.549368,177.449229 C343.982368,177.613229 342.359368,177.534229 340.851368,177.914229 C339.123368,178.348229 337.815368,177.388229 336.852368,176.559229 C334.921368,174.898229 333.247368,172.875229 331.736368,170.804229 C330.065368,168.513229 330.124368,165.674229 329.897368,162.967229 C329.889368,162.877229 329.895368,162.785229 329.900368,162.694229 C329.957368,161.816229 329.671368,160.550229 330.139368,160.137229 C331.274368,159.135229 332.719368,158.441229 334.126368,157.818229 C334.564368,157.625229 335.278368,158.061229 335.961368,158.233229" id="Fill-82"></path>
                        <path d="M323.485768,34.7073286 C322.751768,33.7063286 321.996768,32.5873286 321.149768,31.5443286 C320.026768,30.1603286 320.620768,28.5143286 320.375768,27.0003286 C320.248768,26.2093286 320.314768,25.3663286 320.427768,24.5663286 C320.481768,24.1863286 320.773768,23.7393286 321.092768,23.5173286 C321.795768,23.0273286 322.554768,22.5953286 323.342768,22.2593286 C325.623768,21.2893286 327.910768,20.3283286 330.237768,19.4803286 C330.739768,19.2983286 331.519768,19.4423286 332.000768,19.7263286 C333.357768,20.5283286 334.708768,21.3853286 335.890768,22.4163286 C336.436768,22.8923286 336.587768,23.8233286 336.912768,24.5493286 C337.716768,26.3423286 338.581768,28.1123286 339.304768,29.9373286 C339.992768,31.6683286 337.553768,35.5693286 335.756768,35.9693286 C332.673768,36.6543286 329.601768,37.1453286 326.430768,36.6523286 C325.159768,36.4553286 324.008768,36.1863286 323.485768,34.7073286" id="Fill-84"></path>
                        <path d="M507.705468,251.968629 C505.752468,252.114629 503.938468,252.306629 502.121468,252.371629 C500.336468,252.437629 498.495468,252.621629 496.779468,252.267629 C495.859468,252.076629 494.895468,250.999629 494.396468,250.080629 C492.856468,247.248629 491.449468,244.334629 490.149468,241.383629 C489.234468,239.304629 489.880468,236.822629 491.635468,235.405629 C492.239468,234.915629 493.160468,234.711629 493.967468,234.607629 C495.010468,234.472629 496.170468,234.829629 497.128468,234.512629 C499.930468,233.585629 501.689468,235.072629 503.471468,236.810629 C505.517468,238.806629 505.905468,241.630629 507.185468,244.006629 C507.422468,244.443629 507.538468,244.947629 507.787468,245.374629 C508.236468,246.147629 508.392468,246.723629 507.838468,247.671629 C507.375468,248.465629 507.641468,249.696629 507.619468,250.733629 C507.609468,251.213629 507.684468,251.696629 507.705468,251.968629" id="Fill-86"></path>
                        <path d="M565.885168,197.493929 C567.469168,200.784929 569.067168,204.073929 570.633168,207.377929 C571.006168,208.164929 570.852168,208.629929 569.951168,209.175929 C568.391168,210.121929 566.974168,211.350929 565.645168,212.617929 C565.010168,213.222929 564.536168,213.513929 563.654168,213.300929 C562.254168,212.962929 560.794168,212.864929 559.408168,212.484929 C558.729168,212.298929 557.923168,211.848929 557.580168,211.275929 C555.492168,207.792929 553.517168,204.241929 551.520168,200.704929 C551.376168,200.451929 551.197168,200.051929 551.298168,199.854929 C551.993168,198.503929 552.776168,197.196929 553.493168,195.855929 C553.813168,195.261929 554.144168,194.642929 554.297168,193.994929 C554.500168,193.137929 554.967168,193.014929 555.696168,193.223929 C556.605168,193.486929 557.515168,193.743929 558.427168,193.993929 C558.644168,194.053929 558.893168,194.159929 559.089168,194.105929 C562.387168,193.192929 563.642168,196.154929 565.885168,197.493929" id="Fill-88"></path>
                        <path d="M275.789468,154.166829 C274.783468,152.793829 273.451468,151.551829 272.841468,150.020829 C271.741468,147.261829 270.198468,144.360829 271.516468,141.318829 C272.099468,139.972829 273.409468,138.817829 274.635468,137.907829 C275.872468,136.989829 277.404468,136.461829 278.830468,135.814829 C279.112468,135.686829 279.560468,135.671829 279.830468,135.807829 C282.452468,137.125829 284.434468,139.051829 286.089468,141.538829 C287.791468,144.097829 288.072468,147.020829 289.003468,149.771829 C289.111468,150.091829 288.856468,150.737829 288.563468,150.954829 C287.027468,152.090829 285.535468,153.392829 283.812468,154.141829 C282.129468,154.874829 280.201468,155.127829 278.352468,155.377829 C276.776468,155.589829 276.758468,155.454829 275.789468,154.166829" id="Fill-90"></path>
                        <path d="M461.893968,245.999829 C462.335968,246.163829 462.703968,246.381829 463.089968,246.424829 C463.776968,246.499829 464.474968,246.468829 465.168968,246.481829 C465.080968,245.712829 465.187968,244.848829 464.867968,244.191829 C463.893968,242.200829 462.771968,240.279829 461.672968,238.351829 C461.187968,237.498829 461.164968,236.834829 461.916968,236.055829 C463.114968,234.812829 464.166968,233.432829 465.298968,232.124829 C465.457968,231.941829 465.702968,231.755829 465.929968,231.720829 C467.688968,231.449829 469.466968,230.973829 471.211968,231.066829 C472.154968,231.116829 473.372968,231.955829 473.894968,232.794829 C475.349968,235.132829 476.507968,237.655829 477.779968,240.107829 C477.860968,240.265829 477.992968,240.450829 477.966968,240.600829 C477.625968,242.591829 477.269968,244.578829 476.902968,246.563829 C476.414968,249.200829 474.684968,250.434829 472.151968,250.801829 C470.517968,251.037829 468.890968,251.333829 467.264968,251.621829 C466.479968,251.761829 465.933968,251.565829 465.389968,250.898829 C464.715968,250.073829 463.918968,249.259829 463.003968,248.744829 C461.823968,248.081829 461.574968,247.241829 461.893968,245.999829" id="Fill-92"></path>
                        <path d="M449.225068,257.012529 C449.370068,257.240529 449.572068,257.417529 449.540068,257.529529 C449.204068,258.716529 449.967068,259.022529 450.863068,259.240529 C452.590068,259.660529 453.758068,260.765529 454.794068,262.171529 C455.992068,263.796529 457.335068,265.322529 458.702068,266.812529 C459.348068,267.517529 459.868068,268.171529 459.715068,269.185529 C459.641068,269.673529 459.639068,270.173529 459.617068,270.667529 C459.516068,272.868529 459.508068,272.835529 457.459068,273.417529 C456.643068,273.649529 455.892068,274.102529 455.089068,274.394529 C450.544068,276.044529 446.649068,274.283529 443.849068,270.808529 C442.646068,269.316529 441.818068,267.519529 440.835068,265.851529 C440.328068,264.990529 439.412068,264.061529 439.497068,263.248529 C439.573068,262.531529 440.895068,262.019529 441.465068,261.264529 C443.039068,259.180529 445.105068,258.348529 447.662068,258.312529 C448.148068,258.306529 448.624068,257.534529 449.225068,257.012529" id="Fill-98"></path>
                        <path d="M356.931068,71.0140286 C357.668068,72.6180286 358.491068,74.2250286 359.151068,75.8970286 C359.886068,77.7600286 360.518068,79.6690286 361.093068,81.5880286 C361.219068,82.0090286 361.073068,82.6960286 360.785068,83.0260286 C359.428068,84.5790286 357.796068,85.7400286 355.753068,86.2910286 C354.938068,86.5120286 354.208068,87.0510286 353.392068,87.2760286 C352.814068,87.4360286 351.963068,87.5710286 351.568068,87.2730286 C349.660068,85.8390286 347.800068,84.3220286 346.069068,82.6800286 C345.574068,82.2100286 345.372068,81.2270286 345.371068,80.4790286 C345.368068,78.6860286 345.666068,76.8920286 345.639068,75.1010286 C345.625068,74.1570286 345.123068,73.2290286 344.955068,72.2740286 C344.818068,71.4920286 344.614068,70.5860286 344.884068,69.9150286 C345.076068,69.4430286 345.985068,69.1160286 346.623068,69.0000286 C347.955068,68.7590286 349.319068,68.6870286 350.672068,68.5760286 C351.066068,68.5440286 351.487068,68.5500286 351.864068,68.6520286 C353.023068,68.9690286 354.201068,69.2640286 355.305068,69.7230286 C355.893068,69.9670286 356.346068,70.5350286 356.931068,71.0140286" id="Fill-102"></path>
                        <path d="M400.937868,15.0916286 C399.907868,15.8476286 398.890868,16.6216286 397.833868,17.3386286 C397.674868,17.4466286 397.316868,17.3396286 397.082868,17.2506286 C393.747868,15.9856286 390.442868,14.6376286 387.079868,13.4576286 C385.121868,12.7706286 383.979868,10.4796286 384.104868,8.62162861 C384.224868,6.84962861 384.805868,5.06062861 383.986868,3.28362861 C383.921868,3.14362861 384.468868,2.48462861 384.779868,2.44562861 C386.889868,2.18162861 388.658868,1.07262861 390.576868,0.31862861 C392.567868,-0.46437139 394.556868,0.35562861 396.459868,1.06262861 C397.075868,1.29162861 397.678868,1.59162861 398.225868,1.95262861 C398.533868,2.15562861 398.794868,2.51562861 398.940868,2.86262861 C399.371868,3.88562861 399.753868,4.93062861 400.116868,5.98162861 C400.625868,7.45662861 401.142868,8.93062861 401.571868,10.4306286 C401.803868,11.2466286 401.823868,12.1216286 402.004868,12.9556286 C402.222868,13.9596286 401.970868,14.7416286 400.937868,15.0916286" id="Fill-104"></path>
                        <path d="M402.040468,92.3514286 C402.286468,93.5654286 402.673468,95.3134286 402.956468,97.0784286 C402.987468,97.2764286 402.468468,97.7424286 402.157468,97.7904286 C398.051468,98.4334286 393.946468,99.1134286 389.816468,99.5604286 C388.844468,99.6664286 387.772468,98.9684286 386.769468,98.5824286 C386.568468,98.5064286 386.375468,98.1844286 386.336468,97.9484286 C385.734468,94.3184286 384.445468,90.7684286 385.027468,86.9964286 C385.144468,86.2414286 385.227468,85.4794286 385.366468,84.7294286 C385.403468,84.5324286 385.561468,84.2524286 385.723468,84.2014286 C386.920468,83.8244286 388.127468,83.4734286 389.344468,83.1644286 C389.683468,83.0784286 390.102468,83.2654286 390.422468,83.1514286 C393.256468,82.1374286 394.725468,84.0564286 396.277468,85.8204286 C398.061468,87.8474286 399.850468,89.8704286 402.040468,92.3514286" id="Fill-106"></path>
                        <path d="M312.669368,172.960729 C313.973368,174.609729 315.281368,176.255729 316.571368,177.915729 C316.696368,178.076729 316.767368,178.325729 316.764459,178.532729 C316.751368,179.296729 316.731368,180.063729 316.653368,180.823729 C316.206368,185.230729 315.802368,185.688729 310.989368,187.424729 C309.652368,187.906729 308.613368,187.903729 307.584368,186.961729 C306.678368,186.132729 305.514368,185.450729 304.924368,184.436729 C303.710368,182.346729 302.755368,180.099729 301.783368,177.876729 C300.741368,175.496729 301.488368,173.069729 301.809368,170.676729 C301.939368,169.707729 302.769368,169.594729 303.602368,169.638729 C305.144368,169.721729 306.708368,170.092729 308.134368,169.040729 C308.367368,168.869729 309.069368,169.035729 309.351368,169.280729 C310.600368,170.372729 311.775368,171.549729 312.978368,172.695729 C312.875368,172.783729 312.773368,172.872729 312.669368,172.960729" id="Fill-108"></path>
                        <path d="M374.075568,268.019429 C374.935568,267.255429 375.766568,266.672429 376.402568,265.923429 C378.027568,264.007429 380.105568,264.196429 382.213568,264.562429 C383.368568,264.762429 384.498568,265.113429 385.634568,265.417429 C387.827568,266.005429 388.343568,267.972429 389.099568,269.716429 C389.491568,270.619429 389.700568,271.602429 390.115568,272.492429 C390.798568,273.952429 390.656568,276.337429 389.410568,277.213429 C388.350568,277.959429 386.982568,278.285429 385.725568,278.726429 C384.616568,279.116429 383.460568,279.368429 382.349568,279.752429 C380.895568,280.257429 379.817568,279.615429 378.796568,278.715429 C377.682568,277.735429 376.570568,276.752429 375.458568,275.771429 C374.679568,275.085429 373.733568,274.513429 373.177568,273.680429 C372.740568,273.028429 372.602568,272.040429 372.661568,271.224429 C372.750568,269.980429 372.480568,268.451429 374.075568,268.019429" id="Fill-110"></path>
                        <path d="M379.600068,299.507629 C380.808068,299.176629 382.065068,298.645629 383.360068,298.527629 C384.958068,298.381629 386.373068,298.734629 387.311068,300.447629 C388.139068,301.961629 389.492068,303.179629 390.528068,304.590629 C391.382068,305.754629 392.121068,307.004629 392.890068,308.231629 C392.995068,308.398629 393.078068,308.767629 392.996068,308.834629 C391.638068,309.971629 391.604068,312.130629 389.718068,312.899629 C388.080068,313.567629 386.560068,314.399629 384.665068,313.897629 C383.678068,313.635629 382.599068,313.702629 381.561068,313.652629 C380.530068,313.600629 375.959068,310.128629 375.778068,309.100629 C375.534068,307.721629 375.425068,306.316629 375.313068,304.918629 C375.290068,304.640629 375.445068,304.285629 375.633068,304.065629 C376.885068,302.590629 378.168068,301.144629 379.600068,299.507629" id="Fill-112"></path>
                        <path d="M328.308068,101.852829 C327.392068,98.6358286 326.755068,95.6248286 325.650068,92.7978286 C324.931068,90.9598286 326.325068,89.8048286 326.411068,88.2858286 C326.416068,88.1848286 326.777068,88.0618286 326.986068,88.0218286 C329.014068,87.6368286 331.045068,87.2688286 333.074068,86.8908286 C335.235068,86.4878286 337.362068,87.4508286 338.051068,89.4948286 C339.084068,92.5588286 340.490068,95.5668286 340.399068,98.8988286 C340.374068,99.7688286 340.097068,100.785829 339.577068,101.456829 C338.108068,103.352829 336.226068,104.266829 333.932068,103.164829 C333.002068,102.717829 331.982068,102.418829 330.972068,102.190829 C330.013068,101.973829 329.013068,101.935829 328.308068,101.852829" id="Fill-114"></path>
                        <path d="M309.027768,92.7962286 C310.135768,94.3082286 311.240768,95.8062286 312.335768,97.3122286 C312.515768,97.5612286 312.728768,97.8242286 312.797768,98.1122286 C313.402768,100.650229 313.972768,103.196229 314.565768,105.738229 C314.938768,107.342229 314.604768,107.837229 313.079768,108.525229 C312.144768,108.946229 311.373768,109.720229 310.452768,110.185229 C308.474768,111.181229 306.649768,110.203229 304.840768,109.545229 C303.652768,109.112229 302.256768,108.776229 301.427768,107.932229 C300.014768,106.491229 300.061768,104.383229 299.780768,102.462229 C299.564768,100.985229 300.298768,99.8152286 300.945768,98.6682286 C301.718768,97.2962286 302.655768,95.9912286 303.683768,94.7982286 C304.108768,94.3052286 304.940768,94.1312286 305.616768,93.8922286 C306.769768,93.4842286 307.944768,93.1402286 309.027768,92.7962286" id="Fill-116"></path>
                        <path d="M444.797268,228.654129 C445.636268,229.083129 446.532268,229.542129 447.216268,229.891129 C446.326268,231.317129 445.264268,232.607129 444.660268,234.085129 C443.681268,236.483129 441.617268,236.898129 439.526268,237.512129 C436.963268,238.265129 435.311268,236.602129 433.487268,235.413129 C432.516268,234.778129 431.721268,233.874129 430.746268,233.244129 C429.945268,232.726129 429.803268,232.133129 430.006268,231.298129 C430.281268,230.170129 430.494268,229.078129 431.486268,228.232129 C432.219268,227.608129 432.685268,226.673129 433.283268,225.886129 C433.416268,225.711129 433.603268,225.455129 433.772268,225.449129 C434.712268,225.416129 435.667268,225.550129 436.593268,225.433129 C437.769268,225.286129 438.279268,225.981129 438.874268,226.773129 C439.269268,227.300129 439.840268,227.733129 440.406268,228.088129 C441.433268,228.730129 442.492268,229.332129 443.586268,229.849129 C444.009268,230.050129 444.563268,229.974129 445.057268,230.024129 C444.971268,229.572129 444.886268,229.119129 444.797268,228.654129" id="Fill-118"></path>
                        <path d="M379.173268,223.424629 C379.029268,223.249629 378.920268,223.022629 378.738268,222.907629 C377.050268,221.841629 377.282268,219.814629 376.437268,218.328629 C376.354268,218.183629 376.320268,217.961629 376.361268,217.800629 C376.859268,215.828629 377.150268,213.758629 377.990268,211.943629 C378.348268,211.172629 379.851268,210.896629 380.868268,210.483629 C381.314268,210.302629 381.848268,210.293629 382.343268,210.288629 C383.323268,210.278629 383.975268,210.622629 384.405268,211.660629 C385.182268,213.530629 386.197268,215.299629 387.094268,217.120629 C387.245268,217.428629 387.358268,217.778629 387.388268,218.118629 C387.493268,219.326629 387.553268,220.539629 387.636268,221.749629 C387.682268,222.432629 387.817268,223.100629 386.910268,223.433629 C386.665268,223.523629 386.604268,224.090629 386.441268,224.431629 C386.220268,224.893629 386.069268,225.424629 385.736268,225.789629 C384.722268,226.910629 383.573268,227.163629 382.283268,226.153629 C381.199268,225.306629 380.072268,224.514629 378.964268,223.696629 C379.033268,223.606629 379.104268,223.515629 379.173268,223.424629" id="Fill-120"></path>
                        <path d="M258.156668,170.303529 C259.165668,172.220529 260.732668,173.977529 260.220668,176.384529 C260.151668,176.712529 259.797668,177.115529 259.481668,177.231529 C258.057668,177.747529 256.503668,177.965529 255.589668,179.428529 C255.408668,179.717529 254.909668,179.909529 254.534668,179.954529 C252.295668,180.224529 250.119668,178.788529 248.763668,176.948529 C247.482668,175.207529 247.313668,173.344529 248.125668,171.736529 C248.846668,170.307529 250.378668,169.226529 251.705668,168.189529 C252.415668,167.635529 253.518668,167.119529 254.323668,167.264529 C255.409668,167.459529 256.427668,168.238529 257.373668,168.907529 C257.766668,169.184529 257.903668,169.826529 258.156668,170.303529" id="Fill-122"></path>
                    </g>
                </g>
            </g>
        </g>
    </g>
</svg>