<?xml version="1.0" encoding="UTF-8"?>
<svg width="326px" height="303px" viewBox="0 0 326 303" version="1.1" xmlns="http://www.w3.org/2000/svg" xmlns:xlink="http://www.w3.org/1999/xlink">
    <!-- Generator: Sketch 58 (84663) - https://sketch.com -->
    <title>Group 6 Copy</title>
    <desc>Created with Sketch.</desc>
    <g id="Design" stroke="none" stroke-width="1" fill="none" fill-rule="evenodd">
        <g id="My-Sunshine-Landing-v1" transform="translate(-1114.000000, -4825.000000)" fill="#FFEE4C">
            <g id="Group-14" transform="translate(-192.000000, 4673.000000)">
                <g id="Group-6-Copy" transform="translate(1306.000000, 107.000000)">
                    <path d="M222.733768,118.006629 C222.726768,119.610629 223.033768,121.658629 222.607768,123.540629 C222.277768,124.999629 221.156768,126.355629 220.157768,127.568629 C219.099768,128.852629 217.462768,128.854629 215.892768,129.170629 C212.607768,129.831629 211.480768,127.027629 209.442768,125.693629 C208.848768,125.304629 208.222768,124.943629 207.697768,124.472629 C207.175768,124.006629 206.620768,123.485629 206.330768,122.870629 C205.348768,120.784629 204.442768,118.659629 203.587768,116.518629 C203.367768,115.964629 203.376768,115.293629 203.395768,114.679629 C203.410768,114.190629 203.601768,113.706629 203.712768,113.219629 C204.529768,109.678629 204.789768,109.336629 208.420768,109.130629 C210.441768,109.015629 212.590768,108.995629 214.485768,109.578629 C215.796768,109.981629 216.840768,111.417629 217.876768,112.513629 C219.504768,114.236629 221.024768,116.061629 222.733768,118.006629" id="Fill-54"></path>
                    <path d="M235.449077,206.017335 C237.359077,209.810335 239.166077,213.567335 241.141077,217.233335 C241.843077,218.535335 241.889077,219.474335 240.881077,220.591335 C240.258077,221.280335 240.024077,222.323335 239.397077,223.005335 C236.037077,226.660335 230.531077,226.929335 227.038077,223.336335 C225.584077,221.840335 224.921077,219.489335 224.162077,217.429335 C223.575077,215.833335 223.331077,214.096335 223.069077,212.400335 C222.951077,211.631335 222.964077,210.725335 223.268077,210.037335 C223.722077,209.010335 224.488077,208.135335 224.160077,206.876335 C224.127077,206.747335 224.602077,206.394335 224.894077,206.289335 C225.865077,205.945335 226.864077,205.679335 227.844077,205.358335 C230.103077,204.616335 232.334077,205.209335 234.566077,205.509335 C234.887077,205.552335 235.174077,205.852335 235.449077,206.017335" id="Fill-56"></path>
                    <path d="M162.593168,130.591629 C162.449168,130.157629 162.285168,129.663629 162.111168,129.137629 C161.738168,129.123629 161.344168,129.107629 160.590168,129.078629 C162.226168,128.052629 163.563168,127.171629 164.939168,126.358629 C167.494168,124.850629 170.102168,125.198629 172.572168,126.473629 C174.925168,127.688629 177.280168,129.050629 178.605168,131.479629 C179.823168,133.714629 179.958168,136.195629 179.686168,138.696629 C179.661168,138.919629 179.578168,139.135629 179.539168,139.357629 C179.355168,140.408629 179.506168,141.760629 178.901168,142.427629 C178.327168,143.059629 176.962168,142.968629 175.947168,143.204629 C174.364168,143.572629 172.792168,144.003629 171.197168,144.305629 C169.925168,144.546629 168.946168,144.182629 168.032168,143.053629 C166.580168,141.259629 165.159168,139.331629 162.764168,138.563629 C162.400168,138.446629 161.977168,137.839629 161.955168,137.439629 C161.845168,135.380629 161.833168,133.313629 161.858168,131.249629 C161.861168,131.032629 162.325168,130.820629 162.593168,130.591629" id="Fill-64"></path>
                    <path d="M267.436968,78.0731286 C268.667968,77.3531286 269.890968,76.8541286 270.839968,76.0361286 C272.565968,74.5501286 274.750968,74.7741286 276.704968,74.1651286 C279.013968,73.4451286 280.832968,74.7061286 281.985968,76.3051286 C283.716968,78.7031286 284.976968,81.4461286 286.387968,84.0691286 C287.360968,85.8781286 286.257968,87.5231286 285.838968,89.2121286 C285.788968,89.4141286 285.552968,89.5631286 285.446968,89.7601286 C284.904968,90.7711286 284.952968,92.3721286 283.195968,92.1911286 C282.023968,92.0711286 280.888968,92.1751286 279.681968,91.5641286 C277.983968,90.7051286 275.842968,90.7101286 274.161968,89.8291286 C271.823968,88.6051286 269.693968,86.9591286 267.577968,85.3581286 C267.171968,85.0521286 267.170968,84.1261286 267.103968,83.4731286 C266.970968,82.1771286 266.861968,80.8711286 266.870968,79.5701286 C266.873968,79.0771286 267.231968,78.5871286 267.436968,78.0731286" id="Fill-76"></path>
                    <path d="M168.257268,49.8167286 C170.129268,53.0227286 170.935268,56.3487286 171.724268,59.6807286 C171.818268,60.0767286 171.859268,60.4837286 171.942268,60.8827286 C172.505268,63.5857286 171.634268,65.0357286 169.038268,66.0797286 C166.565268,67.0757286 164.234268,66.9917286 161.914268,65.6567286 C161.337268,65.3257286 160.570268,65.3107286 160.019268,64.9527286 C159.442268,64.5777286 158.795268,64.0477286 158.570268,63.4417286 C157.555268,60.6967286 156.685268,57.8997286 155.749268,55.1257286 C155.374268,54.0127286 154.956268,52.9157286 154.577268,51.8047286 C154.493268,51.5587286 154.359268,51.1867286 154.470268,51.0407286 C155.253268,50.0037286 156.023268,48.9377286 156.942268,48.0287286 C157.625268,47.3527286 158.632268,47.0287286 158.806268,45.8567286 C158.834268,45.6667286 159.713268,45.4027286 160.114268,45.5047286 C161.843268,45.9407286 163.652268,46.2817286 165.212268,47.0847286 C166.441268,47.7157286 167.349268,48.9707286 168.257268,49.8167286" id="Fill-78"></path>
                    <path d="M275.789468,154.166829 C274.783468,152.793829 273.451468,151.551829 272.841468,150.020829 C271.741468,147.261829 270.198468,144.360829 271.516468,141.318829 C272.099468,139.972829 273.409468,138.817829 274.635468,137.907829 C275.872468,136.989829 277.404468,136.461829 278.830468,135.814829 C279.112468,135.686829 279.560468,135.671829 279.830468,135.807829 C282.452468,137.125829 284.434468,139.051829 286.089468,141.538829 C287.791468,144.097829 288.072468,147.020829 289.003468,149.771829 C289.111468,150.091829 288.856468,150.737829 288.563468,150.954829 C287.027468,152.090829 285.535468,153.392829 283.812468,154.141829 C282.129468,154.874829 280.201468,155.127829 278.352468,155.377829 C276.776468,155.589829 276.758468,155.454829 275.789468,154.166829" id="Fill-90"></path>
                    <path d="M69.3656678,221.352329 C70.5856678,223.016329 71.8376678,224.658329 72.9946678,226.363329 C73.1956678,226.659329 73.1576678,227.330329 72.9536678,227.651329 C71.8666678,229.363329 70.6206678,230.976329 69.5736678,232.710329 C68.8886678,233.845329 68.1156678,234.546329 66.7296678,234.691329 C64.8366678,234.887329 62.9716678,235.374329 61.0786678,235.563329 C60.3966678,235.631329 59.6376678,235.260329 58.9626678,234.976329 C58.2836678,234.692329 57.6096678,234.334329 57.0396678,233.877329 C56.6796678,233.590329 56.3376678,233.080329 56.2916678,232.637329 C55.8866678,228.720329 55.5376678,224.797329 55.1976678,220.874329 C55.1186678,219.965329 55.3216678,219.002329 54.4346678,218.318329 C54.3496678,218.252329 54.5666678,217.796329 54.6436678,217.521329 C54.9696678,217.669329 55.4906678,217.744329 55.5796678,217.980329 C55.7646678,218.472329 55.6306678,219.080329 55.7966678,219.583329 C55.9586678,220.075329 56.2606678,220.787329 56.6306678,220.877329 C57.1206678,220.998329 58.0896678,220.761329 58.2376678,220.415329 C58.8946678,218.875329 60.4746678,217.871329 60.6256678,216.027329 C60.6816678,215.334329 61.3676678,215.005329 62.0846678,215.474329 C63.3696678,216.315329 64.6756678,217.132329 65.9006678,218.055329 C67.0476678,218.917329 68.1006678,219.904329 69.1966678,220.834329 C69.3316678,220.949329 69.4736678,221.055329 69.6126678,221.165329 C69.5296678,221.228329 69.4476678,221.290329 69.3656678,221.352329" id="Fill-94"></path>
                    <path d="M111.062868,344.311329 C110.761868,344.353329 110.610868,344.399329 110.596868,344.373329 C109.657868,342.589329 107.446868,341.750329 106.982868,339.644329 C106.534868,337.609329 106.269868,335.534329 105.825868,333.497329 C105.500868,332.010329 106.897868,331.907329 107.549868,331.443329 C109.284868,330.211329 111.242868,329.301329 113.074868,328.201329 C113.674868,327.840329 114.018868,327.838329 114.611868,328.294329 C115.295868,328.821329 116.231868,329.006329 117.002868,329.439329 C117.918868,329.954329 119.098868,330.373329 119.599868,331.184329 C121.422868,334.133329 123.086868,337.191329 124.627868,340.298329 C124.973868,340.995329 124.623868,342.064329 124.513868,342.951329 C124.409868,343.798329 124.217868,344.636329 124.030868,345.471329 C123.983868,345.679329 123.851868,345.923329 123.682868,346.041329 C122.096868,347.150329 120.526868,348.396329 118.410868,347.917329 C117.903868,347.802329 117.387868,347.351329 117.051868,346.918329 C115.966868,345.519329 114.979868,344.045329 113.918868,342.626329 C113.626868,342.235329 113.266868,341.816329 112.840868,341.624329 C112.349868,341.404329 111.705868,341.263329 111.221868,341.407329 C111.011868,341.469329 110.990868,342.323329 110.966868,342.821329 C110.944868,343.320329 111.027868,343.824329 111.062868,344.311329" id="Fill-96"></path>
                    <path d="M0.199667781,129.979329 C0.145667781,129.040329 -0.128332219,127.919329 0.0726677807,126.891329 C0.335667781,125.547329 0.904667781,124.246329 1.46966778,122.983329 C2.35066778,121.006329 3.31666778,119.064329 4.30366778,117.136329 C4.48366778,116.784329 4.90066778,116.393329 5.26666778,116.321329 C7.64266778,115.860329 10.0346678,116.029329 12.0906678,117.288329 C13.0416678,117.870329 13.4946678,119.227329 14.2636678,120.157329 C14.6856678,120.666329 15.2966678,121.019329 15.8216678,121.443329 C16.0956678,120.877329 16.3726678,120.312329 16.6416678,119.744329 C16.6926678,119.638329 16.7196678,119.520329 16.8486678,119.131329 C17.3846678,120.909329 18.0406678,122.336329 17.2846678,124.033329 C16.9156678,124.861329 16.9526678,125.887329 16.8836678,126.829329 C16.7746678,128.295329 16.2896678,129.528329 15.0746678,130.445329 C14.4636678,130.906329 14.0036678,131.596329 13.3516678,131.963329 C12.6136678,132.380329 11.7486678,132.594329 10.9166678,132.818329 C9.70166778,133.145329 8.47766778,133.472329 7.23866778,133.675329 C5.32666778,133.988329 3.51266778,134.048329 2.33566778,131.966329 C1.90566778,131.207329 1.01066778,130.710329 0.199667781,129.979329" id="Fill-100"></path>
                    <path d="M328.308068,101.852829 C327.392068,98.6358286 326.755068,95.6248286 325.650068,92.7978286 C324.931068,90.9598286 326.325068,89.8048286 326.411068,88.2858286 C326.416068,88.1848286 326.777068,88.0618286 326.986068,88.0218286 C329.014068,87.6368286 331.045068,87.2688286 333.074068,86.8908286 C335.235068,86.4878286 337.362068,87.4508286 338.051068,89.4948286 C339.084068,92.5588286 340.490068,95.5668286 340.399068,98.8988286 C340.374068,99.7688286 340.097068,100.785829 339.577068,101.456829 C338.108068,103.352829 336.226068,104.266829 333.932068,103.164829 C333.002068,102.717829 331.982068,102.418829 330.972068,102.190829 C330.013068,101.973829 329.013068,101.935829 328.308068,101.852829" id="Fill-114"></path>
                    <path d="M309.027768,92.7962286 C310.135768,94.3082286 311.240768,95.8062286 312.335768,97.3122286 C312.515768,97.5612286 312.728768,97.8242286 312.797768,98.1122286 C313.402768,100.650229 313.972768,103.196229 314.565768,105.738229 C314.938768,107.342229 314.604768,107.837229 313.079768,108.525229 C312.144768,108.946229 311.373768,109.720229 310.452768,110.185229 C308.474768,111.181229 306.649768,110.203229 304.840768,109.545229 C303.652768,109.112229 302.256768,108.776229 301.427768,107.932229 C300.014768,106.491229 300.061768,104.383229 299.780768,102.462229 C299.564768,100.985229 300.298768,99.8152286 300.945768,98.6682286 C301.718768,97.2962286 302.655768,95.9912286 303.683768,94.7982286 C304.108768,94.3052286 304.940768,94.1312286 305.616768,93.8922286 C306.769768,93.4842286 307.944768,93.1402286 309.027768,92.7962286" id="Fill-116"></path>
                </g>
            </g>
        </g>
    </g>
</svg>