<?xml version="1.0" encoding="UTF-8"?>
<svg width="509px" height="334px" viewBox="0 0 509 334" version="1.1" xmlns="http://www.w3.org/2000/svg" xmlns:xlink="http://www.w3.org/1999/xlink">
    <!-- Generator: Sketch 58 (84663) - https://sketch.com -->
    <title>Group 102</title>
    <desc>Created with Sketch.</desc>
    <g id="Design" stroke="none" stroke-width="1" fill="none" fill-rule="evenodd">
        <g id="My-Sunshine-Landing-v1" transform="translate(-754.000000, -3140.000000)" fill="#185FEC">
            <g id="Group-23" transform="translate(100.000000, 3056.000000)">
                <g id="Group-102" transform="translate(654.000000, 83.000000)">
                    <path d="M237.2252,209.6936 C238.4122,212.2046 239.9832,215.3486 241.3822,218.5676 C242.0312,220.0576 241.7092,221.5356 240.6392,222.8736 C240.2662,223.3396 240.1712,224.1056 240.1342,224.7456 C240.0762,225.7286 239.9392,226.3186 238.6792,226.3346 C236.7532,226.3576 234.8672,226.6286 233.0752,227.5956 C231.3222,228.5436 228.6692,227.5476 227.3072,226.1276 C225.4732,224.2156 223.3952,222.5416 221.4752,220.7106 C221.0222,220.2786 220.6002,219.6666 220.4702,219.0696 C219.8062,216.0266 219.2432,212.9616 218.6472,209.9036 C218.6132,209.7276 218.5242,209.4786 218.6042,209.3766 C219.7522,207.9066 220.6532,205.9966 222.1552,205.1066 C224.5682,203.6766 227.3252,203.1196 230.3352,203.4526 C231.7542,203.6096 232.1752,204.2796 232.8782,205.0486 C234.1282,206.4176 235.4102,207.7576 237.2252,209.6936" id="Fill-1"></path>
                    <path d="M170.023,204.6047 C168.67,202.9347 167.663,201.2617 166.255,200.0547 C164.321,198.3967 163.987,196.3047 163.794,194.0357 C163.645,192.2657 163.298,190.5057 163.269,188.7377 C163.251,187.6437 163.354,186.3267 163.943,185.4907 C165.174,183.7407 166.66,182.1297 168.234,180.6697 C169.897,179.1277 170.322,178.1487 169.362,175.8717 C169.896,176.1867 170.2,176.3087 170.429,176.5137 C170.989,177.0117 171.438,177.6757 172.065,178.0497 C176.375,180.6187 179.395,184.2627 181.218,188.9047 C182.271,191.5847 183.257,194.2917 184.199,197.0137 C184.328,197.3857 184.134,197.9807 183.894,198.3417 C183.551,198.8577 182.996,199.2247 182.586,199.7027 C180.988,201.5617 179.079,202.6227 176.55,202.9217 C174.292,203.1887 172.103,204.0457 170.023,204.6047" id="Fill-3"></path>
                    <path d="M235.0347,172.0012 C235.6017,173.4372 236.1557,174.8782 236.7387,176.3082 C237.7937,178.8962 238.8507,181.4812 239.9387,184.0552 C240.2097,184.6952 240.1447,185.0722 239.5477,185.5362 C238.7387,186.1632 238.0177,186.9322 237.3657,187.7282 C235.2937,190.2582 232.3897,190.5592 229.4467,190.7692 C229.1497,190.7902 228.7747,190.7152 228.5467,190.5402 C226.5067,188.9782 224.2667,187.5932 222.5217,185.7442 C220.1677,183.2502 218.9927,180.1542 219.6527,176.5912 C219.7667,175.9732 219.8227,175.3312 219.8027,174.7032 C219.7227,172.2502 221.1777,170.5992 222.7317,168.9962 C223.0787,168.6392 223.4977,168.3522 223.8387,167.9882 C225.3257,166.4052 225.3137,166.4122 227.3637,167.2762 C228.0727,167.5752 228.8147,167.7912 229.5437,168.0422 C231.7497,168.8022 233.5747,170.0572 235.0347,172.0012" id="Fill-5"></path>
                    <path d="M374.9029,147.8029 C375.6029,147.2889 376.0439,146.9689 376.4819,146.6439 C377.4119,145.9529 378.3809,145.6259 379.5139,146.1889 C381.4439,147.1469 383.4019,148.0499 385.3169,149.0369 C385.6869,149.2279 386.1059,149.6569 386.1779,150.0379 C386.7849,153.2029 389.0289,155.4259 390.7399,157.9279 C391.7619,159.4229 392.3979,160.7909 391.6499,162.5539 C391.5119,162.8789 391.5289,163.2679 391.4479,163.6209 C390.6769,166.9749 389.4349,167.9749 385.9299,168.2449 C384.9569,168.3209 384.0009,168.8239 383.0409,168.812111 C381.5109,168.7939 379.8309,168.8489 378.5039,168.2399 C377.2319,167.6569 376.3879,166.1989 375.2549,165.2469 C372.8249,163.2069 372.0199,160.5739 372.2799,157.5359 C372.4489,155.5569 372.8979,153.5849 372.8839,151.6119 C372.8709,149.7189 373.1499,148.2369 374.9029,147.8029" id="Fill-7"></path>
                    <path d="M269.2672,277.6955 C269.0042,279.2785 268.9072,280.5995 269.8022,281.7625 C270.3832,282.5185 270.3022,282.9795 269.3622,283.2045 C268.0322,283.5215 266.7502,284.2565 265.3032,283.6005 C265.0092,283.4675 264.5662,283.5455 264.2312,283.6485 C262.4532,284.1975 261.2852,283.1895 260.2282,282.0485 C259.3422,281.0905 258.3732,280.1135 257.8312,278.9615 C257.4082,278.0605 257.6422,276.8685 257.4762,275.8235 C257.2462,274.3845 257.0292,272.9275 256.5942,271.5455 C256.1422,270.1035 256.5412,267.6845 257.7902,266.6565 C259.0582,265.6135 260.3202,264.3905 261.8042,263.8295 C263.7512,263.0925 265.7672,262.1095 267.9572,262.4655 C268.6792,262.5825 269.3842,263.1055 269.9862,263.5845 C271.3642,264.6795 272.7962,265.7495 273.9802,267.0385 C275.7542,268.9705 277.4362,271.1495 277.3202,273.8995 C277.2482,275.5805 276.4222,277.2445 275.8452,278.8835 C275.5172,279.8175 275.3342,280.8145 274.2302,281.3755 C273.2442,281.8765 272.7312,282.0205 272.3192,280.7915 C271.8552,279.4085 270.8372,278.4565 269.2672,277.6955" id="Fill-9"></path>
                    <path d="M344.5543,124.3879 C345.0933,125.7419 345.8293,127.0549 346.1213,128.4599 C346.5053,130.3069 347.2603,131.8909 348.4983,133.2569 C349.2273,134.0599 349.3473,134.8089 348.9273,135.8429 C348.5923,136.6679 348.6573,137.6469 348.4653,138.5409 C348.3753,138.9589 348.1143,139.3449 347.9083,139.7329 C347.5133,140.4759 347.1563,141.2459 346.6783,141.9329 C346.4103,142.3169 345.9643,142.7579 345.5453,142.8229 C343.8513,143.0819 342.1313,143.1769 340.4283,143.3879 C339.1183,143.5509 337.8203,144.0459 336.5183,143.3739 C336.0903,143.1539 335.5183,143.0339 335.2663,142.6849 C333.9023,140.7979 332.3743,138.9719 331.3643,136.8989 C329.9613,134.0229 329.1013,130.8749 329.5733,127.6309 C330.0183,124.5659 331.6973,123.1809 334.8053,122.7669 C335.7453,122.6409 336.7463,122.6409 337.6043,122.2959 C340.4983,121.1289 342.6073,122.0829 344.2493,124.5769 C344.3513,124.5139 344.4523,124.4509 344.5543,124.3879" id="Fill-11"></path>
                    <path d="M192.3892,233.1066 C190.2532,229.8486 188.9672,227.3156 189.2532,224.2476 C189.2852,223.9046 188.9892,223.5086 189.0712,223.1996 C189.2902,222.3766 189.4152,221.3616 189.9672,220.8216 C192.1252,218.7076 194.8152,217.4046 197.6132,216.3266 C197.8662,216.2296 198.2172,216.1676 198.3332,215.9746 C199.2852,214.4006 200.0622,215.0096 201.1502,215.9446 C203.1902,217.6986 205.3892,219.2696 207.5452,220.8856 C209.3462,222.2346 209.7432,223.3816 209.2042,225.5776 C209.0012,226.4076 208.9692,227.2826 208.8862,228.1386 C208.6292,230.8156 207.7072,233.3896 205.5982,234.9196 C203.4942,236.4466 200.7302,237.8316 198.1382,236.7916 C195.8222,235.8616 193.1082,234.9616 192.3892,233.1066" id="Fill-13"></path>
                    <path d="M406.4371,137.4709 C405.4631,137.6109 404.4841,137.8989 403.5191,137.8569 C401.9881,137.7899 400.4251,137.6579 398.9531,137.2669 C397.3811,136.8489 395.9261,136.0139 394.3721,135.5099 C390.7911,134.3459 390.9431,131.1309 390.3751,128.3449 C390.0421,126.7089 389.8321,125.0289 389.7781,123.3619 C389.7321,121.9619 389.9911,120.5529 390.1221,119.1479 C390.1281,119.0649 390.1821,118.9329 390.2421,118.9149 C392.2341,118.3289 393.5911,116.2629 395.9071,116.4539 C397.7461,116.6049 399.6251,116.6259 401.4001,117.0579 C402.4351,117.3099 403.5771,118.0609 404.1941,118.9279 C406.5821,122.2749 407.9371,126.0159 408.0591,130.2009 C408.1081,131.8889 408.8831,133.5769 407.8781,135.2189 C407.4361,135.9419 406.9651,136.6479 406.4371,137.4709" id="Fill-15"></path>
                    <path d="M349.0797,209.4426 C348.5537,207.4466 347.9077,205.3276 347.4547,203.1686 C347.1507,201.7196 347.1477,200.2116 346.9567,198.7356 C346.8177,197.6636 347.1857,197.3366 348.2907,197.0636 C349.6997,196.7136 350.9847,195.8446 352.3087,195.1686 C353.0727,194.7776 353.8007,194.3136 354.5587,193.9086 C354.7857,193.7876 355.0757,193.6606 355.3107,193.6966 C357.8347,194.0906 360.3587,194.4866 362.8667,194.9656 C363.3047,195.0496 363.7497,195.4636 364.0447,195.8396 C364.5917,196.5376 365.0267,197.3206 365.5167,198.0646 C366.2487,199.1796 367.2467,200.2096 367.6387,201.4336 C367.9307,202.3476 367.4657,203.5146 367.2947,204.5626 C367.0847,205.8426 366.6547,207.1126 366.6337,208.3926 C366.5957,210.6076 366.5397,210.8256 364.5397,211.7406 C363.3057,212.3046 362.1127,212.9616 360.8917,213.5526 C360.6117,213.6886 360.2367,213.8796 359.9937,213.7956 C356.6827,212.6296 353.3827,211.4276 350.0907,210.2076 C349.7677,210.0876 349.5157,209.7796 349.0797,209.4426" id="Fill-17"></path>
                    <path d="M401.1607,245.9035 C400.3437,245.0955 399.5107,244.3025 398.7177,243.4705 C398.5167,243.2615 398.3847,242.9435 398.3237,242.6535 C397.8717,240.4885 397.4437,238.3175 397.0147,236.1475 C396.9707,235.9275 396.8707,235.6635 396.9467,235.4835 C397.7587,233.5735 398.4277,231.5725 399.4857,229.8065 C400.4047,228.2755 403.3957,228.0535 405.2417,228.4855 C406.8987,228.8735 408.2987,229.5335 409.5377,230.5865 C411.1137,231.9265 412.6167,233.3525 414.1417,234.7535 C414.3397,234.9345 414.5637,235.1595 414.6277,235.4025 C415.3737,238.2665 416.7327,240.9945 416.5697,244.0625 C416.4927,245.5225 415.9697,246.7125 414.5727,247.3605 C412.8697,248.1515 411.2207,249.1415 409.4347,249.6495 C406.5497,250.4715 404.1107,249.3275 402.0677,247.2615 C401.6927,246.8825 401.3597,246.4635 401.0077,246.0615 C401.0577,246.0085 401.1097,245.9565 401.1607,245.9035" id="Fill-19"></path>
                    <path d="M309.0591,127.4157 C310.8731,130.0527 312.1721,132.4647 313.9721,134.4137 C315.9831,136.5927 316.2251,139.3357 317.0511,141.8767 C317.5231,143.3247 317.4641,145.0027 317.3561,146.5577 C317.2941,147.4377 316.6591,148.2817 316.2621,149.1317 C315.6921,150.3547 314.7041,149.6387 313.8711,149.6257 C311.8481,149.5957 309.8251,149.5707 307.8021,149.5067 C307.4631,149.4967 307.1091,149.3467 306.7981,149.1897 C304.1261,147.8347 302.5431,145.4517 301.0081,143.0257 C300.8391,142.7587 300.7631,142.4157 300.5511,142.1987 C298.7641,140.3707 298.9791,138.1687 299.3311,135.9307 C299.4341,135.2757 299.6511,134.5887 299.5461,133.9617 C299.2261,132.0397 300.2751,130.3887 300.5041,128.5817 C300.5381,128.3097 301.0051,127.9717 301.3331,127.8787 C303.0291,127.3997 304.7271,126.7907 306.4611,126.6327 C307.4441,126.5427 308.4971,127.2297 309.0591,127.4157" id="Fill-21"></path>
                    <path d="M90.4371,189.1955 C90.7181,189.6495 90.9271,189.9855 91.3451,190.6595 C90.2451,190.3435 89.4571,190.1185 88.6681,189.8925 C88.6761,189.8305 88.6841,189.7665 88.6921,189.7035 C89.1011,189.7085 89.5101,189.7135 90.0411,189.7185 C89.9151,189.3645 89.8831,189.0845 89.7371,188.8905 C87.5321,185.9615 85.2991,183.0525 83.1081,180.1135 C82.7421,179.6215 82.4231,179.0315 82.2881,178.4405 C81.8331,176.4595 82.0221,176.1615 83.8081,175.2155 C84.2211,174.9965 84.7121,174.7185 84.9121,174.3355 C86.5341,171.2175 89.5421,170.5845 92.4101,171.0105 C94.3801,171.3045 96.3861,172.7985 97.9181,174.2405 C99.9631,176.1655 101.8081,178.2045 104.4761,179.3495 C106.3511,180.1545 106.0681,182.1345 104.4711,184.0855 C103.2661,185.5585 101.7881,186.4645 100.2771,187.4515 C99.9111,187.6905 99.7621,188.2725 99.5291,188.7055 C99.3901,188.9655 99.3551,189.3665 99.1471,189.4895 C97.8001,190.2885 96.4881,191.3415 94.7961,191.0245 C94.0791,190.8905 93.2981,190.4935 92.7871,189.9765 C91.7201,188.8995 91.6071,188.7655 90.4371,189.1955" id="Fill-23"></path>
                    <path d="M290.6802,83.1203 C290.8192,84.1553 290.9572,85.1893 291.0952,86.2143 C289.3772,86.7183 285.2632,85.1003 284.4372,83.5713 C284.2012,83.1373 283.9322,82.6693 283.8862,82.1973 C283.7592,80.9003 283.7672,79.5913 283.6732,78.2903 C283.6212,77.5723 283.5992,76.8123 283.3442,76.1553 C282.4642,73.8833 283.2012,71.7033 283.6012,69.5013 C283.6432,69.2723 283.8472,69.0003 284.0532,68.8863 C285.6712,67.9873 287.2572,67.0023 288.9542,66.2833 C290.4852,65.6343 292.0712,66.0953 293.3162,67.0753 C295.4402,68.7473 297.7502,70.3423 299.3772,72.4383 C300.7842,74.2513 301.7622,76.5743 301.2652,79.1723 C300.9862,80.6303 301.1202,82.1633 300.8872,83.6343 C300.7812,84.3073 300.3582,85.0333 299.8662,85.5223 C298.3452,87.0363 296.3852,87.1543 294.3882,86.9433 C293.6382,86.8643 293.1522,86.5873 292.9052,85.6663 C292.6332,84.6563 291.8802,83.7743 291.3372,82.8373 C291.1182,82.9313 290.9002,83.0263 290.6802,83.1203" id="Fill-25"></path>
                    <path d="M191.0103,173.1672 C191.2023,173.6842 191.3653,174.1212 191.6463,174.8772 C190.8383,174.4652 189.8073,174.7962 190.3913,173.5742 C190.4693,173.4102 190.4153,173.1242 190.3233,172.9442 C188.9923,170.3262 187.5803,167.7462 186.3253,165.0922 C185.6463,163.6512 184.7183,162.2682 184.8853,160.5092 C184.9793,159.5312 185.2183,158.8322 186.2853,158.6822 C187.4703,158.5152 188.1883,157.8472 188.9063,156.8622 C189.9083,155.4912 191.6233,155.4542 193.2103,155.4232 C193.6603,155.4142 194.1413,155.6372 194.5603,155.5422 C196.3603,155.1372 197.5043,156.1612 198.5073,157.3512 C199.9883,159.1042 201.2863,161.0162 202.8193,162.7202 C203.8293,163.8432 205.0543,164.8052 206.2913,165.6872 C207.9023,166.8342 208.1233,168.0902 206.7633,169.4682 C205.9443,170.2972 205.2043,171.2572 204.2493,171.8852 C203.3423,172.4822 202.1953,172.7082 201.1653,173.1282 C200.5743,173.3682 199.7723,173.4282 200.0063,174.4652 C200.0423,174.6232 199.5563,174.9682 199.2583,175.1222 C197.9483,175.8012 196.5643,176.1562 195.0803,175.9002 C194.2733,175.7612 193.5793,175.5722 193.1713,174.6372 C192.8323,173.8622 192.4313,172.7652 191.0103,173.1672" id="Fill-27"></path>
                    <path d="M408.9576,74.8689 C407.6056,72.6469 406.1266,70.5779 405.9726,68.0009 C405.8726,66.3489 405.8876,64.6219 406.2856,63.0379 C406.4886,62.2329 407.5506,61.4409 408.4096,61.0559 C409.4966,60.5689 410.7716,60.5049 411.9656,60.2539 C412.4516,60.1519 412.9666,60.1109 413.4146,59.9179 C415.4926,59.0249 416.1356,59.1379 417.7946,60.6969 C418.2476,61.1219 418.8416,61.4029 419.2706,61.8459 C420.1376,62.7389 421.0106,63.6419 421.7446,64.6409 C422.8806,66.1889 423.9816,67.7739 424.9466,69.4319 C425.7796,70.8609 425.6986,72.4439 425.2436,74.0199 C424.9426,75.0619 424.7126,76.1239 424.4666,77.1819 C424.1656,78.4779 422.2496,79.8639 420.9236,79.7539 C419.5456,79.6399 418.1396,79.3379 416.7916,79.4999 C414.1526,79.8179 412.4286,78.3669 410.7196,76.7889 C410.0616,76.1809 409.5006,75.4669 408.9576,74.8689" id="Fill-29"></path>
                    <path d="M304.3648,205.8781 C305.9648,205.0201 307.2948,204.2491 308.6738,203.5781 C310.6328,202.6251 312.4618,201.3181 314.7118,201.1011 C315.1948,201.0541 315.8218,201.1441 316.1848,201.4251 C318.0378,202.8591 319.7488,204.4871 321.6668,205.8211 C322.6528,206.5071 323.1628,207.2771 323.5008,208.3601 C324.2638,210.8031 325.1308,213.2131 325.9298,215.6441 C326.0168,215.9081 326.0638,216.3031 325.9298,216.5051 C325.2288,217.5691 324.4928,218.6151 323.7038,219.6161 C323.4188,219.9781 322.9818,220.3691 322.5588,220.4481 C320.4008,220.8531 318.2308,221.2081 316.0518,221.4591 C315.5708,221.5151 314.7278,221.2111 314.5748,220.8511 C313.6778,218.7431 311.9568,217.3991 310.0308,216.6661 C308.0278,215.9041 306.9988,214.5441 306.1398,212.8191 C306.0008,212.5401 305.8958,212.1371 305.6638,212.0261 C303.4688,210.9821 304.2888,208.6451 303.5308,206.9911 C303.4238,206.7561 304.1648,206.1321 304.3648,205.8781" id="Fill-31"></path>
                    <path d="M282.1656,226.4533 C280.6196,227.2063 279.2456,227.8883 277.8566,228.5393 C277.6286,228.6463 277.2896,228.7283 277.0826,228.6383 C275.1856,227.8053 273.2156,227.0823 271.4466,226.0253 C269.8946,225.0983 268.5676,223.7903 267.1586,222.6283 C266.9656,222.4693 266.7946,222.1963 266.7516,221.9523 C266.3476,219.6663 266.0066,217.3683 265.5826,215.0863 C265.0076,211.9933 266.6346,208.9433 269.5716,207.7003 C269.8196,207.5953 270.0386,207.4213 270.2716,207.2823 C272.2586,206.1053 272.5416,206.1753 274.3946,207.6373 C275.8756,208.8053 277.5816,209.7133 278.9526,210.9893 C281.9536,213.7833 283.8716,217.3013 284.8516,221.2603 C285.0566,222.0903 284.6766,223.2163 284.2286,224.0163 C283.6916,224.9763 282.7946,225.7353 282.1656,226.4533" id="Fill-33"></path>
                    <path d="M250.0836,151.7961 C248.1156,152.3171 246.2336,153.0951 244.3016,153.2531 C242.2626,153.4191 240.0416,153.6961 238.3566,151.8061 C237.1406,150.4401 235.7156,149.2611 234.4046,147.9771 C234.1886,147.7661 233.9626,147.4541 233.9406,147.1731 C233.6966,143.9421 232.4456,140.8091 232.9936,137.4991 C233.1276,136.6941 233.1396,135.8621 233.3506,135.0821 C233.4376,134.7541 233.8556,134.4301 234.2006,134.2751 C235.0136,133.9081 235.8616,133.6141 236.7126,133.3451 C238.4636,132.7901 240.2026,132.0271 241.9956,131.8531 C242.7436,131.7801 243.8846,132.8271 244.3856,133.6471 C246.3106,136.7961 248.1096,140.0281 249.8256,143.2981 C250.4416,144.4751 250.7836,145.8241 251.0736,147.1341 C251.3266,148.2761 251.3736,149.4481 250.4156,150.4461 C250.1236,150.7501 250.1746,151.3841 250.0836,151.7961" id="Fill-35"></path>
                    <path d="M477.5738,299.0295 C477.8498,300.4955 478.1898,302.2625 478.5098,304.0335 C478.5718,304.3835 478.6718,304.7965 478.5508,305.0985 C478.0598,306.3295 477.5498,307.5595 476.9348,308.7315 C476.1328,310.2595 474.5798,310.5735 473.0898,311.1465 C470.8878,311.9925 469.3818,311.1745 467.6998,309.9305 C466.5328,309.0665 465.0248,308.6725 463.6968,308.0115 C463.2758,307.8015 462.8538,307.4725 462.5878,307.0905 C461.1088,304.9715 459.6548,302.8365 458.2508,300.6685 C457.9768,300.2455 457.8358,299.6515 457.8548,299.1445 C457.9008,297.8805 457.9508,296.5905 458.2498,295.3715 C458.4048,294.7385 458.9758,293.9765 459.5568,293.7185 C462.1368,292.5785 464.8978,291.7305 467.6938,292.0615 C469.1058,292.2295 470.4708,293.3815 471.7098,294.2905 C473.6598,295.7225 475.4858,297.3275 477.5738,299.0295" id="Fill-37"></path>
                    <path d="M222.7339,119.0061 C222.7269,120.6101 223.0339,122.6581 222.6079,124.5401 C222.2779,125.9991 221.1569,127.3551 220.1579,128.5681 C219.0999,129.8521 217.4629,129.8541 215.8929,130.1701 C212.6079,130.8311 211.4809,128.0271 209.4429,126.6931 C208.8489,126.3041 208.2229,125.9431 207.6979,125.4721 C207.1759,125.0061 206.6209,124.4851 206.3309,123.8701 C205.3489,121.7841 204.4429,119.6591 203.5879,117.5181 C203.3679,116.9641 203.3769,116.2931 203.3959,115.6791 C203.4109,115.1901 203.6019,114.7061 203.7129,114.2191 C204.5299,110.6781 204.7899,110.3361 208.4209,110.1301 C210.4419,110.0151 212.5909,109.9951 214.4859,110.5781 C215.7969,110.9811 216.8409,112.4171 217.8769,113.5131 C219.5049,115.2361 221.0249,117.0611 222.7339,119.0061" id="Fill-39"></path>
                    <path d="M278.8755,175.7961 C280.7855,179.5891 282.5925,183.3461 284.5675,187.0121 C285.2695,188.3141 285.3155,189.2531 284.3075,190.3701 C283.6845,191.0591 283.4505,192.1021 282.8235,192.7841 C279.4635,196.4391 273.9575,196.7081 270.4645,193.1151 C269.0105,191.6191 268.3475,189.2681 267.5885,187.2081 C267.0015,185.6121 266.7575,183.8751 266.4955,182.1791 C266.3775,181.4101 266.3905,180.5041 266.6945,179.8161 C267.1485,178.7891 267.9145,177.9141 267.5865,176.6551 C267.5535,176.5261 268.0285,176.1731 268.3205,176.0681 C269.2915,175.7241 270.2905,175.4581 271.2705,175.1371 C273.5295,174.3951 275.7605,174.9881 277.9925,175.2881 C278.3135,175.3311 278.6005,175.6311 278.8755,175.7961" id="Fill-41"></path>
                    <path d="M359.7193,122.9206 C358.8593,121.4886 358.0993,120.0326 358.3023,118.0876 C358.5243,115.9636 358.2833,113.7766 358.1093,111.6286 C357.9913,110.1876 358.8233,108.9546 360.1153,108.3366 C362.5253,107.1826 365.0643,107.2326 367.6073,107.222589 C368.0563,107.2206 368.5703,107.4986 368.9463,107.7886 C372.0733,110.1926 374.7343,112.9766 375.8203,116.9086 C376.3293,118.7536 375.4703,120.3296 374.6743,121.9286 C373.6533,123.9816 371.8323,124.7506 369.7983,125.2896 C369.1943,125.4496 368.6353,125.9336 368.0433,125.9556 C366.9283,125.9976 365.8033,125.8176 364.6843,125.7186 C364.4133,125.6946 364.1443,125.5716 363.8803,125.5876 C361.8853,125.7036 360.8793,124.2516 359.7193,122.9206" id="Fill-43"></path>
                    <path d="M419.9752,320.5529 C419.4622,320.7179 419.0592,320.8479 418.5212,321.0209 C419.0022,320.4349 419.3752,319.9709 419.7592,319.5159 C422.9012,315.7949 427.2502,314.6539 431.8162,316.9259 C433.2972,317.6619 434.8462,318.4279 436.0482,319.5259 C438.0522,321.3559 438.4582,324.0089 438.8502,326.5569 C439.0272,327.7089 438.9762,328.9119 438.8802,330.0809 C438.8492,330.4679 438.4302,330.9809 438.0562,331.1559 C435.9792,332.1329 433.8792,333.0679 431.7512,333.9259 C430.6192,334.3829 429.4652,334.3259 428.4232,333.5259 C427.1712,332.5619 425.8932,331.6309 424.6182,330.6979 C424.4012,330.5379 424.1462,330.3409 423.9002,330.3259 C420.8502,330.1409 420.5652,327.7329 420.2212,325.5559 C420.0432,324.4289 419.3552,323.1239 420.5322,322.0059 C420.6622,321.8819 420.2132,321.1489 419.9752,320.5529" id="Fill-45"></path>
                    <path d="M162.5933,131.591 C162.4493,131.157 162.2853,130.663 162.1113,130.137 C161.7383,130.123 161.3443,130.107 160.5903,130.078 C162.2263,129.052 163.5633,128.171 164.9393,127.358 C167.4943,125.85 170.1023,126.198 172.5723,127.473 C174.9253,128.688 177.2803,130.05 178.6053,132.479 C179.8233,134.714 179.9583,137.195 179.6863,139.696 C179.6613,139.919 179.5783,140.135 179.5393,140.357 C179.3553,141.408 179.5063,142.76 178.9013,143.427 C178.3273,144.059 176.9623,143.968 175.9473,144.204 C174.3643,144.572 172.7923,145.003 171.1973,145.305 C169.9253,145.546 168.9463,145.182 168.0323,144.053 C166.5803,142.259 165.1593,140.331 162.7643,139.563 C162.4003,139.446 161.9773,138.839 161.9553,138.439 C161.8453,136.38 161.8333,134.313 161.8583,132.249 C161.8613,132.032 162.3253,131.82 162.5933,131.591" id="Fill-48"></path>
                    <path d="M412.1353,149.1096 C413.4683,148.7026 415.1813,148.0936 416.9393,147.6726 C417.9033,147.4416 418.9453,147.4516 419.9473,147.4826 C422.5753,147.5646 423.4503,149.8356 424.7473,151.5166 C426.0353,153.1866 427.1713,154.9726 428.4013,156.6886 C429.6453,158.4246 429.6053,158.4826 428.3863,160.2076 C427.5063,161.4516 426.7183,162.7746 426.0323,164.1336 C425.5153,165.1606 424.8673,165.5536 423.7013,165.5456 C421.7243,165.5306 419.7463,165.7516 417.7683,165.8296 C416.7273,165.8706 415.3613,164.7566 414.9573,163.8076 C414.7563,163.3346 414.3463,162.8986 413.9303,162.5766 C411.7063,160.8546 410.2113,158.6416 409.5013,155.9426 C408.8083,153.3076 409.9213,151.2556 412.1353,149.1096" id="Fill-50"></path>
                    <path d="M508.4634,281.4318 C506.5744,281.5718 504.9864,282.2818 503.5014,283.5378 C502.1394,284.6908 500.5474,285.6868 498.8924,286.3258 C498.1304,286.6188 496.9714,285.9088 496.0004,285.6258 C495.2784,285.4148 494.5504,285.2038 493.8604,284.9098 C493.3514,284.6918 492.7314,284.4478 492.4504,284.0228 C491.2544,282.2088 489.9104,280.4278 489.1074,278.4378 C488.2604,276.3448 487.4014,274.0808 489.4224,271.9038 C490.5004,270.7428 491.0934,269.1418 492.0234,267.8228 C492.2844,267.4518 492.9794,267.1668 493.4494,267.2008 C495.2034,267.3248 496.9524,267.5618 498.6904,267.8378 C499.0954,267.9018 499.5154,268.2198 499.8194,268.5288 C502.3524,271.1018 504.7884,273.7718 507.3984,276.2628 C509.0244,277.8168 509.0504,279.5038 508.4634,281.4318" id="Fill-52"></path>
                    <path d="M256.3882,107.176 C254.3232,107.019 252.6132,107.576 250.8952,108.56 C249.3672,109.436 247.5972,110.077 245.8632,110.327 C245.0012,110.452 243.9792,109.466 243.0302,108.982 C242.3962,108.659 241.7382,108.375 241.1392,107.996 C240.7072,107.723 240.1752,107.398 239.9982,106.968 C239.1392,104.881 238.1342,102.804 237.6662,100.619 C237.2182,98.529 236.8922,96.269 239.0292,94.548 C240.2392,93.572 241.1782,92.254 242.1972,91.053 C242.8062,90.335 243.4252,90.143 244.3422,90.499 C245.8452,91.083 247.4042,91.524 248.9272,92.061 C249.1962,92.155 249.4702,92.379 249.6312,92.618 C251.9752,96.097 254.2672,99.613 256.6462,103.068 C257.6952,104.591 256.6502,105.797 256.3882,107.176" id="Fill-55"></path>
                    <path d="M367.565,238.7023 C368.607,239.9153 369.65,241.1283 370.687,242.3453 C370.773,242.4463 370.865,242.5773 370.877,242.7013 C371.044,244.4763 371.354,246.2573 371.309,248.0283 C371.266,249.7073 370.099,250.7493 368.639,251.5283 C367.421,252.1793 366.386,253.2683 365.113,253.6843 C364.135,254.0053 362.82,253.8213 361.819,253.4363 C359.588,252.5783 357.38,251.5893 355.328,250.3763 C354.34,249.7933 353.294,248.6863 353.032,247.6303 C352.55,245.6863 352.651,243.6013 352.465,241.5803 C352.31,239.8873 353.539,238.6693 354.57,238.0933 C357.007,236.7323 359.74,235.8973 362.368,234.8883 C362.617,234.7923 363.036,234.8623 363.26,235.0193 C364.809,236.1063 366.328,237.2363 367.856,238.3513 C367.759,238.4693 367.662,238.5853 367.565,238.7023" id="Fill-57"></path>
                    <path d="M267.4371,99.0725 C268.6681,98.3525 269.8911,97.8535 270.8401,97.0355 C272.5661,95.5495 274.7511,95.7735 276.7051,95.1645 C279.0141,94.4445 280.8331,95.7055 281.9861,97.3045 C283.7171,99.7025 284.9771,102.4455 286.3881,105.0685 C287.3611,106.8775 286.2581,108.5225 285.8391,110.2115 C285.7891,110.4135 285.5531,110.5625 285.4471,110.7595 C284.9051,111.7705 284.9531,113.3715 283.1961,113.1905 C282.0241,113.0705 280.8891,113.1745 279.6821,112.5635 C277.9841,111.7045 275.8431,111.7095 274.1621,110.8285 C271.8241,109.6045 269.6941,107.9585 267.5781,106.3575 C267.1721,106.0515 267.1711,105.1255 267.1041,104.4725 C266.9711,103.1765 266.8621,101.8705 266.8711,100.5695 C266.8741,100.0765 267.2321,99.5865 267.4371,99.0725" id="Fill-59"></path>
                    <path d="M168.2574,50.8161 C170.1294,54.0221 170.9354,57.3481 171.7244,60.6801 C171.8184,61.0761 171.8594,61.4831 171.9424,61.8821 C172.5054,64.5851 171.6344,66.0351 169.0384,67.0791 C166.5654,68.0751 164.2344,67.9911 161.9144,66.6561 C161.3374,66.3251 160.5704,66.3101 160.0194,65.9521 C159.4424,65.5771 158.7954,65.0471 158.5704,64.4411 C157.5554,61.6961 156.6854,58.8991 155.7494,56.1251 C155.3744,55.0121 154.9564,53.9151 154.5774,52.8041 C154.4934,52.5581 154.3594,52.1861 154.4704,52.0401 C155.2534,51.0031 156.0234,49.9371 156.9424,49.0281 C157.6254,48.3521 158.6324,48.0281 158.8064,46.8561 C158.8344,46.6661 159.7134,46.4021 160.1144,46.5041 C161.8434,46.9401 163.6524,47.2811 165.2124,48.0841 C166.4414,48.7151 167.3494,49.9701 168.2574,50.8161" id="Fill-61"></path>
                    <path d="M361.2818,40.051 C361.7958,39.96 362.2938,39.761 362.7708,39.805 C364.6638,39.978 366.5468,40.372 368.4378,40.405 C370.1048,40.433 371.5918,41.075 373.1358,41.461 C373.9098,41.654 374.6528,42.525 375.1278,43.269 C377.1638,46.465 379.0748,49.739 381.0798,52.954 C381.5188,53.657 381.3998,54.11 380.8098,54.572 C378.3698,56.489 375.5638,57.372 372.5418,58.018 C370.3988,58.476 368.4548,58.126 366.4138,57.913 C365.4108,57.809 364.8128,57.358 364.5298,56.442 C363.4628,52.996 362.4008,49.549 362.3998,45.887 C362.3988,44.889 362.4958,43.87 362.3218,42.901 C362.1598,41.998 361.6978,41.148 361.2818,40.051" id="Fill-63"></path>
                    <path d="M335.9615,159.2326 C336.4765,157.2866 338.0665,156.9196 339.4975,158.3326 C341.3555,160.1666 343.1725,162.0476 344.8985,164.0046 C345.7985,165.0256 346.0835,166.3066 345.6335,167.6956 C344.9525,169.7916 344.2505,171.8866 343.7315,174.0236 C343.5815,174.6356 344.0305,175.3936 344.2055,176.0846 C344.9165,175.8206 345.6525,175.6086 346.3295,175.2756 C346.8295,175.0286 347.2515,174.6236 347.7275,174.2736 C348.7385,176.5846 347.8575,178.2076 345.5495,178.4486 C343.9825,178.6126 342.3595,178.5336 340.8515,178.9136 C339.1235,179.3476 337.8155,178.3876 336.8525,177.5586 C334.9215,175.8976 333.2475,173.8746 331.7365,171.8036 C330.0655,169.5126 330.1245,166.6736 329.8975,163.9666 C329.8895,163.8766 329.8955,163.7846 329.9005,163.6936 C329.9575,162.8156 329.6715,161.5496 330.1395,161.1366 C331.2745,160.1346 332.7195,159.4406 334.1265,158.8176 C334.5645,158.6246 335.2785,159.0606 335.9615,159.2326" id="Fill-65"></path>
                    <path d="M323.4859,35.7067 C322.7519,34.7057 321.9969,33.5867 321.1499,32.5437 C320.0269,31.1597 320.6209,29.5137 320.3759,27.9997 C320.2489,27.2087 320.3149,26.3657 320.4279,25.5657 C320.4819,25.1857 320.7739,24.7387 321.0929,24.5167 C321.7959,24.0267 322.5549,23.5947 323.3429,23.2587 C325.6239,22.2887 327.9109,21.3277 330.2379,20.4797 C330.7399,20.2977 331.5199,20.4417 332.0009,20.7257 C333.3579,21.5277 334.7089,22.3847 335.8909,23.4157 C336.4369,23.8917 336.5879,24.8227 336.9129,25.5487 C337.7169,27.3417 338.5819,29.1117 339.3049,30.9367 C339.9929,32.6677 337.5539,36.5687 335.7569,36.9687 C332.6739,37.6537 329.6019,38.1447 326.4309,37.6517 C325.1599,37.4547 324.0089,37.1857 323.4859,35.7067" id="Fill-67"></path>
                    <path d="M275.7896,155.1662 C274.7836,153.7932 273.4516,152.5512 272.8416,151.0202 C271.7416,148.2612 270.1986,145.3602 271.5166,142.3182 C272.0996,140.9722 273.4096,139.8172 274.6356,138.9072 C275.8726,137.9892 277.4046,137.4612 278.8306,136.8142 C279.1126,136.6862 279.5606,136.6712 279.8306,136.8072 C282.4526,138.1252 284.4346,140.0512 286.0896,142.5382 C287.7916,145.0972 288.0726,148.0202 289.0036,150.7712 C289.1116,151.0912 288.8566,151.7372 288.5636,151.9542 C287.0276,153.0902 285.5356,154.3922 283.8126,155.1412 C282.1296,155.8742 280.2016,156.1272 278.3526,156.3772 C276.7766,156.5892 276.7586,156.4542 275.7896,155.1662" id="Fill-69"></path>
                    <path d="M461.8941,246.9992 C462.3361,247.1632 462.7041,247.3812 463.0901,247.4242 C463.7771,247.4992 464.4751,247.4682 465.1691,247.4812 C465.0811,246.7122 465.1881,245.8482 464.8681,245.1912 C463.8941,243.2002 462.7721,241.2792 461.6731,239.3512 C461.1881,238.4982 461.1651,237.8342 461.9171,237.0552 C463.1151,235.8122 464.1671,234.4322 465.2991,233.1242 C465.4581,232.9412 465.7031,232.7552 465.9301,232.7202 C467.6891,232.4492 469.4671,231.9732 471.2121,232.0662 C472.1551,232.1162 473.3731,232.9552 473.8951,233.7942 C475.3501,236.1322 476.5081,238.6552 477.7801,241.1072 C477.8611,241.2652 477.9931,241.4502 477.9671,241.6002 C477.6261,243.5912 477.2701,245.5782 476.9031,247.5632 C476.4151,250.2002 474.6851,251.4342 472.1521,251.8012 C470.5181,252.0372 468.8911,252.3332 467.2651,252.6212 C466.4801,252.7612 465.9341,252.5652 465.3901,251.8982 C464.7161,251.0732 463.9191,250.2592 463.0041,249.7442 C461.8241,249.0812 461.5751,248.2412 461.8941,246.9992" id="Fill-71"></path>
                    <path d="M69.3658,222.3518 C70.5858,224.0158 71.8378,225.6578 72.9948,227.3628 C73.1958,227.6588 73.1578,228.3298 72.9538,228.6508 C71.8668,230.3628 70.6208,231.9758 69.5738,233.7098 C68.8888,234.8448 68.1158,235.5458 66.7298,235.6908 C64.8368,235.8868 62.9718,236.3738 61.0788,236.5628 C60.3968,236.6308 59.6378,236.2598 58.9628,235.9758 C58.2838,235.6918 57.6098,235.3338 57.0398,234.8768 C56.6798,234.5898 56.3378,234.0798 56.2918,233.6368 C55.8868,229.7198 55.5378,225.7968 55.1978,221.8738 C55.1188,220.9648 55.3218,220.0018 54.4348,219.3178 C54.3498,219.2518 54.5668,218.7958 54.6438,218.5208 C54.9698,218.6688 55.4908,218.7438 55.5798,218.9798 C55.7648,219.4718 55.6308,220.0798 55.7968,220.5828 C55.9588,221.0748 56.2608,221.7868 56.6308,221.8768 C57.1208,221.9978 58.0898,221.7608 58.2378,221.4148 C58.8948,219.8748 60.4748,218.8708 60.6258,217.0268 C60.6818,216.3338 61.3678,216.0048 62.0848,216.4738 C63.3698,217.3148 64.6758,218.1318 65.9008,219.0548 C67.0478,219.9168 68.1008,220.9038 69.1968,221.8338 C69.3318,221.9488 69.4738,222.0548 69.6128,222.1648 C69.5298,222.2278 69.4478,222.2898 69.3658,222.3518" id="Fill-73"></path>
                    <path d="M449.2252,258.0119 C449.3702,258.2399 449.5722,258.4169 449.5402,258.5289 C449.2042,259.7159 449.9672,260.0219 450.8632,260.2399 C452.5902,260.6599 453.7582,261.7649 454.7942,263.1709 C455.9922,264.7959 457.3352,266.3219 458.7022,267.8119 C459.3482,268.5169 459.8682,269.1709 459.7152,270.1849 C459.6412,270.6729 459.6392,271.1729 459.6172,271.6669 C459.5162,273.8679 459.5082,273.8349 457.4592,274.4169 C456.6432,274.6489 455.8922,275.1019 455.0892,275.3939 C450.5442,277.0439 446.6492,275.2829 443.8492,271.8079 C442.6462,270.3159 441.8182,268.5189 440.8352,266.8509 C440.3282,265.9899 439.4122,265.0609 439.4972,264.2479 C439.5732,263.5309 440.8952,263.0189 441.4652,262.2639 C443.0392,260.1799 445.1052,259.3479 447.6622,259.3119 C448.1482,259.3059 448.6242,258.5339 449.2252,258.0119" id="Fill-75"></path>
                    <path d="M0.1998,130.9787 C0.1458,130.0397 -0.1282,128.9187 0.0728,127.8907 C0.3358,126.5467 0.9048,125.2457 1.4698,123.9827 C2.3508,122.0057 3.3168,120.0637 4.3038,118.1357 C4.4838,117.7837 4.9008,117.3927 5.2668,117.3207 C7.6428,116.8597 10.0348,117.0287 12.0908,118.2877 C13.0418,118.8697 13.4948,120.2267 14.2638,121.1567 C14.6858,121.6657 15.2968,122.0187 15.8218,122.4427 C16.0958,121.8767 16.3728,121.3117 16.6418,120.7437 C16.6928,120.6377 16.7198,120.5197 16.8488,120.1307 C17.3848,121.9087 18.0408,123.3357 17.2848,125.0327 C16.9158,125.8607 16.9528,126.8867 16.8838,127.8287 C16.7748,129.2947 16.2898,130.5277 15.0748,131.4447 C14.4638,131.9057 14.0038,132.5957 13.3518,132.9627 C12.6138,133.3797 11.7488,133.5937 10.9168,133.8177 C9.7018,134.1447 8.4778,134.4717 7.2388,134.6747 C5.3268,134.9877 3.5128,135.0477 2.3358,132.9657 C1.9058,132.2067 1.0108,131.7097 0.1998,130.9787" id="Fill-77"></path>
                    <path d="M356.9312,72.0134 C357.6682,73.6174 358.4912,75.2244 359.1512,76.8964 C359.8862,78.7594 360.5182,80.6684 361.0932,82.5874 C361.2192,83.0084 361.0732,83.6954 360.7852,84.0254 C359.4282,85.5784 357.7962,86.7394 355.7532,87.2904 C354.9382,87.5114 354.2082,88.0504 353.3922,88.2754 C352.8142,88.4354 351.9632,88.5704 351.5682,88.2724 C349.6602,86.8384 347.8002,85.3214 346.0692,83.6794 C345.5742,83.2094 345.3722,82.2264 345.3712,81.4784 C345.3682,79.6854 345.6662,77.8914 345.6392,76.1004 C345.6252,75.1564 345.1232,74.2284 344.9552,73.2734 C344.8182,72.4914 344.6142,71.5854 344.8842,70.9144 C345.0762,70.4424 345.9852,70.1154 346.6232,69.9994 C347.9552,69.7584 349.3192,69.6864 350.6722,69.5754 C351.0662,69.5434 351.4872,69.5494 351.8642,69.6514 C353.0232,69.9684 354.2012,70.2634 355.3052,70.7224 C355.8932,70.9664 356.3462,71.5344 356.9312,72.0134" id="Fill-79"></path>
                    <path d="M400.938,16.091 C399.908,16.847 398.891,17.621 397.834,18.338 C397.675,18.446 397.317,18.339 397.083,18.25 C393.748,16.985 390.443,15.637 387.08,14.457 C385.122,13.77 383.98,11.479 384.105,9.621 C384.225,7.849 384.806,6.06 383.987,4.283 C383.922,4.143 384.469,3.484 384.78,3.445 C386.89,3.181 388.659,2.072 390.577,1.318 C392.568,0.535 394.557,1.355 396.46,2.062 C397.076,2.291 397.679,2.591 398.226,2.952 C398.534,3.155 398.795,3.515 398.941,3.862 C399.372,4.885 399.754,5.93 400.117,6.981 C400.626,8.456 401.143,9.93 401.572,11.43 C401.804,12.246 401.824,13.121 402.005,13.955 C402.223,14.959 401.971,15.741 400.938,16.091" id="Fill-81"></path>
                    <path d="M402.0406,93.3508 C402.2866,94.5648 402.6736,96.3128 402.9566,98.0778 C402.9876,98.2758 402.4686,98.7418 402.1576,98.7898 C398.0516,99.4328 393.9466,100.1128 389.8166,100.5598 C388.8446,100.6658 387.7726,99.9678 386.7696,99.5818 C386.5686,99.5058 386.3756,99.1838 386.3366,98.9478 C385.7346,95.3178 384.4456,91.7678 385.0276,87.9958 C385.1446,87.2408 385.2276,86.4788 385.3666,85.7288 C385.4036,85.5318 385.5616,85.2518 385.7236,85.2008 C386.9206,84.8238 388.1276,84.4728 389.3446,84.1638 C389.6836,84.0778 390.1026,84.2648 390.4226,84.1508 C393.2566,83.1368 394.7256,85.0558 396.2776,86.8198 C398.0616,88.8468 399.8506,90.8698 402.0406,93.3508" id="Fill-84"></path>
                    <path d="M312.6695,173.9602 C313.9735,175.6092 315.2815,177.2552 316.5715,178.9152 C316.6965,179.0762 316.7675,179.3252 316.764591,179.5322 C316.7515,180.2962 316.7315,181.0632 316.6535,181.8232 C316.2065,186.2302 315.8025,186.6882 310.9895,188.4242 C309.6525,188.9062 308.6135,188.9032 307.5845,187.9612 C306.6785,187.1322 305.5145,186.4502 304.9245,185.4362 C303.7105,183.3462 302.7555,181.0992 301.7835,178.8762 C300.7415,176.4962 301.4885,174.0692 301.8095,171.6762 C301.9395,170.7072 302.7695,170.5942 303.6025,170.6382 C305.1445,170.7212 306.7085,171.0922 308.1345,170.0402 C308.3675,169.8692 309.0695,170.0352 309.3515,170.2802 C310.6005,171.3722 311.7755,172.5492 312.9785,173.6952 C312.8755,173.7832 312.7735,173.8722 312.6695,173.9602" id="Fill-86"></path>
                    <path d="M374.0757,269.0188 C374.9357,268.2548 375.7667,267.6718 376.4027,266.9228 C378.0277,265.0068 380.1057,265.1958 382.2137,265.5618 C383.3687,265.7618 384.4987,266.1128 385.6347,266.4168 C387.8277,267.0048 388.3437,268.9718 389.0997,270.7158 C389.4917,271.6188 389.7007,272.6018 390.1157,273.4918 C390.7987,274.9518 390.6567,277.3368 389.4107,278.2128 C388.3507,278.9588 386.9827,279.2848 385.7257,279.7258 C384.6167,280.1158 383.4607,280.3678 382.3497,280.7518 C380.8957,281.2568 379.8177,280.6148 378.7967,279.7148 C377.6827,278.7348 376.5707,277.7518 375.4587,276.7708 C374.6797,276.0848 373.7337,275.5128 373.1777,274.6798 C372.7407,274.0278 372.6027,273.0398 372.6617,272.2238 C372.7507,270.9798 372.4807,269.4508 374.0757,269.0188" id="Fill-88"></path>
                    <path d="M379.6002,300.507 C380.8082,300.176 382.0652,299.645 383.3602,299.527 C384.9582,299.381 386.3732,299.734 387.3112,301.447 C388.1392,302.961 389.4922,304.179 390.5282,305.59 C391.3822,306.754 392.1212,308.004 392.8902,309.231 C392.9952,309.398 393.0782,309.767 392.9962,309.834 C391.6382,310.971 391.6042,313.13 389.7182,313.899 C388.0802,314.567 386.5602,315.399 384.6652,314.897 C383.6782,314.635 382.5992,314.702 381.5612,314.652 C380.5302,314.6 375.9592,311.128 375.7782,310.1 C375.5342,308.721 375.4252,307.316 375.3132,305.918 C375.2902,305.64 375.4452,305.285 375.6332,305.065 C376.8852,303.59 378.1682,302.144 379.6002,300.507" id="Fill-90"></path>
                    <path d="M328.3082,102.8523 C327.3922,99.6353 326.7552,96.6243 325.6502,93.7973 C324.9312,91.9593 326.3252,90.8043 326.4112,89.2853 C326.4162,89.1843 326.7772,89.0613 326.9862,89.0213 C329.0142,88.6363 331.0452,88.2683 333.0742,87.8903 C335.2352,87.4873 337.3622,88.4503 338.0512,90.4943 C339.0842,93.5583 340.4902,96.5663 340.3992,99.8983 C340.3742,100.7683 340.0972,101.7853 339.5772,102.4563 C338.1082,104.3523 336.2262,105.2663 333.9322,104.1643 C333.0022,103.7173 331.9822,103.4183 330.9722,103.1903 C330.0132,102.9733 329.0132,102.9353 328.3082,102.8523" id="Fill-92"></path>
                    <path d="M309.0279,93.7956 C310.1359,95.3076 311.2409,96.8056 312.3359,98.3116 C312.5159,98.5606 312.7289,98.8236 312.7979,99.1116 C313.4029,101.6496 313.9729,104.1956 314.5659,106.7376 C314.9389,108.3416 314.6049,108.8366 313.0799,109.5246 C312.1449,109.9456 311.3739,110.7196 310.4529,111.1846 C308.4749,112.1806 306.6499,111.2026 304.8409,110.5446 C303.6529,110.1116 302.2569,109.7756 301.4279,108.9316 C300.0149,107.4906 300.0619,105.3826 299.7809,103.4616 C299.5649,101.9846 300.2989,100.8146 300.9459,99.6676 C301.7189,98.2956 302.6559,96.9906 303.6839,95.7976 C304.1089,95.3046 304.9409,95.1306 305.6169,94.8916 C306.7699,94.4836 307.9449,94.1396 309.0279,93.7956" id="Fill-94"></path>
                    <path d="M444.7974,229.6535 C445.6364,230.0825 446.5324,230.5415 447.2164,230.8905 C446.3264,232.3165 445.2644,233.6065 444.6604,235.0845 C443.6814,237.4825 441.6174,237.8975 439.5264,238.5115 C436.9634,239.2645 435.3114,237.6015 433.4874,236.4125 C432.5164,235.7775 431.7214,234.8735 430.7464,234.2435 C429.9454,233.7255 429.8034,233.1325 430.0064,232.2975 C430.2814,231.1695 430.4944,230.0775 431.4864,229.2315 C432.2194,228.6075 432.6854,227.6725 433.2834,226.8855 C433.4164,226.7105 433.6034,226.4545 433.7724,226.4485 C434.7124,226.4155 435.6674,226.5495 436.5934,226.4325 C437.7694,226.2855 438.2794,226.9805 438.8744,227.7725 C439.2694,228.2995 439.8404,228.7325 440.4064,229.0875 C441.4334,229.7295 442.4924,230.3315 443.5864,230.8485 C444.0094,231.0495 444.5634,230.9735 445.0574,231.0235 C444.9714,230.5715 444.8864,230.1185 444.7974,229.6535" id="Fill-96"></path>
                    <path d="M379.1734,224.424 C379.0294,224.249 378.9204,224.022 378.7384,223.907 C377.0504,222.841 377.2824,220.814 376.4374,219.328 C376.3544,219.183 376.3204,218.961 376.3614,218.8 C376.8594,216.828 377.1504,214.758 377.9904,212.943 C378.3484,212.172 379.8514,211.896 380.8684,211.483 C381.3144,211.302 381.8484,211.293 382.3434,211.288 C383.3234,211.278 383.9754,211.622 384.4054,212.66 C385.1824,214.53 386.1974,216.299 387.0944,218.12 C387.2454,218.428 387.3584,218.778 387.3884,219.118 C387.4934,220.326 387.5534,221.539 387.6364,222.749 C387.6824,223.432 387.8174,224.1 386.9104,224.433 C386.6654,224.523 386.6044,225.09 386.4414,225.431 C386.2204,225.893 386.0694,226.424 385.7364,226.789 C384.7224,227.91 383.5734,228.163 382.2834,227.153 C381.1994,226.306 380.0724,225.514 378.9644,224.696 C379.0334,224.606 379.1044,224.515 379.1734,224.424" id="Fill-98"></path>
                    <path d="M258.1568,171.3029 C259.1658,173.2199 260.7328,174.9769 260.2208,177.3839 C260.1518,177.7119 259.7978,178.1149 259.4818,178.2309 C258.0578,178.7469 256.5038,178.9649 255.5898,180.4279 C255.4088,180.7169 254.9098,180.9089 254.5348,180.9539 C252.2958,181.2239 250.1198,179.7879 248.7638,177.9479 C247.4828,176.2069 247.3138,174.3439 248.1258,172.7359 C248.8468,171.3069 250.3788,170.2259 251.7058,169.1889 C252.4158,168.6349 253.5188,168.1189 254.3238,168.2639 C255.4098,168.4589 256.4278,169.2379 257.3738,169.9069 C257.7668,170.1839 257.9038,170.8259 258.1568,171.3029" id="Fill-100"></path>
                </g>
            </g>
        </g>
    </g>
</svg>