<?xml version="1.0" encoding="UTF-8"?>
<svg width="166px" height="60px" viewBox="0 0 166 60" version="1.1" xmlns="http://www.w3.org/2000/svg" xmlns:xlink="http://www.w3.org/1999/xlink">
    <!-- Generator: Sketch 58 (84663) - https://sketch.com -->
    <title>Logo-Full</title>
    <desc>Created with Sketch.</desc>
    <defs>
        <polygon id="path-1" points="0.0596294118 0.0354569444 31 0.0354569444 31 41.8251653 0.0596294118 41.8251653"></polygon>
        <polygon id="path-3" points="0.61722 0.359214545 8.47422 0.359214545 8.47422 9 0.61722 9"></polygon>
        <polygon id="path-5" points="0.573250909 0.223371429 8.95012364 0.223371429 8.95012364 12 0.573250909 12"></polygon>
        <polygon id="path-7" points="0.3276 0.358821818 8.70447273 0.358821818 8.70447273 9 0.3276 9"></polygon>
        <polygon id="path-9" points="0.24350625 0.172716923 5.77513125 0.172716923 5.77513125 10.2666667 0.24350625 10.2666667"></polygon>
        <polygon id="path-11" points="0 58.9727584 166 58.9727584 166 0 0 0"></polygon>
        <polygon id="path-13" points="0 58.9727584 166 58.9727584 166 0 0 0"></polygon>
        <polygon id="path-15" points="0 58.9727584 166 58.9727584 166 0 0 0"></polygon>
    </defs>
    <g id="Design" stroke="none" stroke-width="1" fill="none" fill-rule="evenodd">
        <g id="My-Sunshine-Landing-v1" transform="translate(-1173.000000, -5706.000000)">
            <g id="Group-17" transform="translate(100.000000, 5576.000000)">
                <g id="Logo-Full" transform="translate(1073.000000, 130.000000)">
                    <path d="M25.5996426,18.9689373 C23.6466581,16.3137875 20.41253,14.2886104 16.572673,14.2886104 C10.4421241,14.2886104 6.39857055,19.3876839 6.39857055,25.1167302 C6.39857055,30.9847411 10.7780446,35.9448501 16.9103803,35.9448501 C20.1427215,35.9448501 23.4447485,34.2680109 25.5996426,31.2645232 L25.5996426,18.9689373 Z M16.033056,42.2334605 C13.204534,42.2334605 10.2384276,41.3959673 8.08353342,40.0674659 C3.3002401,37.1325341 0,31.6832698 0,25.1167302 C0,18.5501907 3.36813892,13.0305177 8.14964543,10.0955858 C10.3063264,8.76893733 12.9347256,8 15.8990452,8 C19.4690938,8 22.9051315,9.11912807 25.8015523,11.7038692 C25.8015523,10.0437057 27.0987772,8.69852861 28.6979731,8.69852861 L32,8.69852861 L32,40.1378747 C32,45.0275749 31.394271,48.3108447 30.1131275,50.8955858 C27.554414,55.9965123 22.7032218,59 16.4368753,59 C8.21754425,59 3.03043163,54.6698638 1.00954827,51.3847411 C3.3163214,49.1631608 6.81847116,48.8185286 9.41828131,50.6602725 C11.1765034,51.9035422 13.3439053,52.7113896 16.1688536,52.7113896 C19.6048914,52.7113896 22.2976157,51.3847411 23.8503546,48.9408174 C24.9939137,47.1231608 25.5996426,44.6088283 25.5996426,40.4862125 L25.5996426,38.6704087 C23.0391423,40.9753678 19.806801,42.2334605 16.033056,42.2334605 L16.033056,42.2334605 Z" id="Fill-1" fill="#000000" fill-rule="nonzero"></path>
                    <path d="M46.0333974,21.8374107 L64.0356123,21.8374107 C63.0526899,17.6748214 59.2552894,14.7599047 55.3180043,14.7599047 C51.0263449,14.7599047 47.1599347,17.6048928 46.0333974,21.8374107 L46.0333974,21.8374107 Z M45.4701288,27.3875298 C45.822638,32.8695605 50.3940666,37.2419355 56.1610421,37.2419355 C58.6006295,37.2419355 60.488139,36.6622646 62.0026228,35.8231219 C64.5988809,34.385906 67.8572594,34.8698853 70.0152124,36.8941329 C67.5532436,40.016995 62.8419304,43 56.0920324,43 C46.4567815,43 39,35.7844772 39,26 C39,16.2173631 45.7536283,9 55.1053797,9 C64.3191117,9 71,16.35538 71,26 C71,26.277874 71,26.7636934 70.9291251,27.3875298 L45.4701288,27.3875298 Z" id="Fill-3" fill="#000000" fill-rule="nonzero"></path>
                    <path d="M97,42.2951739 C95.7172855,42.7195652 93.652474,43 91.7293468,43 C87.5260481,43 84.391993,41.5193043 82.2535058,39.1225217 C80.260481,36.937 79.5482816,33.9064348 79.5482816,30.3112609 L79.5482816,15.1546957 L71,15.1546957 L71,9.16273913 L79.5482816,9.16273913 L79.5482816,0 L86.3151202,0 L86.3151202,9.16273913 L97,9.16273913 C97,12.4718696 94.2872194,15.1546957 90.9453607,15.1546957 L86.3151202,15.1546957 L86.3151202,30.6646087 C86.3151202,32.4257391 86.4568045,33.9064348 87.3125772,34.8935652 C88.2382475,36.020913 90.1613747,36.6546957 91.9409286,36.6546957 L91.9711545,36.6546957 C94.158759,36.649087 96.0667732,38.1223043 96.539054,40.234913 L97,42.2951739 Z" id="Fill-5" fill="#000000" fill-rule="nonzero"></path>
                    <path d="M130,35.3681732 C127.287823,39.8788092 121.442804,43 115.461255,43 C105.372694,43 98,35.6460622 98,26.0009202 C98,16.3557781 105.234317,9 115.04428,9 C120.747232,9 125.894834,11.8451421 128.957565,16.077889 L124.086716,20.1726116 C122.278598,17.6734506 119.217712,15.2442219 115.04428,15.2442219 C109.129151,15.2442219 104.607011,19.8247903 104.607011,26.0009202 C104.607011,32.3850068 109.201107,36.7557781 115.461255,36.7557781 C117.887454,36.7557781 119.916974,36.0306901 121.599631,34.9044114 C123.983395,33.3070095 127.077491,33.2517997 129.402214,34.9338566 L130,35.3681732 Z" id="Fill-7" fill="#000000" fill-rule="nonzero"></path>
                    <g id="Group-11" transform="translate(135.000000, 0.000000)">
                        <g id="Fill-9-Clipped">
                            <mask id="mask-2" fill="white">
                                <use xlink:href="#path-1"></use>
                            </mask>
                            <g id="path-1"></g>
                            <path d="M6.59151176,11.9444986 C8.37857059,10.4113042 11.6098647,8.39229028 16.0793353,8.39229028 C20.8241588,8.39229028 25.0875706,10.6218875 27.8356294,14.1740958 C29.8998647,16.8211653 31.0012765,20.1627903 31.0012765,25.8042069 L31.0012765,41.8251653 C27.3925118,41.8251653 24.4675706,38.8622208 24.4675706,35.2084153 L24.4675706,25.4569292 C24.4675706,21.2785125 23.7126294,19.3278458 22.5419235,17.8648458 C21.0302176,15.9141792 18.5556882,14.6617625 15.8732765,14.6617625 C11.6098647,14.6617625 8.51715882,16.9597069 6.59151176,19.3278458 L6.59151176,41.8251653 L0.0596294118,41.8251653 L0.0596294118,0.0354569444 L6.59151176,0.0354569444 L6.59151176,11.9444986 Z" id="Fill-9" fill="#000000" fill-rule="nonzero" mask="url(#mask-2)"></path>
                        </g>
                    </g>
                    <path d="M45.6564885,48.566347 C45.5381679,48.5329415 45.2805344,48.499536 45.0572519,48.499536 C44.5935115,48.499536 44.0973282,48.6999691 43.8225191,49.0507269 C43.5992366,49.3346737 43.5133588,49.7336839 43.5133588,50.4500464 L43.5133588,51.1664089 L46,51.1664089 L46,52.584287 L43.5133588,52.584287 L43.5133588,59 L41.8854962,59 L41.8854962,52.584287 L40,52.584287 L40,51.1664089 L41.8854962,51.1664089 L41.8854962,50.5001547 C41.8854962,49.4515929 42.0400763,48.8001856 42.4007634,48.299103 C42.9828244,47.4843798 43.9427481,47 45.0400763,47 C45.3816794,47 45.7748092,47.0501083 46,47.1169193 L45.6564885,48.566347 Z" id="Fill-12" fill="#000000" fill-rule="nonzero"></path>
                    <g id="Group-16" transform="translate(50.000000, 51.000000)">
                        <g id="Fill-14-Clipped">
                            <mask id="mask-4" fill="white">
                                <use xlink:href="#path-3"></use>
                            </mask>
                            <g id="path-3"></g>
                            <path d="M4.54482,7.41259636 C5.95062,7.41259636 6.93702,6.19710545 6.93702,4.67921455 C6.93702,3.16328727 5.95062,1.94583273 4.54482,1.94583273 C3.13902,1.94583273 2.15262,3.16328727 2.15262,4.67921455 C2.15262,6.19710545 3.13902,7.41259636 4.54482,7.41259636 M4.54482,0.359214545 C6.79122,0.359214545 8.47422,2.21092364 8.47422,4.67921455 C8.47422,7.14946909 6.79122,9.00117818 4.54482,9.00117818 C2.29842,9.00117818 0.61722,7.14946909 0.61722,4.67921455 C0.61722,2.21092364 2.29842,0.359214545 4.54482,0.359214545" id="Fill-14" fill="#000000" fill-rule="nonzero" mask="url(#mask-4)"></path>
                        </g>
                    </g>
                    <path d="M66.6856492,57.6839907 C66.2232346,57.0844548 66,56.3178654 66,55 L66,51 L67.5130347,51 L67.5130347,55.25058 C67.5130347,56.05058 67.672488,56.4849188 67.9417869,56.8171694 C68.2748671,57.2329466 68.8170084,57.500232 69.3892685,57.500232 C70.312326,57.500232 71.0599848,56.9174014 71.4905087,56.3828306 L71.4905087,51 L73,51 L73,58.8348028 L71.536573,58.8348028 L71.536573,58.1164733 C71.2034928,58.45058 70.3761073,59 69.3414325,59 C68.2748671,59 67.3057454,58.5006961 66.6856492,57.6839907" id="Fill-17" fill="#000000" fill-rule="nonzero"></path>
                    <path d="M80.6352388,51.9167247 C81.0806731,51.5177453 81.9339272,51 83.1435288,51 C84.3709478,51 85.4716654,51.532591 86.1843603,52.3825099 C86.714922,53.0171654 87,53.8169798 87,55.1660868 L87,59 L85.3113091,59 L85.3113091,55.0844352 C85.3113091,54.0823475 85.1172977,53.6165623 84.8124227,53.2676873 C84.4224202,52.8000464 83.7829745,52.4994201 83.088097,52.4994201 C81.9873794,52.4994201 81.1875773,53.0505683 80.6886909,53.6165623 L80.6886909,59 L79,59 L79,51.1670146 L80.6352388,51.1670146 L80.6352388,51.9167247 Z" id="Fill-19" fill="#000000" fill-rule="nonzero"></path>
                    <g id="Group-23" transform="translate(92.000000, 48.000000)">
                        <g id="Fill-21-Clipped">
                            <mask id="mask-6" fill="white">
                                <use xlink:href="#path-5"></use>
                            </mask>
                            <g id="path-5"></g>
                            <path d="M7.27317818,6.55283571 C6.76066909,5.93172857 5.91630545,5.45633571 4.91092364,5.45633571 C3.30466909,5.45633571 2.24626909,6.65119286 2.24626909,7.99358571 C2.24626909,9.36694286 3.39303273,10.5271929 4.99928727,10.5271929 C5.84365091,10.5271929 6.70961455,10.1355857 7.27317818,9.43251429 L7.27317818,6.55283571 Z M7.32619636,11.1337286 C6.65659636,11.6892643 5.75725091,12.0007286 4.76954182,12.0007286 C4.02925091,12.0007286 3.25361455,11.8040143 2.68808727,11.49255 C1.43528727,10.8058714 0.573250909,9.53087143 0.573250909,7.99358571 C0.573250909,6.45447857 1.45296,5.16308571 2.70576,4.47640714 C3.27128727,4.16494286 3.95856,3.98462143 4.73419636,3.98462143 C5.63354182,3.98462143 6.53288727,4.24690714 7.27317818,4.81883571 L7.27317818,0.223371429 L8.95012364,0.223371429 L8.95012364,11.8368 L7.32619636,11.8368 L7.32619636,11.1337286 Z" id="Fill-21" fill="#000000" fill-rule="nonzero" mask="url(#mask-6)"></path>
                        </g>
                    </g>
                    <g id="Group-26" transform="translate(107.000000, 51.000000)">
                        <g id="Fill-24-Clipped">
                            <mask id="mask-8" fill="white">
                                <use xlink:href="#path-7"></use>
                            </mask>
                            <g id="path-7"></g>
                            <path d="M7.02949091,3.12754909 C6.51698182,2.45794909 5.67065455,1.94544 4.66527273,1.94544 C3.06098182,1.94544 2.00061818,3.23358545 2.00061818,4.68078545 C2.00061818,6.16136727 3.14738182,7.41220364 4.75363636,7.41220364 C5.59996364,7.41220364 6.46396364,6.99002182 7.02949091,6.23205818 L7.02949091,3.12754909 Z M7.08054545,8.06609455 C6.41290909,8.66500364 5.51356364,9.00078545 4.52389091,9.00078545 C3.7836,9.00078545 3.00796364,8.78871273 2.4444,8.45293091 C1.1916,7.71264 0.3276,6.33809455 0.3276,4.68078545 C0.3276,3.02151273 1.20927273,1.62929455 2.46207273,0.889003636 C3.02563636,0.553221818 3.71487273,0.358821818 4.48854545,0.358821818 C5.42323636,0.358821818 6.32454545,0.641585455 7.08054545,1.29351273 L7.08054545,0.535549091 L8.70447273,0.535549091 L8.70447273,8.82405818 L7.08054545,8.82405818 L7.08054545,8.06609455 Z" id="Fill-24" fill="#000000" fill-rule="nonzero" mask="url(#mask-8)"></path>
                        </g>
                    </g>
                    <g id="Group-29" transform="translate(122.000000, 49.000000)">
                        <g id="Fill-27-Clipped">
                            <mask id="mask-10" fill="white">
                                <use xlink:href="#path-9"></use>
                            </mask>
                            <g id="path-9"></g>
                            <path d="M5.77513125,10.1013733 C5.50175625,10.200881 5.06300625,10.2672195 4.65294375,10.2672195 C3.76025625,10.2672195 3.09200625,9.91894256 2.63806875,9.35690838 C2.21450625,8.8427853 2.06263125,8.13148957 2.06263125,7.28935966 L2.06263125,3.72919556 L0.24350625,3.72919556 L0.24350625,2.32318872 L2.06263125,2.32318872 L2.06263125,0.172716923 L3.50206875,0.172716923 L3.50206875,2.32318872 L5.77513125,2.32318872 L5.77513125,3.72919556 L3.50206875,3.72919556 L3.50206875,7.37044 C3.50206875,7.78505538 3.53244375,8.13148957 3.71300625,8.36367419 C3.91213125,8.62902803 4.32050625,8.77644684 4.69850625,8.77644684 C4.91113125,8.77644684 5.27394375,8.74512034 5.48656875,8.67878188 L5.77513125,10.1013733 Z" id="Fill-27" fill="#000000" fill-rule="nonzero" mask="url(#mask-10)"></path>
                        </g>
                    </g>
                    <g id="Fill-30-Clipped" transform="translate(0.000000, 1.000000)">
                        <mask id="mask-12" fill="white">
                            <use xlink:href="#path-11"></use>
                        </mask>
                        <g id="path-11"></g>
                        <path d="M134.703467,58.8094498 L136.278622,58.8094498 L136.278622,51.0642177 L134.703467,51.0642177 L134.703467,58.8094498 Z M135.483667,47.273256 C136.062822,47.273256 136.525778,47.7356579 136.525778,48.3118254 C136.525778,48.8879928 136.062822,49.3338804 135.483667,49.3338804 C134.902667,49.3338804 134.454467,48.8879928 134.454467,48.3118254 C134.454467,47.7356579 134.902667,47.273256 135.483667,47.273256 L135.483667,47.273256 Z" id="Fill-30" fill="#000000" fill-rule="nonzero" mask="url(#mask-12)"></path>
                    </g>
                    <g id="Fill-32-Clipped" transform="translate(0.000000, 1.000000)">
                        <mask id="mask-14" fill="white">
                            <use xlink:href="#path-13"></use>
                        </mask>
                        <g id="path-11"></g>
                        <path d="M146.960169,57.4894024 C148.40068,57.4894024 149.411436,56.3535818 149.411436,54.9351823 C149.411436,53.5186177 148.40068,52.3809622 146.960169,52.3809622 C145.519658,52.3809622 144.508902,53.5186177 144.508902,54.9351823 C144.508902,56.3535818 145.519658,57.4894024 146.960169,57.4894024 M146.960169,50.8983402 C149.262036,50.8983402 150.984747,52.6286775 150.984747,54.9351823 C150.984747,57.243522 149.262036,58.9738593 146.960169,58.9738593 C144.658302,58.9738593 142.933747,57.243522 142.933747,54.9351823 C142.933747,52.6286775 144.658302,50.8983402 146.960169,50.8983402" id="Fill-32" fill="#000000" fill-rule="nonzero" mask="url(#mask-14)"></path>
                    </g>
                    <g id="Fill-33-Clipped" transform="translate(0.000000, 1.000000)">
                        <mask id="mask-16" fill="white">
                            <use xlink:href="#path-15"></use>
                        </mask>
                        <g id="path-11"></g>
                        <path d="M159.167071,51.8044278 C159.582071,51.4099182 160.375182,50.8979732 161.502138,50.8979732 C162.645693,50.8979732 163.671204,51.4245976 164.335204,52.2649947 C164.83136,52.8925402 165.09696,53.6833943 165.09696,55.0173871 L165.09696,58.8083488 L163.521804,58.8083488 L163.521804,54.9366502 C163.521804,53.945789 163.341049,53.485222 163.058849,53.1402555 C162.693649,52.6778536 162.097893,52.3805952 161.452338,52.3805952 C160.426827,52.3805952 159.679827,52.9255689 159.216871,53.485222 L159.216871,58.8083488 L157.64356,58.8083488 L157.64356,51.0631167 L159.167071,51.0631167 L159.167071,51.8044278 Z" id="Fill-33" fill="#000000" fill-rule="nonzero" mask="url(#mask-16)"></path>
                    </g>
                </g>
            </g>
        </g>
    </g>
</svg>