<?xml version="1.0" encoding="UTF-8"?>
<svg width="187px" height="59px" viewBox="0 0 187 59" version="1.1" xmlns="http://www.w3.org/2000/svg" xmlns:xlink="http://www.w3.org/1999/xlink">
    <!-- Generator: Sketch 58 (84663) - https://sketch.com -->
    <title>Black Logo</title>
    <desc>Created with Sketch.</desc>
    <g id="Design" stroke="none" stroke-width="1" fill="none" fill-rule="evenodd">
        <g id="My-Sunshine-Landing-v1" transform="translate(-52.000000, -37.000000)" fill="#000000" fill-rule="nonzero">
            <g id="Group" transform="translate(52.000000, 37.000000)">
                <g id="Black-Logo">
                    <path d="M83.26,24.24 C81.5762021,24.211975 80.0099637,25.1004036 79.17,26.56 C78.4990591,25.1086862 77.0283015,24.1963446 75.43,24.24 C73.8683979,24.2298742 72.4276367,25.0789628 71.68,26.45 L71.68,25.26 C71.7156668,24.9287579 71.5590382,24.6062351 71.276655,24.4294495 C70.9942718,24.2526639 70.6357282,24.2526639 70.353345,24.4294495 C70.0709618,24.6062351 69.9143332,24.9287579 69.95,25.26 L69.95,35.35 C69.9473278,35.5824661 70.0378072,35.8063317 70.2012544,35.9716576 C70.3647016,36.1369835 70.5875185,36.2300154 70.82,36.23 C71.0524597,36.2328805 71.2759548,36.1404232 71.438441,35.9741583 C71.6009272,35.8078933 71.6882229,35.582332 71.68,35.35 L71.68,29.48 C71.5999135,28.5593257 71.9014303,27.6461601 72.5139933,26.9541908 C73.1265563,26.2622214 73.9964092,25.8521731 74.92,25.82 C76.76,25.82 77.92,27.1 77.92,29.28 L77.92,35.35 C77.9146394,35.5798072 78.0015022,35.8021959 78.161202,35.9675322 C78.3209018,36.1328684 78.5401451,36.2273896 78.77,36.23 C79.0042102,36.2327079 79.2296184,36.1408637 79.395241,35.975241 C79.5608637,35.8096184 79.6527079,35.5842102 79.65,35.35 L79.65,29.42 C79.65,27.12 81.09,25.82 82.84,25.82 C84.59,25.82 85.84,27.08 85.84,29.33 L85.84,35.33 C85.8043332,35.6612421 85.9609618,35.9837649 86.243345,36.1605505 C86.5257282,36.3373361 86.8842718,36.3373361 87.166655,36.1605505 C87.4490382,35.9837649 87.6056668,35.6612421 87.57,35.33 L87.57,28.9 C87.57,26 85.93,24.24 83.26,24.24 Z" id="Path"></path>
                    <path d="M98.81,24.38 C98.4186141,24.3852843 98.0789445,24.6512905 97.98,25.03 L94.38,34.18 L90.38,25.05 C90.2686405,24.6555906 89.9098219,24.3823992 89.5,24.38 C89.2701928,24.3746394 89.0478041,24.4615022 88.8824678,24.621202 C88.7171316,24.7809018 88.6226104,25.0001451 88.62,25.23 C88.6265116,25.3965575 88.6673655,25.5599733 88.74,25.71 L93.55,36 L93.46,36.18 C92.83,37.6 92.2,38.25 91.12,38.25 C90.6915591,38.2571993 90.2651528,38.1895158 89.86,38.05 C89.7271178,37.9931836 89.5844954,37.9626217 89.44,37.96 C89.0313093,37.96 88.7,38.2913093 88.7,38.7 C88.7040121,39.0365047 88.9207585,39.3335275 89.24,39.44 C89.8513227,39.6662321 90.4981606,39.781376 91.15,39.7800122 C92.9,39.7800122 94.02,38.9 95.04,36.5 L99.58,25.66 C99.6300046,25.5215931 99.6603012,25.376843 99.67,25.23 C99.6645222,24.758945 99.2810869,24.3799682 98.81,24.38 Z" id="Path"></path>
                    <path d="M107,27.39 C103.54,26.65 102.73,25.82 102.73,24.33 L102.73,24.33 C102.73,22.91 104.04,21.79 106.08,21.79 C107.552074,21.7763166 108.985838,22.258935 110.15,23.16 C110.301771,23.267553 110.484019,23.3236293 110.67,23.32 C110.897177,23.3200157 111.114908,23.229091 111.274604,23.0675157 C111.434301,22.9059404 111.522673,22.6871617 111.52,22.46 C111.51069,22.1743613 111.370567,21.9088641 111.14,21.74 C109.694315,20.6772381 107.933328,20.1313322 106.14,20.19 C103.14,20.19 100.97,22.01 100.97,24.49 L100.97,24.49 C100.97,27.08 102.63,28.25 106.25,29.03 C109.56,29.73 110.34,30.56 110.34,32.03 L110.34,32.03 C110.34,33.58 108.95,34.7 106.84,34.7 C104.995441,34.7503594 103.203191,34.0836425 101.84,32.84 C101.693639,32.7032633 101.500286,32.6280705 101.3,32.63 C101.068406,32.6299374 100.846575,32.7232845 100.684706,32.8889176 C100.522838,33.0545508 100.434614,33.2784686 100.44,33.51 C100.436757,33.7782988 100.563415,34.0316147 100.78,34.19 C102.465551,35.5842772 104.592754,36.3323436 106.78,36.3 C109.9,36.3 112.15,34.55 112.15,31.85 L112.15,31.85 C112.12,29.44 110.5,28.16 107,27.39 Z" id="Path"></path>
                    <path d="M123,24.3799347 C122.76754,24.3771195 122.544045,24.4695768 122.381559,24.6358417 C122.219073,24.8021067 122.131777,25.027668 122.14,25.26 L122.14,31.15 C122.198664,32.1042539 121.856391,33.0396893 121.195716,33.7307398 C120.535042,34.4217903 119.615926,34.8057382 118.66,34.79 C116.61,34.79 115.44,33.44 115.44,31.28 L115.44,25.28 C115.442672,25.0475339 115.352193,24.8236683 115.188746,24.6583424 C115.025298,24.4930165 114.802481,24.3999846 114.57,24.4 C114.33754,24.3971195 114.114045,24.4895768 113.951559,24.6558417 C113.789073,24.8221067 113.701777,25.047668 113.71,25.28 L113.71,31.73 C113.71,34.49 115.35,36.38 118.16,36.38 C119.812443,36.4289569 121.354666,35.5537452 122.16,34.11 L122.16,35.37 C122.124526,35.6975407 122.27929,36.0165616 122.5585,36.1914414 C122.83771,36.3663213 123.19229,36.3663213 123.4715,36.1914414 C123.75071,36.0165616 123.905474,35.6975407 123.87,35.37 L123.87,25.26 C123.875443,25.0267234 123.785862,24.8012486 123.621811,24.6353121 C123.45776,24.4693756 123.233324,24.3772233 123,24.3799347 Z" id="Path"></path>
                    <path d="M131.81,24.24 C130.157557,24.1910431 128.615334,25.0662548 127.81,26.51 L127.81,25.26 C127.815443,25.0267234 127.725862,24.8012486 127.561811,24.6353121 C127.39776,24.4693756 127.173324,24.3772233 126.94,24.38 C126.709257,24.382637 126.489014,24.4768362 126.327729,24.6418715 C126.166444,24.8069069 126.077333,25.0292572 126.079942,25.26 L126.079942,35.35 C126.077292,35.5842102 126.169136,35.8096184 126.334759,35.975241 C126.500382,36.1408637 126.72579,36.2327079 126.96,36.2300582 C127.190729,36.2300582 127.411604,36.1364841 127.571901,35.9705295 C127.732198,35.8045748 127.818143,35.5805857 127.81,35.35 L127.81,29.46 C127.748078,28.5031857 128.09065,27.5643199 128.754226,26.8722245 C129.417801,26.180129 130.341428,25.7983735 131.3,25.82 C133.3,25.82 134.51,27.17 134.51,29.33 L134.51,35.33 C134.507292,35.5642102 134.599136,35.7896184 134.764759,35.955241 C134.930382,36.1208637 135.15579,36.2127079 135.39,36.21 C135.619855,36.2073896 135.839098,36.1128684 135.998798,35.9475322 C136.158498,35.7821959 136.245361,35.5598072 136.24,35.33 L136.24,28.9 C136.26,26.13 134.62,24.24 131.81,24.24 Z" id="Path"></path>
                    <path d="M142.6,29.48 C141.05,29.01 139.6,28.58 139.6,27.48 L139.6,27.48 C139.6,26.48 140.48,25.79 141.85,25.79 C142.909603,25.8339566 143.941181,26.1434299 144.85,26.69 C144.968767,26.7468472 145.098352,26.7775385 145.23,26.78 C145.437669,26.7857094 145.638403,26.7050252 145.784352,26.5571809 C145.930301,26.4093366 146.008388,26.2075781 146,26 C145.997351,25.702566 145.837602,25.4287111 145.58,25.28 C144.44144,24.6539262 143.168973,24.3109433 141.87,24.28 C139.57,24.28 137.87,25.61 137.87,27.61 L137.87,27.61 C137.87,29.75 139.87,30.38 141.71,30.89 C143.24,31.32 144.61,31.77 144.61,32.89 L144.61,32.89 C144.61,34.02 143.61,34.74 142.21,34.74 C140.882538,34.7114299 139.595328,34.2788714 138.52,33.5 C138.39518,33.4099153 138.243822,33.3641557 138.09,33.37 C137.891082,33.3673301 137.699253,33.4437984 137.556722,33.5825791 C137.41419,33.7213598 137.332635,33.911082 137.33,34.11 C137.330733,34.3565497 137.445108,34.5889887 137.64,34.74 C138.954291,35.6626018 140.514473,36.171054 142.12,36.2 C144.43,36.2 146.26,34.92 146.26,32.71 L146.26,32.71 C146.34,30.72 144.4,30 142.6,29.48 Z" id="Path"></path>
                    <path d="M153.66,24.24 C152.007557,24.1910431 150.465334,25.0662548 149.66,26.51 L149.66,20.51 C149.695667,20.1787579 149.539038,19.8562351 149.256655,19.6794495 C148.974272,19.5026639 148.615728,19.5026639 148.333345,19.6794495 C148.050962,19.8562351 147.894333,20.1787579 147.93,20.51 L147.93,35.39 C147.927292,35.6242102 148.019136,35.8496184 148.184759,36.015241 C148.350382,36.1808637 148.57579,36.2727079 148.81,36.2700582 C149.040729,36.2700582 149.261604,36.1764841 149.421901,36.0105295 C149.582198,35.8445748 149.668143,35.6205857 149.66,35.39 L149.66,29.5 C149.598078,28.5431857 149.94065,27.6043199 150.604226,26.9122245 C151.267801,26.220129 152.191428,25.8383735 153.15,25.86 C155.15,25.86 156.36,27.21 156.36,29.37 L156.36,35.37 C156.357292,35.6042102 156.449136,35.8296184 156.614759,35.995241 C156.780382,36.1608637 157.00579,36.2527079 157.24,36.25 C157.469855,36.2473896 157.689098,36.1528684 157.848798,35.9875322 C158.008498,35.8221959 158.095361,35.5998072 158.09,35.37 L158.09,28.9 C158.11,26.13 156.47,24.24 153.66,24.24 Z" id="Path"></path>
                    <path d="M161.22,24.379939 C160.989257,24.382637 160.769014,24.4768362 160.607729,24.6418715 C160.446444,24.8069069 160.357333,25.0292572 160.36,25.26 L160.36,35.35 C160.357292,35.5842102 160.449136,35.8096184 160.614759,35.975241 C160.780382,36.1408637 161.00579,36.2327079 161.24,36.2300582 C161.470729,36.2300582 161.691604,36.1364841 161.851901,35.9705295 C162.012198,35.8045748 162.098143,35.5805857 162.09,35.35 L162.09,25.26 C162.095443,25.0267234 162.005862,24.8012486 161.841811,24.6353121 C161.67776,24.4693756 161.453324,24.3772233 161.22,24.379939 L161.22,24.379939 Z" id="Path"></path>
                    <path d="M170.23,24.24 C168.577557,24.1910431 167.035334,25.0662548 166.23,26.51 L166.23,25.26 C166.265667,24.9287579 166.109038,24.6062351 165.826655,24.4294495 C165.544272,24.2526639 165.185728,24.2526639 164.903345,24.4294495 C164.620962,24.6062351 164.464333,24.9287579 164.5,25.26 L164.5,35.35 C164.497292,35.5842102 164.589136,35.8096184 164.754759,35.975241 C164.920382,36.1408637 165.14579,36.2327079 165.38,36.23 C165.610729,36.2301438 165.831604,36.1364841 165.991901,35.9705295 C166.152198,35.8045748 166.238143,35.5805857 166.23,35.35 L166.23,29.46 C166.168078,28.5031857 166.51065,27.5643199 167.174226,26.8722245 C167.837801,26.180129 168.761428,25.7983735 169.72,25.82 C171.72,25.82 172.93,27.17 172.93,29.33 L172.93,35.33 C172.894333,35.6612421 173.050962,35.9837649 173.333345,36.1605505 C173.615728,36.3373361 173.974272,36.3373361 174.256655,36.1605505 C174.539038,35.9837649 174.695667,35.6612421 174.66,35.33 L174.66,28.9 C174.68,26.13 173,24.24 170.23,24.24 Z" id="Path"></path>
                    <path d="M187,30.13 C187,27.05 185.05,24.24 181.61,24.24 C178.39,24.24 176.03,26.94 176.03,30.29 L176.03,30.29 C175.970026,31.8641808 176.555173,33.3946395 177.650057,34.5272783 C178.744941,35.6599172 180.254691,36.296593 181.83,36.29 C183.472818,36.3413766 185.06305,35.7074574 186.22,34.54 C186.523757,34.2638576 186.546142,33.7937566 186.27,33.49 C185.993858,33.1862434 185.523757,33.1638576 185.22,33.44 C184.324653,34.3135502 183.120864,34.7986593 181.87,34.79 C179.662129,34.8072775 177.845192,33.0569762 177.78,30.85 L186.18,30.85 C186.600004,30.8625921 186.958169,30.5481052 187,30.13 Z M177.79,29.66 C178.01,27.39 179.54,25.66 181.56,25.66 C183.88,25.66 185.09,27.5 185.27,29.66 L177.79,29.66 Z" id="Shape"></path>
                    <path d="M58.82,29.69 C58.82,25.2 52.82,23.14 48.14,22.21 L48,22 C50.67,18 53.43,12.35 50.26,9.17 C47.09,5.99 41.42,8.76 37.44,11.44 L37.18,11.33 C36.26,6.63 34.18,0.66 29.71,0.66 C25.24,0.66 23.1,6.83 22.19,11.58 C18.19,8.86 12.39,5.95 9.19,9.17 C5.99,12.39 8.88,18.17 11.59,22.17 C6.85,23.07 0.68,25.17 0.68,29.69 C0.68,34.21 6.85,36.3 11.59,37.2 C8.87,41.2 5.96,47.01 9.19,50.2 C10.1653867,51.1525172 11.4874276,51.6654402 12.85,51.62 C15.85,51.62 19.48,49.62 22.22,47.79 C23.13,52.54 25.22,58.71 29.74,58.71 C34.26,58.71 36.36,52.54 37.26,47.79 C40,49.66 43.6,51.62 46.63,51.62 C47.9925724,51.6654402 49.3146133,51.1525172 50.29,50.2 C53.52,46.97 50.61,41.15 47.89,37.2 C52.64,36.3 58.82,34.25 58.82,29.69 Z M37.7,32.94 L37.77,33.01 L37.77,33.01 C36.5245283,32.9776344 35.3204857,33.4585283 34.44,34.34 L34.44,34.34 C33.5634959,35.2237531 33.0834862,36.4255821 33.11,37.67 L33.11,37.67 L33.05,37.6 C32.2037981,36.7051983 31.026555,36.1982097 29.795,36.1982097 C28.563445,36.1982097 27.3862019,36.7051983 26.54,37.6 L26.47,37.67 L26.47,37.67 C26.5011831,36.4247401 26.0204686,35.2211467 25.14,34.34 L25.14,34.34 C24.2512715,33.438846 23.0247808,32.9526042 21.76,33 L21.76,33 L21.82,32.93 C22.7201801,32.0867819 23.2309715,30.9084266 23.2309715,29.675 C23.2309715,28.4415734 22.7201801,27.2632181 21.82,26.42 L21.76,26.36 C23.005875,26.3838691 24.2079112,25.9001669 25.09,25.02 L25.09,25.02 C25.9704686,24.1388533 26.4511831,22.9352599 26.42,21.69 L26.42,21.69 L26.49,21.76 C27.3362019,22.6548017 28.513445,23.1617903 29.745,23.1617903 C30.976555,23.1617903 32.1537981,22.6548017 33,21.76 L33.06,21.69 L33.06,21.69 C33.0415734,22.9289761 33.5248613,24.1227693 34.4,25 L34.4,25 C35.283202,25.8846803 36.4902532,26.3689464 37.74,26.34 C37.74,26.34 37.74,26.34 37.74,26.34 L37.67,26.4 C36.7698199,27.2432181 36.2590285,28.4215734 36.2590285,29.655 C36.2590285,30.8884266 36.7698199,32.0667819 37.67,32.91 L37.7,32.94 Z M46.7,12.72 C46.78,13.66 45.93,16.72 42.22,21.46 L42.14,21.46 C41.14,21.4 40.14,21.37 39.21,21.36 L38.07,21.36 L38.07,21 L38.07,21 L38.07,20.63 C38.07,19.53 38.07,18.41 37.96,17.29 L37.96,17.23 C42.67,13.5 45.77,12.64 46.71,12.72 L46.7,12.72 Z M29.7,5.72 C30.42,6.32 32.01,9.13 32.7,15.06 C31.85,15.82 31.02,16.59 30.23,17.39 L29.95,17.66 C29.84,17.77 29.77,17.83 29.69,17.92 C29.51,17.74 29.34,17.56 29.16,17.39 C28.37,16.6 27.54,15.82 26.68,15.06 C27.44,9.11 29,6.3 29.75,5.7 L29.7,5.72 Z M12.7,12.72 C13.65,12.66 16.7,13.5 21.44,17.2 C21.36,18.35 21.33,19.49 21.33,20.6 L21.33,21.36 C19.98,21.36 18.59,21.36 17.18,21.46 C13.56,16.77 12.71,13.66 12.79,12.72 L12.7,12.72 Z M5.7,29.72 C6.31,29 9.11,27.4 15.05,26.72 C15.81,27.59 16.59,28.42 17.37,29.2 L17.91,29.74 L17.37,30.27 C16.59,31.05 15.81,31.88 15.05,32.75 C9.17,32 6.37,30.4 5.76,29.69 L5.7,29.72 Z M12.7,46.72 C12.62,45.78 13.47,42.67 17.18,37.98 C18.59,38.07 19.98,38.11 21.33,38.08 L21.33,38.84 C21.33,39.96 21.33,41.09 21.44,42.24 C16.83,45.87 13.71,46.72 12.79,46.65 L12.7,46.72 Z M29.7,53.72 C28.98,53.12 27.39,50.31 26.7,44.37 C27.56,43.62 28.39,42.84 29.18,42.06 L29.71,41.51 L30.24,42.05 C31.03,42.84 31.86,43.62 32.72,44.38 C32.06,50.26 30.47,53.07 29.75,53.67 L29.7,53.72 Z M46.7,46.72 C45.76,46.79 42.7,45.94 37.97,42.24 C38.04,41.09 38.08,39.96 38.08,38.84 C38.08,38.59 38.08,38.34 38.08,38.08 C39.43,38.08 40.83,38.08 42.23,37.98 C45.94,42.6 46.79,45.71 46.71,46.65 L46.7,46.72 Z M44.38,32.72 C43.63,31.85 42.85,31.02 42.06,30.23 L41.52,29.71 L42.06,29.17 C42.85,28.39 43.63,27.55 44.38,26.69 C50.32,27.39 53.12,28.99 53.73,29.69 C53.13,30.4 50.33,32 44.39,32.7 L44.38,32.72 Z" id="Shape"></path>
                </g>
            </g>
        </g>
    </g>
</svg>