<svg width="144" height="144" xmlns="http://www.w3.org/2000/svg">
 <!-- Created with Method Draw - http://github.com/duopixel/Method-Draw/ -->

 <g>
  <title>background</title>
  <rect fill="none" id="canvas_background" height="146" width="146" y="-1" x="-1"/>
 </g>
 <g>
  <title>Layer 1</title>
  <!-- Generator: Sketch 58 (84663) - https://sketch.com -->
  <desc transform="matrix(0.06588692334972635,0,0,0.06588692334972635,0,0) ">Created with Sketch.</desc>
  <g canvas-opacity="1" id="svg_18">
   <g fill-rule="evenodd" fill="none" id="svg_9">
    <g fill-rule="nonzero" fill="#000000" id="svg_10">
     <g id="svg_11">
      <g id="svg_12">
       <path canvas="#ffffff" id="svg_16" d="m-542830.807641,1053638.347829c-1.6838,-0.02803 -3.25004,0.8604 -4.09,2.32c-0.67094,-1.45131 -2.1417,-2.36366 -3.74,-2.32c-1.5616,-0.01013 -3.00236,0.83896 -3.75,2.21l0,-1.19c0.03567,-0.33124 -0.12096,-0.65376 -0.40334,-0.83055c-0.28239,-0.17679 -0.64093,-0.17679 -0.92331,0c-0.28239,0.17679 -0.43902,0.49931 -0.40335,0.83055l0,10.09c-0.00267,0.23247 0.08781,0.45633 0.25125,0.62166c0.16345,0.16532 0.38627,0.25836 0.61875,0.25834c0.23246,0.00288 0.45595,-0.08958 0.61844,-0.25584c0.16249,-0.16627 0.24978,-0.39183 0.24156,-0.62416l0,-5.87c-0.08009,-0.92067 0.22143,-1.83384 0.83399,-2.52581c0.61257,-0.69197 1.48242,-1.10202 2.40601,-1.13419c1.84,0 3,1.28 3,3.46l0,6.07c-0.00536,0.22981 0.0815,0.4522 0.2412,0.61753c0.1597,0.16534 0.37895,0.25986 0.6088,0.26247c0.23421,0.00271 0.45962,-0.08914 0.62524,-0.25476c0.16562,-0.16562 0.25747,-0.39103 0.25476,-0.62524l0,-5.93c0,-2.3 1.44,-3.6 3.19,-3.6c1.75,0 3,1.26 3,3.51l0,6c-0.03567,0.33124 0.12096,0.65376 0.40335,0.83055c0.28238,0.17679 0.64092,0.17679 0.92331,0c0.28238,-0.17679 0.43901,-0.49931 0.40334,-0.83055l0,-6.43c0,-2.9 -1.64,-4.66 -4.31,-4.66z"/>
       <path canvas="#ffffff" id="svg_15" d="m-542815.257641,1053638.487829c-0.39139,0.00528 -0.73106,0.27129 -0.83,0.65l-3.6,9.15l-4,-9.13c-0.11136,-0.39441 -0.47018,-0.6676 -0.88,-0.67c-0.22981,-0.00536 -0.4522,0.0815 -0.61753,0.2412c-0.16534,0.1597 -0.25986,0.37895 -0.26247,0.6088c0.00651,0.16656 0.04737,0.32997 0.12,0.48l4.81,10.29l-0.09,0.18c-0.63,1.42 -1.26,2.07 -2.34,2.07c-0.42844,0.0072 -0.85485,-0.06048 -1.26,-0.2c-0.13288,-0.05682 -0.2755,-0.08738 -0.42,-0.09c-0.40869,0 -0.74,0.33131 -0.74,0.74c0.00401,0.3365 0.22076,0.63353 0.54,0.74c0.61132,0.22623 1.25816,0.34138 1.91,0.34001c1.75,0 2.87,-0.88001 3.89,-3.28001l4.54,-10.84c0.05,-0.13841 0.0803,-0.28316 0.09,-0.43c-0.00548,-0.47105 -0.38891,-0.85003 -0.86,-0.85z"/>
       <path canvas="#ffffff" id="Path" d="m-542807.067641,1053641.497829c-3.46,-0.74 -4.27,-1.57 -4.27,-3.06l0,0c0,-1.42 1.31,-2.54 3.35,-2.54c1.47207,-0.01368 2.90584,0.46894 4.07,1.37c0.15177,0.10755 0.33402,0.16363 0.52,0.16c0.22718,0.00002 0.44491,-0.09091 0.6046,-0.25248c0.1597,-0.16158 0.24807,-0.38036 0.2454,-0.60752c-0.00931,-0.28564 -0.14943,-0.55114 -0.38,-0.72c-1.44568,-1.06276 -3.20667,-1.60867 -5,-1.55c-3,0 -5.17,1.82 -5.17,4.3l0,0c0,2.59 1.66,3.76 5.28,4.54c3.31,0.7 4.09,1.53 4.09,3l0,0c0,1.55 -1.39,2.67 -3.5,2.67c-1.84456,0.05036 -3.63681,-0.61636 -5,-1.86c-0.14636,-0.13674 -0.33971,-0.21193 -0.54,-0.21c-0.23159,-0.00006 -0.45342,0.09328 -0.61529,0.25892c-0.16187,0.16563 -0.2501,0.38955 -0.24471,0.62108c-0.00324,0.2683 0.12342,0.52161 0.34,0.68c1.68555,1.39428 3.81275,2.14234 6,2.11c3.12,0 5.37,-1.75 5.37,-4.45l0,0c-0.03,-2.41 -1.65,-3.69 -5.15,-4.46z"/>
       <path canvas="#ffffff" id="Path" d="m-542791.067641,1053638.487759c-0.23246,-0.00281 -0.45596,0.08965 -0.61844,0.25591c-0.16249,0.16627 -0.24978,0.39183 -0.24156,0.62416l0,5.89c0.05866,0.95425 -0.28361,1.88969 -0.94428,2.58074c-0.66068,0.69105 -1.57979,1.075 -2.53572,1.05926c-2.05,0 -3.22,-1.35 -3.22,-3.51l0,-6c0.00267,-0.23247 -0.08781,-0.45633 -0.25125,-0.62166c-0.16345,-0.16532 -0.38627,-0.25836 -0.61875,-0.25834c-0.23246,-0.00288 -0.45595,0.08958 -0.61844,0.25584c-0.16249,0.16627 -0.24978,0.39183 -0.24156,0.62416l0,6.45c0,2.76 1.64,4.65 4.45,4.65c1.65244,0.04896 3.19467,-0.82625 4,-2.27l0,1.26c-0.03547,0.32754 0.11929,0.64656 0.3985,0.82144c0.27921,0.17488 0.63379,0.17488 0.913,0c0.27921,-0.17488 0.43397,-0.4939 0.3985,-0.82144l0,-10.11c0.00544,-0.23328 -0.08414,-0.45875 -0.24819,-0.62469c-0.16405,-0.16593 -0.38849,-0.25809 -0.62181,-0.25538z"/>
       <path canvas="#ffffff" id="Path" d="m-542782.257641,1053638.347829c-1.65244,-0.04896 -3.19467,0.82625 -4,2.27l0,-1.25c0.00544,-0.23328 -0.08414,-0.45875 -0.24819,-0.62469c-0.16405,-0.16593 -0.38849,-0.25809 -0.62181,-0.25531c-0.23074,0.00264 -0.45099,0.09684 -0.61227,0.26187c-0.16129,0.16504 -0.2504,0.38739 -0.24779,0.61813l0,10.09c-0.00265,0.23421 0.0892,0.45962 0.25482,0.62524c0.16562,0.16562 0.39103,0.25747 0.62524,0.25482c0.23073,0 0.4516,-0.09358 0.6119,-0.25953c0.1603,-0.16596 0.24624,-0.38994 0.2381,-0.62053l0,-5.89c-0.06192,-0.95681 0.28065,-1.89568 0.94423,-2.58778c0.66357,-0.69209 1.5872,-1.07385 2.54577,-1.05222c2,0 3.21,1.35 3.21,3.51l0,6c-0.00271,0.23421 0.08914,0.45962 0.25476,0.62524c0.16562,0.16562 0.39103,0.25747 0.62524,0.25476c0.22986,-0.00261 0.4491,-0.09713 0.6088,-0.26247c0.1597,-0.16533 0.24656,-0.38772 0.2412,-0.61753l0,-6.43c0.02,-2.77 -1.62,-4.66 -4.43,-4.66z"/>
       <path canvas="#ffffff" id="Path" d="m-542771.467641,1053643.587829c-1.55,-0.47 -3,-0.9 -3,-2l0,0c0,-1 0.88,-1.69 2.25,-1.69c1.0596,0.04396 2.09118,0.35343 3,0.9c0.11877,0.05685 0.24835,0.08754 0.38,0.09c0.20767,0.00571 0.4084,-0.07497 0.55435,-0.22282c0.14595,-0.14784 0.22404,-0.3496 0.21565,-0.55718c-0.00265,-0.29743 -0.1624,-0.57129 -0.42,-0.72c-1.13856,-0.62607 -2.41103,-0.96906 -3.71,-1c-2.3,0 -4,1.33 -4,3.33l0,0c0,2.14 2,2.77 3.84,3.28c1.53,0.43 2.9,0.88 2.9,2l0,0c0,1.13 -1,1.85 -2.4,1.85c-1.32746,-0.02857 -2.61467,-0.46113 -3.69,-1.24c-0.12482,-0.09008 -0.27618,-0.13584 -0.43,-0.13c-0.19892,-0.00267 -0.39075,0.0738 -0.53328,0.21258c-0.14253,0.13878 -0.22408,0.3285 -0.22672,0.52742c0.00073,0.24655 0.11511,0.47899 0.31,0.63c1.31429,0.9226 2.87447,1.43105 4.48,1.46c2.31,0 4.14,-1.28 4.14,-3.49l0,0c0.08,-1.99 -1.86,-2.71 -3.66,-3.23z"/>
       <path canvas="#ffffff" id="Path" d="m-542760.407641,1053638.347829c-1.65244,-0.04896 -3.19467,0.82625 -4,2.27l0,-6c0.03567,-0.33124 -0.12096,-0.65376 -0.40335,-0.83055c-0.28238,-0.17679 -0.64092,-0.17679 -0.9233,0c-0.28239,0.17679 -0.43902,0.49931 -0.40335,0.83055l0,14.88c-0.00271,0.23421 0.08914,0.45962 0.25476,0.62524c0.16562,0.16562 0.39103,0.25747 0.62524,0.25482c0.23073,0 0.4516,-0.09358 0.6119,-0.25953c0.1603,-0.16596 0.24624,-0.38994 0.2381,-0.62053l0,-5.89c-0.06192,-0.95681 0.28065,-1.89568 0.94423,-2.58778c0.66357,-0.69209 1.5872,-1.07385 2.54577,-1.05222c2,0 3.21,1.35 3.21,3.51l0,6c-0.00271,0.23421 0.08914,0.45962 0.25476,0.62524c0.16562,0.16562 0.39103,0.25747 0.62524,0.25476c0.22985,-0.00261 0.4491,-0.09713 0.6088,-0.26247c0.1597,-0.16533 0.24656,-0.38772 0.2412,-0.61753l0,-6.47c0.02,-2.77 -1.62,-4.66 -4.43,-4.66z"/>
       <path canvas="#ffffff" id="Path" d="m-542752.847641,1053638.487769c-0.23074,0.0027 -0.45099,0.0969 -0.61227,0.26193c-0.16129,0.16504 -0.2504,0.38739 -0.24773,0.61813l0,10.09c-0.00271,0.23421 0.08914,0.45962 0.25476,0.62524c0.16562,0.16562 0.39103,0.25747 0.62524,0.25482c0.23073,0 0.4516,-0.09358 0.6119,-0.25953c0.1603,-0.16596 0.24624,-0.38994 0.2381,-0.62053l0,-10.09c0.00544,-0.23328 -0.08414,-0.45875 -0.24819,-0.62469c-0.16405,-0.16593 -0.38849,-0.25809 -0.62181,-0.25537l0,0z"/>
       <path canvas="#ffffff" id="Path" d="m-542743.837641,1053638.347829c-1.65244,-0.04896 -3.19467,0.82625 -4,2.27l0,-1.25c0.03567,-0.33124 -0.12096,-0.65376 -0.40335,-0.83055c-0.28238,-0.17679 -0.64092,-0.17679 -0.9233,0c-0.28239,0.17679 -0.43902,0.49931 -0.40335,0.83055l0,10.09c-0.00271,0.23421 0.08914,0.45962 0.25476,0.62524c0.16562,0.16562 0.39103,0.25747 0.62524,0.25476c0.23073,0.00014 0.4516,-0.09352 0.6119,-0.25947c0.1603,-0.16596 0.24624,-0.38994 0.2381,-0.62053l0,-5.89c-0.06192,-0.95681 0.28065,-1.89568 0.94423,-2.58778c0.66357,-0.69209 1.5872,-1.07385 2.54577,-1.05222c2,0 3.21,1.35 3.21,3.51l0,6c-0.03567,0.33124 0.12096,0.65376 0.40335,0.83055c0.28238,0.17679 0.64092,0.17679 0.9233,0c0.28239,-0.17679 0.43902,-0.49931 0.40335,-0.83055l0,-6.43c0.02,-2.77 -1.66,-4.66 -4.43,-4.66z"/>
       <path canvas="#ffffff" id="svg_14" d="m-542727.067641,1053644.237829c0,-3.08 -1.95,-5.89 -5.39,-5.89c-3.22,0 -5.58,2.7 -5.58,6.05l0,0c-0.05997,1.57418 0.52517,3.10464 1.62006,4.23728c1.09488,1.13264 2.60463,1.76931 4.17994,1.76272c1.64282,0.05138 3.23305,-0.58254 4.39,-1.75c0.30376,-0.27614 0.32614,-0.74624 0.05,-1.05c-0.27614,-0.30376 -0.74624,-0.32614 -1.05,-0.05c-0.89535,0.87355 -2.09914,1.35866 -3.35,1.35c-2.20787,0.01728 -4.02481,-1.73302 -4.09,-3.94l8.4,0c0.42,0.01259 0.77817,-0.30189 0.82,-0.72zm-9.21,-0.47c0.22,-2.27 1.75,-4 3.77,-4c2.32,0 3.53,1.84 3.71,4l-7.48,0z"/>
       <path canvas="#ffffff" id="svg_13" d="m-542855.247641,1053643.797829c0,-4.49 -6,-6.55 -10.68,-7.48l-0.14,-0.21c2.67,-4 5.43,-9.65 2.26,-12.83c-3.17,-3.18 -8.84,-0.41 -12.82,2.27l-0.26,-0.11c-0.92,-4.7 -3,-10.67 -7.47,-10.67c-4.47,0 -6.61,6.17 -7.52,10.92c-4,-2.72 -9.8,-5.63 -13,-2.41c-3.2,3.22 -0.31,9 2.4,13c-4.74,0.9 -10.91,3 -10.91,7.52c0,4.52 6.17,6.61 10.91,7.51c-2.72,4 -5.63,9.81 -2.4,13c0.97539,0.95252 2.29743,1.46544 3.66,1.42c3,0 6.63,-2 9.37,-3.83c0.91,4.75 3,10.92 7.52,10.92c4.52,0 6.62,-6.17 7.52,-10.92c2.74,1.87 6.34,3.83 9.37,3.83c1.36257,0.04544 2.68461,-0.46748 3.66,-1.42c3.23,-3.23 0.32,-9.05 -2.4,-13c4.75,-0.9 10.93,-2.95 10.93,-7.51zm-21.12,3.25l0.07,0.07l0,0c-1.24547,-0.03237 -2.44951,0.44853 -3.33,1.33l0,0c-0.8765,0.88375 -1.35651,2.08558 -1.33,3.33l0,0l-0.06,-0.07c-0.8462,-0.8948 -2.02345,-1.40179 -3.255,-1.40179c-1.23155,0 -2.4088,0.50699 -3.255,1.40179l-0.07,0.07l0,0c0.03118,-1.24526 -0.44953,-2.44885 -1.33,-3.33l0,0c-0.88873,-0.90115 -2.11522,-1.3874 -3.38,-1.34l0,0l0.06,-0.07c0.90018,-0.84322 1.41097,-2.02157 1.41097,-3.255c0,-1.23343 -0.51079,-2.41178 -1.41097,-3.255l-0.06,-0.06c1.24587,0.02387 2.44791,-0.45983 3.33,-1.34l0,0c0.88047,-0.88115 1.36118,-2.08474 1.33,-3.33l0,0l0.07,0.07c0.8462,0.8948 2.02345,1.40179 3.255,1.40179c1.23156,0 2.4088,-0.50699 3.255,-1.40179l0.06,-0.07l0,0c-0.01843,1.23898 0.46486,2.43277 1.34,3.31l0,0c0.8832,0.88468 2.09025,1.36895 3.34,1.34c0,0 0,0 0,0l-0.07,0.06c-0.90018,0.84322 -1.41097,2.02157 -1.41097,3.255c0,1.23343 0.51079,2.41178 1.41097,3.255l0.03,0.03zm9,-20.22c0.08,0.94 -0.77,4 -4.48,8.74l-0.08,0c-1,-0.06 -2,-0.09 -2.93,-0.1l-1.14,0l0,-0.36l0,0l0,-0.37c0,-1.1 0,-2.22 -0.11,-3.34l0,-0.06c4.71,-3.73 7.81,-4.59 8.75,-4.51l-0.01,0zm-17,-7c0.72,0.6 2.31,3.41 3,9.34c-0.85,0.76 -1.68,1.53 -2.47,2.33l-0.28,0.27c-0.11,0.11 -0.18,0.17 -0.26,0.26c-0.18,-0.18 -0.35,-0.36 -0.53,-0.53c-0.79,-0.79 -1.62,-1.57 -2.48,-2.33c0.76,-5.95 2.32,-8.76 3.07,-9.36l-0.05,0.02zm-17,7c0.95,-0.06 4,0.78 8.74,4.48c-0.08,1.15 -0.11,2.29 -0.11,3.4l0,0.76c-1.35,0 -2.74,0 -4.15,0.1c-3.62,-4.69 -4.47,-7.8 -4.39,-8.74l-0.09,0zm-7,17c0.61,-0.72 3.41,-2.32 9.35,-3c0.76,0.87 1.54,1.7 2.32,2.48l0.54,0.54l-0.54,0.53c-0.78,0.78 -1.56,1.61 -2.32,2.48c-5.88,-0.75 -8.68,-2.35 -9.29,-3.06l-0.06,0.03zm7,17c-0.08,-0.94 0.77,-4.05 4.48,-8.74c1.41,0.09 2.8,0.13 4.15,0.1l0,0.76c0,1.12 0,2.25 0.11,3.4c-4.61,3.63 -7.73,4.48 -8.65,4.41l-0.09,0.07zm17,7c-0.72,-0.6 -2.31,-3.41 -3,-9.35c0.86,-0.75 1.69,-1.53 2.48,-2.31l0.53,-0.55l0.53,0.54c0.79,0.79 1.62,1.57 2.48,2.33c-0.66,5.88 -2.25,8.69 -2.97,9.29l-0.05,0.05zm17,-7c-0.94,0.07 -4,-0.78 -8.73,-4.48c0.07,-1.15 0.11,-2.28 0.11,-3.4c0,-0.25 0,-0.5 0,-0.76c1.35,0 2.75,0 4.15,-0.1c3.71,4.62 4.56,7.73 4.48,8.67l-0.01,0.07zm-2.32,-14c-0.75,-0.87 -1.53,-1.7 -2.32,-2.49l-0.54,-0.52l0.54,-0.54c0.79,-0.78 1.57,-1.62 2.32,-2.48c5.94,0.7 8.74,2.3 9.35,3c-0.6,0.71 -3.4,2.31 -9.34,3.01l-0.01,0.02z"/>
      </g>
     </g>
    </g>
   </g>
  </g>
  <!-- Generator: Sketch 58 (84663) - https://sketch.com -->
  <desc transform="matrix(0.06588692334972635,0,0,0.06588692334972635,0,0) ">Created with Sketch.</desc>
  <g stroke="null" id="svg_36">
   <g transform="matrix(2.4396140800147457,0,0,2.4396140800147457,-2437.828150737844,-2593.6105084373307) " fill-rule="evenodd" fill="none" id="svg_27">
    <g stroke="null" fill-rule="nonzero" fill="#000000" id="svg_28">
     <g stroke="null" id="svg_29">
      <g stroke="null" id="svg_30">
       <path stroke="null" id="svg_34" d="m1082.201284,1087.336313c-1.6838,-0.02803 -3.25004,0.8604 -4.09,2.32c-0.67094,-1.45131 -2.1417,-2.36366 -3.74,-2.32c-1.5616,-0.01013 -3.00236,0.83896 -3.75,2.21l0,-1.19c0.03567,-0.33124 -0.12096,-0.65376 -0.40334,-0.83055c-0.28239,-0.17679 -0.64093,-0.17679 -0.92331,0c-0.28239,0.17679 -0.43902,0.49931 -0.40335,0.83055l0,10.09c-0.00267,0.23247 0.08781,0.45633 0.25125,0.62166c0.16345,0.16532 0.38627,0.25836 0.61875,0.25834c0.23246,0.00288 0.45595,-0.08958 0.61844,-0.25584c0.16249,-0.16627 0.24978,-0.39183 0.24156,-0.62416l0,-5.87c-0.08009,-0.92067 0.22143,-1.83384 0.83399,-2.52581c0.61257,-0.69197 1.48242,-1.10202 2.40601,-1.13419c1.84,0 3,1.28 3,3.46l0,6.07c-0.00536,0.22981 0.0815,0.4522 0.2412,0.61753c0.1597,0.16534 0.37895,0.25986 0.6088,0.26247c0.23421,0.00271 0.45962,-0.08914 0.62524,-0.25476c0.16562,-0.16562 0.25747,-0.39103 0.25476,-0.62524l0,-5.93c0,-2.3 1.44,-3.6 3.19,-3.6c1.75,0 3,1.26 3,3.51l0,6c-0.03567,0.33124 0.12096,0.65376 0.40335,0.83055c0.28238,0.17679 0.64092,0.17679 0.92331,0c0.28238,-0.17679 0.43901,-0.49931 0.40334,-0.83055l0,-6.43c0,-2.9 -1.64,-4.66 -4.31,-4.66z"/>
       <path stroke="null" id="svg_33" d="m1097.751284,1087.476313c-0.39139,0.00528 -0.73106,0.27129 -0.83,0.65l-3.6,9.15l-4,-9.13c-0.11136,-0.39441 -0.47018,-0.6676 -0.88,-0.67c-0.22981,-0.00536 -0.4522,0.0815 -0.61753,0.2412c-0.16534,0.1597 -0.25986,0.37895 -0.26247,0.6088c0.00651,0.16656 0.04737,0.32997 0.12,0.48l4.81,10.29l-0.09,0.18c-0.63,1.42 -1.26,2.07 -2.34,2.07c-0.42844,0.0072 -0.85485,-0.06048 -1.26,-0.2c-0.13288,-0.05682 -0.2755,-0.08738 -0.42,-0.09c-0.40869,0 -0.74,0.33131 -0.74,0.74c0.00401,0.3365 0.22076,0.63353 0.54,0.74c0.61132,0.22623 1.25816,0.34138 1.91,0.34001c1.75,0 2.87,-0.88001 3.89,-3.28001l4.54,-10.84c0.05,-0.13841 0.0803,-0.28316 0.09,-0.43c-0.00548,-0.47105 -0.38891,-0.85003 -0.86,-0.85z"/>
       <path stroke="null" id="Path" d="m1105.941284,1090.486313c-3.46,-0.74 -4.27,-1.57 -4.27,-3.06l0,0c0,-1.42 1.31,-2.54 3.35,-2.54c1.47207,-0.01368 2.90584,0.46894 4.07,1.37c0.15177,0.10755 0.33402,0.16363 0.52,0.16c0.22718,0.00002 0.44491,-0.09091 0.6046,-0.25248c0.1597,-0.16158 0.24807,-0.38036 0.2454,-0.60752c-0.00931,-0.28564 -0.14943,-0.55114 -0.38,-0.72c-1.44568,-1.06276 -3.20667,-1.60867 -5,-1.55c-3,0 -5.17,1.82 -5.17,4.3l0,0c0,2.59 1.66,3.76 5.28,4.54c3.31,0.7 4.09,1.53 4.09,3l0,0c0,1.55 -1.39,2.67 -3.5,2.67c-1.84456,0.05036 -3.63681,-0.61636 -5,-1.86c-0.14636,-0.13674 -0.33971,-0.21193 -0.54,-0.21c-0.23159,-0.00006 -0.45342,0.09328 -0.61529,0.25892c-0.16187,0.16563 -0.2501,0.38955 -0.24471,0.62108c-0.00324,0.2683 0.12342,0.52161 0.34,0.68c1.68555,1.39428 3.81275,2.14234 6,2.11c3.12,0 5.37,-1.75 5.37,-4.45l0,0c-0.03,-2.41 -1.65,-3.69 -5.15,-4.46z"/>
       <path stroke="null" id="Path" d="m1121.941284,1087.476243c-0.23246,-0.00281 -0.45596,0.08965 -0.61844,0.25591c-0.16249,0.16627 -0.24978,0.39183 -0.24156,0.62416l0,5.89c0.05866,0.95425 -0.28361,1.88969 -0.94428,2.58074c-0.66068,0.69105 -1.57979,1.075 -2.53572,1.05926c-2.05,0 -3.22,-1.35 -3.22,-3.51l0,-6c0.00267,-0.23247 -0.08781,-0.45633 -0.25125,-0.62166c-0.16345,-0.16532 -0.38627,-0.25836 -0.61875,-0.25834c-0.23246,-0.00288 -0.45595,0.08958 -0.61844,0.25584c-0.16249,0.16627 -0.24978,0.39183 -0.24156,0.62416l0,6.45c0,2.76 1.64,4.65 4.45,4.65c1.65244,0.04896 3.19467,-0.82625 4,-2.27l0,1.26c-0.03547,0.32754 0.11929,0.64656 0.3985,0.82144c0.27921,0.17488 0.63379,0.17488 0.913,0c0.27921,-0.17488 0.43397,-0.4939 0.3985,-0.82144l0,-10.11c0.00544,-0.23328 -0.08414,-0.45875 -0.24819,-0.62469c-0.16405,-0.16593 -0.38849,-0.25809 -0.62181,-0.25538z"/>
       <path stroke="null" id="Path" d="m1130.751284,1087.336313c-1.65244,-0.04896 -3.19467,0.82625 -4,2.27l0,-1.25c0.00544,-0.23328 -0.08414,-0.45875 -0.24819,-0.62469c-0.16405,-0.16593 -0.38849,-0.25809 -0.62181,-0.25531c-0.23074,0.00264 -0.45099,0.09684 -0.61227,0.26187c-0.16129,0.16504 -0.2504,0.38739 -0.24779,0.61813l0,10.09c-0.00265,0.23421 0.0892,0.45962 0.25482,0.62524c0.16562,0.16562 0.39103,0.25747 0.62524,0.25482c0.23073,0 0.4516,-0.09358 0.6119,-0.25953c0.1603,-0.16596 0.24624,-0.38994 0.2381,-0.62053l0,-5.89c-0.06192,-0.95681 0.28065,-1.89568 0.94423,-2.58778c0.66357,-0.69209 1.5872,-1.07385 2.54577,-1.05222c2,0 3.21,1.35 3.21,3.51l0,6c-0.00271,0.23421 0.08914,0.45962 0.25476,0.62524c0.16562,0.16562 0.39103,0.25747 0.62524,0.25476c0.22986,-0.00261 0.4491,-0.09713 0.6088,-0.26247c0.1597,-0.16533 0.24656,-0.38772 0.2412,-0.61753l0,-6.43c0.02,-2.77 -1.62,-4.66 -4.43,-4.66z"/>
       <path stroke="null" id="Path" d="m1141.541284,1092.576313c-1.55,-0.47 -3,-0.9 -3,-2l0,0c0,-1 0.88,-1.69 2.25,-1.69c1.0596,0.04396 2.09118,0.35343 3,0.9c0.11877,0.05685 0.24835,0.08754 0.38,0.09c0.20767,0.00571 0.4084,-0.07497 0.55435,-0.22282c0.14595,-0.14784 0.22404,-0.3496 0.21565,-0.55718c-0.00265,-0.29743 -0.1624,-0.57129 -0.42,-0.72c-1.13856,-0.62607 -2.41103,-0.96906 -3.71,-1c-2.3,0 -4,1.33 -4,3.33l0,0c0,2.14 2,2.77 3.84,3.28c1.53,0.43 2.9,0.88 2.9,2l0,0c0,1.13 -1,1.85 -2.4,1.85c-1.32746,-0.02857 -2.61467,-0.46113 -3.69,-1.24c-0.12482,-0.09008 -0.27618,-0.13584 -0.43,-0.13c-0.19892,-0.00267 -0.39075,0.0738 -0.53328,0.21258c-0.14253,0.13878 -0.22408,0.3285 -0.22672,0.52742c0.00073,0.24655 0.11511,0.47899 0.31,0.63c1.31429,0.9226 2.87447,1.43105 4.48,1.46c2.31,0 4.14,-1.28 4.14,-3.49l0,0c0.08,-1.99 -1.86,-2.71 -3.66,-3.23z"/>
       <path stroke="null" id="Path" d="m1152.601284,1087.336313c-1.65244,-0.04896 -3.19467,0.82625 -4,2.27l0,-6c0.03567,-0.33124 -0.12096,-0.65376 -0.40335,-0.83055c-0.28238,-0.17679 -0.64092,-0.17679 -0.9233,0c-0.28239,0.17679 -0.43902,0.49931 -0.40335,0.83055l0,14.88c-0.00271,0.23421 0.08914,0.45962 0.25476,0.62524c0.16562,0.16562 0.39103,0.25747 0.62524,0.25482c0.23073,0 0.4516,-0.09358 0.6119,-0.25953c0.1603,-0.16596 0.24624,-0.38994 0.2381,-0.62053l0,-5.89c-0.06192,-0.95681 0.28065,-1.89568 0.94423,-2.58778c0.66357,-0.69209 1.5872,-1.07385 2.54577,-1.05222c2,0 3.21,1.35 3.21,3.51l0,6c-0.00271,0.23421 0.08914,0.45962 0.25476,0.62524c0.16562,0.16562 0.39103,0.25747 0.62524,0.25476c0.22985,-0.00261 0.4491,-0.09713 0.6088,-0.26247c0.1597,-0.16533 0.24656,-0.38772 0.2412,-0.61753l0,-6.47c0.02,-2.77 -1.62,-4.66 -4.43,-4.66z"/>
       <path stroke="null" id="Path" d="m1160.161284,1087.476253c-0.23074,0.0027 -0.45099,0.0969 -0.61227,0.26193c-0.16129,0.16504 -0.2504,0.38739 -0.24773,0.61813l0,10.09c-0.00271,0.23421 0.08914,0.45962 0.25476,0.62524c0.16562,0.16562 0.39103,0.25747 0.62524,0.25482c0.23073,0 0.4516,-0.09358 0.6119,-0.25953c0.1603,-0.16596 0.24624,-0.38994 0.2381,-0.62053l0,-10.09c0.00544,-0.23328 -0.08414,-0.45875 -0.24819,-0.62469c-0.16405,-0.16593 -0.38849,-0.25809 -0.62181,-0.25537l0,0z"/>
       <path stroke="null" id="Path" d="m1169.171284,1087.336313c-1.65244,-0.04896 -3.19467,0.82625 -4,2.27l0,-1.25c0.03567,-0.33124 -0.12096,-0.65376 -0.40335,-0.83055c-0.28238,-0.17679 -0.64092,-0.17679 -0.9233,0c-0.28239,0.17679 -0.43902,0.49931 -0.40335,0.83055l0,10.09c-0.00271,0.23421 0.08914,0.45962 0.25476,0.62524c0.16562,0.16562 0.39103,0.25747 0.62524,0.25476c0.23073,0.00014 0.4516,-0.09352 0.6119,-0.25947c0.1603,-0.16596 0.24624,-0.38994 0.2381,-0.62053l0,-5.89c-0.06192,-0.95681 0.28065,-1.89568 0.94423,-2.58778c0.66357,-0.69209 1.5872,-1.07385 2.54577,-1.05222c2,0 3.21,1.35 3.21,3.51l0,6c-0.03567,0.33124 0.12096,0.65376 0.40335,0.83055c0.28238,0.17679 0.64092,0.17679 0.9233,0c0.28239,-0.17679 0.43902,-0.49931 0.40335,-0.83055l0,-6.43c0.02,-2.77 -1.66,-4.66 -4.43,-4.66z"/>
       <path stroke="null" id="svg_32" d="m1185.941284,1093.226313c0,-3.08 -1.95,-5.89 -5.39,-5.89c-3.22,0 -5.58,2.7 -5.58,6.05l0,0c-0.05997,1.57418 0.52517,3.10464 1.62006,4.23728c1.09488,1.13264 2.60463,1.76931 4.17994,1.76272c1.64282,0.05138 3.23305,-0.58254 4.39,-1.75c0.30376,-0.27614 0.32614,-0.74624 0.05,-1.05c-0.27614,-0.30376 -0.74624,-0.32614 -1.05,-0.05c-0.89535,0.87355 -2.09914,1.35866 -3.35,1.35c-2.20787,0.01728 -4.02481,-1.73302 -4.09,-3.94l8.4,0c0.42,0.01259 0.77817,-0.30189 0.82,-0.72zm-9.21,-0.47c0.22,-2.27 1.75,-4 3.77,-4c2.32,0 3.53,1.84 3.71,4l-7.48,0z"/>
       <path stroke="null" id="svg_31" d="m1057.761284,1092.786313c0,-4.49 -6,-6.55 -10.68,-7.48l-0.14,-0.21c2.67,-4 5.43,-9.65 2.26,-12.83c-3.17,-3.18 -8.84,-0.41 -12.82,2.27l-0.26,-0.11c-0.92,-4.7 -3,-10.67 -7.47,-10.67c-4.47,0 -6.61,6.17 -7.52,10.92c-4,-2.72 -9.8,-5.63 -13,-2.41c-3.2,3.22 -0.31,9 2.4,13c-4.74,0.9 -10.91,3 -10.91,7.52c0,4.52 6.17,6.61 10.91,7.51c-2.72,4 -5.63,9.81 -2.4,13c0.97539,0.95252 2.29743,1.46544 3.66,1.42c3,0 6.63,-2 9.37,-3.83c0.91,4.75 3,10.92 7.52,10.92c4.52,0 6.62,-6.17 7.52,-10.92c2.74,1.87 6.34,3.83 9.37,3.83c1.36257,0.04544 2.68461,-0.46748 3.66,-1.42c3.23,-3.23 0.32,-9.05 -2.4,-13c4.75,-0.9 10.93,-2.95 10.93,-7.51zm-21.12,3.25l0.07,0.07l0,0c-1.24547,-0.03237 -2.44951,0.44853 -3.33,1.33l0,0c-0.8765,0.88375 -1.35651,2.08558 -1.33,3.33l0,0l-0.06,-0.07c-0.8462,-0.8948 -2.02345,-1.40179 -3.255,-1.40179c-1.23155,0 -2.4088,0.50699 -3.255,1.40179l-0.07,0.07l0,0c0.03118,-1.24526 -0.44953,-2.44885 -1.33,-3.33l0,0c-0.88873,-0.90115 -2.11522,-1.3874 -3.38,-1.34l0,0l0.06,-0.07c0.90018,-0.84322 1.41097,-2.02157 1.41097,-3.255c0,-1.23343 -0.51079,-2.41178 -1.41097,-3.255l-0.06,-0.06c1.24587,0.02387 2.44791,-0.45983 3.33,-1.34l0,0c0.88047,-0.88115 1.36118,-2.08474 1.33,-3.33l0,0l0.07,0.07c0.8462,0.8948 2.02345,1.40179 3.255,1.40179c1.23156,0 2.4088,-0.50699 3.255,-1.40179l0.06,-0.07l0,0c-0.01843,1.23898 0.46486,2.43277 1.34,3.31l0,0c0.8832,0.88468 2.09025,1.36895 3.34,1.34c0,0 0,0 0,0l-0.07,0.06c-0.90018,0.84322 -1.41097,2.02157 -1.41097,3.255c0,1.23343 0.51079,2.41178 1.41097,3.255l0.03,0.03zm9,-20.22c0.08,0.94 -0.77,4 -4.48,8.74l-0.08,0c-1,-0.06 -2,-0.09 -2.93,-0.1l-1.14,0l0,-0.36l0,0l0,-0.37c0,-1.1 0,-2.22 -0.11,-3.34l0,-0.06c4.71,-3.73 7.81,-4.59 8.75,-4.51l-0.01,0zm-17,-7c0.72,0.6 2.31,3.41 3,9.34c-0.85,0.76 -1.68,1.53 -2.47,2.33l-0.28,0.27c-0.11,0.11 -0.18,0.17 -0.26,0.26c-0.18,-0.18 -0.35,-0.36 -0.53,-0.53c-0.79,-0.79 -1.62,-1.57 -2.48,-2.33c0.76,-5.95 2.32,-8.76 3.07,-9.36l-0.05,0.02zm-17,7c0.95,-0.06 4,0.78 8.74,4.48c-0.08,1.15 -0.11,2.29 -0.11,3.4l0,0.76c-1.35,0 -2.74,0 -4.15,0.1c-3.62,-4.69 -4.47,-7.8 -4.39,-8.74l-0.09,0zm-7,17c0.61,-0.72 3.41,-2.32 9.35,-3c0.76,0.87 1.54,1.7 2.32,2.48l0.54,0.54l-0.54,0.53c-0.78,0.78 -1.56,1.61 -2.32,2.48c-5.88,-0.75 -8.68,-2.35 -9.29,-3.06l-0.06,0.03zm7,17c-0.08,-0.94 0.77,-4.05 4.48,-8.74c1.41,0.09 2.8,0.13 4.15,0.1l0,0.76c0,1.12 0,2.25 0.11,3.4c-4.61,3.63 -7.73,4.48 -8.65,4.41l-0.09,0.07zm17,7c-0.72,-0.6 -2.31,-3.41 -3,-9.35c0.86,-0.75 1.69,-1.53 2.48,-2.31l0.53,-0.55l0.53,0.54c0.79,0.79 1.62,1.57 2.48,2.33c-0.66,5.88 -2.25,8.69 -2.97,9.29l-0.05,0.05zm17,-7c-0.94,0.07 -4,-0.78 -8.73,-4.48c0.07,-1.15 0.11,-2.28 0.11,-3.4c0,-0.25 0,-0.5 0,-0.76c1.35,0 2.75,0 4.15,-0.1c3.71,4.62 4.56,7.73 4.48,8.67l-0.01,0.07zm-2.32,-14c-0.75,-0.87 -1.53,-1.7 -2.32,-2.49l-0.54,-0.52l0.54,-0.54c0.79,-0.78 1.57,-1.62 2.32,-2.48c5.94,0.7 8.74,2.3 9.35,3c-0.6,0.71 -3.4,2.31 -9.34,3.01l-0.01,0.02z"/>
      </g>
     </g>
    </g>
   </g>
  </g>
 </g>
</svg>