<svg id="Layer_1" data-name="Layer 1" xmlns="http://www.w3.org/2000/svg" viewBox="0 0 101.83 120.38"><title>android</title><path d="M70.78,96.41c0,5.47.11,10.54-.06,15.59a10.82,10.82,0,0,1-1.3,4.94,6.84,6.84,0,0,1-7.74,3.17c-3.44-.94-5.67-3.41-5.81-6.94-.17-4.49-.07-9-.09-13.48v-3.1H46c0,2.12,0,4.17,0,6.21,0,3.41.1,6.83-.06,10.23a7.47,7.47,0,0,1-7.37,7.35,7.65,7.65,0,0,1-7.47-7.53c-.12-4.49-.06-9-.08-13.48,0-.89,0-1.79,0-3-1.62,0-2.93,0-4.23,0-6,0-9.07-3.08-9.09-9.11,0-12.65,0-25.29,0-37.94,0-2.08.15-4.17,0-6.23-.21-2.37.56-3.12,3-3.11,18.23.1,36.46,0,54.69,0,2.25,0,4.5.07,6.75,0,1.5-.06,2.05.51,2.05,2,0,15.39,0,30.78-.07,46.17,0,4.91-3.34,8-8.26,8.15C74.29,96.45,72.72,96.41,70.78,96.41Z"/><path d="M67.47,10.85C77.69,17,84,25.23,84.34,37.45H17.57a26.57,26.57,0,0,1,4.56-15.51,32.38,32.38,0,0,1,12.29-11C32.84,8,31.31,5.36,30,2.61,29.64,1.9,29.92.89,29.91,0c.66.48,1.55.82,1.94,1.46,1.61,2.7,3.07,5.49,4.44,8,4-.85,7.72-1.9,11.49-2.35A31.68,31.68,0,0,1,63.47,9.21c1.46.58,2.28.34,3-1.09,1.16-2.39,2.42-4.74,3.75-7C70.49.57,71.3.35,71.87,0c.09.72.48,1.59.21,2.14C70.66,5,69.08,7.84,67.47,10.85Zm-31.16,9-1.09,0c-.68,1-2,2-1.87,2.88a3.65,3.65,0,0,0,2.31,2.54,2.18,2.18,0,0,0,2.66-2.49C38.18,21.67,37,20.77,36.31,19.8ZM69,23.43l0-1.12c-.94-.71-1.93-2-2.8-1.95s-2.44,1.45-2.46,2.3a3.45,3.45,0,0,0,2.27,2.5C66.92,25.31,68,24.06,69,23.43Z"/><path d="M15,61.85c0,5.07.13,10.15,0,15.21-.17,5.51-4.69,8.88-9.64,7.43A7,7,0,0,1,.09,78q-.16-16.1,0-32.17a7.11,7.11,0,0,1,7.09-7c4-.15,7.46,2.51,7.68,6.6.29,5.47.07,11,.07,16.45Z"/><path d="M101.82,61.74c0,5,0,10,0,14.95s-3.21,8.19-7.55,8.15c-4.17,0-7.36-3.36-7.4-8.07q-.12-15,0-29.91c0-5,3.15-8.14,7.58-8.07S101.77,42,101.81,47,101.82,56.84,101.82,61.74Z"/></svg>