<svg id="Layer_1" data-name="Layer 1" xmlns="http://www.w3.org/2000/svg" viewBox="0 0 98.08 120.39"><title>apple</title><path d="M94.81,40.73C76.37,52.55,78.17,78.79,98.08,88.25c-.48,1.33-.94,2.72-1.48,4.08a71.5,71.5,0,0,1-14.06,22.22c-5.29,5.73-11.8,7.24-18.83,4-8.46-3.94-16.53-3.81-25,0-7.82,3.53-13.35,2.1-19.33-4.78C7.12,99.64.12,83.33,0,64.44c0-8.78,2.14-17,7.67-24C14,32.29,26.55,25.28,40,31.39a21.74,21.74,0,0,0,19.55,0C68.39,27.27,77.37,28,86,32.57A24.33,24.33,0,0,1,94.81,40.73Z"/><path d="M49.08,27.38C45.8,16.35,60-.07,72.7,0,75.27,12.15,62.85,28.88,49.08,27.38Z"/></svg>