<svg id="Layer_1" data-name="Layer 1" xmlns="http://www.w3.org/2000/svg" viewBox="0 0 120.77 120.72"><title>web</title><path d="M60.3,0a60.36,60.36,0,0,1,60.47,60.1c.14,33.06-27.2,60.82-60.46,60.62A60.36,60.36,0,0,1,60.3,0Zm.18,72.11c3.91,0,7.82-.07,11.72,0,1.74,0,2.45-.61,2.45-2.26q0-9.7,0-19.39c0-1.57-.75-2.13-2.34-2.11q-12,.09-23.94,0c-1.43,0-2.28.46-2.29,1.91q0,9.95,0,19.88c0,1.63,1,2,2.47,2C52.5,72.06,56.49,72.11,60.48,72.11Zm26.74.06c6,0,12.15,0,18.27-.07.59,0,1.48-1,1.67-1.63a39.09,39.09,0,0,0,.21-19.89c-.46-1.92-1.28-2.37-3-2.3-3,.1-6,0-9,0H87.22Zm-53.86,0V48.32c-6,0-12,0-17.95.07a2.51,2.51,0,0,0-1.83,1.49,39.43,39.43,0,0,0-.1,20.68c.17.63,1,1.53,1.54,1.54C21.15,72.21,27.29,72.17,33.36,72.17ZM60.29,13.09c-4.35,5.17-10.74,18.68-10.72,22.7H71.28C70.75,31.14,64.61,18,60.29,13.09Zm.09,94.64a78.29,78.29,0,0,0,11.12-23h-22C49.66,88.91,56.11,102.61,60.38,107.73Zm16.54-2.6c9.62-2.41,22.64-14.31,24.36-20.71-5.28,0-10.49-.06-15.69.08-.61,0-1.43,1-1.75,1.78-.82,1.89-1.41,3.89-2.13,5.84C80.13,96.45,78.53,100.77,76.92,105.13ZM19.33,84.41c2,6.78,19.52,21.75,24.21,20.28a1.34,1.34,0,0,0,0-.49C41.24,98.06,39,91.92,36.59,85.81A2.35,2.35,0,0,0,35,84.47C29.86,84.36,24.73,84.41,19.33,84.41Zm57.85-68.7c2.3,6.41,4.53,12.74,6.88,19A2.56,2.56,0,0,0,86,36.06c5,.11,10.08.06,15.16.06C100.32,30.35,83.76,16,77.18,15.71ZM18.9,36.1c5.77,0,10.74.09,15.71-.09.75,0,1.79-1.14,2.13-2,2.14-5.39,4.13-10.84,6.17-16.27.24-.66.44-1.34.8-2.45A48,48,0,0,0,18.9,36.1Z"/></svg>